<?xml version="1.0" encoding="utf-8"?>
<!-- Generator: Adobe Illustrator 21.0.0, SVG Export Plug-In . SVG Version: 6.00 Build 0)  -->
<svg version="1.1" id="Layer_1" xmlns="http://www.w3.org/2000/svg" xmlns:xlink="http://www.w3.org/1999/xlink" x="0px" y="0px"
	 viewBox="0 0 567 349.3" style="enable-background:new 0 0 567 349.3;" xml:space="preserve">
<style type="text/css">
	.st0{fill:#E8E7E1;}
	.st1{fill:#D5D2CA;}
	.st2{fill:#776F6B;}
	.st3{fill:#918982;}
	.st4{fill:#AFA9A0;}
	.st5{fill:#BFB7AE;}
	.st6{fill:#C0BBB2;}
	.st7{fill:#7B726E;}
	.st8{fill:#2E2728;}
	.st9{fill:#756C69;}
	.st10{fill:#D3D0C8;}
	.st11{opacity:0.73;fill:#FFFFFF;enable-background:new    ;}
	.st12{opacity:0.9;fill:#FFFFFF;enable-background:new    ;}
	.st13{opacity:0.8;fill:#211C1D;enable-background:new    ;}
	.st14{opacity:0.3;fill:#070606;enable-background:new    ;}
	.st15{fill:#857C76;}
	.st16{opacity:0.95;fill:#FFFFFF;enable-background:new    ;}
	.st17{enable-background:new    ;}
	.st18{fill:#1F191A;}
	.st19{fill:#FFFFFF;}
</style>
<g id="Layer_2">
</g>
<g id="Layer_1_1_">
</g>
<g id="labels">
	<g>
		<g>
			<g>
				<path class="st0" d="M562.1,349.3H4.9c-2.7,0-4.9-2.2-4.9-5V5c0-2.7,2.2-5,4.9-5h557.2c2.7,0,4.9,2.2,4.9,5v339.3
					C567,347,564.8,349.3,562.1,349.3z"/>
				<path class="st0" d="M562.1,349.3H4.9c-2.7,0-4.9-2.2-4.9-5V5c0-2.7,2.2-5,4.9-5h557.2c2.7,0,4.9,2.2,4.9,5v339.3
					C567,347,564.8,349.3,562.1,349.3z"/>
			</g>
			<g>
				<g>
					<g>
						<g>
							<polygon class="st1" points="401.7,71.6 401.7,71.6 354.5,98.9 307.2,71.6 227.8,117.1 180.6,89.9 180.6,89.8 307.2,17.1 
															"/>
							<path class="st2" d="M192.2,89.9l35.7,20.6L307.3,65l47.2,27.3l35.7-20.6l-82.9-47.9L192.2,89.9z"/>
							<g>
								<g>
									<polygon class="st3" points="180.6,89.8 180.6,187.2 227.8,214.5 227.8,117.1 									"/>
									<polygon class="st4" points="307.2,71.6 307.2,169 227.8,214.5 227.8,117.1 									"/>
									<polygon class="st3" points="307.2,71.6 307.2,169 354.5,196.3 354.5,98.9 									"/>
									<polygon class="st4" points="354.5,196.3 401.7,169 401.7,71.6 354.5,98.9 									"/>
									<path class="st5" d="M354.5,98.9"/>
								</g>
								<g>
									<g>
										<g>
											<polygon class="st0" points="278.1,67.7 295.5,57.7 295.5,63.5 278.1,73.6 											"/>
											<polygon class="st6" points="295.5,57.7 278.1,67.7 260.7,57.7 278.1,47.6 											"/>
										</g>
									</g>
								</g>
							</g>
							<g>
								<g>
									<polygon class="st1" points="395.4,84.6 395.4,91.5 354.5,115.2 307.2,87.9 227.8,133.4 186.7,109.7 186.7,102.8 
										227.8,126.6 307.2,81.1 354.5,108.3 									"/>
								</g>
								<g>
									<g>
										<polygon class="st7" points="395.4,84.6 395.4,89.1 354.5,112.9 307.2,85.6 227.8,131.1 186.7,107.3 186.7,102.8 
											227.8,126.6 307.2,81.1 354.5,108.3 										"/>
									</g>
								</g>
							</g>
							<g>
								<g>
									<polygon class="st1" points="395.4,104.6 395.4,111.5 354.5,135.2 307.2,107.9 227.8,153.4 186.7,129.7 186.7,122.8 
										227.8,146.6 307.2,101.1 354.5,128.3 									"/>
								</g>
								<g>
									<g>
										<polygon class="st7" points="395.4,104.6 395.4,109.1 354.5,132.9 307.2,105.6 227.8,151.1 186.7,127.3 186.7,122.8 
											227.8,146.6 307.2,101.1 354.5,128.3 										"/>
									</g>
								</g>
							</g>
							<g>
								<g>
									<polygon class="st1" points="395.4,124.6 395.4,131.5 354.5,155.2 307.2,127.9 227.8,173.4 186.7,149.7 186.7,142.8 
										227.8,166.6 307.2,121.1 354.5,148.3 									"/>
								</g>
								<g>
									<g>
										<polygon class="st7" points="395.4,124.6 395.4,129.1 354.5,152.9 307.2,125.6 227.8,171.1 186.7,147.3 186.7,142.8 
											227.8,166.6 307.2,121.1 354.5,148.3 										"/>
									</g>
								</g>
							</g>
						</g>
						<g>
							<polygon class="st8" points="338.9,152.9 338.9,187.1 321.6,177.1 319.1,175.6 319.1,141.5 							"/>
							<polygon class="st9" points="338.9,155.9 338.9,187.1 321.6,177.1 321.6,145.8 							"/>
						</g>
					</g>
					<polygon class="st10" points="278.1,67.7 278.1,73.6 274.3,71.4 273.7,71.1 265.1,66.1 264.5,65.7 260.7,63.5 260.7,57.7 					
						"/>
				</g>
				<path class="st11" d="M180.6,89.9V139c6.6-3.7,13.4-8,18.5-13.5c13-14.1,11.2-32.2,12.9-49.7c0.3-1.5,0.6-3,0.9-4.5L180.6,89.9z
					"/>
				<path class="st12" d="M179.3,88.7v53c7.6-4.3,14.6-8.4,20.4-14.6c14.9-16.1,12.9-41.5,14-49.6c0.4-5.7,1.8-5.3,1.8-10
					L179.3,88.7z M212,75.7c-1.7,17.5,0.1,35.7-12.9,49.7c-5.1,5.5-11.9,9.8-18.5,13.5V89.8l32.3-18.6
					C212.6,72.7,212.3,74.2,212,75.7z"/>
				<path class="st13" d="M212.9,71.3L212.9,71.3l-32.3,18.6V139l0,0c2-1.1,4-2.3,6-3.6v-28.1l18,10.4c2-3.7,3.3-7.5,4.3-11.5l0,0
					c0.5-2,0.8-4,1.1-6l0,0l-17.9-10.3l19.6-11.3l0,0c0.1-1,0.2-1.9,0.3-2.9c0.1-0.8,0.3-1.6,0.5-2.4
					C212.6,72.7,212.8,72,212.9,71.3z"/>
				<g>
					<path class="st13" d="M208.9,106.2l-28.3-16.4v49.1l0,0c2-1.1,4-2.3,6-3.6v-28.1l18,10.4C206.7,114,208,110.2,208.9,106.2
						L208.9,106.2L208.9,106.2z"/>
					<polygon class="st13" points="212.9,71.3 212.9,71.3 180.6,89.8 					"/>
				</g>
			</g>
			<circle class="st14" cx="369.1" cy="72.4" r="8.9"/>
			<circle class="st15" cx="180.6" cy="90.5" r="8.9"/>
			<path class="st16" d="M383.2,42.6h151.2c3.4,0,6.3,2.8,6.3,6.3v65c0,3.4-2.8,6.3-6.3,6.3H383.2c-3.4,0-6.3-2.8-6.3-6.3V79.1
				l-7.3-5.7L377,67V48.8C377,45.4,379.8,42.6,383.2,42.6z"/>
			<g class="st17">
				<path class="st18" d="M403.3,56.8c-1.5,0-2.6,0.5-3.5,1.5s-1.3,2.3-1.3,4c0,1.8,0.4,3.1,1.2,4.1c0.8,1,2,1.4,3.5,1.4
					c0.9,0,2-0.2,3.2-0.5v1.4c-0.9,0.3-2.1,0.5-3.4,0.5c-2,0-3.5-0.6-4.6-1.8c-1.1-1.2-1.6-2.9-1.6-5.1c0-1.4,0.3-2.6,0.8-3.6
					s1.3-1.8,2.2-2.4c1-0.6,2.1-0.8,3.4-0.8c1.4,0,2.6,0.3,3.7,0.8l-0.7,1.3C405.3,57.1,404.3,56.8,403.3,56.8z"/>
				<path class="st18" d="M417.9,64c0,1.6-0.4,2.9-1.2,3.8c-0.8,0.9-2,1.4-3.4,1.4c-0.9,0-1.7-0.2-2.4-0.6c-0.7-0.4-1.2-1-1.6-1.8
					s-0.6-1.7-0.6-2.8c0-1.6,0.4-2.9,1.2-3.8c0.8-0.9,2-1.4,3.4-1.4s2.5,0.5,3.3,1.4C417.4,61.1,417.9,62.4,417.9,64z M410.2,64
					c0,1.3,0.3,2.3,0.8,2.9c0.5,0.7,1.3,1,2.3,1s1.8-0.3,2.3-1s0.8-1.6,0.8-2.9c0-1.3-0.3-2.2-0.8-2.9s-1.3-1-2.3-1s-1.7,0.3-2.3,1
					S410.2,62.7,410.2,64z"/>
				<path class="st18" d="M427.4,69v-6.5c0-0.8-0.2-1.4-0.6-1.8c-0.4-0.4-1-0.6-1.7-0.6c-1,0-1.8,0.3-2.3,0.9
					c-0.5,0.6-0.7,1.5-0.7,2.8V69h-1.5V59h1.2l0.2,1.4h0.1c0.3-0.5,0.7-0.9,1.3-1.1s1.2-0.4,1.9-0.4c1.2,0,2.1,0.3,2.7,0.9
					c0.6,0.6,0.9,1.5,0.9,2.8V69H427.4z"/>
				<path class="st18" d="M436,69.2c-1.5,0-2.6-0.4-3.4-1.3s-1.2-2.2-1.2-3.8c0-1.7,0.4-3,1.2-3.9c0.8-0.9,2-1.4,3.5-1.4
					c0.5,0,1,0.1,1.4,0.2s0.9,0.2,1.1,0.4l-0.5,1.3c-0.3-0.1-0.7-0.2-1.1-0.3s-0.7-0.1-1.1-0.1c-2,0-3.1,1.3-3.1,3.9
					c0,1.2,0.2,2.2,0.7,2.8c0.5,0.7,1.2,1,2.2,1c0.8,0,1.7-0.2,2.6-0.5v1.3C437.9,69,437.1,69.2,436,69.2z"/>
				<path class="st18" d="M445.5,58.8c0.4,0,0.8,0,1.2,0.1l-0.2,1.4c-0.4-0.1-0.8-0.1-1.1-0.1c-0.8,0-1.5,0.3-2.1,1
					s-0.9,1.5-0.9,2.5V69H441V59h1.3l0.2,1.9h0.1c0.4-0.7,0.8-1.2,1.3-1.5C444.3,59,444.9,58.8,445.5,58.8z"/>
				<path class="st18" d="M452.9,69.2c-1.5,0-2.7-0.5-3.5-1.4c-0.9-0.9-1.3-2.2-1.3-3.8c0-1.6,0.4-2.9,1.2-3.9
					c0.8-1,1.9-1.4,3.2-1.4c1.3,0,2.3,0.4,3,1.2s1.1,1.9,1.1,3.3v1h-6.9c0,1.2,0.3,2.1,0.9,2.7s1.4,0.9,2.4,0.9
					c1.1,0,2.1-0.2,3.2-0.7v1.4c-0.5,0.2-1,0.4-1.5,0.5S453.5,69.2,452.9,69.2z M452.4,60.1c-0.8,0-1.4,0.3-1.9,0.8
					s-0.8,1.3-0.8,2.2h5.2c0-1-0.2-1.7-0.6-2.2C453.8,60.3,453.2,60.1,452.4,60.1z"/>
				<path class="st18" d="M462.4,67.9c0.3,0,0.5,0,0.8-0.1c0.2,0,0.4-0.1,0.6-0.1v1.2c-0.2,0.1-0.4,0.1-0.7,0.2
					c-0.3,0.1-0.6,0.1-0.9,0.1c-1.9,0-2.9-1-2.9-3.1v-6h-1.4v-0.7l1.4-0.6l0.6-2.1h0.9V59h2.9v1.2h-2.9v5.9c0,0.6,0.1,1.1,0.4,1.4
					C461.5,67.8,461.9,67.9,462.4,67.9z"/>
				<path class="st18" d="M470,69.2c-1.5,0-2.7-0.5-3.5-1.4c-0.9-0.9-1.3-2.2-1.3-3.8c0-1.6,0.4-2.9,1.2-3.9c0.8-1,1.9-1.4,3.2-1.4
					c1.3,0,2.3,0.4,3,1.2s1.1,1.9,1.1,3.3v1h-6.9c0,1.2,0.3,2.1,0.9,2.7s1.4,0.9,2.4,0.9c1.1,0,2.1-0.2,3.2-0.7v1.4
					c-0.5,0.2-1,0.4-1.5,0.5S470.7,69.2,470,69.2z M469.6,60.1c-0.8,0-1.4,0.3-1.9,0.8s-0.8,1.3-0.8,2.2h5.2c0-1-0.2-1.7-0.6-2.2
					C471,60.3,470.4,60.1,469.6,60.1z"/>
				<path class="st18" d="M489.8,64c0,1.6-0.4,2.9-1.2,3.8s-2,1.4-3.4,1.4c-0.9,0-1.7-0.2-2.4-0.6c-0.7-0.4-1.2-1-1.6-1.8
					s-0.6-1.7-0.6-2.8c0-1.6,0.4-2.9,1.2-3.8c0.8-0.9,2-1.4,3.4-1.4s2.5,0.5,3.3,1.4C489.4,61.1,489.8,62.4,489.8,64z M482.2,64
					c0,1.3,0.3,2.3,0.8,2.9c0.5,0.7,1.3,1,2.3,1s1.8-0.3,2.3-1s0.8-1.6,0.8-2.9c0-1.3-0.3-2.2-0.8-2.9s-1.3-1-2.3-1s-1.7,0.3-2.3,1
					S482.2,62.7,482.2,64z"/>
				<path class="st18" d="M497.1,58.8c0.4,0,0.8,0,1.2,0.1l-0.2,1.4c-0.4-0.1-0.8-0.1-1.1-0.1c-0.8,0-1.5,0.3-2.1,1
					s-0.9,1.5-0.9,2.5V69h-1.5V59h1.3l0.2,1.9h0.1c0.4-0.7,0.8-1.2,1.3-1.5C495.9,59,496.4,58.8,497.1,58.8z"/>
			</g>
			<g class="st17">
				<path class="st18" d="M402,88c-0.7,0-1.2-0.1-1.8-0.4c-0.5-0.2-1-0.6-1.4-1.1h-0.1c0.1,0.6,0.1,1.1,0.1,1.7v4.1h-1.5V77.8h1.2
					l0.2,1.4h0.1c0.4-0.5,0.8-0.9,1.4-1.2c0.5-0.2,1.1-0.4,1.8-0.4c1.3,0,2.4,0.5,3.1,1.4s1.1,2.2,1.1,3.8c0,1.6-0.4,2.9-1.1,3.8
					C404.4,87.5,403.3,88,402,88z M401.8,78.9c-1,0-1.8,0.3-2.2,0.9s-0.7,1.5-0.7,2.7v0.3c0,1.4,0.2,2.4,0.7,3s1.2,0.9,2.3,0.9
					c0.9,0,1.5-0.4,2-1.1s0.7-1.7,0.7-2.9c0-1.3-0.2-2.2-0.7-2.9C403.4,79.2,402.7,78.9,401.8,78.9z"/>
				<path class="st18" d="M413.4,77.6c0.4,0,0.8,0,1.2,0.1l-0.2,1.4c-0.4-0.1-0.8-0.1-1.1-0.1c-0.8,0-1.5,0.3-2.1,1
					s-0.9,1.5-0.9,2.5v5.4h-1.5v-10h1.3l0.2,1.9h0.1c0.4-0.7,0.8-1.2,1.3-1.5C412.2,77.8,412.8,77.6,413.4,77.6z"/>
				<path class="st18" d="M425.2,82.8c0,1.6-0.4,2.9-1.2,3.8s-2,1.4-3.4,1.4c-0.9,0-1.7-0.2-2.4-0.6c-0.7-0.4-1.2-1-1.6-1.8
					s-0.6-1.7-0.6-2.8c0-1.6,0.4-2.9,1.2-3.8c0.8-0.9,2-1.4,3.4-1.4s2.5,0.5,3.3,1.4C424.8,79.9,425.2,81.2,425.2,82.8z M417.5,82.8
					c0,1.3,0.3,2.3,0.8,2.9c0.5,0.7,1.3,1,2.3,1s1.8-0.3,2.3-1s0.8-1.6,0.8-2.9s-0.3-2.2-0.8-2.9c-0.5-0.7-1.3-1-2.3-1
					s-1.7,0.3-2.3,1S417.5,81.5,417.5,82.8z"/>
				<path class="st18" d="M431.1,86.7c0.3,0,0.5,0,0.8-0.1c0.2,0,0.4-0.1,0.6-0.1v1.2c-0.2,0.1-0.4,0.1-0.7,0.2
					c-0.3,0.1-0.6,0.1-0.9,0.1c-1.9,0-2.9-1-2.9-3.1v-6h-1.4v-0.7l1.4-0.6l0.6-2.1h0.9v2.3h2.9V79h-2.9v5.9c0,0.6,0.1,1.1,0.4,1.4
					C430.2,86.6,430.6,86.7,431.1,86.7z"/>
				<path class="st18" d="M438.7,88c-1.5,0-2.7-0.5-3.5-1.4c-0.9-0.9-1.3-2.2-1.3-3.8c0-1.6,0.4-2.9,1.2-3.9c0.8-1,1.9-1.4,3.2-1.4
					c1.3,0,2.3,0.4,3,1.2c0.7,0.8,1.1,1.9,1.1,3.3v1h-6.9c0,1.2,0.3,2.1,0.9,2.7s1.4,0.9,2.4,0.9c1.1,0,2.1-0.2,3.2-0.7v1.4
					c-0.5,0.2-1,0.4-1.5,0.5C440,87.9,439.4,88,438.7,88z M438.3,78.9c-0.8,0-1.4,0.3-1.9,0.8s-0.8,1.3-0.8,2.2h5.2
					c0-1-0.2-1.7-0.6-2.2S439.1,78.9,438.3,78.9z"/>
				<path class="st18" d="M449,88c-1.5,0-2.6-0.4-3.4-1.3s-1.2-2.2-1.2-3.8c0-1.7,0.4-3,1.2-3.9c0.8-0.9,2-1.4,3.5-1.4
					c0.5,0,1,0.1,1.4,0.2s0.9,0.2,1.1,0.4l-0.5,1.3c-0.3-0.1-0.7-0.2-1.1-0.3c-0.4-0.1-0.7-0.1-1.1-0.1c-2,0-3.1,1.3-3.1,3.9
					c0,1.2,0.2,2.2,0.7,2.8c0.5,0.7,1.2,1,2.2,1c0.8,0,1.7-0.2,2.6-0.5v1.3C450.9,87.8,450,88,449,88z"/>
				<path class="st18" d="M457.2,86.7c0.3,0,0.5,0,0.8-0.1c0.2,0,0.4-0.1,0.6-0.1v1.2c-0.2,0.1-0.4,0.1-0.7,0.2
					c-0.3,0.1-0.6,0.1-0.9,0.1c-1.9,0-2.9-1-2.9-3.1v-6h-1.4v-0.7l1.4-0.6l0.6-2.1h0.9v2.3h2.9V79h-2.9v5.9c0,0.6,0.1,1.1,0.4,1.4
					C456.3,86.6,456.7,86.7,457.2,86.7z"/>
				<path class="st18" d="M464.8,88c-1.5,0-2.7-0.5-3.5-1.4c-0.9-0.9-1.3-2.2-1.3-3.8c0-1.6,0.4-2.9,1.2-3.9c0.8-1,1.9-1.4,3.2-1.4
					c1.3,0,2.3,0.4,3,1.2c0.7,0.8,1.1,1.9,1.1,3.3v1h-6.9c0,1.2,0.3,2.1,0.9,2.7s1.4,0.9,2.4,0.9c1.1,0,2.1-0.2,3.2-0.7v1.4
					c-0.5,0.2-1,0.4-1.5,0.5C466,87.9,465.4,88,464.8,88z M464.4,78.9c-0.8,0-1.4,0.3-1.9,0.8s-0.8,1.3-0.8,2.2h5.2
					c0-1-0.2-1.7-0.6-2.2S465.2,78.9,464.4,78.9z"/>
				<path class="st18" d="M477.9,86.5L477.9,86.5c-0.8,1-1.8,1.5-3.2,1.5c-1.3,0-2.3-0.4-3.1-1.3s-1.1-2.2-1.1-3.8
					c0-1.7,0.4-2.9,1.1-3.9c0.7-0.9,1.8-1.4,3.1-1.4c1.4,0,2.4,0.5,3.1,1.5h0.1l-0.1-0.7v-0.7v-4.1h1.5v14.3h-1.2L477.9,86.5z
					 M474.8,86.7c1,0,1.8-0.3,2.3-0.8c0.5-0.6,0.7-1.5,0.7-2.7v-0.3c0-1.4-0.2-2.4-0.7-3s-1.2-0.9-2.3-0.9c-0.9,0-1.6,0.3-2,1
					c-0.5,0.7-0.7,1.7-0.7,2.9c0,1.3,0.2,2.2,0.7,2.9C473.2,86.4,473.9,86.7,474.8,86.7z"/>
				<path class="st18" d="M493.9,85.1c0,0.9-0.3,1.7-1,2.2s-1.7,0.8-2.9,0.8c-1.3,0-2.4-0.2-3.1-0.6v-1.4c0.5,0.2,1,0.4,1.6,0.6
					s1.1,0.2,1.6,0.2c0.8,0,1.4-0.1,1.8-0.4s0.6-0.6,0.6-1.2c0-0.4-0.2-0.7-0.5-1s-1-0.6-2-1c-0.9-0.3-1.6-0.7-2-0.9
					s-0.7-0.6-0.9-0.9c-0.2-0.3-0.3-0.7-0.3-1.2c0-0.8,0.3-1.5,1-1.9c0.7-0.5,1.6-0.7,2.7-0.7s2.1,0.2,3.2,0.7l-0.5,1.2
					c-1-0.4-1.9-0.6-2.7-0.6c-0.7,0-1.3,0.1-1.6,0.3s-0.5,0.5-0.5,0.9c0,0.3,0.1,0.5,0.2,0.7s0.4,0.4,0.7,0.5
					c0.3,0.2,0.9,0.4,1.8,0.7c1.2,0.4,2,0.9,2.4,1.3S493.9,84.4,493.9,85.1z"/>
				<path class="st18" d="M499.6,86.7c0.3,0,0.5,0,0.8-0.1c0.2,0,0.4-0.1,0.6-0.1v1.2c-0.2,0.1-0.4,0.1-0.7,0.2s-0.6,0.1-0.9,0.1
					c-1.9,0-2.9-1-2.9-3.1v-6H495v-0.7l1.4-0.6l0.6-2.1h0.9v2.3h2.9V79H498v5.9c0,0.6,0.1,1.1,0.4,1.4
					C498.7,86.6,499.1,86.7,499.6,86.7z"/>
				<path class="st18" d="M507.2,88c-1.5,0-2.7-0.5-3.5-1.4c-0.9-0.9-1.3-2.2-1.3-3.8c0-1.6,0.4-2.9,1.2-3.9c0.8-1,1.9-1.4,3.2-1.4
					c1.3,0,2.3,0.4,3,1.2c0.7,0.8,1.1,1.9,1.1,3.3v1H504c0,1.2,0.3,2.1,0.9,2.7s1.4,0.9,2.4,0.9c1.1,0,2.1-0.2,3.2-0.7v1.4
					c-0.5,0.2-1,0.4-1.5,0.5C508.5,87.9,507.9,88,507.2,88z M506.8,78.9c-0.8,0-1.4,0.3-1.9,0.8s-0.8,1.3-0.8,2.2h5.2
					c0-1-0.2-1.7-0.6-2.2S507.6,78.9,506.8,78.9z"/>
				<path class="st18" d="M517.8,88c-1.5,0-2.7-0.5-3.5-1.4c-0.9-0.9-1.3-2.2-1.3-3.8c0-1.6,0.4-2.9,1.2-3.9s1.9-1.4,3.2-1.4
					s2.3,0.4,3,1.2c0.7,0.8,1.1,1.9,1.1,3.3v1h-6.9c0,1.2,0.3,2.1,0.9,2.7c0.6,0.6,1.4,0.9,2.4,0.9c1.1,0,2.1-0.2,3.2-0.7v1.4
					c-0.5,0.2-1,0.4-1.5,0.5C519,87.9,518.4,88,517.8,88z M517.3,78.9c-0.8,0-1.4,0.3-1.9,0.8s-0.8,1.3-0.8,2.2h5.2
					c0-1-0.2-1.7-0.6-2.2S518.1,78.9,517.3,78.9z"/>
				<path class="st18" d="M525.6,87.8H524V73.6h1.5L525.6,87.8L525.6,87.8z"/>
			</g>
			<g class="st17">
				<path class="st18" d="M401.9,96.3c0.4,0,0.8,0,1.2,0.1l-0.2,1.4c-0.4-0.1-0.8-0.1-1.1-0.1c-0.8,0-1.5,0.3-2.1,1
					s-0.9,1.5-0.9,2.5v5.4h-1.5v-10h1.3l0.2,1.9h0.1c0.4-0.7,0.8-1.2,1.3-1.5C400.7,96.5,401.3,96.3,401.9,96.3z"/>
				<path class="st18" d="M413.7,101.5c0,1.6-0.4,2.9-1.2,3.8c-0.8,0.9-2,1.4-3.4,1.4c-0.9,0-1.7-0.2-2.4-0.6
					c-0.7-0.4-1.2-1-1.6-1.8s-0.6-1.7-0.6-2.8c0-1.6,0.4-2.9,1.2-3.8c0.8-0.9,2-1.4,3.4-1.4s2.5,0.5,3.3,1.4
					C413.3,98.6,413.7,99.9,413.7,101.5z M406,101.5c0,1.3,0.3,2.3,0.8,2.9c0.5,0.7,1.3,1,2.3,1s1.8-0.3,2.3-1s0.8-1.6,0.8-2.9
					s-0.3-2.2-0.8-2.9c-0.5-0.7-1.3-1-2.3-1s-1.7,0.3-2.3,1S406,100.2,406,101.5z"/>
				<path class="st18" d="M425,101.5c0,1.6-0.4,2.9-1.2,3.8s-2,1.4-3.4,1.4c-0.9,0-1.7-0.2-2.4-0.6c-0.7-0.4-1.2-1-1.6-1.8
					s-0.6-1.7-0.6-2.8c0-1.6,0.4-2.9,1.2-3.8c0.8-0.9,2-1.4,3.4-1.4s2.5,0.5,3.3,1.4C424.6,98.6,425,99.9,425,101.5z M417.4,101.5
					c0,1.3,0.3,2.3,0.8,2.9c0.5,0.7,1.3,1,2.3,1s1.8-0.3,2.3-1s0.8-1.6,0.8-2.9s-0.3-2.2-0.8-2.9c-0.5-0.7-1.3-1-2.3-1
					s-1.7,0.3-2.3,1S417.4,100.2,417.4,101.5z"/>
				<path class="st18" d="M432.2,97.6h-2.6v8.9h-1.5v-8.9h-1.8V97l1.8-0.5v-0.6c0-2.5,1.1-3.7,3.2-3.7c0.5,0,1.2,0.1,1.9,0.3
					l-0.4,1.2c-0.6-0.2-1.1-0.3-1.5-0.3c-0.6,0-1,0.2-1.3,0.6s-0.4,1-0.4,1.8v0.7h2.6L432.2,97.6L432.2,97.6z"/>
			</g>
			<circle class="st14" cx="249.1" cy="202.4" r="8.9"/>
			<path class="st16" d="M263.2,172.6h210.2c3.4,0,6.3,2.8,6.3,6.3v47c0,3.4-2.8,6.3-6.3,6.3H263.2c-3.4,0-6.3-2.8-6.3-6.3v-16.8
				l-7.3-5.7l7.3-6.4v-18.1C257,175.4,259.8,172.6,263.2,172.6z"/>
			<g class="st17">
				<path class="st18" d="M283.3,186.8c-1.5,0-2.6,0.5-3.5,1.5s-1.3,2.3-1.3,4c0,1.8,0.4,3.1,1.2,4.1c0.8,1,2,1.4,3.5,1.4
					c0.9,0,2-0.2,3.2-0.5v1.4c-0.9,0.3-2.1,0.5-3.4,0.5c-2,0-3.5-0.6-4.6-1.8s-1.6-2.9-1.6-5.1c0-1.4,0.3-2.6,0.8-3.6
					s1.3-1.8,2.2-2.4c1-0.6,2.1-0.8,3.4-0.8c1.4,0,2.6,0.3,3.7,0.8l-0.7,1.3C285.3,187,284.3,186.8,283.3,186.8z"/>
				<path class="st18" d="M297.9,194c0,1.6-0.4,2.9-1.2,3.8c-0.8,0.9-2,1.4-3.4,1.4c-0.9,0-1.7-0.2-2.4-0.6c-0.7-0.4-1.2-1-1.6-1.8
					s-0.6-1.7-0.6-2.8c0-1.6,0.4-2.9,1.2-3.8c0.8-0.9,2-1.4,3.4-1.4s2.5,0.5,3.3,1.4C297.4,191.1,297.9,192.4,297.9,194z M290.2,194
					c0,1.3,0.3,2.3,0.8,2.9c0.5,0.7,1.3,1,2.3,1s1.8-0.3,2.3-1s0.8-1.6,0.8-2.9c0-1.3-0.3-2.2-0.8-2.9s-1.3-1-2.3-1s-1.7,0.3-2.3,1
					S290.2,192.7,290.2,194z"/>
				<path class="st18" d="M307.4,199v-6.5c0-0.8-0.2-1.4-0.6-1.8c-0.4-0.4-1-0.6-1.7-0.6c-1,0-1.8,0.3-2.3,0.9
					c-0.5,0.6-0.7,1.5-0.7,2.8v5.3h-1.5v-10h1.2l0.2,1.4h0.1c0.3-0.5,0.7-0.9,1.3-1.1s1.2-0.4,1.9-0.4c1.2,0,2.1,0.3,2.7,0.9
					c0.6,0.6,0.9,1.5,0.9,2.8v6.5h-1.5V199z"/>
				<path class="st18" d="M316,199.2c-1.5,0-2.6-0.4-3.4-1.3s-1.2-2.2-1.2-3.8c0-1.7,0.4-3,1.2-3.9c0.8-0.9,2-1.4,3.5-1.4
					c0.5,0,1,0.1,1.4,0.2s0.9,0.2,1.1,0.4l-0.5,1.3c-0.3-0.1-0.7-0.2-1.1-0.3s-0.7-0.1-1.1-0.1c-2,0-3.1,1.3-3.1,3.9
					c0,1.2,0.2,2.2,0.7,2.8c0.5,0.7,1.2,1,2.2,1c0.8,0,1.7-0.2,2.6-0.5v1.3C317.9,199,317.1,199.2,316,199.2z"/>
				<path class="st18" d="M325.5,188.8c0.4,0,0.8,0,1.2,0.1l-0.2,1.4c-0.4-0.1-0.8-0.1-1.1-0.1c-0.8,0-1.5,0.3-2.1,1
					s-0.9,1.5-0.9,2.5v5.4H321v-10h1.3l0.2,1.9h0.1c0.4-0.7,0.8-1.2,1.3-1.5C324.3,189,324.9,188.8,325.5,188.8z"/>
				<path class="st18" d="M332.9,199.2c-1.5,0-2.7-0.5-3.5-1.4c-0.9-0.9-1.3-2.2-1.3-3.8s0.4-2.9,1.2-3.9c0.8-1,1.9-1.4,3.2-1.4
					c1.3,0,2.3,0.4,3,1.2s1.1,1.9,1.1,3.3v1h-6.9c0,1.2,0.3,2.1,0.9,2.7c0.6,0.6,1.4,0.9,2.4,0.9c1.1,0,2.1-0.2,3.2-0.7v1.4
					c-0.5,0.2-1,0.4-1.5,0.5S333.5,199.2,332.9,199.2z M332.4,190.1c-0.8,0-1.4,0.3-1.9,0.8s-0.8,1.3-0.8,2.2h5.2
					c0-1-0.2-1.7-0.6-2.2C333.8,190.3,333.2,190.1,332.4,190.1z"/>
				<path class="st18" d="M342.4,197.9c0.3,0,0.5,0,0.8-0.1c0.2,0,0.4-0.1,0.6-0.1v1.2c-0.2,0.1-0.4,0.1-0.7,0.2
					c-0.3,0.1-0.6,0.1-0.9,0.1c-1.9,0-2.9-1-2.9-3.1v-6h-1.4v-0.7l1.4-0.6l0.6-2.1h0.9v2.3h2.9v1.2h-2.9v5.9c0,0.6,0.1,1.1,0.4,1.4
					C341.5,197.8,341.9,197.9,342.4,197.9z"/>
				<path class="st18" d="M350,199.2c-1.5,0-2.7-0.5-3.5-1.4c-0.9-0.9-1.3-2.2-1.3-3.8s0.4-2.9,1.2-3.9c0.8-1,1.9-1.4,3.2-1.4
					c1.3,0,2.3,0.4,3,1.2s1.1,1.9,1.1,3.3v1h-6.9c0,1.2,0.3,2.1,0.9,2.7c0.6,0.6,1.4,0.9,2.4,0.9c1.1,0,2.1-0.2,3.2-0.7v1.4
					c-0.5,0.2-1,0.4-1.5,0.5S350.7,199.2,350,199.2z M349.6,190.1c-0.8,0-1.4,0.3-1.9,0.8s-0.8,1.3-0.8,2.2h5.2c0-1-0.2-1.7-0.6-2.2
					C351,190.3,350.4,190.1,349.6,190.1z"/>
				<path class="st18" d="M369.8,194c0,1.6-0.4,2.9-1.2,3.8s-2,1.4-3.4,1.4c-0.9,0-1.7-0.2-2.4-0.6c-0.7-0.4-1.2-1-1.6-1.8
					s-0.6-1.7-0.6-2.8c0-1.6,0.4-2.9,1.2-3.8c0.8-0.9,2-1.4,3.4-1.4s2.5,0.5,3.3,1.4C369.4,191.1,369.8,192.4,369.8,194z M362.2,194
					c0,1.3,0.3,2.3,0.8,2.9c0.5,0.7,1.3,1,2.3,1s1.8-0.3,2.3-1s0.8-1.6,0.8-2.9c0-1.3-0.3-2.2-0.8-2.9s-1.3-1-2.3-1s-1.7,0.3-2.3,1
					S362.2,192.7,362.2,194z"/>
				<path class="st18" d="M377.1,188.8c0.4,0,0.8,0,1.2,0.1l-0.2,1.4c-0.4-0.1-0.8-0.1-1.1-0.1c-0.8,0-1.5,0.3-2.1,1
					s-0.9,1.5-0.9,2.5v5.4h-1.5v-10h1.3l0.2,1.9h0.1c0.4-0.7,0.8-1.2,1.3-1.5C375.9,189,376.4,188.8,377.1,188.8z"/>
				<path class="st18" d="M389.7,199.2c-0.7,0-1.3-0.1-1.8-0.4s-1-0.6-1.4-1.1h-0.1c0.1,0.6,0.1,1.1,0.1,1.7v4.1H385V189h1.2
					l0.2,1.4h0.1c0.4-0.5,0.8-0.9,1.4-1.2c0.5-0.2,1.1-0.4,1.8-0.4c1.3,0,2.4,0.5,3.1,1.4s1.1,2.2,1.1,3.8s-0.4,2.9-1.1,3.8
					C392,198.7,391,199.2,389.7,199.2z M389.5,190.1c-1,0-1.8,0.3-2.2,0.9s-0.7,1.5-0.7,2.7v0.3c0,1.4,0.2,2.4,0.7,3
					s1.2,0.9,2.3,0.9c0.9,0,1.5-0.4,2-1.1c0.5-0.7,0.7-1.7,0.7-2.9c0-1.3-0.2-2.2-0.7-2.9C391,190.4,390.4,190.1,389.5,190.1z"/>
				<path class="st18" d="M401.1,188.8c0.4,0,0.8,0,1.2,0.1l-0.2,1.4c-0.4-0.1-0.8-0.1-1.1-0.1c-0.8,0-1.5,0.3-2.1,1
					s-0.9,1.5-0.9,2.5v5.4h-1.5v-10h1.3l0.2,1.9h0.1c0.4-0.7,0.8-1.2,1.3-1.5C399.9,189,400.5,188.8,401.1,188.8z"/>
				<path class="st18" d="M412.8,194c0,1.6-0.4,2.9-1.2,3.8c-0.8,0.9-2,1.4-3.4,1.4c-0.9,0-1.7-0.2-2.4-0.6c-0.7-0.4-1.2-1-1.6-1.8
					s-0.6-1.7-0.6-2.8c0-1.6,0.4-2.9,1.2-3.8c0.8-0.9,2-1.4,3.4-1.4s2.5,0.5,3.3,1.4C412.4,191.1,412.8,192.4,412.8,194z M405.2,194
					c0,1.3,0.3,2.3,0.8,2.9c0.5,0.7,1.3,1,2.3,1s1.8-0.3,2.3-1s0.8-1.6,0.8-2.9c0-1.3-0.3-2.2-0.8-2.9s-1.3-1-2.3-1s-1.7,0.3-2.3,1
					S405.2,192.7,405.2,194z"/>
				<path class="st18" d="M418.7,197.9c0.3,0,0.5,0,0.8-0.1c0.2,0,0.4-0.1,0.6-0.1v1.2c-0.2,0.1-0.4,0.1-0.7,0.2s-0.6,0.1-0.9,0.1
					c-1.9,0-2.9-1-2.9-3.1v-6h-1.4v-0.7l1.4-0.6l0.6-2.1h0.9v2.3h2.9v1.2h-2.9v5.9c0,0.6,0.1,1.1,0.4,1.4
					C417.8,197.8,418.2,197.9,418.7,197.9z"/>
				<path class="st18" d="M426.4,199.2c-1.5,0-2.7-0.5-3.5-1.4c-0.9-0.9-1.3-2.2-1.3-3.8s0.4-2.9,1.2-3.9c0.8-1,1.9-1.4,3.2-1.4
					c1.3,0,2.3,0.4,3,1.2s1.1,1.9,1.1,3.3v1h-6.9c0,1.2,0.3,2.1,0.9,2.7s1.4,0.9,2.4,0.9c1.1,0,2.1-0.2,3.2-0.7v1.4
					c-0.5,0.2-1,0.4-1.5,0.5S427,199.2,426.4,199.2z M425.9,190.1c-0.8,0-1.4,0.3-1.9,0.8s-0.8,1.3-0.8,2.2h5.2c0-1-0.2-1.7-0.6-2.2
					C427.4,190.3,426.7,190.1,425.9,190.1z"/>
				<path class="st18" d="M436.7,199.2c-1.5,0-2.6-0.4-3.4-1.3c-0.8-0.9-1.2-2.2-1.2-3.8c0-1.7,0.4-3,1.2-3.9c0.8-0.9,2-1.4,3.5-1.4
					c0.5,0,1,0.1,1.4,0.2c0.5,0.1,0.9,0.2,1.1,0.4l-0.5,1.3c-0.3-0.1-0.7-0.2-1.1-0.3s-0.7-0.1-1.1-0.1c-2,0-3.1,1.3-3.1,3.9
					c0,1.2,0.2,2.2,0.7,2.8c0.5,0.7,1.2,1,2.2,1c0.8,0,1.7-0.2,2.6-0.5v1.3C438.5,199,437.7,199.2,436.7,199.2z"/>
				<path class="st18" d="M444.8,197.9c0.3,0,0.5,0,0.8-0.1c0.2,0,0.4-0.1,0.6-0.1v1.2c-0.2,0.1-0.4,0.1-0.7,0.2s-0.6,0.1-0.9,0.1
					c-1.9,0-2.9-1-2.9-3.1v-6h-1.4v-0.7l1.4-0.6l0.6-2.1h0.9v2.3h2.9v1.2h-2.9v5.9c0,0.6,0.1,1.1,0.4,1.4
					C443.9,197.8,444.3,197.9,444.8,197.9z"/>
				<path class="st18" d="M452.4,199.2c-1.5,0-2.7-0.5-3.5-1.4c-0.9-0.9-1.3-2.2-1.3-3.8s0.4-2.9,1.2-3.9c0.8-1,1.9-1.4,3.2-1.4
					c1.3,0,2.3,0.4,3,1.2s1.1,1.9,1.1,3.3v1h-6.9c0,1.2,0.3,2.1,0.9,2.7s1.4,0.9,2.4,0.9c1.1,0,2.1-0.2,3.2-0.7v1.4
					c-0.5,0.2-1,0.4-1.5,0.5S453.1,199.2,452.4,199.2z M452,190.1c-0.8,0-1.4,0.3-1.9,0.8s-0.8,1.3-0.8,2.2h5.2c0-1-0.2-1.7-0.6-2.2
					C453.4,190.3,452.8,190.1,452,190.1z"/>
				<path class="st18" d="M465.5,197.7L465.5,197.7c-0.8,1-1.8,1.5-3.2,1.5c-1.3,0-2.3-0.4-3.1-1.3s-1.1-2.2-1.1-3.8
					c0-1.7,0.4-2.9,1.1-3.9s1.8-1.4,3.1-1.4c1.4,0,2.4,0.5,3.1,1.5h0.1l-0.1-0.7v-0.7v-4.1h1.5V199h-1.2L465.5,197.7z M462.5,197.9
					c1,0,1.8-0.3,2.3-0.8c0.5-0.6,0.7-1.5,0.7-2.7V194c0-1.4-0.2-2.4-0.7-3s-1.2-0.9-2.3-0.9c-0.9,0-1.6,0.3-2,1
					c-0.5,0.7-0.7,1.7-0.7,2.9c0,1.3,0.2,2.2,0.7,2.9C460.9,197.6,461.6,197.9,462.5,197.9z"/>
			</g>
			<g class="st17">
				<path class="st18" d="M283.8,215.1c0,0.9-0.3,1.7-1,2.2s-1.7,0.8-2.9,0.8c-1.3,0-2.4-0.2-3.1-0.6v-1.4c0.5,0.2,1,0.4,1.6,0.6
					s1.1,0.2,1.6,0.2c0.8,0,1.4-0.1,1.8-0.4c0.4-0.3,0.6-0.6,0.6-1.2c0-0.4-0.2-0.7-0.5-1s-1-0.6-2-1c-0.9-0.3-1.6-0.7-2-0.9
					c-0.4-0.3-0.7-0.6-0.9-0.9c-0.2-0.3-0.3-0.7-0.3-1.2c0-0.8,0.3-1.5,1-1.9c0.7-0.5,1.6-0.7,2.7-0.7s2.1,0.2,3.2,0.7l-0.5,1.2
					c-1-0.4-1.9-0.6-2.7-0.6c-0.7,0-1.3,0.1-1.6,0.3c-0.4,0.2-0.5,0.5-0.5,0.9c0,0.3,0.1,0.5,0.2,0.7s0.4,0.4,0.7,0.5
					c0.3,0.2,0.9,0.4,1.8,0.7c1.2,0.4,2,0.9,2.4,1.3C283.6,213.8,283.8,214.4,283.8,215.1z"/>
				<path class="st18" d="M289.5,216.7c0.3,0,0.5,0,0.8-0.1c0.2,0,0.4-0.1,0.6-0.1v1.2c-0.2,0.1-0.4,0.1-0.7,0.2s-0.6,0.1-0.9,0.1
					c-1.9,0-2.9-1-2.9-3.1v-6H285v-0.7l1.4-0.6l0.6-2.1h0.9v2.3h2.9v1.2h-2.9v5.9c0,0.6,0.1,1.1,0.4,1.4
					C288.6,216.6,289,216.7,289.5,216.7z"/>
				<path class="st18" d="M297.2,218c-1.5,0-2.7-0.5-3.5-1.4c-0.9-0.9-1.3-2.2-1.3-3.8s0.4-2.9,1.2-3.9c0.8-1,1.9-1.4,3.2-1.4
					c1.3,0,2.3,0.4,3,1.2s1.1,1.9,1.1,3.3v1H294c0,1.2,0.3,2.1,0.9,2.7c0.6,0.6,1.4,0.9,2.4,0.9c1.1,0,2.1-0.2,3.2-0.7v1.4
					c-0.5,0.2-1,0.4-1.5,0.5C298.4,217.9,297.8,218,297.2,218z M296.8,208.9c-0.8,0-1.4,0.3-1.9,0.8s-0.8,1.3-0.8,2.2h5.2
					c0-1-0.2-1.7-0.6-2.2S297.5,208.9,296.8,208.9z"/>
				<path class="st18" d="M307.7,218c-1.5,0-2.7-0.5-3.5-1.4c-0.9-0.9-1.3-2.2-1.3-3.8s0.4-2.9,1.2-3.9c0.8-1,1.9-1.4,3.2-1.4
					c1.3,0,2.3,0.4,3,1.2s1.1,1.9,1.1,3.3v1h-6.9c0,1.2,0.3,2.1,0.9,2.7c0.6,0.6,1.4,0.9,2.4,0.9c1.1,0,2.1-0.2,3.2-0.7v1.4
					c-0.5,0.2-1,0.4-1.5,0.5C308.9,217.9,308.4,218,307.7,218z M307.3,208.9c-0.8,0-1.4,0.3-1.9,0.8s-0.8,1.3-0.8,2.2h5.2
					c0-1-0.2-1.7-0.6-2.2S308.1,208.9,307.3,208.9z"/>
				<path class="st18" d="M315.5,217.8H314v-14.3h1.5V217.8z"/>
				<path class="st18" d="M328.1,208.9h-2.6v8.9H324v-8.9h-1.8v-0.7l1.8-0.5v-0.6c0-2.5,1.1-3.7,3.2-3.7c0.5,0,1.2,0.1,1.9,0.3
					l-0.4,1.2c-0.6-0.2-1.1-0.3-1.5-0.3c-0.6,0-1,0.2-1.3,0.6c-0.3,0.4-0.4,1-0.4,1.8v0.7h2.6L328.1,208.9L328.1,208.9z
					 M331.5,217.8H330v-14.3h1.5V217.8z"/>
				<path class="st18" d="M343.4,212.8c0,1.6-0.4,2.9-1.2,3.8c-0.8,0.9-2,1.4-3.4,1.4c-0.9,0-1.7-0.2-2.4-0.6
					c-0.7-0.4-1.2-1-1.6-1.8s-0.6-1.7-0.6-2.8c0-1.6,0.4-2.9,1.2-3.8c0.8-0.9,2-1.4,3.4-1.4s2.5,0.5,3.3,1.4
					C342.9,209.9,343.4,211.2,343.4,212.8z M335.7,212.8c0,1.3,0.3,2.3,0.8,2.9c0.5,0.7,1.3,1,2.3,1s1.8-0.3,2.3-1s0.8-1.6,0.8-2.9
					c0-1.3-0.3-2.2-0.8-2.9s-1.3-1-2.3-1s-1.7,0.3-2.3,1S335.7,211.5,335.7,212.8z"/>
				<path class="st18" d="M354.7,212.8c0,1.6-0.4,2.9-1.2,3.8s-2,1.4-3.4,1.4c-0.9,0-1.7-0.2-2.4-0.6c-0.7-0.4-1.2-1-1.6-1.8
					s-0.6-1.7-0.6-2.8c0-1.6,0.4-2.9,1.2-3.8c0.8-0.9,2-1.4,3.4-1.4s2.5,0.5,3.3,1.4C354.3,209.9,354.7,211.2,354.7,212.8z
					 M347,212.8c0,1.3,0.3,2.3,0.8,2.9c0.5,0.7,1.3,1,2.3,1s1.8-0.3,2.3-1s0.8-1.6,0.8-2.9c0-1.3-0.3-2.2-0.8-2.9s-1.3-1-2.3-1
					s-1.7,0.3-2.3,1S347,211.5,347,212.8z"/>
				<path class="st18" d="M361.9,207.6c0.4,0,0.8,0,1.2,0.1l-0.2,1.4c-0.4-0.1-0.8-0.1-1.1-0.1c-0.8,0-1.5,0.3-2.1,1
					s-0.9,1.5-0.9,2.5v5.4h-1.5v-10h1.3l0.2,1.9h0.1c0.4-0.7,0.8-1.2,1.3-1.5C360.7,207.8,361.3,207.6,361.9,207.6z"/>
				<path class="st18" d="M371.5,215.1c0,0.9-0.3,1.7-1,2.2s-1.7,0.8-2.9,0.8c-1.3,0-2.4-0.2-3.1-0.6v-1.4c0.5,0.2,1,0.4,1.6,0.6
					s1.1,0.2,1.6,0.2c0.8,0,1.4-0.1,1.8-0.4c0.4-0.3,0.6-0.6,0.6-1.2c0-0.4-0.2-0.7-0.5-1s-1-0.6-2-1c-0.9-0.3-1.6-0.7-2-0.9
					s-0.7-0.6-0.9-0.9c-0.2-0.3-0.3-0.7-0.3-1.2c0-0.8,0.3-1.5,1-1.9c0.7-0.5,1.6-0.7,2.7-0.7s2.1,0.2,3.2,0.7l-0.5,1.2
					c-1-0.4-1.9-0.6-2.7-0.6c-0.7,0-1.3,0.1-1.6,0.3s-0.5,0.5-0.5,0.9c0,0.3,0.1,0.5,0.2,0.7s0.4,0.4,0.7,0.5
					c0.3,0.2,0.9,0.4,1.8,0.7c1.2,0.4,2,0.9,2.4,1.3S371.5,214.4,371.5,215.1z"/>
			</g>
			<path class="st16" d="M166.5,133.5h-104c-3.4,0-6.3-2.8-6.3-6.3V76.1c0-3.4,2.8-6.3,6.3-6.3h104c3.4,0,6.3,2.8,6.3,6.3v8.3
				l7.3,5.7l-7.3,6.4v30.7C172.7,130.7,169.9,133.5,166.5,133.5z"/>
			<g class="st17">
				<path class="st18" d="M82.4,84.9c-1.5,0-2.6,0.5-3.5,1.5s-1.3,2.3-1.3,4c0,1.8,0.4,3.1,1.2,4.1c0.8,1,2,1.4,3.5,1.4
					c0.9,0,2-0.2,3.2-0.5v1.4c-0.9,0.3-2.1,0.5-3.4,0.5c-2,0-3.5-0.6-4.6-1.8c-1.1-1.2-1.6-2.9-1.6-5.1c0-1.4,0.3-2.6,0.8-3.6
					s1.3-1.8,2.2-2.4c1-0.6,2.1-0.8,3.4-0.8c1.4,0,2.6,0.3,3.7,0.8l-0.7,1.3C84.4,85.1,83.4,84.9,82.4,84.9z"/>
				<path class="st18" d="M96.9,92c0,1.6-0.4,2.9-1.2,3.8c-0.8,0.9-2,1.4-3.4,1.4c-0.9,0-1.7-0.2-2.4-0.6c-0.7-0.4-1.2-1-1.6-1.8
					s-0.6-1.7-0.6-2.8c0-1.6,0.4-2.9,1.2-3.8c0.8-0.9,2-1.4,3.4-1.4s2.5,0.5,3.3,1.4C96.5,89.2,96.9,90.4,96.9,92z M89.3,92
					c0,1.3,0.3,2.3,0.8,2.9c0.5,0.7,1.3,1,2.3,1s1.8-0.3,2.3-1s0.8-1.6,0.8-2.9s-0.3-2.2-0.8-2.9c-0.5-0.7-1.3-1-2.3-1
					s-1.7,0.3-2.3,1S89.3,90.7,89.3,92z"/>
				<path class="st18" d="M106.5,97v-6.5c0-0.8-0.2-1.4-0.6-1.8s-1-0.6-1.7-0.6c-1,0-1.8,0.3-2.3,0.9s-0.7,1.5-0.7,2.8V97h-1.5V87
					h1.2l0.2,1.4h0.1c0.3-0.5,0.7-0.9,1.3-1.1c0.6-0.3,1.2-0.4,1.9-0.4c1.2,0,2.1,0.3,2.7,0.9s0.9,1.5,0.9,2.8V97H106.5z"/>
				<path class="st18" d="M115.1,97.2c-1.5,0-2.6-0.4-3.4-1.3s-1.2-2.2-1.2-3.8c0-1.7,0.4-3,1.2-3.9s2-1.4,3.5-1.4
					c0.5,0,1,0.1,1.4,0.2s0.9,0.2,1.1,0.4l-0.5,1.3c-0.3-0.1-0.7-0.2-1.1-0.3s-0.7-0.1-1.1-0.1c-2,0-3.1,1.3-3.1,3.9
					c0,1.2,0.2,2.2,0.7,2.8c0.5,0.7,1.2,1,2.2,1c0.8,0,1.7-0.2,2.6-0.5v1.3C117,97.1,116.1,97.2,115.1,97.2z"/>
				<path class="st18" d="M124.6,86.8c0.4,0,0.8,0,1.2,0.1l-0.2,1.4c-0.4-0.1-0.8-0.1-1.1-0.1c-0.8,0-1.5,0.3-2.1,1
					s-0.9,1.5-0.9,2.5V97H120V87h1.3l0.2,1.9h0.1c0.4-0.7,0.8-1.2,1.3-1.5C123.4,87,124,86.8,124.6,86.8z"/>
				<path class="st18" d="M131.9,97.2c-1.5,0-2.7-0.5-3.5-1.4c-0.9-0.9-1.3-2.2-1.3-3.8c0-1.6,0.4-2.9,1.2-3.9
					c0.8-1,1.9-1.4,3.2-1.4s2.3,0.4,3,1.2c0.7,0.8,1.1,1.9,1.1,3.3v1h-6.9c0,1.2,0.3,2.1,0.9,2.7s1.4,0.9,2.4,0.9
					c1.1,0,2.1-0.2,3.2-0.7v1.4c-0.5,0.2-1,0.4-1.5,0.5C133.2,97.2,132.6,97.2,131.9,97.2z M131.5,88.1c-0.8,0-1.4,0.3-1.9,0.8
					s-0.8,1.3-0.8,2.2h5.2c0-1-0.2-1.7-0.6-2.2C132.9,88.3,132.3,88.1,131.5,88.1z"/>
				<path class="st18" d="M141.5,96c0.3,0,0.5,0,0.8-0.1c0.2,0,0.4-0.1,0.6-0.1V97c-0.2,0.1-0.4,0.1-0.7,0.2s-0.6,0.1-0.9,0.1
					c-1.9,0-2.9-1-2.9-3.1v-6H137v-0.7l1.4-0.6l0.6-2.1h0.9V87h2.9v1.2h-2.9v5.9c0,0.6,0.1,1.1,0.4,1.4S141,96,141.5,96z"/>
				<path class="st18" d="M149.1,97.2c-1.5,0-2.7-0.5-3.5-1.4c-0.9-0.9-1.3-2.2-1.3-3.8c0-1.6,0.4-2.9,1.2-3.9s1.9-1.4,3.2-1.4
					s2.3,0.4,3,1.2c0.7,0.8,1.1,1.9,1.1,3.3v1h-6.9c0,1.2,0.3,2.1,0.9,2.7s1.4,0.9,2.4,0.9c1.1,0,2.1-0.2,3.2-0.7v1.4
					c-0.5,0.2-1,0.4-1.5,0.5C150.3,97.2,149.8,97.2,149.1,97.2z M148.7,88.1c-0.8,0-1.4,0.3-1.9,0.8s-0.8,1.3-0.8,2.2h5.2
					c0-1-0.2-1.7-0.6-2.2C150.1,88.3,149.5,88.1,148.7,88.1z"/>
			</g>
			<g class="st17">
				<path class="st18" d="M82.9,116.8c0,0.9-0.3,1.7-1,2.2s-1.7,0.8-2.9,0.8c-1.3,0-2.4-0.2-3.1-0.6v-1.4c0.5,0.2,1,0.4,1.6,0.6
					s1.1,0.2,1.6,0.2c0.8,0,1.4-0.1,1.8-0.4s0.6-0.6,0.6-1.2c0-0.4-0.2-0.7-0.5-1s-1-0.6-2-1c-0.9-0.3-1.6-0.7-2-0.9
					c-0.4-0.3-0.7-0.6-0.9-0.9c-0.2-0.3-0.3-0.7-0.3-1.2c0-0.8,0.3-1.5,1-1.9c0.7-0.5,1.6-0.7,2.7-0.7s2.1,0.2,3.2,0.7l-0.5,1.2
					c-1-0.4-1.9-0.6-2.7-0.6c-0.7,0-1.3,0.1-1.6,0.3c-0.4,0.2-0.5,0.5-0.5,0.9c0,0.3,0.1,0.5,0.2,0.7s0.4,0.4,0.7,0.5
					c0.3,0.2,0.9,0.4,1.8,0.7c1.2,0.4,2,0.9,2.4,1.3C82.7,115.6,82.9,116.1,82.9,116.8z"/>
				<path class="st18" d="M88.6,118.5c0.3,0,0.5,0,0.8-0.1c0.2,0,0.4-0.1,0.6-0.1v1.2c-0.2,0.1-0.4,0.1-0.7,0.2
					c-0.3,0.1-0.6,0.1-0.9,0.1c-1.9,0-2.9-1-2.9-3.1v-6H84V110l1.4-0.6l0.6-2.1h1v2.3h2.9v1.2H87v5.9c0,0.6,0.1,1.1,0.4,1.4
					C87.7,118.3,88.1,118.5,88.6,118.5z"/>
				<path class="st18" d="M96.6,109.3c0.4,0,0.8,0,1.2,0.1l-0.2,1.4c-0.4-0.1-0.8-0.1-1.1-0.1c-0.8,0-1.5,0.3-2.1,1
					s-0.9,1.5-0.9,2.5v5.4H92v-10h1.3l0.2,1.9h0.1c0.4-0.7,0.8-1.2,1.3-1.5C95.4,109.5,96,109.3,96.6,109.3z"/>
				<path class="st18" d="M101.1,109.5v6.5c0,0.8,0.2,1.4,0.6,1.8s1,0.6,1.7,0.6c1.1,0,1.8-0.3,2.3-0.9s0.7-1.5,0.7-2.8v-5.3h1.5v10
					h-1.3l-0.2-1.3h-0.1c-0.3,0.5-0.7,0.9-1.3,1.1c-0.6,0.3-1.2,0.4-1.9,0.4c-1.2,0-2.1-0.3-2.7-0.9s-0.9-1.5-0.9-2.8v-6.6h1.6
					V109.5z"/>
				<path class="st18" d="M115.2,119.7c-1.5,0-2.6-0.4-3.4-1.3s-1.2-2.2-1.2-3.8c0-1.7,0.4-3,1.2-3.9s2-1.4,3.5-1.4
					c0.5,0,1,0.1,1.4,0.2s0.9,0.2,1.1,0.4l-0.5,1.3c-0.3-0.1-0.7-0.2-1.1-0.3s-0.7-0.1-1.1-0.1c-2,0-3.1,1.3-3.1,3.9
					c0,1.2,0.2,2.2,0.7,2.8c0.5,0.7,1.2,1,2.2,1c0.8,0,1.7-0.2,2.6-0.5v1.3C117,119.6,116.2,119.7,115.2,119.7z"/>
				<path class="st18" d="M123.3,118.5c0.3,0,0.5,0,0.8-0.1c0.2,0,0.4-0.1,0.6-0.1v1.2c-0.2,0.1-0.4,0.1-0.7,0.2
					c-0.3,0.1-0.6,0.1-0.9,0.1c-1.9,0-2.9-1-2.9-3.1v-6h-1.4V110l1.4-0.6l0.6-2.1h0.9v2.3h2.9v1.2h-2.9v5.9c0,0.6,0.1,1.1,0.4,1.4
					C122.4,118.3,122.8,118.5,123.3,118.5z"/>
				<path class="st18" d="M128.1,109.5v6.5c0,0.8,0.2,1.4,0.6,1.8c0.4,0.4,1,0.6,1.7,0.6c1.1,0,1.8-0.3,2.3-0.9s0.7-1.5,0.7-2.8
					v-5.3h1.5v10h-1.3l-0.2-1.3h-0.1c-0.3,0.5-0.7,0.9-1.3,1.1c-0.6,0.3-1.2,0.4-1.9,0.4c-1.2,0-2.1-0.3-2.7-0.9
					c-0.6-0.6-0.9-1.5-0.9-2.8v-6.6h1.6V109.5z"/>
				<path class="st18" d="M142.8,109.3c0.4,0,0.8,0,1.2,0.1l-0.2,1.4c-0.4-0.1-0.8-0.1-1.1-0.1c-0.8,0-1.5,0.3-2.1,1
					s-0.9,1.5-0.9,2.5v5.4h-1.5v-10h1.3l0.2,1.9h0.1c0.4-0.7,0.8-1.2,1.3-1.5C141.6,109.5,142.2,109.3,142.8,109.3z"/>
				<path class="st18" d="M150.1,119.7c-1.5,0-2.7-0.5-3.5-1.4c-0.9-0.9-1.3-2.2-1.3-3.8c0-1.6,0.4-2.9,1.2-3.9s1.9-1.4,3.2-1.4
					s2.3,0.4,3,1.2c0.7,0.8,1.1,1.9,1.1,3.3v1h-6.9c0,1.2,0.3,2.1,0.9,2.7s1.4,0.9,2.4,0.9c1.1,0,2.1-0.2,3.2-0.7v1.4
					c-0.5,0.2-1,0.4-1.5,0.5C151.4,119.7,150.8,119.7,150.1,119.7z M149.7,110.6c-0.8,0-1.4,0.3-1.9,0.8s-0.8,1.3-0.8,2.2h5.2
					c0-1-0.2-1.7-0.6-2.2C151.1,110.8,150.5,110.6,149.7,110.6z"/>
			</g>
		</g>
		<path class="st19" d="M546.3,336.9H19.1c-3.3,0-6-2.7-6-6v-53.3c0-3.3,2.7-6,6-6h527.2c3.3,0,6,2.7,6,6v53.3
			C552.3,334.2,549.6,336.9,546.3,336.9z"/>
		<g class="st17">
			<path class="st18" d="M44.6,300.4h-3v-14.3h8.2v2.5h-5.2v3.7h4.8v2.5h-4.8V300.4z"/>
			<path class="st18" d="M52.2,286.7c0-1,0.5-1.5,1.6-1.5s1.6,0.5,1.6,1.5c0,0.5-0.1,0.8-0.4,1.1s-0.7,0.4-1.2,0.4
				C52.8,288.2,52.2,287.7,52.2,286.7z M55.3,300.4h-3v-10.9h3V300.4z"/>
			<path class="st18" d="M64.6,289.3c0.4,0,0.7,0,1,0.1l-0.2,2.8c-0.2-0.1-0.5-0.1-0.9-0.1c-1,0-1.7,0.2-2.2,0.7s-0.8,1.2-0.8,2.1
				v5.6h-3v-10.9h2.3l0.4,1.8h0.1c0.3-0.6,0.8-1.1,1.4-1.5S63.9,289.3,64.6,289.3z"/>
			<path class="st18" d="M72.5,300.6c-1.8,0-3.1-0.5-4.1-1.5s-1.5-2.3-1.5-4.1c0-1.8,0.5-3.2,1.4-4.2s2.2-1.5,3.8-1.5
				c1.5,0,2.7,0.4,3.6,1.3s1.3,2.1,1.3,3.6v1.4h-7c0,0.8,0.3,1.5,0.8,2s1.1,0.7,2,0.7c0.7,0,1.3-0.1,1.9-0.2s1.2-0.4,1.8-0.7v2.3
				c-0.5,0.3-1.1,0.5-1.7,0.6S73.3,300.6,72.5,300.6z M72.1,291.4c-0.6,0-1.1,0.2-1.5,0.6s-0.6,1-0.6,1.7h4.2c0-0.7-0.2-1.3-0.6-1.7
				S72.7,291.4,72.1,291.4z"/>
			<path class="st18" d="M90.6,289.3c0.4,0,0.7,0,1,0.1l-0.2,2.8c-0.2-0.1-0.5-0.1-0.9-0.1c-1,0-1.7,0.2-2.2,0.7s-0.8,1.2-0.8,2.1
				v5.6h-3v-10.9h2.3l0.4,1.8h0.1c0.3-0.6,0.8-1.1,1.4-1.5S90,289.3,90.6,289.3z"/>
			<path class="st18" d="M98.6,300.6c-1.8,0-3.1-0.5-4.1-1.5S93,296.8,93,295c0-1.8,0.5-3.2,1.4-4.2s2.2-1.5,3.8-1.5
				c1.5,0,2.7,0.4,3.6,1.3s1.3,2.1,1.3,3.6v1.4h-7c0,0.8,0.3,1.5,0.8,2s1.1,0.7,2,0.7c0.7,0,1.3-0.1,1.9-0.2s1.2-0.4,1.8-0.7v2.3
				c-0.5,0.3-1.1,0.5-1.7,0.6S99.4,300.6,98.6,300.6z M98.2,291.4c-0.6,0-1.1,0.2-1.5,0.6s-0.6,1-0.6,1.7h4.2c0-0.7-0.2-1.3-0.6-1.7
				S98.8,291.4,98.2,291.4z"/>
			<path class="st18" d="M113.1,297.2c0,1.1-0.4,2-1.2,2.6s-1.9,0.9-3.5,0.9c-0.8,0-1.5-0.1-2-0.2s-1.1-0.3-1.6-0.5v-2.5
				c0.6,0.3,1.2,0.5,1.9,0.7s1.3,0.3,1.8,0.3c1.1,0,1.6-0.3,1.6-0.9c0-0.2-0.1-0.4-0.2-0.6s-0.4-0.3-0.7-0.5s-0.8-0.4-1.4-0.6
				c-0.8-0.4-1.5-0.7-1.9-1s-0.7-0.6-0.9-1s-0.3-0.9-0.3-1.4c0-1,0.4-1.7,1.1-2.3s1.8-0.8,3.2-0.8c1.3,0,2.6,0.3,3.8,0.9l-0.9,2.1
				c-0.5-0.2-1.1-0.4-1.5-0.6s-1-0.2-1.5-0.2c-0.9,0-1.3,0.2-1.3,0.7c0,0.3,0.1,0.5,0.4,0.7s0.9,0.5,1.9,0.9c0.9,0.3,1.5,0.7,1.9,1
				s0.7,0.6,0.9,1S113.1,296.7,113.1,297.2z"/>
			<path class="st18" d="M115.3,286.7c0-1,0.5-1.5,1.6-1.5s1.6,0.5,1.6,1.5c0,0.5-0.1,0.8-0.4,1.1s-0.7,0.4-1.2,0.4
				C115.8,288.2,115.3,287.7,115.3,286.7z M118.4,300.4h-3v-10.9h3V300.4z"/>
			<path class="st18" d="M129.1,297.2c0,1.1-0.4,2-1.2,2.6s-1.9,0.9-3.5,0.9c-0.8,0-1.5-0.1-2-0.2s-1.1-0.3-1.6-0.5v-2.5
				c0.6,0.3,1.2,0.5,1.9,0.7s1.3,0.3,1.8,0.3c1.1,0,1.6-0.3,1.6-0.9c0-0.2-0.1-0.4-0.2-0.6s-0.4-0.3-0.7-0.5s-0.8-0.4-1.4-0.6
				c-0.8-0.4-1.5-0.7-1.9-1s-0.7-0.6-0.9-1s-0.3-0.9-0.3-1.4c0-1,0.4-1.7,1.1-2.3s1.8-0.8,3.2-0.8c1.3,0,2.6,0.3,3.8,0.9l-0.9,2.1
				c-0.5-0.2-1.1-0.4-1.5-0.6s-1-0.2-1.5-0.2c-0.9,0-1.3,0.2-1.3,0.7c0,0.3,0.1,0.5,0.4,0.7s0.9,0.5,1.9,0.9c0.9,0.3,1.5,0.7,1.9,1
				c0.4,0.3,0.7,0.6,0.9,1S129.1,296.7,129.1,297.2z"/>
			<path class="st18" d="M136,298.3c0.5,0,1.1-0.1,1.9-0.3v2.2c-0.7,0.3-1.7,0.5-2.7,0.5c-1.2,0-2.1-0.3-2.6-0.9s-0.8-1.5-0.8-2.7
				v-5.3h-1.4v-1.3l1.6-1l0.9-2.3h1.9v2.3h3.1v2.2h-3.1v5.3c0,0.4,0.1,0.7,0.4,0.9S135.6,298.3,136,298.3z"/>
			<path class="st18" d="M140,286.7c0-1,0.5-1.5,1.6-1.5s1.6,0.5,1.6,1.5c0,0.5-0.1,0.8-0.4,1.1s-0.7,0.4-1.2,0.4
				C140.5,288.2,140,287.7,140,286.7z M143.1,300.4h-3v-10.9h3V300.4z"/>
			<path class="st18" d="M148.8,300.4l-4.2-10.9h3.1l2.1,6.2c0.2,0.8,0.4,1.5,0.4,2.2h0.1c0-0.6,0.2-1.4,0.4-2.2l2.1-6.2h3.1
				l-4.2,10.9H148.8z"/>
			<path class="st18" d="M162.5,300.6c-1.8,0-3.1-0.5-4.1-1.5s-1.5-2.3-1.5-4.1c0-1.8,0.5-3.2,1.4-4.2s2.2-1.5,3.8-1.5
				c1.5,0,2.7,0.4,3.6,1.3s1.3,2.1,1.3,3.6v1.4h-7c0,0.8,0.3,1.5,0.8,2s1.1,0.7,2,0.7c0.7,0,1.3-0.1,1.9-0.2s1.2-0.4,1.8-0.7v2.3
				c-0.5,0.3-1.1,0.5-1.7,0.6S163.4,300.6,162.5,300.6z M162.1,291.4c-0.6,0-1.1,0.2-1.5,0.6s-0.6,1-0.6,1.7h4.2
				c0-0.7-0.2-1.3-0.6-1.7S162.8,291.4,162.1,291.4z"/>
			<path class="st18" d="M169,291c0-0.5,0.1-1,0.4-1.2s0.7-0.4,1.3-0.4c0.5,0,1,0.1,1.3,0.4s0.4,0.7,0.4,1.2s-0.2,0.9-0.5,1.2
				s-0.7,0.4-1.2,0.4s-1-0.1-1.3-0.4S169,291.5,169,291z M169,299c0-0.5,0.1-1,0.4-1.2s0.7-0.4,1.3-0.4c0.5,0,1,0.1,1.3,0.4
				s0.4,0.7,0.4,1.2s-0.1,0.9-0.4,1.2s-0.7,0.4-1.2,0.4s-1-0.1-1.3-0.4S169,299.6,169,299z"/>
		</g>
		<g class="st17">
			<path class="st18" d="M186.7,288c-1.3,0-2.4,0.5-3.2,1.4s-1.2,2.3-1.2,3.9c0,1.8,0.4,3.1,1.1,4s1.8,1.3,3.2,1.3
				c0.6,0,1.2-0.1,1.8-0.2s1.2-0.3,1.8-0.5v2c-1.1,0.4-2.4,0.6-3.8,0.6c-2.1,0-3.7-0.6-4.8-1.9s-1.7-3.1-1.7-5.4
				c0-1.5,0.3-2.8,0.8-3.9s1.3-2,2.4-2.6s2.2-0.9,3.6-0.9c1.5,0,2.8,0.3,4,0.9l-0.8,1.9c-0.5-0.2-1-0.4-1.5-0.6S187.3,288,186.7,288
				z"/>
			<path class="st18" d="M202.6,295c0,1.8-0.5,3.1-1.4,4.1s-2.2,1.5-3.8,1.5c-1,0-1.9-0.2-2.7-0.7s-1.4-1.1-1.8-2s-0.6-1.8-0.6-3
				c0-1.8,0.4-3.1,1.3-4.1s2.2-1.5,3.8-1.5s2.8,0.5,3.7,1.5S202.6,293.3,202.6,295z M194.8,295c0,2.5,0.9,3.7,2.8,3.7
				c1.8,0,2.7-1.2,2.7-3.7s-0.9-3.7-2.8-3.7c-1,0-1.7,0.3-2.1,1S194.8,293.8,194.8,295z"/>
			<path class="st18" d="M214.8,300.4h-2.3v-6.6c0-0.8-0.2-1.5-0.5-1.9s-0.9-0.6-1.6-0.6c-1,0-1.7,0.3-2.1,0.9s-0.7,1.5-0.7,2.9v5.4
				h-2.3v-10.8h1.8l0.3,1.4h0.1c0.3-0.5,0.8-0.9,1.4-1.2s1.3-0.4,2-0.4c2.6,0,3.9,1.3,3.9,4L214.8,300.4L214.8,300.4z"/>
			<path class="st18" d="M222.3,300.6c-1.6,0-2.9-0.5-3.7-1.4s-1.3-2.3-1.3-4.1c0-1.8,0.4-3.2,1.3-4.2s2.2-1.5,3.9-1.5
				c1.1,0,2.2,0.2,3.1,0.6l-0.7,1.8c-1-0.4-1.8-0.6-2.4-0.6c-1.9,0-2.8,1.2-2.8,3.7c0,1.2,0.2,2.1,0.7,2.7s1.1,0.9,2,0.9
				c1,0,2-0.3,2.9-0.8v2c-0.4,0.2-0.8,0.4-1.3,0.5S223,300.6,222.3,300.6z"/>
			<path class="st18" d="M233.3,289.4c0.5,0,0.8,0,1.1,0.1l-0.2,2.1c-0.3-0.1-0.7-0.1-1-0.1c-0.9,0-1.7,0.3-2.2,0.9
				s-0.9,1.4-0.9,2.3v5.6h-2.3v-10.8h1.8l0.3,1.9h0.1c0.4-0.6,0.8-1.2,1.4-1.5S232.7,289.4,233.3,289.4z"/>
			<path class="st18" d="M241.2,300.6c-1.7,0-3-0.5-3.9-1.5s-1.4-2.3-1.4-4c0-1.8,0.4-3.2,1.3-4.2s2.1-1.5,3.6-1.5
				c1.4,0,2.6,0.4,3.4,1.3s1.2,2.1,1.2,3.6v1.2h-7.2c0,1,0.3,1.9,0.8,2.4s1.3,0.8,2.3,0.8c0.6,0,1.2-0.1,1.8-0.2s1.1-0.3,1.8-0.6
				v1.9c-0.6,0.3-1.1,0.5-1.7,0.6S241.9,300.6,241.2,300.6z M240.8,291.2c-0.7,0-1.3,0.2-1.8,0.7s-0.7,1.1-0.8,2h4.9
				c0-0.9-0.2-1.6-0.6-2S241.5,291.2,240.8,291.2z"/>
			<path class="st18" d="M252,298.8c0.6,0,1.1-0.1,1.7-0.3v1.7c-0.3,0.1-0.6,0.2-1,0.3s-0.8,0.1-1.2,0.1c-2.2,0-3.3-1.1-3.3-3.4
				v-5.8h-1.5v-1l1.6-0.8l0.8-2.3h1.4v2.4h3.1v1.7h-3.1v5.8c0,0.6,0.1,1,0.4,1.2S251.6,298.8,252,298.8z"/>
			<path class="st18" d="M260.6,300.6c-1.7,0-3-0.5-3.9-1.5s-1.4-2.3-1.4-4c0-1.8,0.4-3.2,1.3-4.2s2.1-1.5,3.6-1.5
				c1.4,0,2.6,0.4,3.4,1.3s1.2,2.1,1.2,3.6v1.2h-7.2c0,1,0.3,1.9,0.8,2.4s1.3,0.8,2.3,0.8c0.6,0,1.2-0.1,1.8-0.2s1.1-0.3,1.8-0.6
				v1.9c-0.6,0.3-1.1,0.5-1.7,0.6S261.3,300.6,260.6,300.6z M260.2,291.2c-0.7,0-1.3,0.2-1.8,0.7s-0.7,1.1-0.8,2h4.9
				c0-0.9-0.2-1.6-0.6-2S260.9,291.2,260.2,291.2z"/>
			<path class="st18" d="M279.8,297.4c0,1.1-0.4,1.9-1.2,2.4s-1.9,0.8-3.3,0.8s-2.6-0.2-3.5-0.7v-2c1.3,0.6,2.5,0.9,3.5,0.9
				c1.4,0,2.1-0.4,2.1-1.3c0-0.3-0.1-0.5-0.2-0.7s-0.4-0.4-0.8-0.6s-0.9-0.4-1.5-0.7c-1.2-0.5-2.1-1-2.5-1.4s-0.7-1.1-0.7-1.9
				c0-0.9,0.4-1.6,1.1-2.2s1.8-0.8,3-0.8c1.3,0,2.5,0.3,3.6,0.8l-0.7,1.7c-1.2-0.5-2.1-0.7-2.9-0.7c-1.2,0-1.8,0.3-1.8,1
				c0,0.3,0.2,0.6,0.5,0.9s1,0.6,2.1,1c0.9,0.3,1.5,0.7,1.9,0.9s0.7,0.6,0.9,1S279.8,296.8,279.8,297.4z"/>
			<path class="st18" d="M286.3,298.8c0.6,0,1.1-0.1,1.7-0.3v1.7c-0.3,0.1-0.6,0.2-1,0.3s-0.8,0.1-1.2,0.1c-2.2,0-3.3-1.1-3.3-3.4
				v-5.8H281v-1l1.6-0.8l0.8-2.3h1.4v2.4h3.1v1.7h-3.1v5.8c0,0.6,0.1,1,0.4,1.2C285.5,298.6,285.9,298.8,286.3,298.8z"/>
			<path class="st18" d="M295.6,289.4c0.5,0,0.8,0,1.1,0.1l-0.2,2.1c-0.3-0.1-0.7-0.1-1-0.1c-0.9,0-1.7,0.3-2.2,0.9
				c-0.6,0.6-0.9,1.4-0.9,2.3v5.6h-2.3v-10.8h1.8l0.3,1.9h0.1c0.4-0.6,0.8-1.2,1.4-1.5S295,289.4,295.6,289.4z"/>
			<path class="st18" d="M306.4,300.4l-0.3-1.4H306c-0.3,0.5-0.8,0.9-1.4,1.2c-0.6,0.3-1.3,0.4-2,0.4c-1.3,0-2.3-0.3-2.9-1
				s-1-1.6-1-3v-7.1h2.3v6.7c0,0.8,0.2,1.4,0.5,1.9c0.3,0.4,0.9,0.6,1.6,0.6c1,0,1.7-0.3,2.1-0.9c0.5-0.6,0.7-1.5,0.7-2.9v-5.4h2.3
				v10.8L306.4,300.4L306.4,300.4z"/>
			<path class="st18" d="M315.8,300.6c-1.6,0-2.9-0.5-3.7-1.4s-1.3-2.3-1.3-4.1c0-1.8,0.4-3.2,1.3-4.2s2.2-1.5,3.9-1.5
				c1.1,0,2.2,0.2,3.1,0.6l-0.7,1.8c-1-0.4-1.8-0.6-2.4-0.6c-1.9,0-2.8,1.2-2.8,3.7c0,1.2,0.2,2.1,0.7,2.7s1.1,0.9,2,0.9
				c1,0,2-0.3,2.9-0.8v2c-0.4,0.2-0.8,0.4-1.3,0.5C317.1,300.6,316.5,300.6,315.8,300.6z"/>
			<path class="st18" d="M325.4,298.8c0.6,0,1.1-0.1,1.7-0.3v1.7c-0.3,0.1-0.6,0.2-1,0.3s-0.8,0.1-1.2,0.1c-2.2,0-3.3-1.1-3.3-3.4
				v-5.8h-1.5v-1l1.6-0.8l0.8-2.3h1.4v2.4h3.1v1.7h-3.1v5.8c0,0.6,0.1,1,0.4,1.2S325,298.8,325.4,298.8z"/>
			<path class="st18" d="M336.9,300.4l-0.3-1.4h-0.1c-0.3,0.5-0.8,0.9-1.4,1.2s-1.3,0.4-2,0.4c-1.3,0-2.3-0.3-2.9-1s-1-1.6-1-3v-7.1
				h2.3v6.7c0,0.8,0.2,1.4,0.5,1.9s0.9,0.6,1.6,0.6c1,0,1.7-0.3,2.1-0.9s0.7-1.5,0.7-2.9v-5.4h2.3v10.8L336.9,300.4L336.9,300.4z"/>
			<path class="st18" d="M347.4,289.4c0.5,0,0.8,0,1.1,0.1l-0.2,2.1c-0.3-0.1-0.7-0.1-1-0.1c-0.9,0-1.7,0.3-2.2,0.9
				s-0.9,1.4-0.9,2.3v5.6h-2.3v-10.8h1.8l0.3,1.9h0.1c0.4-0.6,0.8-1.2,1.4-1.5S346.8,289.4,347.4,289.4z"/>
			<path class="st18" d="M355.3,300.6c-1.7,0-3-0.5-3.9-1.5s-1.4-2.3-1.4-4c0-1.8,0.4-3.2,1.3-4.2s2.1-1.5,3.6-1.5
				c1.4,0,2.6,0.4,3.4,1.3s1.2,2.1,1.2,3.6v1.2h-7.2c0,1,0.3,1.9,0.8,2.4s1.3,0.8,2.3,0.8c0.6,0,1.2-0.1,1.8-0.2s1.1-0.3,1.8-0.6
				v1.9c-0.6,0.3-1.1,0.5-1.7,0.6S356,300.6,355.3,300.6z M354.9,291.2c-0.7,0-1.3,0.2-1.8,0.7s-0.7,1.1-0.8,2h4.9
				c0-0.9-0.2-1.6-0.6-2S355.6,291.2,354.9,291.2z"/>
			<path class="st18" d="M361.8,299.2c0-0.5,0.1-0.8,0.4-1.1s0.6-0.4,1.1-0.4s0.8,0.1,1.1,0.4s0.4,0.6,0.4,1.1s-0.1,0.8-0.4,1.1
				s-0.6,0.4-1.1,0.4s-0.8-0.1-1.1-0.4S361.8,299.7,361.8,299.2z"/>
			<path class="st18" d="M378,300.4h-2.3v-12.3h-4.2v-2h10.7v2H378V300.4z"/>
			<path class="st18" d="M382.5,289.6h2.5l2.2,6.1c0.3,0.9,0.6,1.7,0.7,2.5h0.1c0.1-0.4,0.2-0.8,0.3-1.3s1-2.9,2.5-7.3h2.5
				l-4.6,12.2c-0.8,2.2-2.2,3.4-4.2,3.4c-0.5,0-1-0.1-1.5-0.2v-1.8c0.3,0.1,0.7,0.1,1.2,0.1c1.1,0,1.9-0.6,2.3-1.9l0.4-1
				L382.5,289.6z"/>
			<path class="st18" d="M400.3,300.6c-1.4,0-2.4-0.5-3.2-1.5H397c0.1,0.9,0.1,1.5,0.1,1.7v4.4h-2.3v-15.6h1.9
				c0.1,0.2,0.2,0.7,0.3,1.4h0.1c0.7-1.1,1.8-1.6,3.2-1.6c1.3,0,2.4,0.5,3.1,1.5s1.1,2.3,1.1,4.1s-0.4,3.1-1.1,4.1
				S401.7,300.6,400.3,300.6z M399.8,291.3c-0.9,0-1.6,0.3-2,0.8s-0.6,1.4-0.6,2.6v0.3c0,1.3,0.2,2.3,0.6,2.9s1.1,0.9,2,0.9
				c0.8,0,1.4-0.3,1.8-1s0.6-1.6,0.6-2.8c0-1.2-0.2-2.1-0.6-2.7S400.6,291.3,399.8,291.3z"/>
			<path class="st18" d="M407.2,286.8c0-0.4,0.1-0.7,0.3-0.9s0.5-0.3,1-0.3c0.4,0,0.7,0.1,0.9,0.3s0.3,0.5,0.3,0.9s-0.1,0.7-0.3,0.9
				s-0.5,0.3-0.9,0.3s-0.7-0.1-1-0.3S407.2,287.2,407.2,286.8z M409.6,300.4h-2.3v-10.8h2.3V300.4z"/>
			<path class="st18" d="M417.2,300.6c-1.6,0-2.9-0.5-3.7-1.4s-1.3-2.3-1.3-4.1c0-1.8,0.4-3.2,1.3-4.2s2.2-1.5,3.9-1.5
				c1.1,0,2.2,0.2,3.1,0.6l-0.7,1.8c-1-0.4-1.8-0.6-2.4-0.6c-1.9,0-2.8,1.2-2.8,3.7c0,1.2,0.2,2.1,0.7,2.7s1.1,0.9,2,0.9
				c1,0,2-0.3,2.9-0.8v2c-0.4,0.2-0.8,0.4-1.3,0.5S417.9,300.6,417.2,300.6z"/>
			<path class="st18" d="M429.5,300.4l-0.5-1.5l0,0c-0.5,0.7-1,1.1-1.6,1.3s-1.2,0.4-2,0.4c-1.1,0-1.9-0.3-2.5-0.9s-0.9-1.4-0.9-2.4
				c0-1.1,0.4-2,1.2-2.5s2.1-0.9,3.8-0.9l1.9-0.1v-0.6c0-0.7-0.2-1.2-0.5-1.5s-0.8-0.5-1.5-0.5c-0.6,0-1.1,0.1-1.6,0.2
				s-1,0.4-1.5,0.6l-0.7-1.6c0.6-0.3,1.2-0.5,1.9-0.7s1.4-0.2,2-0.2c1.4,0,2.4,0.3,3.1,0.9s1,1.5,1,2.8v7.3L429.5,300.4L429.5,300.4
				z M426.1,298.9c0.8,0,1.5-0.2,2-0.7s0.8-1.1,0.8-2v-0.9l-1.4,0.1c-1.1,0-1.9,0.2-2.4,0.5s-0.7,0.8-0.7,1.5c0,0.5,0.1,0.9,0.4,1.1
				S425.5,298.9,426.1,298.9z"/>
			<path class="st18" d="M436.7,300.4h-2.3v-15.2h2.3V300.4z"/>
			<path class="st18" d="M454.7,295c0,1.8-0.5,3.1-1.4,4.1s-2.2,1.5-3.8,1.5c-1,0-1.9-0.2-2.7-0.7s-1.4-1.1-1.8-2s-0.6-1.8-0.6-3
				c0-1.8,0.4-3.1,1.3-4.1s2.2-1.5,3.8-1.5c1.6,0,2.8,0.5,3.7,1.5S454.7,293.3,454.7,295z M446.9,295c0,2.5,0.9,3.7,2.8,3.7
				c1.8,0,2.7-1.2,2.7-3.7s-0.9-3.7-2.8-3.7c-1,0-1.7,0.3-2.1,1S446.9,293.8,446.9,295z"/>
			<path class="st18" d="M462.8,291.4h-2.6v9.1h-2.3v-9.1h-1.8v-1.1l1.8-0.7v-0.7c0-1.3,0.3-2.2,0.9-2.8s1.5-0.9,2.7-0.9
				c0.8,0,1.6,0.1,2.4,0.4l-0.6,1.7c-0.6-0.2-1.1-0.3-1.6-0.3s-0.9,0.2-1.1,0.5s-0.4,0.8-0.4,1.5v0.7h2.6V291.4z"/>
			<path class="st18" d="M479.4,295c0,1.8-0.5,3.1-1.4,4.1s-2.2,1.5-3.8,1.5c-1,0-1.9-0.2-2.7-0.7s-1.4-1.1-1.8-2s-0.6-1.8-0.6-3
				c0-1.8,0.4-3.1,1.3-4.1s2.2-1.5,3.8-1.5c1.6,0,2.8,0.5,3.7,1.5S479.4,293.3,479.4,295z M471.5,295c0,2.5,0.9,3.7,2.8,3.7
				c1.8,0,2.7-1.2,2.7-3.7s-0.9-3.7-2.8-3.7c-1,0-1.7,0.3-2.1,1S471.5,293.8,471.5,295z"/>
			<path class="st18" d="M487.4,291.4h-2.6v9.1h-2.3v-9.1h-1.8v-1.1l1.8-0.7v-0.7c0-1.3,0.3-2.2,0.9-2.8s1.5-0.9,2.7-0.9
				c0.8,0,1.6,0.1,2.4,0.4l-0.6,1.7c-0.6-0.2-1.1-0.3-1.6-0.3s-0.9,0.2-1.1,0.5s-0.4,0.8-0.4,1.5v0.7h2.6V291.4z M494.7,291.4h-2.6
				v9.1h-2.3v-9.1H488v-1.1l1.8-0.7v-0.7c0-1.3,0.3-2.2,0.9-2.8s1.5-0.9,2.7-0.9c0.8,0,1.6,0.1,2.4,0.4l-0.6,1.7
				c-0.6-0.2-1.1-0.3-1.6-0.3s-0.9,0.2-1.1,0.5s-0.4,0.8-0.4,1.5v0.7h2.6L494.7,291.4L494.7,291.4z M496.4,286.8
				c0-0.4,0.1-0.7,0.3-0.9s0.5-0.3,1-0.3c0.4,0,0.7,0.1,0.9,0.3s0.3,0.5,0.3,0.9s-0.1,0.7-0.3,0.9s-0.5,0.3-0.9,0.3s-0.7-0.1-1-0.3
				S496.4,287.2,496.4,286.8z M498.8,300.4h-2.3v-10.8h2.3V300.4z"/>
			<path class="st18" d="M506.5,300.6c-1.6,0-2.9-0.5-3.7-1.4s-1.3-2.3-1.3-4.1c0-1.8,0.4-3.2,1.3-4.2s2.2-1.5,3.9-1.5
				c1.1,0,2.2,0.2,3.1,0.6l-0.7,1.8c-1-0.4-1.8-0.6-2.4-0.6c-1.9,0-2.8,1.2-2.8,3.7c0,1.2,0.2,2.1,0.7,2.7s1.1,0.9,2,0.9
				c1,0,2-0.3,2.9-0.8v2c-0.4,0.2-0.8,0.4-1.3,0.5S507.1,300.6,506.5,300.6z"/>
			<path class="st18" d="M516.7,300.6c-1.7,0-3-0.5-3.9-1.5s-1.4-2.3-1.4-4c0-1.8,0.4-3.2,1.3-4.2s2.1-1.5,3.6-1.5
				c1.4,0,2.6,0.4,3.4,1.3s1.2,2.1,1.2,3.6v1.2h-7.2c0,1,0.3,1.9,0.8,2.4s1.3,0.8,2.3,0.8c0.6,0,1.2-0.1,1.8-0.2s1.1-0.3,1.8-0.6
				v1.9c-0.6,0.3-1.1,0.5-1.7,0.6S517.5,300.6,516.7,300.6z M516.3,291.2c-0.7,0-1.3,0.2-1.8,0.7s-0.7,1.1-0.8,2h4.9
				c0-0.9-0.2-1.6-0.6-2S517.1,291.2,516.3,291.2z"/>
		</g>
		<g class="st17">
			<path class="st18" d="M137.4,313.4c1.3,0,2.4,0.5,3.1,1.5s1.1,2.3,1.1,4.1c0,1.8-0.4,3.1-1.1,4.1s-1.8,1.5-3.2,1.5
				s-2.4-0.5-3.2-1.5H134l-0.4,1.3h-1.7v-15.2h2.3v3.6c0,0.3,0,0.7,0,1.2s0,0.9-0.1,1h0.1C134.9,314,136,313.4,137.4,313.4z
				 M136.8,315.3c-0.9,0-1.6,0.3-2,0.8s-0.6,1.5-0.6,2.7v0.2c0,1.3,0.2,2.3,0.6,2.9s1.1,0.9,2,0.9c0.8,0,1.4-0.3,1.9-1
				s0.6-1.6,0.6-2.8C139.3,316.5,138.5,315.3,136.8,315.3z"/>
			<path class="st18" d="M151.9,324.4l-0.3-1.4h-0.1c-0.3,0.5-0.8,0.9-1.4,1.2s-1.3,0.4-2,0.4c-1.3,0-2.3-0.3-2.9-1s-1-1.6-1-3v-7.1
				h2.3v6.7c0,0.8,0.2,1.4,0.5,1.9s0.9,0.6,1.6,0.6c1,0,1.7-0.3,2.1-0.9s0.7-1.5,0.7-2.9v-5.4h2.3v10.8L151.9,324.4L151.9,324.4z"/>
			<path class="st18" d="M156.9,310.8c0-0.4,0.1-0.7,0.3-0.9s0.5-0.3,1-0.3c0.4,0,0.7,0.1,0.9,0.3s0.3,0.5,0.3,0.9s-0.1,0.7-0.3,0.9
				s-0.5,0.3-0.9,0.3s-0.7-0.1-1-0.3S156.9,311.2,156.9,310.8z M159.3,324.4H157v-10.8h2.3V324.4z"/>
			<path class="st18" d="M164.9,324.4h-2.3v-15.2h2.3V324.4z"/>
			<path class="st18" d="M171.8,324.6c-1.3,0-2.4-0.5-3.2-1.5s-1.1-2.3-1.1-4.1c0-1.8,0.4-3.1,1.1-4.1s1.8-1.5,3.2-1.5
				s2.5,0.5,3.2,1.6h0.1c-0.1-0.8-0.2-1.4-0.2-1.8v-3.9h2.3v15.2h-1.8l-0.4-1.4h0C174.3,324.1,173.2,324.6,171.8,324.6z
				 M172.4,322.8c0.9,0,1.6-0.3,2.1-0.8s0.7-1.4,0.7-2.6v-0.3c0-1.4-0.2-2.3-0.7-2.9s-1.1-0.9-2.1-0.9c-0.8,0-1.4,0.3-1.9,1
				s-0.7,1.6-0.7,2.8c0,1.2,0.2,2.1,0.6,2.7S171.6,322.8,172.4,322.8z"/>
			<path class="st18" d="M180.5,310.8c0-0.4,0.1-0.7,0.3-0.9s0.5-0.3,1-0.3c0.4,0,0.7,0.1,0.9,0.3s0.3,0.5,0.3,0.9s-0.1,0.7-0.3,0.9
				s-0.5,0.3-0.9,0.3s-0.7-0.1-1-0.3S180.5,311.2,180.5,310.8z M182.9,324.4h-2.3v-10.8h2.3V324.4z"/>
			<path class="st18" d="M195.7,324.4h-2.3v-6.6c0-0.8-0.2-1.5-0.5-1.9s-0.9-0.6-1.6-0.6c-1,0-1.7,0.3-2.1,0.9s-0.7,1.5-0.7,2.9v5.4
				h-2.3v-10.8h1.8l0.3,1.4h0.1c0.3-0.5,0.8-0.9,1.4-1.2s1.3-0.4,2-0.4c2.6,0,3.9,1.3,3.9,4L195.7,324.4L195.7,324.4z"/>
			<path class="st18" d="M208,313.6v1.3l-1.8,0.3c0.2,0.2,0.3,0.5,0.4,0.8s0.2,0.7,0.2,1.1c0,1.1-0.4,2-1.2,2.6s-1.8,1-3.2,1
				c-0.3,0-0.7,0-0.9-0.1c-0.5,0.3-0.7,0.7-0.7,1.1c0,0.2,0.1,0.4,0.3,0.6s0.7,0.2,1.3,0.2h1.9c1.2,0,2.1,0.3,2.7,0.8
				s0.9,1.2,0.9,2.2c0,1.2-0.5,2.2-1.5,2.8s-2.5,1-4.4,1c-1.5,0-2.6-0.3-3.4-0.8s-1.2-1.3-1.2-2.2c0-0.7,0.2-1.2,0.6-1.7
				s1-0.8,1.8-0.9c-0.3-0.1-0.6-0.3-0.8-0.6s-0.3-0.6-0.3-0.9c0-0.4,0.1-0.7,0.3-1s0.6-0.6,1-0.8c-0.6-0.2-1-0.6-1.4-1.2
				s-0.5-1.2-0.5-1.9c0-1.2,0.4-2.1,1.1-2.7s1.8-1,3.2-1c0.3,0,0.6,0,1,0.1s0.6,0.1,0.8,0.1h3.8V313.6z M199.5,326.1
				c0,0.5,0.2,0.9,0.7,1.1s1.1,0.4,1.9,0.4c1.2,0,2.2-0.2,2.8-0.5s0.9-0.8,0.9-1.4c0-0.5-0.2-0.8-0.5-1s-1-0.3-1.9-0.3h-1.7
				c-0.7,0-1.2,0.2-1.6,0.5S199.5,325.6,199.5,326.1z M200.5,317.1c0,0.7,0.2,1.2,0.5,1.6s0.8,0.5,1.5,0.5c1.3,0,2-0.7,2-2.1
				c0-0.7-0.2-1.2-0.5-1.6s-0.8-0.6-1.5-0.6s-1.2,0.2-1.5,0.6S200.5,316.4,200.5,317.1z"/>
			<path class="st18" d="M217.3,321.4c0,1.1-0.4,1.9-1.2,2.4s-1.9,0.8-3.3,0.8c-1.4,0-2.6-0.2-3.5-0.7v-2c1.3,0.6,2.5,0.9,3.5,0.9
				c1.4,0,2.1-0.4,2.1-1.3c0-0.3-0.1-0.5-0.2-0.7s-0.4-0.4-0.8-0.6s-0.9-0.4-1.5-0.7c-1.2-0.5-2.1-1-2.5-1.4s-0.7-1.1-0.7-1.9
				c0-0.9,0.4-1.6,1.1-2.2s1.8-0.8,3-0.8c1.3,0,2.5,0.3,3.6,0.8l-0.7,1.7c-1.2-0.5-2.1-0.7-2.9-0.7c-1.2,0-1.8,0.3-1.8,1
				c0,0.3,0.2,0.6,0.5,0.9s1,0.6,2.1,1c0.9,0.3,1.5,0.7,1.9,0.9s0.7,0.6,0.9,1S217.3,320.8,217.3,321.4z"/>
			<path class="st18" d="M231.7,324.4l-0.5-1.5h-0.1c-0.5,0.7-1,1.1-1.6,1.3s-1.2,0.4-2,0.4c-1.1,0-1.9-0.3-2.5-0.9
				s-0.9-1.4-0.9-2.4c0-1.1,0.4-2,1.2-2.5s2.1-0.9,3.8-0.9l1.9-0.1v-0.6c0-0.7-0.2-1.2-0.5-1.5s-0.8-0.5-1.5-0.5
				c-0.6,0-1.1,0.1-1.6,0.2s-1,0.4-1.5,0.6l-0.7-1.6c0.6-0.3,1.2-0.5,1.9-0.7s1.4-0.2,2-0.2c1.4,0,2.4,0.3,3.1,0.9s1,1.5,1,2.8v7.3
				L231.7,324.4L231.7,324.4z M228.3,322.9c0.8,0,1.5-0.2,2-0.7s0.8-1.1,0.8-2v-0.9l-1.4,0.1c-1.1,0-1.9,0.2-2.4,0.5
				s-0.7,0.8-0.7,1.5c0,0.5,0.1,0.9,0.4,1.1S227.7,322.9,228.3,322.9z"/>
			<path class="st18" d="M246.1,324.4h-2.3v-6.6c0-0.8-0.2-1.5-0.5-1.9s-0.9-0.6-1.6-0.6c-1,0-1.7,0.3-2.1,0.9s-0.7,1.5-0.7,2.9v5.4
				h-2.3v-10.8h1.8l0.3,1.4h0.1c0.3-0.5,0.8-0.9,1.4-1.2s1.3-0.4,2-0.4c2.6,0,3.9,1.3,3.9,4L246.1,324.4L246.1,324.4z"/>
			<path class="st18" d="M252.9,324.6c-1.3,0-2.4-0.5-3.2-1.5s-1.1-2.3-1.1-4.1c0-1.8,0.4-3.1,1.1-4.1s1.8-1.5,3.2-1.5
				s2.5,0.5,3.2,1.6h0.1c-0.1-0.8-0.2-1.4-0.2-1.8v-3.9h2.3v15.2h-1.8l-0.4-1.4H256C255.4,324.1,254.3,324.6,252.9,324.6z
				 M253.5,322.8c0.9,0,1.6-0.3,2.1-0.8s0.7-1.4,0.7-2.6v-0.3c0-1.4-0.2-2.3-0.7-2.9s-1.1-0.9-2.1-0.9c-0.8,0-1.4,0.3-1.9,1
				s-0.7,1.6-0.7,2.8c0,1.2,0.2,2.1,0.6,2.7S252.7,322.8,253.5,322.8z"/>
			<path class="st18" d="M274.2,321.4c0,1.1-0.4,1.9-1.2,2.4s-1.9,0.8-3.3,0.8s-2.6-0.2-3.5-0.7v-2c1.3,0.6,2.5,0.9,3.5,0.9
				c1.4,0,2.1-0.4,2.1-1.3c0-0.3-0.1-0.5-0.2-0.7s-0.4-0.4-0.8-0.6s-0.9-0.4-1.5-0.7c-1.2-0.5-2.1-1-2.5-1.4s-0.7-1.1-0.7-1.9
				c0-0.9,0.4-1.6,1.1-2.2s1.8-0.8,3-0.8c1.3,0,2.5,0.3,3.6,0.8l-0.7,1.7c-1.2-0.5-2.1-0.7-2.9-0.7c-1.2,0-1.8,0.3-1.8,1
				c0,0.3,0.2,0.6,0.5,0.9s1,0.6,2.1,1c0.9,0.3,1.5,0.7,1.9,0.9s0.7,0.6,0.9,1S274.2,320.8,274.2,321.4z"/>
			<path class="st18" d="M286.1,324.4h-2.3v-6.6c0-0.8-0.2-1.5-0.5-1.9s-0.9-0.6-1.6-0.6c-1,0-1.7,0.3-2.1,0.9s-0.7,1.5-0.7,2.9v5.4
				h-2.3v-15.2h2.3v3.9c0,0.6,0,1.3-0.1,2h0.1c0.3-0.5,0.7-0.9,1.3-1.2s1.2-0.4,1.9-0.4c2.6,0,3.9,1.3,3.9,4v6.8H286.1z"/>
			<path class="st18" d="M298.9,319c0,1.8-0.5,3.1-1.4,4.1s-2.2,1.5-3.8,1.5c-1,0-1.9-0.2-2.7-0.7s-1.4-1.1-1.8-2s-0.6-1.8-0.6-3
				c0-1.8,0.4-3.1,1.3-4.1s2.2-1.5,3.8-1.5c1.6,0,2.8,0.5,3.7,1.5S298.9,317.3,298.9,319z M291.1,319c0,2.5,0.9,3.7,2.8,3.7
				c1.8,0,2.7-1.2,2.7-3.7s-0.9-3.7-2.8-3.7c-1,0-1.7,0.3-2.1,1S291.1,317.8,291.1,319z"/>
			<path class="st18" d="M307,324.6c-1.4,0-2.4-0.5-3.2-1.5h-0.1c0.1,0.9,0.1,1.5,0.1,1.7v4.4h-2.3v-15.6h1.9
				c0.1,0.2,0.2,0.7,0.3,1.4h0.1c0.7-1.1,1.8-1.6,3.2-1.6c1.3,0,2.4,0.5,3.1,1.5s1.1,2.3,1.1,4.1s-0.4,3.1-1.1,4.1
				S308.4,324.6,307,324.6z M306.5,315.3c-0.9,0-1.6,0.3-2,0.8s-0.6,1.4-0.6,2.6v0.3c0,1.3,0.2,2.3,0.6,2.9s1.1,0.9,2,0.9
				c0.8,0,1.4-0.3,1.8-1s0.6-1.6,0.6-2.8c0-1.2-0.2-2.1-0.6-2.7S307.3,315.3,306.5,315.3z"/>
			<path class="st18" d="M319.5,324.6c-1.4,0-2.4-0.5-3.2-1.5h-0.1c0.1,0.9,0.1,1.5,0.1,1.7v4.4H314v-15.6h1.9
				c0.1,0.2,0.2,0.7,0.3,1.4h0.1c0.7-1.1,1.8-1.6,3.2-1.6c1.3,0,2.4,0.5,3.1,1.5s1.1,2.3,1.1,4.1s-0.4,3.1-1.1,4.1
				S320.8,324.6,319.5,324.6z M318.9,315.3c-0.9,0-1.6,0.3-2,0.8s-0.6,1.4-0.6,2.6v0.3c0,1.3,0.2,2.3,0.6,2.9s1.1,0.9,2,0.9
				c0.8,0,1.4-0.3,1.8-1s0.6-1.6,0.6-2.8c0-1.2-0.2-2.1-0.6-2.7S319.8,315.3,318.9,315.3z"/>
			<path class="st18" d="M326.3,310.8c0-0.4,0.1-0.7,0.3-0.9s0.5-0.3,1-0.3c0.4,0,0.7,0.1,0.9,0.3s0.3,0.5,0.3,0.9s-0.1,0.7-0.3,0.9
				s-0.5,0.3-0.9,0.3s-0.7-0.1-1-0.3S326.3,311.2,326.3,310.8z M328.8,324.4h-2.3v-10.8h2.3V324.4z"/>
			<path class="st18" d="M341.6,324.4h-2.3v-6.6c0-0.8-0.2-1.5-0.5-1.9s-0.9-0.6-1.6-0.6c-1,0-1.7,0.3-2.1,0.9s-0.7,1.5-0.7,2.9v5.4
				h-2.3v-10.8h1.8l0.3,1.4h0.1c0.3-0.5,0.8-0.9,1.4-1.2s1.3-0.4,2-0.4c2.6,0,3.9,1.3,3.9,4L341.6,324.4L341.6,324.4z"/>
			<path class="st18" d="M353.9,313.6v1.3l-1.8,0.3c0.2,0.2,0.3,0.5,0.4,0.8s0.2,0.7,0.2,1.1c0,1.1-0.4,2-1.2,2.6s-1.8,1-3.2,1
				c-0.3,0-0.7,0-0.9-0.1c-0.5,0.3-0.7,0.7-0.7,1.1c0,0.2,0.1,0.4,0.3,0.6s0.7,0.2,1.3,0.2h1.9c1.2,0,2.1,0.3,2.7,0.8
				s0.9,1.2,0.9,2.2c0,1.2-0.5,2.2-1.5,2.8s-2.5,1-4.4,1c-1.5,0-2.6-0.3-3.4-0.8s-1.2-1.3-1.2-2.2c0-0.7,0.2-1.2,0.6-1.7
				s1-0.8,1.8-0.9c-0.3-0.1-0.6-0.3-0.8-0.6s-0.3-0.6-0.3-0.9c0-0.4,0.1-0.7,0.3-1s0.6-0.6,1-0.8c-0.6-0.2-1-0.6-1.4-1.2
				s-0.5-1.2-0.5-1.9c0-1.2,0.4-2.1,1.1-2.7s1.8-1,3.2-1c0.3,0,0.6,0,1,0.1s0.6,0.1,0.8,0.1h3.8V313.6z M345.4,326.1
				c0,0.5,0.2,0.9,0.7,1.1s1.1,0.4,1.9,0.4c1.2,0,2.2-0.2,2.8-0.5s0.9-0.8,0.9-1.4c0-0.5-0.2-0.8-0.5-1s-1-0.3-1.9-0.3h-1.7
				c-0.7,0-1.2,0.2-1.6,0.5S345.4,325.6,345.4,326.1z M346.4,317.1c0,0.7,0.2,1.2,0.5,1.6s0.8,0.5,1.5,0.5c1.3,0,2-0.7,2-2.1
				c0-0.7-0.2-1.2-0.5-1.6s-0.8-0.6-1.5-0.6s-1.2,0.2-1.5,0.6S346.4,316.4,346.4,317.1z"/>
			<path class="st18" d="M365.4,324.6c-1.6,0-2.9-0.5-3.7-1.4s-1.3-2.3-1.3-4.1c0-1.8,0.4-3.2,1.3-4.2s2.2-1.5,3.9-1.5
				c1.1,0,2.2,0.2,3.1,0.6l-0.7,1.8c-1-0.4-1.8-0.6-2.4-0.6c-1.9,0-2.8,1.2-2.8,3.7c0,1.2,0.2,2.1,0.7,2.7s1.1,0.9,2,0.9
				c1,0,2-0.3,2.9-0.8v2c-0.4,0.2-0.8,0.4-1.3,0.5S366.1,324.6,365.4,324.6z"/>
			<path class="st18" d="M375.7,324.6c-1.7,0-3-0.5-3.9-1.5s-1.4-2.3-1.4-4c0-1.8,0.4-3.2,1.3-4.2s2.1-1.5,3.6-1.5
				c1.4,0,2.6,0.4,3.4,1.3s1.2,2.1,1.2,3.6v1.2h-7.2c0,1,0.3,1.9,0.8,2.4s1.3,0.8,2.3,0.8c0.6,0,1.2-0.1,1.8-0.2s1.1-0.3,1.8-0.6
				v1.9c-0.6,0.3-1.1,0.5-1.7,0.6S376.4,324.6,375.7,324.6z M375.3,315.2c-0.7,0-1.3,0.2-1.8,0.7s-0.7,1.1-0.8,2h4.9
				c0-0.9-0.2-1.6-0.6-2S376,315.2,375.3,315.2z"/>
			<path class="st18" d="M392,324.4h-2.3v-6.6c0-0.8-0.2-1.5-0.5-1.9s-0.9-0.6-1.6-0.6c-1,0-1.7,0.3-2.1,0.9s-0.7,1.5-0.7,2.9v5.4
				h-2.3v-10.8h1.8l0.3,1.4h0.1c0.3-0.5,0.8-0.9,1.4-1.2s1.3-0.4,2-0.4c2.6,0,3.9,1.3,3.9,4L392,324.4L392,324.4z"/>
			<path class="st18" d="M399.2,322.8c0.6,0,1.1-0.1,1.7-0.3v1.7c-0.3,0.1-0.6,0.2-1,0.3s-0.8,0.1-1.2,0.1c-2.2,0-3.3-1.1-3.3-3.4
				v-5.8h-1.5v-1l1.6-0.8l0.8-2.3h1.4v2.4h3.1v1.7h-3.1v5.8c0,0.6,0.1,1,0.4,1.2S398.8,322.8,399.2,322.8z"/>
			<path class="st18" d="M407.8,324.6c-1.7,0-3-0.5-3.9-1.5s-1.4-2.3-1.4-4c0-1.8,0.4-3.2,1.3-4.2s2.1-1.5,3.6-1.5
				c1.4,0,2.6,0.4,3.4,1.3s1.2,2.1,1.2,3.6v1.2h-7.2c0,1,0.3,1.9,0.8,2.4s1.3,0.8,2.3,0.8c0.6,0,1.2-0.1,1.8-0.2s1.1-0.3,1.8-0.6
				v1.9c-0.6,0.3-1.1,0.5-1.7,0.6S408.5,324.6,407.8,324.6z M407.3,315.2c-0.7,0-1.3,0.2-1.8,0.7s-0.7,1.1-0.8,2h4.9
				c0-0.9-0.2-1.6-0.6-2S408.1,315.2,407.3,315.2z"/>
			<path class="st18" d="M420,313.4c0.5,0,0.8,0,1.1,0.1l-0.2,2.1c-0.3-0.1-0.7-0.1-1-0.1c-0.9,0-1.7,0.3-2.2,0.9s-0.9,1.4-0.9,2.3
				v5.6h-2.3v-10.8h1.8l0.3,1.9h0.1c0.4-0.6,0.8-1.2,1.4-1.5S419.4,313.4,420,313.4z"/>
			<path class="st18" d="M430.5,321.4c0,1.1-0.4,1.9-1.2,2.4s-1.9,0.8-3.3,0.8s-2.6-0.2-3.5-0.7v-2c1.3,0.6,2.5,0.9,3.5,0.9
				c1.4,0,2.1-0.4,2.1-1.3c0-0.3-0.1-0.5-0.2-0.7s-0.4-0.4-0.8-0.6s-0.9-0.4-1.5-0.7c-1.2-0.5-2.1-1-2.5-1.4s-0.7-1.1-0.7-1.9
				c0-0.9,0.4-1.6,1.1-2.2s1.8-0.8,3-0.8c1.3,0,2.5,0.3,3.6,0.8l-0.7,1.7c-1.2-0.5-2.1-0.7-2.9-0.7c-1.2,0-1.8,0.3-1.8,1
				c0,0.3,0.2,0.6,0.5,0.9s1,0.6,2.1,1c0.9,0.3,1.5,0.7,1.9,0.9s0.7,0.6,0.9,1S430.5,320.8,430.5,321.4z"/>
			<path class="st18" d="M432.6,323.2c0-0.5,0.1-0.8,0.4-1.1s0.6-0.4,1.1-0.4s0.8,0.1,1.1,0.4s0.4,0.6,0.4,1.1s-0.1,0.8-0.4,1.1
				s-0.6,0.4-1.1,0.4s-0.8-0.1-1.1-0.4S432.6,323.7,432.6,323.2z"/>
		</g>
	</g>
</g>
</svg>
