<?xml version="1.0" encoding="utf-8"?>
<!-- Generator: Adobe Illustrator 21.0.0, SVG Export Plug-In . SVG Version: 6.00 Build 0)  -->
<svg version="1.1" id="Layer_1" xmlns="http://www.w3.org/2000/svg" xmlns:xlink="http://www.w3.org/1999/xlink" x="0px" y="0px"
	 viewBox="0 0 567 349.3" style="enable-background:new 0 0 567 349.3;" xml:space="preserve">
<style type="text/css">
	.st0{fill:#E8E7E1;}
	.st1{fill:#5F341F;}
	.st2{fill:#E9E8E5;}
	.st3{fill:#FCF08A;}
	.st4{fill:#FEDC42;}
	.st5{fill:#FF6700;}
	.st6{fill:#FA8936;}
	.st7{enable-background:new    ;}
	.st8{fill:#6F4635;}
	.st9{fill:#AE0A05;}
	.st10{fill:#FEFCC2;}
	.st11{fill:#900805;}
	.st12{fill:#957C71;}
	.st13{fill:#856254;}
	.st14{fill:#DBCAE3;}
	.st15{fill:#F8F3F8;}
	.st16{fill:#EE0A1B;}
	.st17{fill:#FD8A3C;}
	.st18{fill:#45A8AD;}
	.st19{fill:#FCA673;}
	.st20{fill:#793628;}
	.st21{fill:#CEA192;}
	.st22{fill:#655F5F;}
	.st23{fill:#8A8380;}
	.st24{fill:#7D7775;}
	.st25{fill:#B19563;}
	.st26{fill:#996834;}
	.st27{fill:#F0E1C0;}
	.st28{opacity:0.3;fill:#070606;enable-background:new    ;}
	.st29{opacity:0.95;fill:#FFFFFF;enable-background:new    ;}
	.st30{fill:#1F191A;}
	.st31{fill:#FFFFFF;}
</style>
<g id="Layer_2">
</g>
<g id="Layer_1_1_">
</g>
<g id="labels">
	<g>
		<g>
			<path class="st0" d="M562.1,349.3H4.9c-2.7,0-4.9-2.2-4.9-5V5c0-2.7,2.2-5,4.9-5h557.2c2.7,0,4.9,2.2,4.9,5v339.3
				C567,347,564.8,349.3,562.1,349.3z"/>
			<path class="st0" d="M562.1,349.3H4.9c-2.7,0-4.9-2.2-4.9-5V5c0-2.7,2.2-5,4.9-5h557.2c2.7,0,4.9,2.2,4.9,5v339.3
				C567,347,564.8,349.3,562.1,349.3z"/>
		</g>
		<g id="XMLID_1_">
			<g>
				<g>
					<g>
						<polygon class="st1" points="270,221 370.7,162.5 370.8,112.6 270.2,171.1 						"/>
					</g>
					<g>
						<polygon class="st2" points="231,103.6 331.6,45.1 292.1,67.2 191.5,125.7 						"/>
					</g>
					<g>
						
							<rect x="242.7" y="69.1" transform="matrix(0.8646 -0.5025 0.5025 0.8646 -13.5998 165.8574)" class="st2" width="116.4" height="78.1"/>
					</g>
					<g>
						<polygon class="st1" points="231,103.6 191.5,125.7 191.4,175.5 270,221 270.2,171.1 						"/>
					</g>
				</g>
				<g>
					<g>
						<polygon class="st1" points="335.5,222.2 301.7,202.5 301.6,171.1 335.4,190.8 						"/>
					</g>
					<g>
						<polygon class="st2" points="360.1,148.3 326.3,128.6 351.1,142.5 384.9,162.2 						"/>
					</g>
					<g>
						<polygon class="st2" points="335.4,190.8 301.6,171.1 326.3,128.6 360.1,148.3 						"/>
					</g>
					<g>
						<polygon class="st1" points="360.1,148.3 384.9,162.2 385,193.6 335.5,222.2 335.4,190.8 						"/>
					</g>
				</g>
				<g>
					<g>
						<polygon class="st3" points="270,209.7 370.7,151.2 370.8,101.3 270.2,159.8 						"/>
					</g>
					<g>
						<polygon class="st2" points="231,92.3 331.6,33.8 292.1,55.9 191.5,114.4 						"/>
					</g>
					<g>
						
							<rect x="242.7" y="57.8" transform="matrix(0.8646 -0.5025 0.5025 0.8646 -7.919 164.3245)" class="st2" width="116.4" height="78.1"/>
					</g>
					<g>
						<polygon class="st4" points="231,92.3 191.5,114.4 191.4,164.3 270,209.7 270.2,159.8 						"/>
					</g>
				</g>
				<g>
					<g>
						<polygon class="st5" points="225.7,90 327.7,30.8 279.8,58.2 179.1,116.6 						"/>
					</g>
					<polygon class="st6" points="330.6,29.1 333.5,34.1 379.8,114.3 277.8,173.6 231.4,93.4 228.6,88.4 					"/>
					<g>
						<polygon class="st5" points="228.6,88.4 225.7,90 179.1,116.6 184.9,119.9 228.5,95 272,170.3 277.8,173.6 231.4,93.4 						
							"/>
					</g>
					<g>
						<rect x="250" y="108.8" transform="matrix(0.866 -0.5 0.5 0.866 -13.4522 169.1911)" class="st2" width="118" height="1.8"/>
						
							<rect x="258.2" y="123" transform="matrix(0.8656 -0.5008 0.5008 0.8656 -19.4093 175.5175)" class="st2" width="118" height="1.8"/>
						
							<rect x="266.3" y="137.1" transform="matrix(0.866 -0.5 0.5 0.866 -25.4215 181.1351)" class="st2" width="118" height="1.8"/>
						
							<rect x="241.8" y="94.7" transform="matrix(0.8663 -0.4996 0.4996 0.8663 -7.5404 163.0623)" class="st2" width="118" height="1.8"/>
						
							<rect x="233.7" y="80.6" transform="matrix(0.8657 -0.5006 0.5006 0.8657 -1.4872 157.4805)" class="st2" width="118" height="1.8"/>
						
							<rect x="225.5" y="66.4" transform="matrix(0.8656 -0.5008 0.5008 0.8656 4.5419 151.524)" class="st2" width="118" height="1.8"/>
					</g>
				</g>
				<g>
					<g>
						<polygon class="st4" points="335.5,211 301.7,191.2 301.6,159.8 335.4,179.6 						"/>
					</g>
					<g>
						<polygon class="st2" points="360.1,137 326.3,117.3 351.1,131.2 384.9,150.9 						"/>
					</g>
					<g>
						<polygon class="st2" points="335.4,179.6 301.6,159.8 326.3,117.3 360.1,137 						"/>
					</g>
					<g>
						<polygon class="st3" points="360.1,137 384.9,150.9 385,182.4 335.5,211 335.4,179.6 						"/>
					</g>
				</g>
				<g>
					<g>
						<g class="st7">
							<g>
								<polygon class="st1" points="330,78.4 320.6,72.8 320.4,80.4 329.8,93.1 								"/>
							</g>
							<g>
								<polygon class="st8" points="344,70.5 330,78.4 329.8,93.1 343.9,85.2 								"/>
							</g>
							<g>
								<polygon class="st9" points="344,70.5 334.6,64.9 320.6,72.8 330,78.4 								"/>
							</g>
						</g>
					</g>
					<g>
						<polygon class="st4" points="330.4,77.4 319,70.6 319,71.9 330.4,78.7 						"/>
					</g>
					<g>
						<polygon class="st3" points="345.6,68.8 330.4,77.4 330.4,78.7 345.6,70.2 						"/>
					</g>
					<g>
						<polygon class="st10" points="345.6,68.8 334.2,62 319,70.6 330.4,77.4 						"/>
					</g>
					<g>
						<polygon class="st11" points="344.2,68.9 334.1,62.8 320.6,70.5 330.6,76.5 						"/>
					</g>
					<g>
						<polygon class="st1" points="339.6,71.4 334.1,67.5 324.6,72.9 330.6,76.5 						"/>
					</g>
					<polygon class="st4" points="343.2,69.4 344.2,68.9 334.1,62.8 320.6,70.5 321.5,71 334.1,64 					"/>
					<polygon class="st8" points="334.1,64 334.1,67.5 324.6,72.9 321.5,71 					"/>
					<polygon class="st12" points="343.2,69.4 334.1,64 334.1,67.5 339.6,71.4 					"/>
				</g>
				<g>
					<polygon class="st1" points="308.6,163.5 308.6,187.6 322.2,195.4 322.2,171.4 					"/>
					<polygon class="st13" points="310,165.9 310,186.8 311.2,186.1 311.2,166.6 					"/>
					<polygon class="st12" points="320.8,193.1 310,186.8 311.2,186.1 320.8,191.7 					"/>
					<polygon class="st12" points="324,170.4 322.2,171.4 308.6,163.6 310.4,162.6 					"/>
					<polygon class="st12" points="324,170.4 322.2,171.4 322.2,195.4 324,194.3 					"/>
					<polygon class="st14" points="320.8,191.7 311.2,186.1 311.2,166.6 320.8,172.1 					"/>
					<polygon class="st15" points="312.9,167.6 320.8,172.1 320.8,189.9 312.9,185.3 					"/>
					<polygon class="st12" points="320.8,180.2 310.6,174.3 310.6,174.3 311.2,173.9 320.8,179.5 					"/>
					<polygon class="st13" points="310.6,174.3 310.6,175.4 320.8,181.3 320.8,180.2 					"/>
				</g>
				<g>
					<g>
						<polygon class="st16" points="363.1,135.3 327.5,114.5 341.8,122.6 389.5,150.4 						"/>
					</g>
					<polygon class="st5" points="325.8,113.6 324.2,116.4 297.9,161.9 333.5,182.7 359.8,137.2 361.4,134.4 					"/>
					<g>
						<polygon class="st17" points="361.4,134.4 363.1,135.3 389.5,150.4 386.2,152.3 361.5,138.1 336.8,180.8 333.5,182.7 
							359.8,137.2 						"/>
					</g>
					<g>
						
							<rect x="332.2" y="121.8" transform="matrix(0.5001 -0.866 0.866 0.5001 43.1242 359.4906)" class="st2" width="1.5" height="41.2"/>
						
							<rect x="339.2" y="109.8" transform="matrix(0.5 -0.866 0.866 0.5 57.0486 359.5755)" class="st2" width="1.5" height="41.2"/>
						
							<rect x="325.3" y="133.8" transform="matrix(0.4999 -0.8661 0.8661 0.4999 29.3486 359.5567)" class="st2" width="1.5" height="41.2"/>
						
							<rect x="318.3" y="145.9" transform="matrix(0.4998 -0.8661 0.8661 0.4998 15.3219 359.6242)" class="st2" width="1.5" height="41.2"/>
					</g>
				</g>
				<g>
					<polygon class="st8" points="381.7,156.8 381.7,171 373.2,175.9 373.2,161.7 					"/>
					<polygon class="st1" points="380.7,158.5 380.7,170.5 379.8,170 379.8,159 					"/>
					<polygon class="st13" points="374.2,174.2 380.6,170.5 379.8,170 374.2,173.2 					"/>
					<polygon class="st12" points="371.9,161 373.2,161.7 381.7,156.8 380.3,156.1 					"/>
					<polygon class="st1" points="371.9,161 373.2,161.7 373.2,175.9 371.9,175.2 					"/>
					<polygon class="st14" points="374.2,173.2 379.8,170 379.8,159 374.2,162.3 					"/>
					<polygon class="st15" points="378.5,159.8 374.2,162.3 374.2,171.9 378.5,169.4 					"/>
				</g>
				<g>
					<polygon class="st1" points="370.1,202.2 370.1,189.6 372.8,191.1 380.5,203.4 380.5,208.2 					"/>
					<polygon class="st12" points="371.9,188.4 370.1,189.6 372.8,191.1 374.6,190 					"/>
					<polygon class="st13" points="382.3,202.3 380.5,203.4 372.8,191.1 374.6,190 					"/>
					<polygon class="st8" points="380.5,208.2 380.5,203.4 382.3,202.3 382.3,207 					"/>
				</g>
				<g>
					<g>
						<g class="st7">
							<g>
								<polygon class="st4" points="380.5,205.6 380.5,208.2 360.7,219.7 360.7,217.2 								"/>
							</g>
							<g>
								<polygon class="st18" points="360.7,217.2 360.7,219.7 358,218.2 358,215.6 								"/>
							</g>
							<g>
								<polygon class="st3" points="380.5,205.6 360.7,217.2 358,215.6 377.8,204.1 								"/>
							</g>
						</g>
					</g>
					<g>
						<g class="st7">
							<g>
								<polygon class="st4" points="377.9,201.5 377.9,204.1 358.1,215.6 358.1,213.1 								"/>
							</g>
							<g>
								<polygon class="st18" points="358.1,213.1 358.1,218.2 355.4,216.7 355.4,211.5 								"/>
							</g>
							<g>
								<polygon class="st3" points="377.9,201.5 358.1,213.1 355.4,211.5 375.3,200 								"/>
							</g>
						</g>
					</g>
					<g>
						<g class="st7">
							<g>
								<polygon class="st4" points="375.3,197.4 375.3,200 355.5,211.5 355.5,209 								"/>
							</g>
							<g>
								<polygon class="st18" points="355.5,209 355.5,216.8 352.9,215.2 352.9,207.4 								"/>
							</g>
							<g>
								<polygon class="st3" points="375.3,197.4 355.5,209 352.9,207.4 372.7,195.9 								"/>
							</g>
						</g>
					</g>
					<g>
						<g class="st7">
							<g>
								<polygon class="st4" points="372.8,193.3 372.8,195.9 352.9,207.4 352.9,204.9 								"/>
							</g>
							<g>
								<polygon class="st18" points="352.9,204.9 352.9,215.3 350.3,213.7 350.3,203.4 								"/>
							</g>
							<g>
								<polygon class="st3" points="372.8,193.3 352.9,204.9 350.3,203.4 370.1,191.8 								"/>
							</g>
						</g>
					</g>
				</g>
				<g>
					<polygon class="st19" points="352.9,164.8 355.3,166.2 369.5,158.1 367,156.6 					"/>
					<polygon class="st17" points="367.8,160.9 367.8,194.3 356.3,201 356.3,167.6 					"/>
					<polygon class="st15" points="366.1,163.8 366.1,182.5 357.7,187.4 357.7,168.7 					"/>
					<polygon class="st5" points="367.8,160.9 367.8,195.2 367.8,195.2 367,194.8 367,161.4 					"/>
					<polygon class="st5" points="366.1,182.5 365.4,182.1 365.4,164.2 366.1,163.8 					"/>
					<polygon class="st19" points="357.7,187.4 366.1,182.5 365.4,182.1 357.7,186.5 					"/>
					<polygon class="st17" points="369.5,158.1 355.3,166.2 355.3,202.4 357,201.5 357,201.4 357,168.8 357,167.2 367.8,160.9 
						367.8,162.6 367.8,195.2 367.8,195.2 369.5,194.3 					"/>
					<polygon class="st20" points="367,184.4 366.1,183.9 366,183.9 365.9,183.8 365.8,183.9 365.6,183.9 365.6,183.9 365.5,184 
						365.4,184.2 365.3,184.3 365.2,184.5 365.1,184.6 365,184.8 365,185 365,185.2 365,185.4 365,185.5 365.1,185.7 365.2,185.7 
						366,186.2 366,186.2 365.9,186 365.9,185.9 366.8,185.2 366.8,185.2 365.9,185.2 366,185.2 366,185 366.1,184.8 366.3,184.7 
						366.4,184.5 366.5,184.4 366.5,184.4 366.7,184.4 366.8,184.4 366.9,184.4 					"/>
					<path class="st21" d="M366.5,184.4L366.5,184.4c-0.4,0.2-0.7,0.8-0.7,1.3l0,0c0,0.5,0.3,0.7,0.7,0.5l0,0
						c0.4-0.2,0.7-0.8,0.7-1.3l0,0C367.2,184.4,366.9,184.2,366.5,184.4z"/>
					<polygon class="st5" points="353,164.7 355.4,166.2 355.4,171.5 355.4,197 355.3,202.4 353,201 					"/>
				</g>
				<g>
					<polygon class="st1" points="350.3,213.7 350.3,201.1 352.9,202.7 360.7,214.9 360.7,219.7 					"/>
					<polygon class="st12" points="352.1,200 350.3,201.1 352.9,202.7 354.7,201.5 					"/>
					<polygon class="st13" points="362.5,213.8 360.7,214.9 352.9,202.7 354.7,201.5 					"/>
					<polygon class="st8" points="360.7,219.7 360.7,214.9 362.5,213.8 362.5,218.6 					"/>
				</g>
				<g>
					<polygon class="st8" points="350.4,174.6 350.4,188.9 342,193.8 342,179.6 					"/>
					<polygon class="st1" points="349.4,176.4 349.4,188.3 348.6,187.8 348.6,176.9 					"/>
					<polygon class="st13" points="343,192.1 349.4,188.3 348.6,187.8 343,191.1 					"/>
					<polygon class="st12" points="340.7,178.8 342,179.6 350.4,174.7 349.1,173.9 					"/>
					<polygon class="st1" points="340.7,178.8 342,179.6 342,193.8 340.7,193 					"/>
					<polygon class="st14" points="343,191.1 348.6,187.8 348.6,176.9 343,180.1 					"/>
					<polygon class="st15" points="347.2,177.6 343,180.1 343,189.7 347.2,187.2 					"/>
				</g>
				<g>
					<polygon class="st1" points="231.9,155.3 231.9,179.3 245.5,187.1 245.5,163.1 					"/>
					<polygon class="st13" points="233.3,157.6 233.3,178.6 234.5,177.9 234.5,158.3 					"/>
					<polygon class="st12" points="244.2,184.8 233.4,178.6 234.5,177.9 244.2,183.5 					"/>
					<polygon class="st12" points="247.3,162.1 245.5,163.2 231.9,155.4 233.7,154.3 					"/>
					<polygon class="st12" points="247.3,162.1 245.5,163.2 245.5,187.1 247.3,186.1 					"/>
					<polygon class="st14" points="244.2,183.5 234.5,177.9 234.5,158.3 244.2,163.9 					"/>
					<polygon class="st15" points="236.3,159.4 244.2,163.9 244.2,181.6 236.3,177.1 					"/>
					<polygon class="st12" points="244.2,172 233.9,166 233.9,166 234.5,165.7 244.1,171.3 					"/>
					<polygon class="st13" points="233.9,166 233.9,167.1 244.2,173 244.2,172 					"/>
				</g>
				<g>
					<polygon class="st1" points="201.4,137.5 201.4,161.6 215,169.4 215,145.4 					"/>
					<polygon class="st13" points="202.7,139.9 202.7,160.8 203.9,160.2 203.9,140.6 					"/>
					<polygon class="st12" points="213.6,167.1 202.8,160.8 203.9,160.2 213.6,165.7 					"/>
					<polygon class="st12" points="216.8,144.4 215,145.4 201.4,137.6 203.2,136.6 					"/>
					<polygon class="st12" points="216.8,144.4 215,145.4 215,169.4 216.8,168.4 					"/>
					<polygon class="st14" points="213.6,165.7 203.9,160.2 203.9,140.6 213.6,146.2 					"/>
					<polygon class="st15" points="205.7,141.6 213.6,146.2 213.6,163.9 205.7,159.3 					"/>
					<polygon class="st12" points="213.6,154.2 203.3,148.3 203.3,148.3 203.9,147.9 213.6,153.5 					"/>
					<polygon class="st13" points="203.3,148.3 203.3,149.4 213.6,155.3 213.6,154.2 					"/>
				</g>
			</g>
			<path id="XMLID_63_" class="st22" d="M193.6,152.5c-0.3,0.1-0.4,0.7,0,0.8l0,0c0,0,0,0,0.1,0h0.1c0.1-0.1,0.1-0.2,0.1-0.4
				s-0.1-0.3-0.1-0.4C193.7,152.5,193.6,152.5,193.6,152.5L193.6,152.5L193.6,152.5z"/>
			<ellipse id="XMLID_62_" class="st23" cx="193.2" cy="152.9" rx="0.4" ry="0.7"/>
			<path id="XMLID_61_" class="st24" d="M193.1,152.2c0.1,0,0.2,0.2,0.2,0.3s0.1,0.3,0.1,0.4c0,0.2,0,0.3-0.1,0.4
				c-0.1,0.1-0.1,0.2-0.2,0.3l0,0h0.1c0,0,0.1,0,0.1-0.1c0.1-0.1,0.2-0.4,0.2-0.7s-0.1-0.6-0.2-0.7
				C193.3,152.2,193.3,152.2,193.1,152.2C193.2,152.2,193.2,152.2,193.1,152.2L193.1,152.2z"/>
		</g>
		<polygon class="st25" points="199.9,104.7 228.4,88.3 240.2,108.8 240,139.1 199.9,115.5 		"/>
		<polygon class="st26" points="226.2,104.5 202.8,117.1 207.1,119.7 226.2,109.5 226.2,114.5 226.2,119.5 226.2,130.9 230.6,133.6 
			230.6,124.5 230.6,117.1 230.6,111.5 240.1,126.7 240.2,120.7 230.6,104.1 230.6,99.5 240.2,114.8 240.2,108.8 230.5,91.9 
			226.2,94.5 199.9,108.7 199.9,113.6 226.2,99.5 		"/>
		<polygon class="st27" points="199.9,115.5 240.3,139.4 240.3,137.1 201.7,114.6 		"/>
		<circle class="st28" cx="262.1" cy="197.3" r="8.9"/>
		<circle class="st28" cx="331.6" cy="35.7" r="8.9"/>
		<circle class="st28" cx="208.2" cy="113.9" r="8.9"/>
		<path class="st29" d="M247.2,177H19.3c-3.4,0-6.3,2.8-6.3,6.3v28.1c0,3.4,2.8,6.3,6.3,6.3h227.8c3.4,0,6.3-2.8,6.3-6.3V203
			l7.3-5.7l-7.3-6.4v-7.7C253.4,179.8,250.6,177,247.2,177z"/>
		<g class="st7">
			<path class="st30" d="M36.5,204.2H35l-2.7-9c-0.1-0.4-0.3-0.9-0.4-1.5s-0.2-1-0.2-1.1c-0.1,0.8-0.3,1.7-0.6,2.6l-2.6,8.9H27
				l-3.6-13.4H25l2.1,8.3c0.3,1.2,0.5,2.2,0.6,3.2c0.2-1.1,0.4-2.2,0.7-3.3l2.4-8.1h1.6l2.5,8.2c0.3,0.9,0.5,2,0.7,3.2
				c0.1-0.9,0.3-1.9,0.7-3.2l2.1-8.3H40L36.5,204.2z"/>
			<path class="st30" d="M50.6,199.2c0,1.6-0.4,2.9-1.2,3.8c-0.8,0.9-2,1.4-3.4,1.4c-0.9,0-1.7-0.2-2.4-0.6c-0.7-0.4-1.2-1-1.6-1.8
				c-0.4-0.8-0.6-1.7-0.6-2.8c0-1.6,0.4-2.9,1.2-3.8c0.8-0.9,2-1.4,3.4-1.4s2.5,0.5,3.3,1.4C50.2,196.3,50.6,197.6,50.6,199.2z
				 M43,199.2c0,1.3,0.3,2.3,0.8,2.9c0.5,0.7,1.3,1,2.3,1s1.8-0.3,2.3-1s0.8-1.6,0.8-2.9c0-1.3-0.3-2.2-0.8-2.9s-1.3-1-2.3-1
				s-1.7,0.3-2.3,1S43,197.9,43,199.2z"/>
			<path class="st30" d="M62,199.2c0,1.6-0.4,2.9-1.2,3.8c-0.8,0.9-2,1.4-3.4,1.4c-0.9,0-1.7-0.2-2.4-0.6c-0.7-0.4-1.2-1-1.6-1.8
				c-0.4-0.8-0.6-1.7-0.6-2.8c0-1.6,0.4-2.9,1.2-3.8c0.8-0.9,2-1.4,3.4-1.4s2.5,0.5,3.3,1.4C61.5,196.3,62,197.6,62,199.2z
				 M54.3,199.2c0,1.3,0.3,2.3,0.8,2.9c0.5,0.7,1.3,1,2.3,1s1.8-0.3,2.3-1s0.8-1.6,0.8-2.9c0-1.3-0.3-2.2-0.8-2.9s-1.3-1-2.3-1
				s-1.7,0.3-2.3,1S54.3,197.9,54.3,199.2z"/>
			<path class="st30" d="M71.5,202.9L71.5,202.9c-0.8,1-1.8,1.5-3.2,1.5c-1.3,0-2.3-0.4-3.1-1.3c-0.7-0.9-1.1-2.2-1.1-3.8
				c0-1.7,0.4-2.9,1.1-3.9s1.8-1.4,3.1-1.4c1.4,0,2.4,0.5,3.1,1.5h0.1l-0.1-0.7v-0.7V190h1.5v14.3h-1.2L71.5,202.9z M68.4,203.1
				c1,0,1.8-0.3,2.3-0.8c0.5-0.6,0.7-1.5,0.7-2.7v-0.3c0-1.4-0.2-2.4-0.7-3s-1.2-0.9-2.3-0.9c-0.9,0-1.6,0.3-2,1
				c-0.5,0.7-0.7,1.7-0.7,2.9c0,1.3,0.2,2.2,0.7,2.9C66.8,202.8,67.5,203.1,68.4,203.1z"/>
			<path class="st30" d="M85,204.4c-1.5,0-2.6-0.4-3.4-1.3s-1.2-2.2-1.2-3.8c0-1.7,0.4-3,1.2-3.9s2-1.4,3.5-1.4c0.5,0,1,0.1,1.4,0.2
				s0.9,0.2,1.1,0.4l-0.5,1.3c-0.3-0.1-0.7-0.2-1.1-0.3s-0.7-0.1-1.1-0.1c-2,0-3.1,1.3-3.1,3.9c0,1.2,0.2,2.2,0.7,2.8
				c0.5,0.7,1.2,1,2.2,1c0.8,0,1.7-0.2,2.6-0.5v1.3C86.9,204.2,86,204.4,85,204.4z"/>
			<path class="st30" d="M98.6,199.2c0,1.6-0.4,2.9-1.2,3.8c-0.8,0.9-2,1.4-3.4,1.4c-0.9,0-1.7-0.2-2.4-0.6c-0.7-0.4-1.2-1-1.6-1.8
				s-0.6-1.7-0.6-2.8c0-1.6,0.4-2.9,1.2-3.8c0.8-0.9,2-1.4,3.4-1.4s2.5,0.5,3.3,1.4C98.2,196.3,98.6,197.6,98.6,199.2z M90.9,199.2
				c0,1.3,0.3,2.3,0.8,2.9c0.5,0.7,1.3,1,2.3,1s1.8-0.3,2.3-1s0.8-1.6,0.8-2.9c0-1.3-0.3-2.2-0.8-2.9s-1.3-1-2.3-1s-1.7,0.3-2.3,1
				S90.9,197.9,90.9,199.2z"/>
			<path class="st30" d="M114,204.2v-6.5c0-0.8-0.2-1.4-0.5-1.8c-0.3-0.4-0.9-0.6-1.6-0.6c-0.9,0-1.6,0.3-2.1,0.8s-0.7,1.4-0.7,2.5
				v5.6h-1.5v-6.5c0-0.8-0.2-1.4-0.5-1.8c-0.3-0.4-0.9-0.6-1.6-0.6c-1,0-1.7,0.3-2.1,0.9c-0.4,0.6-0.7,1.5-0.7,2.8v5.3h-1.5v-10h1.2
				l0.2,1.4h0.1c0.3-0.5,0.7-0.9,1.2-1.1c0.5-0.3,1.1-0.4,1.8-0.4c1.6,0,2.6,0.6,3.1,1.7h0.1c0.3-0.5,0.7-0.9,1.3-1.2
				c0.6-0.3,1.2-0.5,1.9-0.5c1.1,0,2,0.3,2.6,0.9s0.8,1.5,0.8,2.8v6.5H114V204.2z"/>
			<path class="st30" d="M123.4,194c1.3,0,2.3,0.5,3.1,1.4c0.7,0.9,1.1,2.2,1.1,3.8s-0.4,2.9-1.1,3.8c-0.7,0.9-1.8,1.4-3.1,1.4
				c-0.7,0-1.3-0.1-1.8-0.4c-0.5-0.2-1-0.6-1.4-1.1h-0.1l-0.3,1.3h-1.1V190h1.5v3.5c0,0.8,0,1.5-0.1,2.1h0.1
				C120.9,194.5,122,194,123.4,194z M123.1,195.3c-1,0-1.8,0.3-2.2,0.9c-0.5,0.6-0.7,1.6-0.7,3s0.2,2.4,0.7,3s1.2,0.9,2.3,0.9
				c0.9,0,1.6-0.3,2.1-1s0.7-1.7,0.7-2.9c0-1.3-0.2-2.3-0.7-2.9C124.8,195.6,124.1,195.3,123.1,195.3z"/>
			<path class="st30" d="M131.6,194.2v6.5c0,0.8,0.2,1.4,0.6,1.8c0.4,0.4,1,0.6,1.7,0.6c1.1,0,1.8-0.3,2.3-0.9
				c0.5-0.6,0.7-1.5,0.7-2.8v-5.3h1.5v10h-1.3l-0.2-1.3h-0.1c-0.3,0.5-0.7,0.9-1.3,1.1c-0.6,0.3-1.2,0.4-1.9,0.4
				c-1.2,0-2.1-0.3-2.7-0.9c-0.6-0.6-0.9-1.5-0.9-2.8V194h1.6V194.2z"/>
			<path class="st30" d="M148.2,201.5c0,0.9-0.3,1.7-1,2.2s-1.7,0.8-2.9,0.8c-1.3,0-2.4-0.2-3.1-0.6v-1.4c0.5,0.2,1,0.4,1.6,0.6
				s1.1,0.2,1.6,0.2c0.8,0,1.4-0.1,1.8-0.4c0.4-0.3,0.6-0.6,0.6-1.2c0-0.4-0.2-0.7-0.5-1s-1-0.6-2-1c-0.9-0.3-1.6-0.7-2-0.9
				c-0.4-0.3-0.7-0.6-0.9-0.9c-0.2-0.3-0.3-0.7-0.3-1.2c0-0.8,0.3-1.5,1-1.9c0.7-0.5,1.6-0.7,2.7-0.7c1.1,0,2.1,0.2,3.2,0.7
				l-0.5,1.2c-1-0.4-1.9-0.6-2.7-0.6c-0.7,0-1.3,0.1-1.6,0.3c-0.4,0.2-0.5,0.5-0.5,0.9c0,0.3,0.1,0.5,0.2,0.7s0.4,0.4,0.7,0.5
				c0.3,0.2,0.9,0.4,1.8,0.7c1.2,0.4,2,0.9,2.4,1.3C148,200.3,148.2,200.8,148.2,201.5z"/>
			<path class="st30" d="M153.9,203.2c0.3,0,0.5,0,0.8-0.1c0.2,0,0.4-0.1,0.6-0.1v1.2c-0.2,0.1-0.4,0.1-0.7,0.2
				c-0.3,0.1-0.6,0.1-0.9,0.1c-1.9,0-2.9-1-2.9-3.1v-6h-1.4v-0.7l1.4-0.6l0.6-2.1h0.9v2.3h2.9v1.2h-2.9v5.9c0,0.6,0.1,1.1,0.4,1.4
				C153,203,153.4,203.2,153.9,203.2z"/>
			<path class="st30" d="M157.1,191.5c0-0.3,0.1-0.6,0.3-0.8s0.4-0.2,0.6-0.2c0.2,0,0.5,0.1,0.6,0.2s0.3,0.4,0.3,0.8
				c0,0.3-0.1,0.6-0.3,0.8s-0.4,0.3-0.6,0.3c-0.3,0-0.5-0.1-0.6-0.3S157.1,191.8,157.1,191.5z M158.8,204.2h-1.5v-10h1.5V204.2z"/>
			<path class="st30" d="M166.7,194c1.3,0,2.3,0.5,3.1,1.4c0.7,0.9,1.1,2.2,1.1,3.8s-0.4,2.9-1.1,3.8c-0.7,0.9-1.8,1.4-3.1,1.4
				c-0.7,0-1.3-0.1-1.8-0.4c-0.5-0.2-1-0.6-1.4-1.1h-0.1l-0.3,1.3H162V190h1.5v3.5c0,0.8,0,1.5-0.1,2.1h0.1
				C164.2,194.5,165.3,194,166.7,194z M166.5,195.3c-1,0-1.8,0.3-2.2,0.9c-0.5,0.6-0.7,1.6-0.7,3s0.2,2.4,0.7,3s1.2,0.9,2.3,0.9
				c0.9,0,1.6-0.3,2.1-1s0.7-1.7,0.7-2.9c0-1.3-0.2-2.3-0.7-2.9C168.1,195.6,167.4,195.3,166.5,195.3z"/>
			<path class="st30" d="M175,204.2h-1.5V190h1.5V204.2z"/>
			<path class="st30" d="M182.5,204.4c-1.5,0-2.7-0.5-3.5-1.4c-0.9-0.9-1.3-2.2-1.3-3.8s0.4-2.9,1.2-3.9s1.9-1.4,3.2-1.4
				s2.3,0.4,3,1.2s1.1,1.9,1.1,3.3v1h-6.9c0,1.2,0.3,2.1,0.9,2.7s1.4,0.9,2.4,0.9c1.1,0,2.1-0.2,3.2-0.7v1.4c-0.5,0.2-1,0.4-1.5,0.5
				S183.2,204.4,182.5,204.4z M182.1,195.3c-0.8,0-1.4,0.3-1.9,0.8s-0.8,1.3-0.8,2.2h5.2c0-1-0.2-1.7-0.6-2.2
				C183.5,195.5,182.9,195.3,182.1,195.3z"/>
			<path class="st30" d="M201.8,204.2l-1.8-5.9c-0.1-0.4-0.3-1.2-0.6-2.5h-0.1c-0.2,1.1-0.5,1.9-0.6,2.5l-1.9,5.9H195l-2.7-10h1.6
				c0.6,2.5,1.1,4.4,1.5,5.8c0.3,1.3,0.5,2.2,0.6,2.7h0.1c0.1-0.3,0.2-0.8,0.3-1.4s0.3-1,0.4-1.3l1.8-5.8h1.6l1.8,5.8
				c0.3,1.1,0.6,1.9,0.7,2.6h0.1c0-0.2,0.1-0.6,0.2-1c0.1-0.5,0.7-2.9,1.9-7.4h1.6l-2.8,10L201.8,204.2L201.8,204.2z"/>
			<path class="st30" d="M214.4,204.2l-0.3-1.4H214c-0.5,0.6-1,1.1-1.5,1.3s-1.1,0.3-1.9,0.3c-1,0-1.8-0.3-2.3-0.8s-0.8-1.2-0.8-2.2
				c0-2,1.6-3.1,4.9-3.2l1.7-0.1v-0.6c0-0.8-0.2-1.4-0.5-1.7c-0.3-0.4-0.9-0.6-1.6-0.6c-0.8,0-1.8,0.3-2.8,0.8l-0.5-1.2
				c0.5-0.3,1-0.5,1.6-0.6c0.6-0.2,1.2-0.2,1.8-0.2c1.2,0,2.1,0.3,2.7,0.8s0.9,1.4,0.9,2.6v6.9h-1.3V204.2z M211,203.2
				c0.9,0,1.7-0.3,2.2-0.8s0.8-1.2,0.8-2.2v-0.9l-1.5,0.1c-1.2,0-2.1,0.2-2.6,0.6c-0.5,0.3-0.8,0.9-0.8,1.6c0,0.5,0.2,1,0.5,1.3
				C209.9,203,210.4,203.2,211,203.2z"/>
			<path class="st30" d="M220.2,204.2h-1.5V190h1.5V204.2z"/>
			<path class="st30" d="M224.9,204.2h-1.5V190h1.5V204.2z"/>
			<path class="st30" d="M234.6,201.5c0,0.9-0.3,1.7-1,2.2s-1.7,0.8-2.9,0.8c-1.3,0-2.4-0.2-3.1-0.6v-1.4c0.5,0.2,1,0.4,1.6,0.6
				s1.1,0.2,1.6,0.2c0.8,0,1.4-0.1,1.8-0.4c0.4-0.3,0.6-0.6,0.6-1.2c0-0.4-0.2-0.7-0.5-1s-1-0.6-2-1c-0.9-0.3-1.6-0.7-2-0.9
				s-0.7-0.6-0.9-0.9c-0.2-0.3-0.3-0.7-0.3-1.2c0-0.8,0.3-1.5,1-1.9c0.7-0.5,1.6-0.7,2.7-0.7c1.1,0,2.1,0.2,3.2,0.7l-0.5,1.2
				c-1-0.4-1.9-0.6-2.7-0.6c-0.7,0-1.3,0.1-1.6,0.3s-0.5,0.5-0.5,0.9c0,0.3,0.1,0.5,0.2,0.7s0.4,0.4,0.7,0.5
				c0.3,0.2,0.9,0.4,1.8,0.7c1.2,0.4,2,0.9,2.4,1.3S234.6,200.8,234.6,201.5z"/>
		</g>
		<path class="st29" d="M345.1,15.4H514c3.4,0,6.3,2.8,6.3,6.3v28.1c0,3.4-2.8,6.3-6.3,6.3H345.1c-3.4,0-6.3-2.8-6.3-6.3v-8.3
			l-7.3-5.7l7.3-6.4v-7.7C338.9,18.2,341.7,15.4,345.1,15.4z"/>
		<g class="st7">
			<path class="st30" d="M364,42.6h-1.5l-2.7-9c-0.1-0.4-0.3-0.9-0.4-1.5c-0.2-0.6-0.2-1-0.2-1.1c-0.1,0.8-0.3,1.7-0.6,2.6l-2.6,8.9
				h-1.5l-3.6-13.4h1.6l2.1,8.3c0.3,1.2,0.5,2.2,0.6,3.2c0.2-1.1,0.4-2.2,0.7-3.3l2.4-8.1h1.6l2.5,8.2c0.3,0.9,0.5,2,0.7,3.2
				c0.1-0.9,0.3-1.9,0.7-3.2l2.1-8.3h1.6L364,42.6z"/>
			<path class="st30" d="M378.1,37.6c0,1.6-0.4,2.9-1.2,3.8s-2,1.4-3.4,1.4c-0.9,0-1.7-0.2-2.4-0.6c-0.7-0.4-1.2-1-1.6-1.8
				s-0.6-1.7-0.6-2.8c0-1.6,0.4-2.9,1.2-3.8c0.8-0.9,2-1.4,3.4-1.4s2.5,0.5,3.3,1.4C377.7,34.7,378.1,36,378.1,37.6z M370.5,37.6
				c0,1.3,0.3,2.3,0.8,2.9c0.5,0.7,1.3,1,2.3,1s1.8-0.3,2.3-1s0.8-1.6,0.8-2.9c0-1.3-0.3-2.2-0.8-2.9s-1.3-1-2.3-1s-1.7,0.3-2.3,1
				S370.5,36.3,370.5,37.6z"/>
			<path class="st30" d="M389.5,37.6c0,1.6-0.4,2.9-1.2,3.8c-0.8,0.9-2,1.4-3.4,1.4c-0.9,0-1.7-0.2-2.4-0.6c-0.7-0.4-1.2-1-1.6-1.8
				s-0.6-1.7-0.6-2.8c0-1.6,0.4-2.9,1.2-3.8c0.8-0.9,2-1.4,3.4-1.4s2.5,0.5,3.3,1.4C389,34.7,389.5,36,389.5,37.6z M381.8,37.6
				c0,1.3,0.3,2.3,0.8,2.9c0.5,0.7,1.3,1,2.3,1s1.8-0.3,2.3-1s0.8-1.6,0.8-2.9c0-1.3-0.3-2.2-0.8-2.9s-1.3-1-2.3-1s-1.7,0.3-2.3,1
				S381.8,36.3,381.8,37.6z"/>
			<path class="st30" d="M399,41.3L399,41.3c-0.8,1-1.8,1.5-3.2,1.5c-1.3,0-2.3-0.4-3.1-1.3c-0.7-0.9-1.1-2.2-1.1-3.8
				c0-1.7,0.4-2.9,1.1-3.9c0.7-0.9,1.8-1.4,3.1-1.4c1.4,0,2.4,0.5,3.1,1.5h0.1l-0.1-0.7v-0.7v-4.1h1.5v14.3h-1.2L399,41.3z
				 M395.9,41.5c1,0,1.8-0.3,2.3-0.8c0.5-0.6,0.7-1.5,0.7-2.7v-0.3c0-1.4-0.2-2.4-0.7-3s-1.2-0.9-2.3-0.9c-0.9,0-1.6,0.3-2,1
				c-0.5,0.7-0.7,1.7-0.7,2.9c0,1.3,0.2,2.2,0.7,2.9C394.3,41.2,395,41.5,395.9,41.5z"/>
			<path class="st30" d="M407.3,47.1c-0.6,0-1-0.1-1.4-0.2v-1.2c0.4,0.1,0.8,0.2,1.2,0.2c0.5,0,0.8-0.1,1-0.4
				c0.2-0.3,0.3-0.7,0.3-1.2V32.6h1.5v11.6C410,46.1,409.1,47.1,407.3,47.1z M408.4,29.8c0-0.3,0.1-0.6,0.3-0.8
				c0.2-0.2,0.4-0.2,0.6-0.2s0.5,0.1,0.6,0.2c0.2,0.2,0.3,0.4,0.3,0.8c0,0.3-0.1,0.6-0.3,0.8c-0.2,0.2-0.4,0.3-0.6,0.3
				c-0.3,0-0.5-0.1-0.6-0.3S408.4,30.2,408.4,29.8z"/>
			<path class="st30" d="M421.9,37.6c0,1.6-0.4,2.9-1.2,3.8s-2,1.4-3.4,1.4c-0.9,0-1.7-0.2-2.4-0.6c-0.7-0.4-1.2-1-1.6-1.8
				s-0.6-1.7-0.6-2.8c0-1.6,0.4-2.9,1.2-3.8c0.8-0.9,2-1.4,3.4-1.4s2.5,0.5,3.3,1.4C421.5,34.7,421.9,36,421.9,37.6z M414.2,37.6
				c0,1.3,0.3,2.3,0.8,2.9c0.5,0.7,1.3,1,2.3,1s1.8-0.3,2.3-1s0.8-1.6,0.8-2.9c0-1.3-0.3-2.2-0.8-2.9s-1.3-1-2.3-1s-1.7,0.3-2.3,1
				S414.2,36.3,414.2,37.6z"/>
			<path class="st30" d="M424.4,29.8c0-0.3,0.1-0.6,0.3-0.8c0.2-0.2,0.4-0.2,0.6-0.2s0.5,0.1,0.6,0.2c0.2,0.2,0.3,0.4,0.3,0.8
				c0,0.3-0.1,0.6-0.3,0.8c-0.2,0.2-0.4,0.3-0.6,0.3c-0.3,0-0.5-0.1-0.6-0.3S424.4,30.2,424.4,29.8z M426.1,42.6h-1.5v-10h1.5V42.6z
				"/>
			<path class="st30" d="M435.8,39.9c0,0.9-0.3,1.7-1,2.2s-1.7,0.8-2.9,0.8c-1.3,0-2.4-0.2-3.1-0.6v-1.4c0.5,0.2,1,0.4,1.6,0.6
				s1.1,0.2,1.6,0.2c0.8,0,1.4-0.1,1.8-0.4c0.4-0.3,0.6-0.6,0.6-1.2c0-0.4-0.2-0.7-0.5-1s-1-0.6-2-1c-0.9-0.3-1.6-0.7-2-0.9
				c-0.4-0.3-0.7-0.6-0.9-0.9c-0.2-0.3-0.3-0.7-0.3-1.2c0-0.8,0.3-1.5,1-1.9c0.7-0.5,1.6-0.7,2.7-0.7s2.1,0.2,3.2,0.7l-0.5,1.2
				c-1-0.4-1.9-0.6-2.7-0.6c-0.7,0-1.3,0.1-1.6,0.3c-0.4,0.2-0.5,0.5-0.5,0.9c0,0.3,0.1,0.5,0.2,0.7s0.4,0.4,0.7,0.5
				c0.3,0.2,0.9,0.4,1.8,0.7c1.2,0.4,2,0.9,2.4,1.3C435.6,38.6,435.8,39.2,435.8,39.9z"/>
			<path class="st30" d="M441.5,41.5c0.3,0,0.5,0,0.8-0.1c0.2,0,0.4-0.1,0.6-0.1v1.2c-0.2,0.1-0.4,0.1-0.7,0.2
				c-0.3,0.1-0.6,0.1-0.9,0.1c-1.9,0-2.9-1-2.9-3.1v-6H437V33l1.4-0.6l0.6-2.1h0.9v2.3h2.9v1.2h-2.9v5.9c0,0.6,0.1,1.1,0.4,1.4
				C440.6,41.4,441,41.5,441.5,41.5z"/>
			<path class="st30" d="M449.1,42.8c-1.5,0-2.7-0.5-3.5-1.4c-0.9-0.9-1.3-2.2-1.3-3.8s0.4-2.9,1.2-3.9c0.8-1,1.9-1.4,3.2-1.4
				c1.3,0,2.3,0.4,3,1.2s1.1,1.9,1.1,3.3v1h-6.9c0,1.2,0.3,2.1,0.9,2.7c0.6,0.6,1.4,0.9,2.4,0.9c1.1,0,2.1-0.2,3.2-0.7v1.4
				c-0.5,0.2-1,0.4-1.5,0.5C450.4,42.7,449.8,42.8,449.1,42.8z M448.7,33.7c-0.8,0-1.4,0.3-1.9,0.8s-0.8,1.3-0.8,2.2h5.2
				c0-1-0.2-1.7-0.6-2.2S449.5,33.7,448.7,33.7z"/>
			<path class="st30" d="M462.2,41.3L462.2,41.3c-0.8,1-1.8,1.5-3.2,1.5c-1.3,0-2.3-0.4-3.1-1.3s-1.1-2.2-1.1-3.8
				c0-1.7,0.4-2.9,1.1-3.9c0.7-0.9,1.8-1.4,3.1-1.4c1.4,0,2.4,0.5,3.1,1.5h0.1l-0.1-0.7v-0.7v-4.1h1.5v14.3h-1.2L462.2,41.3z
				 M459.2,41.5c1,0,1.8-0.3,2.3-0.8c0.5-0.6,0.7-1.5,0.7-2.7v-0.3c0-1.4-0.2-2.4-0.7-3s-1.2-0.9-2.3-0.9c-0.9,0-1.6,0.3-2,1
				c-0.5,0.7-0.7,1.7-0.7,2.9c0,1.3,0.2,2.2,0.7,2.9C457.6,41.2,458.3,41.5,459.2,41.5z"/>
			<path class="st30" d="M476.3,32.4c0.4,0,0.8,0,1.2,0.1l-0.2,1.4c-0.4-0.1-0.8-0.1-1.1-0.1c-0.8,0-1.5,0.3-2.1,1s-0.9,1.5-0.9,2.5
				v5.4h-1.5v-10h1.3l0.2,1.9h0.1c0.4-0.7,0.8-1.2,1.3-1.5C475.1,32.6,475.7,32.4,476.3,32.4z"/>
			<path class="st30" d="M488.1,37.6c0,1.6-0.4,2.9-1.2,3.8c-0.8,0.9-2,1.4-3.4,1.4c-0.9,0-1.7-0.2-2.4-0.6c-0.7-0.4-1.2-1-1.6-1.8
				s-0.6-1.7-0.6-2.8c0-1.6,0.4-2.9,1.2-3.8c0.8-0.9,2-1.4,3.4-1.4s2.5,0.5,3.3,1.4C487.7,34.7,488.1,36,488.1,37.6z M480.4,37.6
				c0,1.3,0.3,2.3,0.8,2.9c0.5,0.7,1.3,1,2.3,1s1.8-0.3,2.3-1s0.8-1.6,0.8-2.9c0-1.3-0.3-2.2-0.8-2.9s-1.3-1-2.3-1s-1.7,0.3-2.3,1
				S480.4,36.3,480.4,37.6z"/>
			<path class="st30" d="M499.4,37.6c0,1.6-0.4,2.9-1.2,3.8s-2,1.4-3.4,1.4c-0.9,0-1.7-0.2-2.4-0.6c-0.7-0.4-1.2-1-1.6-1.8
				s-0.6-1.7-0.6-2.8c0-1.6,0.4-2.9,1.2-3.8c0.8-0.9,2-1.4,3.4-1.4s2.5,0.5,3.3,1.4C499,34.7,499.4,36,499.4,37.6z M491.8,37.6
				c0,1.3,0.3,2.3,0.8,2.9c0.5,0.7,1.3,1,2.3,1s1.8-0.3,2.3-1s0.8-1.6,0.8-2.9c0-1.3-0.3-2.2-0.8-2.9s-1.3-1-2.3-1s-1.7,0.3-2.3,1
				S491.8,36.3,491.8,37.6z"/>
			<path class="st30" d="M506.6,33.7H504v8.9h-1.5v-8.9h-1.8V33l1.8-0.5V32c0-2.5,1.1-3.7,3.2-3.7c0.5,0,1.2,0.1,1.9,0.3l-0.4,1.2
				c-0.6-0.2-1.1-0.3-1.5-0.3c-0.6,0-1,0.2-1.3,0.6s-0.4,1-0.4,1.8v0.7h2.6L506.6,33.7L506.6,33.7z"/>
		</g>
		<path class="st29" d="M194.9,134.1H59.1c-3.4,0-6.3-2.8-6.3-6.3V99.7c0-3.4,2.8-6.3,6.3-6.3h135.8c3.4,0,6.3,2.8,6.3,6.3v8.3
			l7.3,5.7l-7.3,6.4v7.7C201.2,131.3,198.4,134.1,194.9,134.1z"/>
		<g class="st7">
			<path class="st30" d="M86.1,120.1h-1.5l-2.7-9c-0.1-0.4-0.3-0.9-0.4-1.5s-0.2-1-0.2-1.1c-0.1,0.8-0.3,1.7-0.6,2.6l-2.6,8.9h-1.5
				L73,106.6h1.6l2.1,8.3c0.3,1.2,0.5,2.2,0.6,3.2c0.2-1.1,0.4-2.2,0.7-3.3l2.4-8.1H82l2.5,8.2c0.3,0.9,0.5,2,0.7,3.2
				c0.1-0.9,0.3-1.9,0.7-3.2l2.1-8.3h1.6L86.1,120.1z"/>
			<path class="st30" d="M100.3,115.1c0,1.6-0.4,2.9-1.2,3.8c-0.8,0.9-2,1.4-3.4,1.4c-0.9,0-1.7-0.2-2.4-0.6c-0.7-0.4-1.2-1-1.6-1.8
				s-0.6-1.7-0.6-2.8c0-1.6,0.4-2.9,1.2-3.8c0.8-0.9,2-1.4,3.4-1.4s2.5,0.5,3.3,1.4C99.8,112.3,100.3,113.5,100.3,115.1z
				 M92.6,115.1c0,1.3,0.3,2.3,0.8,2.9c0.5,0.7,1.3,1,2.3,1s1.8-0.3,2.3-1s0.8-1.6,0.8-2.9s-0.3-2.2-0.8-2.9c-0.5-0.7-1.3-1-2.3-1
				s-1.7,0.3-2.3,1S92.6,113.8,92.6,115.1z"/>
			<path class="st30" d="M111.6,115.1c0,1.6-0.4,2.9-1.2,3.8c-0.8,0.9-2,1.4-3.4,1.4c-0.9,0-1.7-0.2-2.4-0.6c-0.7-0.4-1.2-1-1.6-1.8
				s-0.6-1.7-0.6-2.8c0-1.6,0.4-2.9,1.2-3.8c0.8-0.9,2-1.4,3.4-1.4s2.5,0.5,3.3,1.4C111.2,112.3,111.6,113.5,111.6,115.1z
				 M103.9,115.1c0,1.3,0.3,2.3,0.8,2.9c0.5,0.7,1.3,1,2.3,1s1.8-0.3,2.3-1s0.8-1.6,0.8-2.9s-0.3-2.2-0.8-2.9c-0.5-0.7-1.3-1-2.3-1
				s-1.7,0.3-2.3,1S103.9,113.8,103.9,115.1z"/>
			<path class="st30" d="M121.1,118.8L121.1,118.8c-0.8,1-1.8,1.5-3.2,1.5c-1.3,0-2.3-0.4-3.1-1.3c-0.7-0.9-1.1-2.2-1.1-3.8
				c0-1.7,0.4-2.9,1.1-3.9s1.8-1.4,3.1-1.4c1.4,0,2.4,0.5,3.1,1.5h0.1l-0.1-0.7V110v-4.1h1.5v14.3h-1.2L121.1,118.8z M118,119
				c1,0,1.8-0.3,2.3-0.8c0.5-0.6,0.7-1.5,0.7-2.7v-0.3c0-1.4-0.2-2.4-0.7-3s-1.2-0.9-2.3-0.9c-0.9,0-1.6,0.3-2,1
				c-0.5,0.7-0.7,1.7-0.7,2.9c0,1.3,0.2,2.2,0.7,2.9C116.4,118.7,117.1,119,118,119z"/>
			<path class="st30" d="M135.1,111.3h-2.6v8.9H131v-8.9h-1.8v-0.7l1.8-0.5v-0.6c0-2.5,1.1-3.7,3.2-3.7c0.5,0,1.2,0.1,1.9,0.3
				l-0.4,1.2c-0.6-0.2-1.1-0.3-1.5-0.3c-0.6,0-1,0.2-1.3,0.6s-0.4,1-0.4,1.8v0.7h2.6V111.3z"/>
			<path class="st30" d="M141.6,109.9c0.4,0,0.8,0,1.2,0.1l-0.2,1.4c-0.4-0.1-0.8-0.1-1.1-0.1c-0.8,0-1.5,0.3-2.1,1
				s-0.9,1.5-0.9,2.5v5.4H137v-10h1.3l0.2,1.9h0.1c0.4-0.7,0.8-1.2,1.3-1.5C140.4,110.1,140.9,109.9,141.6,109.9z"/>
			<path class="st30" d="M150.8,120.1l-0.3-1.4h-0.1c-0.5,0.6-1,1.1-1.5,1.3s-1.1,0.3-1.9,0.3c-1,0-1.8-0.3-2.3-0.8
				s-0.8-1.2-0.8-2.2c0-2,1.6-3.1,4.9-3.2l1.7-0.1v-0.6c0-0.8-0.2-1.4-0.5-1.7c-0.3-0.4-0.9-0.6-1.6-0.6c-0.8,0-1.8,0.3-2.8,0.8
				l-0.5-1.2c0.5-0.3,1-0.5,1.6-0.6c0.6-0.2,1.2-0.2,1.8-0.2c1.2,0,2.1,0.3,2.7,0.8c0.6,0.5,0.9,1.4,0.9,2.6v6.9h-1.3V120.1z
				 M147.4,119.1c0.9,0,1.7-0.3,2.2-0.8s0.8-1.2,0.8-2.2v-0.9l-1.5,0.1c-1.2,0-2.1,0.2-2.6,0.6c-0.5,0.3-0.8,0.9-0.8,1.6
				c0,0.5,0.2,1,0.5,1.3C146.3,118.9,146.8,119.1,147.4,119.1z"/>
			<path class="st30" d="M167.9,120.1v-6.5c0-0.8-0.2-1.4-0.5-1.8s-0.9-0.6-1.6-0.6c-0.9,0-1.6,0.3-2.1,0.8s-0.7,1.4-0.7,2.5v5.6
				h-1.5v-6.5c0-0.8-0.2-1.4-0.5-1.8s-0.9-0.6-1.6-0.6c-1,0-1.7,0.3-2.1,0.9c-0.4,0.6-0.7,1.5-0.7,2.8v5.3h-1.5v-10h1.2l0.2,1.4h0.1
				c0.3-0.5,0.7-0.9,1.2-1.1c0.5-0.3,1.1-0.4,1.8-0.4c1.6,0,2.6,0.6,3.1,1.7h0.1c0.3-0.5,0.7-0.9,1.3-1.2c0.6-0.3,1.2-0.5,1.9-0.5
				c1.1,0,2,0.3,2.6,0.9s0.8,1.5,0.8,2.8v6.5h-1.5V120.1z"/>
			<path class="st30" d="M176.8,120.3c-1.5,0-2.7-0.5-3.5-1.4c-0.9-0.9-1.3-2.2-1.3-3.8c0-1.6,0.4-2.9,1.2-3.9s1.9-1.4,3.2-1.4
				s2.3,0.4,3,1.2c0.7,0.8,1.1,1.9,1.1,3.3v1h-6.9c0,1.2,0.3,2.1,0.9,2.7s1.4,0.9,2.4,0.9c1.1,0,2.1-0.2,3.2-0.7v1.4
				c-0.5,0.2-1,0.4-1.5,0.5C178,120.3,177.4,120.3,176.8,120.3z M176.3,111.2c-0.8,0-1.4,0.3-1.9,0.8s-0.8,1.3-0.8,2.2h5.2
				c0-1-0.2-1.7-0.6-2.2C177.7,111.4,177.1,111.2,176.3,111.2z"/>
		</g>
		<path class="st31" d="M546.3,336.4H19.1c-3.3,0-6-2.7-6-6V277c0-3.3,2.7-6,6-6h527.2c3.3,0,6,2.7,6,6v53.3
			C552.3,333.7,549.6,336.4,546.3,336.4z"/>
		<g class="st7">
			<path class="st30" d="M129.1,300.9h-3v-14.3h8.2v2.5h-5.2v3.7h4.8v2.5h-4.8V300.9z"/>
			<path class="st30" d="M142.9,289.8c0.4,0,0.7,0,1,0.1l-0.2,2.8c-0.2-0.1-0.5-0.1-0.9-0.1c-1,0-1.7,0.2-2.2,0.7s-0.8,1.2-0.8,2.1
				v5.6h-3v-11h2.3l0.4,1.8h0.1c0.3-0.6,0.8-1.1,1.4-1.5S142.2,289.8,142.9,289.8z"/>
			<path class="st30" d="M152.8,300.9l-0.6-1.5h-0.1c-0.5,0.6-1,1.1-1.5,1.3s-1.2,0.4-2.1,0.4c-1,0-1.9-0.3-2.5-0.9
				s-0.9-1.5-0.9-2.6c0-1.2,0.4-2,1.2-2.6s2-0.9,3.7-0.9l1.9-0.1v-0.5c0-1.1-0.6-1.7-1.7-1.7c-0.9,0-1.9,0.3-3.1,0.8l-1-2
				c1.3-0.7,2.6-1,4.2-1c1.5,0,2.6,0.3,3.4,1s1.2,1.6,1.2,2.9v7.3h-2.1V300.9z M152,295.8h-1.2c-0.9,0-1.5,0.2-1.9,0.5
				s-0.6,0.7-0.6,1.3c0,0.8,0.5,1.3,1.4,1.3c0.7,0,1.2-0.2,1.7-0.6s0.6-0.9,0.6-1.6V295.8z"/>
			<path class="st30" d="M167.8,300.9h-3v-6.4c0-0.8-0.1-1.4-0.4-1.8s-0.7-0.6-1.2-0.6c-0.8,0-1.3,0.3-1.7,0.8s-0.5,1.5-0.5,2.8v5.1
				h-3V290h2.3l0.4,1.4h0.2c0.3-0.5,0.7-0.9,1.3-1.2s1.2-0.4,1.9-0.4c1.6,0,2.7,0.5,3.3,1.6h0.3c0.3-0.5,0.7-0.9,1.3-1.2
				s1.2-0.4,1.9-0.4c1.2,0,2.2,0.3,2.8,1s1,1.7,1,3.1v7.1h-3v-6.4c0-0.8-0.1-1.4-0.4-1.8s-0.7-0.6-1.2-0.6c-0.7,0-1.3,0.3-1.6,0.8
				s-0.5,1.3-0.5,2.5v5.4H167.8z"/>
			<path class="st30" d="M182.6,301.1c-1.8,0-3.1-0.5-4.1-1.5s-1.5-2.3-1.5-4.1c0-1.8,0.5-3.2,1.4-4.2s2.2-1.5,3.8-1.5
				c1.5,0,2.7,0.4,3.6,1.3s1.3,2.1,1.3,3.6v1.4h-7c0,0.8,0.3,1.5,0.8,2s1.1,0.7,2,0.7c0.7,0,1.3-0.1,1.9-0.2s1.2-0.4,1.8-0.7v2.3
				c-0.5,0.3-1.1,0.5-1.7,0.6S183.4,301.1,182.6,301.1z M182.1,291.9c-0.6,0-1.1,0.2-1.5,0.6s-0.6,1-0.6,1.7h4.2
				c0-0.7-0.2-1.3-0.6-1.7S182.8,291.9,182.1,291.9z"/>
			<path class="st30" d="M189,291.4c0-0.5,0.1-1,0.4-1.2s0.7-0.4,1.3-0.4c0.5,0,1,0.1,1.3,0.4s0.4,0.7,0.4,1.2s-0.2,0.9-0.5,1.2
				s-0.7,0.4-1.2,0.4s-1-0.1-1.3-0.4S189,292,189,291.4z M189,299.5c0-0.5,0.1-1,0.4-1.2s0.7-0.4,1.3-0.4c0.5,0,1,0.1,1.3,0.4
				s0.4,0.7,0.4,1.2s-0.1,0.9-0.4,1.2s-0.7,0.4-1.2,0.4s-1-0.1-1.3-0.4S189,300,189,299.5z"/>
		</g>
		<g class="st7">
			<path class="st30" d="M200.7,300.9v-14.3h2.3v12.3h6v2H200.7z"/>
			<path class="st30" d="M220.8,295.5c0,1.8-0.5,3.1-1.4,4.1s-2.2,1.5-3.8,1.5c-1,0-1.9-0.2-2.7-0.7s-1.4-1.1-1.8-2s-0.6-1.8-0.6-3
				c0-1.8,0.4-3.1,1.3-4.1s2.2-1.5,3.8-1.5s2.8,0.5,3.7,1.5S220.8,293.8,220.8,295.5z M213,295.5c0,2.5,0.9,3.7,2.8,3.7
				c1.8,0,2.7-1.2,2.7-3.7s-0.9-3.7-2.8-3.7c-1,0-1.7,0.3-2.1,1S213,294.3,213,295.5z"/>
			<path class="st30" d="M232.3,300.9l-1.4-5c-0.2-0.5-0.5-1.8-0.9-3.7h-0.1c-0.4,1.8-0.7,3-0.9,3.7l-1.4,5h-2.5l-3-10.8h2.3
				l1.4,5.3c0.3,1.3,0.5,2.4,0.7,3.4h0.1c0.1-0.5,0.2-1,0.3-1.6s0.2-1.1,0.3-1.4l1.6-5.7h2.5l1.6,5.7c0.1,0.3,0.2,0.8,0.4,1.5
				s0.2,1.2,0.3,1.5h0.1c0.1-0.8,0.3-1.9,0.7-3.4l1.4-5.3h2.3l-3,10.8H232.3z"/>
			<path class="st30" d="M250.5,289.9c0.5,0,0.8,0,1.1,0.1l-0.2,2.1c-0.3-0.1-0.7-0.1-1-0.1c-0.9,0-1.7,0.3-2.2,0.9
				s-0.9,1.4-0.9,2.3v5.6H245V290h1.8l0.3,1.9h0.1c0.4-0.6,0.8-1.2,1.4-1.5S249.8,289.9,250.5,289.9z"/>
			<path class="st30" d="M253.5,287.2c0-0.4,0.1-0.7,0.3-0.9s0.5-0.3,1-0.3c0.4,0,0.7,0.1,0.9,0.3s0.3,0.5,0.3,0.9s-0.1,0.7-0.3,0.9
				s-0.5,0.3-0.9,0.3s-0.7-0.1-1-0.3S253.5,287.6,253.5,287.2z M255.9,300.9h-2.3v-10.8h2.3V300.9z"/>
			<path class="st30" d="M266.5,297.8c0,1.1-0.4,1.9-1.2,2.4s-1.9,0.8-3.3,0.8s-2.6-0.2-3.5-0.7v-2c1.3,0.6,2.5,0.9,3.5,0.9
				c1.4,0,2.1-0.4,2.1-1.3c0-0.3-0.1-0.5-0.2-0.7s-0.4-0.4-0.8-0.6s-0.9-0.4-1.5-0.7c-1.2-0.5-2.1-1-2.5-1.4s-0.7-1.1-0.7-1.9
				c0-0.9,0.4-1.6,1.1-2.2s1.8-0.8,3-0.8c1.3,0,2.5,0.3,3.6,0.8l-0.7,1.7c-1.2-0.5-2.1-0.7-2.9-0.7c-1.2,0-1.8,0.3-1.8,1
				c0,0.3,0.2,0.6,0.5,0.9s1,0.6,2.1,1c0.9,0.3,1.5,0.7,1.9,0.9s0.7,0.6,0.9,1S266.5,297.3,266.5,297.8z"/>
			<path class="st30" d="M273.7,301.1c-1.7,0-3-0.5-3.9-1.5s-1.4-2.3-1.4-4c0-1.8,0.4-3.2,1.3-4.2s2.1-1.5,3.6-1.5
				c1.4,0,2.6,0.4,3.4,1.3s1.2,2.1,1.2,3.6v1.2h-7.2c0,1,0.3,1.9,0.8,2.4s1.3,0.8,2.3,0.8c0.6,0,1.2-0.1,1.8-0.2s1.1-0.3,1.8-0.6
				v1.9c-0.6,0.3-1.1,0.5-1.7,0.6S274.4,301.1,273.7,301.1z M273.3,291.6c-0.7,0-1.3,0.2-1.8,0.7s-0.7,1.1-0.8,2h4.9
				c0-0.9-0.2-1.6-0.6-2S274,291.6,273.3,291.6z"/>
			<path class="st30" d="M294.5,300.9l-1.4-5c-0.2-0.5-0.5-1.8-0.9-3.7h-0.1c-0.4,1.8-0.7,3-0.9,3.7l-1.4,5h-2.5l-3-10.8h2.3
				l1.4,5.3c0.3,1.3,0.5,2.4,0.7,3.4h0.1c0.1-0.5,0.2-1,0.3-1.6c0.1-0.6,0.2-1.1,0.3-1.4l1.6-5.7h2.5l1.6,5.7
				c0.1,0.3,0.2,0.8,0.4,1.5s0.2,1.2,0.3,1.5h0.1c0.1-0.8,0.3-1.9,0.7-3.4l1.4-5.3h2.3l-3,10.8H294.5z"/>
			<path class="st30" d="M311.6,295.5c0,1.8-0.5,3.1-1.4,4.1s-2.2,1.5-3.8,1.5c-1,0-1.9-0.2-2.7-0.7c-0.8-0.5-1.4-1.1-1.8-2
				s-0.6-1.8-0.6-3c0-1.8,0.4-3.1,1.3-4.1s2.2-1.5,3.8-1.5c1.6,0,2.8,0.5,3.7,1.5C311.1,292.4,311.6,293.8,311.6,295.5z
				 M303.7,295.5c0,2.5,0.9,3.7,2.8,3.7c1.8,0,2.7-1.2,2.7-3.7s-0.9-3.7-2.8-3.7c-1,0-1.7,0.3-2.1,1
				C303.9,293.4,303.7,294.3,303.7,295.5z"/>
			<path class="st30" d="M323.8,295.5c0,1.8-0.5,3.1-1.4,4.1s-2.2,1.5-3.8,1.5c-1,0-1.9-0.2-2.7-0.7c-0.8-0.5-1.4-1.1-1.8-2
				s-0.6-1.8-0.6-3c0-1.8,0.4-3.1,1.3-4.1s2.2-1.5,3.8-1.5c1.6,0,2.8,0.5,3.7,1.5C323.4,292.4,323.8,293.8,323.8,295.5z
				 M315.9,295.5c0,2.5,0.9,3.7,2.8,3.7c1.8,0,2.7-1.2,2.7-3.7s-0.9-3.7-2.8-3.7c-1,0-1.7,0.3-2.1,1
				C316.2,293.4,315.9,294.3,315.9,295.5z"/>
			<path class="st30" d="M330.1,301.1c-1.3,0-2.4-0.5-3.2-1.5c-0.8-1-1.1-2.3-1.1-4.1c0-1.8,0.4-3.1,1.1-4.1c0.8-1,1.8-1.5,3.2-1.5
				c1.4,0,2.5,0.5,3.2,1.6h0.1c-0.1-0.8-0.2-1.4-0.2-1.8v-3.9h2.3V301h-1.8l-0.4-1.4h-0.1C332.6,300.6,331.5,301.1,330.1,301.1z
				 M330.7,299.2c0.9,0,1.6-0.3,2.1-0.8s0.7-1.4,0.7-2.6v-0.3c0-1.4-0.2-2.3-0.7-2.9c-0.4-0.6-1.1-0.9-2.1-0.9c-0.8,0-1.4,0.3-1.9,1
				c-0.4,0.7-0.7,1.6-0.7,2.8c0,1.2,0.2,2.1,0.6,2.7C329.2,298.9,329.9,299.2,330.7,299.2z"/>
			<path class="st30" d="M351.4,297.8c0,1.1-0.4,1.9-1.2,2.4s-1.9,0.8-3.3,0.8s-2.6-0.2-3.5-0.7v-2c1.3,0.6,2.5,0.9,3.5,0.9
				c1.4,0,2.1-0.4,2.1-1.3c0-0.3-0.1-0.5-0.2-0.7s-0.4-0.4-0.8-0.6s-0.9-0.4-1.5-0.7c-1.2-0.5-2.1-1-2.5-1.4s-0.7-1.1-0.7-1.9
				c0-0.9,0.4-1.6,1.1-2.2s1.8-0.8,3-0.8c1.3,0,2.5,0.3,3.6,0.8l-0.7,1.7c-1.2-0.5-2.1-0.7-2.9-0.7c-1.2,0-1.8,0.3-1.8,1
				c0,0.3,0.2,0.6,0.5,0.9s1,0.6,2.1,1c0.9,0.3,1.5,0.7,1.9,0.9s0.7,0.6,0.9,1S351.4,297.3,351.4,297.8z"/>
			<path class="st30" d="M357.9,299.2c0.6,0,1.1-0.1,1.7-0.3v1.7c-0.3,0.1-0.6,0.2-1,0.3s-0.8,0.1-1.2,0.1c-2.2,0-3.3-1.1-3.3-3.4
				v-5.8h-1.5v-1l1.6-0.8l0.8-2.3h1.4v2.4h3.1v1.7h-3.1v5.8c0,0.6,0.1,1,0.4,1.2S357.4,299.2,357.9,299.2z"/>
			<path class="st30" d="M367.2,289.9c0.5,0,0.8,0,1.1,0.1l-0.2,2.1c-0.3-0.1-0.7-0.1-1-0.1c-0.9,0-1.7,0.3-2.2,0.9
				s-0.9,1.4-0.9,2.3v5.6h-2.3V290h1.8l0.3,1.9h0.1c0.4-0.6,0.8-1.2,1.4-1.5S366.5,289.9,367.2,289.9z"/>
			<path class="st30" d="M377.9,300.9l-0.3-1.4h-0.1c-0.3,0.5-0.8,0.9-1.4,1.2s-1.3,0.4-2,0.4c-1.3,0-2.3-0.3-2.9-1s-1-1.6-1-3V290
				h2.3v6.7c0,0.8,0.2,1.4,0.5,1.9s0.9,0.6,1.6,0.6c1,0,1.7-0.3,2.1-0.9s0.7-1.5,0.7-2.9V290h2.3v10.8L377.9,300.9L377.9,300.9z"/>
			<path class="st30" d="M387.4,301.1c-1.6,0-2.9-0.5-3.7-1.4s-1.3-2.3-1.3-4.1c0-1.8,0.4-3.2,1.3-4.2s2.2-1.5,3.9-1.5
				c1.1,0,2.2,0.2,3.1,0.6l-0.7,1.8c-1-0.4-1.8-0.6-2.4-0.6c-1.9,0-2.8,1.2-2.8,3.7c0,1.2,0.2,2.1,0.7,2.7s1.1,0.9,2,0.9
				c1,0,2-0.3,2.9-0.8v2c-0.4,0.2-0.8,0.4-1.3,0.5S388,301.1,387.4,301.1z"/>
			<path class="st30" d="M396.9,299.2c0.6,0,1.1-0.1,1.7-0.3v1.7c-0.3,0.1-0.6,0.2-1,0.3s-0.8,0.1-1.2,0.1c-2.2,0-3.3-1.1-3.3-3.4
				v-5.8h-1.5v-1l1.6-0.8l0.8-2.3h1.4v2.4h3.1v1.7h-3.1v5.8c0,0.6,0.1,1,0.4,1.2S396.5,299.2,396.9,299.2z"/>
			<path class="st30" d="M408.4,300.9l-0.3-1.4H408c-0.3,0.5-0.8,0.9-1.4,1.2s-1.3,0.4-2,0.4c-1.3,0-2.3-0.3-2.9-1s-1-1.6-1-3V290
				h2.3v6.7c0,0.8,0.2,1.4,0.5,1.9s0.9,0.6,1.6,0.6c1,0,1.7-0.3,2.1-0.9s0.7-1.5,0.7-2.9V290h2.3v10.8L408.4,300.9L408.4,300.9z"/>
			<path class="st30" d="M419,289.9c0.5,0,0.8,0,1.1,0.1l-0.2,2.1c-0.3-0.1-0.7-0.1-1-0.1c-0.9,0-1.7,0.3-2.2,0.9s-0.9,1.4-0.9,2.3
				v5.6h-2.3V290h1.8l0.3,1.9h0.1c0.4-0.6,0.8-1.2,1.4-1.5S418.3,289.9,419,289.9z"/>
			<path class="st30" d="M426.8,301.1c-1.7,0-3-0.5-3.9-1.5s-1.4-2.3-1.4-4c0-1.8,0.4-3.2,1.3-4.2s2.1-1.5,3.6-1.5
				c1.4,0,2.6,0.4,3.4,1.3s1.2,2.1,1.2,3.6v1.2h-7.2c0,1,0.3,1.9,0.8,2.4s1.3,0.8,2.3,0.8c0.6,0,1.2-0.1,1.8-0.2s1.1-0.3,1.8-0.6
				v1.9c-0.6,0.3-1.1,0.5-1.7,0.6S427.6,301.1,426.8,301.1z M426.4,291.6c-0.7,0-1.3,0.2-1.8,0.7s-0.7,1.1-0.8,2h4.9
				c0-0.9-0.2-1.6-0.6-2S427.1,291.6,426.4,291.6z"/>
			<path class="st30" d="M433.3,299.7c0-0.5,0.1-0.8,0.4-1.1s0.6-0.4,1.1-0.4s0.8,0.1,1.1,0.4s0.4,0.6,0.4,1.1s-0.1,0.8-0.4,1.1
				s-0.6,0.4-1.1,0.4s-0.8-0.1-1.1-0.4S433.3,300.1,433.3,299.7z"/>
		</g>
		<g class="st7">
			<path class="st30" d="M194.2,314.9c0,1.5-0.5,2.6-1.5,3.4s-2.4,1.2-4.2,1.2H187v5.3h-2.3v-14.3h4.1c1.8,0,3.1,0.4,4,1.1
				S194.2,313.5,194.2,314.9z M187.1,317.6h1.2c1.2,0,2.1-0.2,2.6-0.6s0.8-1.1,0.8-2c0-0.8-0.3-1.4-0.8-1.8s-1.3-0.6-2.3-0.6H187v5
				H187.1z"/>
			<path class="st30" d="M202.3,313.9c0.5,0,0.8,0,1.1,0.1l-0.2,2.1c-0.3-0.1-0.7-0.1-1-0.1c-0.9,0-1.7,0.3-2.2,0.9
				s-0.9,1.4-0.9,2.3v5.6h-2.3V314h1.8l0.3,1.9h0.1c0.4-0.6,0.8-1.2,1.4-1.5S201.6,313.9,202.3,313.9z"/>
			<path class="st30" d="M205.3,311.2c0-0.4,0.1-0.7,0.3-0.9s0.5-0.3,1-0.3c0.4,0,0.7,0.1,0.9,0.3s0.3,0.5,0.3,0.9s-0.1,0.7-0.3,0.9
				s-0.5,0.3-0.9,0.3s-0.7-0.1-1-0.3S205.3,311.6,205.3,311.2z M207.8,324.9h-2.3v-10.8h2.3V324.9z"/>
			<path class="st30" d="M220.1,324.9h-2.3v-6.7c0-0.8-0.2-1.4-0.5-1.9s-0.8-0.6-1.5-0.6c-0.9,0-1.5,0.3-1.9,0.9s-0.6,1.5-0.6,2.9
				v5.4H211v-10.8h1.8l0.3,1.4h0.1c0.3-0.5,0.7-0.9,1.3-1.2s1.2-0.4,1.9-0.4c1.7,0,2.8,0.6,3.3,1.7h0.2c0.3-0.5,0.8-1,1.3-1.2
				s1.2-0.4,2-0.4c1.3,0,2.2,0.3,2.8,1s0.9,1.6,0.9,3v7h-2.3v-6.7c0-0.8-0.2-1.4-0.5-1.9s-0.8-0.6-1.5-0.6c-0.9,0-1.5,0.3-2,0.8
				s-0.6,1.4-0.6,2.6v5.7H220.1z"/>
			<path class="st30" d="M236.9,324.9l-0.5-1.5h-0.1c-0.5,0.7-1,1.1-1.6,1.3s-1.2,0.4-2,0.4c-1.1,0-1.9-0.3-2.5-0.9
				s-0.9-1.4-0.9-2.4c0-1.1,0.4-2,1.2-2.5s2.1-0.9,3.8-0.9l1.9-0.1v-0.6c0-0.7-0.2-1.2-0.5-1.5s-0.8-0.5-1.5-0.5
				c-0.6,0-1.1,0.1-1.6,0.2s-1,0.4-1.5,0.6l-0.7-1.6c0.6-0.3,1.2-0.5,1.9-0.7s1.4-0.2,2-0.2c1.4,0,2.4,0.3,3.1,0.9s1,1.5,1,2.8v7.3
				L236.9,324.9L236.9,324.9z M233.5,323.3c0.8,0,1.5-0.2,2-0.7s0.8-1.1,0.8-2v-0.9l-1.4,0.1c-1.1,0-1.9,0.2-2.4,0.5
				s-0.7,0.8-0.7,1.5c0,0.5,0.1,0.9,0.4,1.1S232.9,323.3,233.5,323.3z"/>
			<path class="st30" d="M247.2,313.9c0.5,0,0.8,0,1.1,0.1l-0.2,2.1c-0.3-0.1-0.7-0.1-1-0.1c-0.9,0-1.7,0.3-2.2,0.9
				s-0.9,1.4-0.9,2.3v5.6h-2.3V314h1.8l0.3,1.9h0.1c0.4-0.6,0.8-1.2,1.4-1.5S246.6,313.9,247.2,313.9z"/>
			<path class="st30" d="M250.2,311.2c0-0.4,0.1-0.7,0.3-0.9s0.5-0.3,1-0.3c0.4,0,0.7,0.1,0.9,0.3s0.3,0.5,0.3,0.9s-0.1,0.7-0.3,0.9
				s-0.5,0.3-0.9,0.3s-0.7-0.1-1-0.3S250.2,311.6,250.2,311.2z M252.7,324.9h-2.3v-10.8h2.3V324.9z"/>
			<path class="st30" d="M258.2,324.9H256v-15.2h2.3L258.2,324.9L258.2,324.9z"/>
			<path class="st30" d="M259.9,314.1h2.5l2.2,6.1c0.3,0.9,0.6,1.7,0.7,2.5h0.1c0.1-0.4,0.2-0.8,0.3-1.3s1-2.9,2.5-7.3h2.5
				l-4.6,12.2c-0.8,2.2-2.2,3.4-4.2,3.4c-0.5,0-1-0.1-1.5-0.2v-1.8c0.3,0.1,0.7,0.1,1.2,0.1c1.1,0,1.9-0.6,2.3-1.9l0.4-1
				L259.9,314.1z"/>
			<path class="st30" d="M282.9,313.9c0.5,0,0.8,0,1.1,0.1l-0.2,2.1c-0.3-0.1-0.7-0.1-1-0.1c-0.9,0-1.7,0.3-2.2,0.9
				s-0.9,1.4-0.9,2.3v5.6h-2.3V314h1.8l0.3,1.9h0.1c0.4-0.6,0.8-1.2,1.4-1.5S282.3,313.9,282.9,313.9z"/>
			<path class="st30" d="M290.8,325.1c-1.7,0-3-0.5-3.9-1.5s-1.4-2.3-1.4-4c0-1.8,0.4-3.2,1.3-4.2s2.1-1.5,3.6-1.5
				c1.4,0,2.6,0.4,3.4,1.3s1.2,2.1,1.2,3.6v1.2h-7.2c0,1,0.3,1.9,0.8,2.4c0.5,0.6,1.3,0.8,2.3,0.8c0.6,0,1.2-0.1,1.8-0.2
				c0.6-0.1,1.1-0.3,1.8-0.6v1.9c-0.6,0.3-1.1,0.5-1.7,0.6C292.2,325,291.5,325.1,290.8,325.1z M290.4,315.6c-0.7,0-1.3,0.2-1.8,0.7
				s-0.7,1.1-0.8,2h4.9c0-0.9-0.2-1.6-0.6-2C291.7,315.9,291.1,315.6,290.4,315.6z"/>
			<path class="st30" d="M304.9,321.8c0,1.1-0.4,1.9-1.2,2.4c-0.8,0.6-1.9,0.8-3.3,0.8s-2.6-0.2-3.5-0.7v-2c1.3,0.6,2.5,0.9,3.5,0.9
				c1.4,0,2.1-0.4,2.1-1.3c0-0.3-0.1-0.5-0.2-0.7s-0.4-0.4-0.8-0.6s-0.9-0.4-1.5-0.7c-1.2-0.5-2.1-1-2.5-1.4s-0.7-1.1-0.7-1.9
				c0-0.9,0.4-1.6,1.1-2.2c0.7-0.5,1.8-0.8,3-0.8c1.3,0,2.5,0.3,3.6,0.8l-0.7,1.7c-1.2-0.5-2.1-0.7-2.9-0.7c-1.2,0-1.8,0.3-1.8,1
				c0,0.3,0.2,0.6,0.5,0.9c0.3,0.2,1,0.6,2.1,1c0.9,0.3,1.5,0.7,1.9,0.9c0.4,0.3,0.7,0.6,0.9,1S304.9,321.3,304.9,321.8z"/>
			<path class="st30" d="M307.2,311.2c0-0.4,0.1-0.7,0.3-0.9s0.5-0.3,1-0.3c0.4,0,0.7,0.1,0.9,0.3s0.3,0.5,0.3,0.9s-0.1,0.7-0.3,0.9
				s-0.5,0.3-0.9,0.3s-0.7-0.1-1-0.3S307.2,311.6,307.2,311.2z M309.6,324.9h-2.3v-10.8h2.3V324.9z"/>
			<path class="st30" d="M316.6,325.1c-1.3,0-2.4-0.5-3.2-1.5c-0.8-1-1.1-2.3-1.1-4.1c0-1.8,0.4-3.1,1.1-4.1c0.8-1,1.8-1.5,3.2-1.5
				c1.4,0,2.5,0.5,3.2,1.6h0.1c-0.1-0.8-0.2-1.4-0.2-1.8v-3.9h2.3V325h-1.8l-0.4-1.4h-0.1C319,324.6,318,325.1,316.6,325.1z
				 M317.2,323.2c0.9,0,1.6-0.3,2.1-0.8s0.7-1.4,0.7-2.6v-0.3c0-1.4-0.2-2.3-0.7-2.9c-0.4-0.6-1.1-0.9-2.1-0.9c-0.8,0-1.4,0.3-1.9,1
				c-0.4,0.7-0.7,1.6-0.7,2.8c0,1.2,0.2,2.1,0.6,2.7C315.7,322.9,316.3,323.2,317.2,323.2z"/>
			<path class="st30" d="M330.1,325.1c-1.7,0-3-0.5-3.9-1.5s-1.4-2.3-1.4-4c0-1.8,0.4-3.2,1.3-4.2s2.1-1.5,3.6-1.5
				c1.4,0,2.6,0.4,3.4,1.3s1.2,2.1,1.2,3.6v1.2h-7.2c0,1,0.3,1.9,0.8,2.4c0.5,0.6,1.3,0.8,2.3,0.8c0.6,0,1.2-0.1,1.8-0.2
				s1.1-0.3,1.8-0.6v1.9c-0.6,0.3-1.1,0.5-1.7,0.6S330.8,325.1,330.1,325.1z M329.7,315.6c-0.7,0-1.3,0.2-1.8,0.7s-0.7,1.1-0.8,2
				h4.9c0-0.9-0.2-1.6-0.6-2S330.4,315.6,329.7,315.6z"/>
			<path class="st30" d="M346.4,324.9h-2.3v-6.6c0-0.8-0.2-1.5-0.5-1.9s-0.9-0.6-1.6-0.6c-1,0-1.7,0.3-2.1,0.9s-0.7,1.5-0.7,2.9v5.4
				h-2.3v-10.8h1.8l0.3,1.4h0.1c0.3-0.5,0.8-0.9,1.4-1.2s1.3-0.4,2-0.4c2.6,0,3.9,1.3,3.9,4L346.4,324.9L346.4,324.9z"/>
			<path class="st30" d="M353.6,323.2c0.6,0,1.1-0.1,1.7-0.3v1.7c-0.3,0.1-0.6,0.2-1,0.3s-0.8,0.1-1.2,0.1c-2.2,0-3.3-1.1-3.3-3.4
				v-5.8h-1.5v-1l1.6-0.8l0.8-2.3h1.4v2.4h3.1v1.7h-3.1v5.8c0,0.6,0.1,1,0.4,1.2S353.2,323.2,353.6,323.2z"/>
			<path class="st30" d="M357.3,311.2c0-0.4,0.1-0.7,0.3-0.9s0.5-0.3,1-0.3c0.4,0,0.7,0.1,0.9,0.3s0.3,0.5,0.3,0.9s-0.1,0.7-0.3,0.9
				s-0.5,0.3-0.9,0.3s-0.7-0.1-1-0.3S357.3,311.6,357.3,311.2z M359.7,324.9h-2.3v-10.8h2.3V324.9z"/>
			<path class="st30" d="M369.8,324.9l-0.5-1.5h-0.1c-0.5,0.7-1,1.1-1.6,1.3s-1.2,0.4-2,0.4c-1.1,0-1.9-0.3-2.5-0.9
				s-0.9-1.4-0.9-2.4c0-1.1,0.4-2,1.2-2.5s2.1-0.9,3.8-0.9l1.9-0.1v-0.6c0-0.7-0.2-1.2-0.5-1.5s-0.8-0.5-1.5-0.5
				c-0.6,0-1.1,0.1-1.6,0.2s-1,0.4-1.5,0.6l-0.7-1.6c0.6-0.3,1.2-0.5,1.9-0.7s1.4-0.2,2-0.2c1.4,0,2.4,0.3,3.1,0.9s1,1.5,1,2.8v7.3
				L369.8,324.9L369.8,324.9z M366.4,323.3c0.8,0,1.5-0.2,2-0.7s0.8-1.1,0.8-2v-0.9l-1.4,0.1c-1.1,0-1.9,0.2-2.4,0.5
				s-0.7,0.8-0.7,1.5c0,0.5,0.1,0.9,0.4,1.1S365.8,323.3,366.4,323.3z"/>
			<path class="st30" d="M376.9,324.9h-2.3v-15.2h2.3V324.9z"/>
			<path class="st30" d="M379.9,323.7c0-0.5,0.1-0.8,0.4-1.1s0.6-0.4,1.1-0.4s0.8,0.1,1.1,0.4s0.4,0.6,0.4,1.1s-0.1,0.8-0.4,1.1
				s-0.6,0.4-1.1,0.4s-0.8-0.1-1.1-0.4S379.9,324.1,379.9,323.7z"/>
		</g>
	</g>
</g>
</svg>
