<?xml version="1.0" encoding="utf-8"?>
<!-- Generator: Adobe Illustrator 21.0.0, SVG Export Plug-In . SVG Version: 6.00 Build 0)  -->
<svg version="1.1" id="Layer_1" xmlns="http://www.w3.org/2000/svg" xmlns:xlink="http://www.w3.org/1999/xlink" x="0px" y="0px"
	 viewBox="0 0 567 349.3" style="enable-background:new 0 0 567 349.3;" xml:space="preserve">
<style type="text/css">
	.st0{fill:#E8E7E1;}
	.st1{fill-rule:evenodd;clip-rule:evenodd;fill:#77080F;}
	.st2{opacity:0.5;fill:none;stroke:#070606;stroke-width:0.5;stroke-miterlimit:10;}
	.st3{opacity:0.5;fill:none;stroke:#FFFFFF;stroke-width:0.5;stroke-miterlimit:10;}
	.st4{fill-rule:evenodd;clip-rule:evenodd;fill:#E9E7E3;}
	.st5{fill-rule:evenodd;clip-rule:evenodd;fill:#1C1718;}
	.st6{fill-rule:evenodd;clip-rule:evenodd;fill:#4F0911;}
	.st7{clip-path:url(#XMLID_9_);}
	.st8{clip-path:url(#XMLID_31_);}
	.st9{fill-rule:evenodd;clip-rule:evenodd;fill:#090808;}
	.st10{fill-rule:evenodd;clip-rule:evenodd;fill:#FFFFFF;}
	.st11{fill-rule:evenodd;clip-rule:evenodd;fill:#658FA1;}
	.st12{fill-rule:evenodd;clip-rule:evenodd;fill:#D1D0CA;}
	.st13{fill-rule:evenodd;clip-rule:evenodd;fill:#BAB6B0;}
	.st14{clip-path:url(#XMLID_32_);}
	.st15{fill-rule:evenodd;clip-rule:evenodd;fill:#573C36;}
	.st16{clip-path:url(#XMLID_33_);}
	.st17{fill-rule:evenodd;clip-rule:evenodd;fill:#B51112;}
	.st18{fill-rule:evenodd;clip-rule:evenodd;fill:#C81C1F;}
	.st19{fill-rule:evenodd;clip-rule:evenodd;fill:#D82C32;}
	.st20{fill-rule:evenodd;clip-rule:evenodd;fill:#672119;}
	.st21{fill-rule:evenodd;clip-rule:evenodd;fill:#912F1D;}
	.st22{fill-rule:evenodd;clip-rule:evenodd;fill:#655F5F;}
	.st23{fill-rule:evenodd;clip-rule:evenodd;fill:#8A8380;}
	.st24{fill-rule:evenodd;clip-rule:evenodd;fill:#7D7775;}
	.st25{fill-rule:evenodd;clip-rule:evenodd;fill:#A29A97;}
	.st26{fill-rule:evenodd;clip-rule:evenodd;fill:#641D15;}
	.st27{fill-rule:evenodd;clip-rule:evenodd;fill:#A29C98;}
	.st28{fill-rule:evenodd;clip-rule:evenodd;fill:#736B6B;}
	.st29{clip-path:url(#SVGID_2_);}
	.st30{opacity:0.5;fill:#070606;}
	.st31{opacity:0.5;fill:#FFFFFF;}
	.st32{fill:#B19563;}
	.st33{fill:#996834;}
	.st34{fill:#F0E1C0;}
	.st35{fill:#625957;}
	.st36{opacity:0.95;fill:#FFFFFF;}
	.st37{fill:#1F191A;}
	.st38{opacity:0.3;fill:#070606;}
	.st39{fill:#FFFFFF;}
</style>
<g id="Layer_2">
</g>
<g id="Layer_1_1_">
</g>
<g>
	<g>
		<g>
			<path class="st0" d="M562.1,349.3H4.9c-2.7,0-4.9-2.2-4.9-5V5c0-2.7,2.2-5,4.9-5h557.2c2.7,0,4.9,2.2,4.9,5v339.3
				C567,347,564.8,349.3,562.1,349.3z"/>
			<path class="st0" d="M562.1,349.3H4.9c-2.7,0-4.9-2.2-4.9-5V5c0-2.7,2.2-5,4.9-5h557.2c2.7,0,4.9,2.2,4.9,5v339.3
				C567,347,564.8,349.3,562.1,349.3z"/>
		</g>
		<g id="XMLID_2_">
			<polygon id="XMLID_140_" class="st1" points="170,104 170,159.3 233.5,196 233.5,137.4 208.1,82 			"/>
			<g>
				<line class="st2" x1="170" y1="152.5" x2="233.5" y2="188.8"/>
				<line class="st3" x1="170" y1="151.9" x2="233.5" y2="188.2"/>
			</g>
			<g>
				<line class="st2" x1="170" y1="147.5" x2="233.5" y2="183.8"/>
				<line class="st3" x1="170" y1="146.9" x2="233.5" y2="183.2"/>
			</g>
			<g>
				<line class="st2" x1="170" y1="137.5" x2="233.5" y2="173.8"/>
				<line class="st3" x1="170" y1="136.9" x2="233.5" y2="173.2"/>
			</g>
			<g>
				<line class="st2" x1="170" y1="127.5" x2="233.5" y2="163.8"/>
				<line class="st3" x1="170" y1="126.9" x2="233.5" y2="163.2"/>
			</g>
			<g>
				<line class="st2" x1="170" y1="117.5" x2="233.5" y2="153.8"/>
				<line class="st3" x1="170" y1="116.9" x2="233.5" y2="153.2"/>
			</g>
			<g>
				<line class="st2" x1="170" y1="107.5" x2="233.5" y2="143.8"/>
				<line class="st3" x1="170" y1="106.9" x2="233.5" y2="143.2"/>
			</g>
			<g>
				<line class="st2" x1="170" y1="142.5" x2="233.5" y2="178.8"/>
				<line class="st3" x1="170" y1="141.9" x2="233.5" y2="178.2"/>
			</g>
			<g>
				<line class="st2" x1="170" y1="132.5" x2="233.5" y2="168.8"/>
				<line class="st3" x1="170" y1="131.9" x2="233.5" y2="168.2"/>
			</g>
			<g>
				<line class="st2" x1="170" y1="122.5" x2="233.5" y2="158.8"/>
				<line class="st3" x1="170" y1="121.9" x2="233.5" y2="158.2"/>
			</g>
			<g>
				<line class="st2" x1="170" y1="112.5" x2="233.5" y2="148.8"/>
				<line class="st3" x1="170" y1="111.9" x2="233.5" y2="148.2"/>
			</g>
			<g>
				<line class="st2" x1="170" y1="102.5" x2="233.5" y2="138.8"/>
				<line class="st3" x1="170" y1="101.9" x2="233.5" y2="138.2"/>
			</g>
			<polygon id="XMLID_139_" class="st4" points="169.9,110.7 206.2,91 201.9,85.5 169.9,104 			"/>
			<polygon id="XMLID_138_" class="st5" points="170,156.8 233.5,193.5 233.5,196 170,159.3 			"/>
			<polygon id="XMLID_26_" class="st5" points="170,158.2 233.5,194.9 233.5,197.4 170,160.7 			"/>
			<polygon id="XMLID_137_" class="st6" points="339.4,87.6 233.5,139.2 233.5,196 270.3,175 323.3,139.6 			"/>
			<g>
				<defs>
					<polygon id="XMLID_29_" points="339.4,88.6 233.5,140.2 233.5,197 270.3,176 323.3,140.6 					"/>
				</defs>
				<clipPath id="XMLID_9_">
					<use xlink:href="#XMLID_29_"  style="overflow:visible;"/>
				</clipPath>
				<g class="st7">
					<g>
						<line class="st2" x1="264.3" y1="100.8" x2="264.3" y2="105"/>
						<line class="st3" x1="263.6" y1="101.4" x2="263.6" y2="105.5"/>
					</g>
					<g>
						<line class="st2" x1="264.3" y1="110.8" x2="264.3" y2="115"/>
						<line class="st3" x1="263.6" y1="111.4" x2="263.6" y2="115.5"/>
					</g>
					<g>
						<line class="st2" x1="269.3" y1="102.9" x2="269.3" y2="107.1"/>
						<line class="st3" x1="268.6" y1="103.5" x2="268.6" y2="107.6"/>
					</g>
					<g>
						<line class="st2" x1="258.7" y1="108.8" x2="258.7" y2="112.9"/>
						<line class="st3" x1="258" y1="109.3" x2="258" y2="113.4"/>
					</g>
					<g>
						<line class="st2" x1="269.3" y1="112.9" x2="269.3" y2="117.1"/>
						<line class="st3" x1="268.6" y1="113.5" x2="268.6" y2="117.6"/>
					</g>
					<g>
						<line class="st2" x1="258.7" y1="118.8" x2="258.7" y2="122.9"/>
						<line class="st3" x1="258" y1="119.3" x2="258" y2="123.4"/>
					</g>
					<g>
						<line class="st2" x1="269.3" y1="122.9" x2="269.3" y2="127.1"/>
						<line class="st3" x1="268.6" y1="123.5" x2="268.6" y2="127.6"/>
					</g>
					<g>
						<line class="st2" x1="279.7" y1="117.3" x2="279.7" y2="121.4"/>
						<line class="st3" x1="279" y1="117.8" x2="279" y2="121.9"/>
					</g>
					<g>
						<line class="st2" x1="258.7" y1="128.8" x2="258.7" y2="132.9"/>
						<line class="st3" x1="258" y1="129.3" x2="258" y2="133.4"/>
					</g>
					<g>
						<line class="st2" x1="247.6" y1="135.2" x2="247.6" y2="139.4"/>
						<line class="st3" x1="246.9" y1="135.8" x2="246.9" y2="139.9"/>
					</g>
					<g>
						<line class="st2" x1="269.3" y1="132.9" x2="269.3" y2="137.1"/>
						<line class="st3" x1="268.6" y1="133.5" x2="268.6" y2="137.6"/>
					</g>
					<g>
						<line class="st2" x1="279.7" y1="127.3" x2="279.7" y2="131.4"/>
						<line class="st3" x1="279" y1="127.8" x2="279" y2="131.9"/>
					</g>
					<g>
						<line class="st2" x1="258.7" y1="138.8" x2="258.7" y2="142.9"/>
						<line class="st3" x1="258" y1="139.3" x2="258" y2="143.4"/>
					</g>
					<g>
						<line class="st2" x1="247.6" y1="145.2" x2="247.6" y2="149.4"/>
						<line class="st3" x1="246.9" y1="145.8" x2="246.9" y2="149.9"/>
					</g>
					<g>
						<line class="st2" x1="269.3" y1="142.9" x2="269.3" y2="147.1"/>
						<line class="st3" x1="268.6" y1="143.5" x2="268.6" y2="147.6"/>
					</g>
					<g>
						<line class="st2" x1="279.7" y1="137.3" x2="279.7" y2="141.4"/>
						<line class="st3" x1="279" y1="137.8" x2="279" y2="141.9"/>
					</g>
					<g>
						<line class="st2" x1="258.7" y1="148.8" x2="258.7" y2="152.9"/>
						<line class="st3" x1="258" y1="149.3" x2="258" y2="153.4"/>
					</g>
					<g>
						<line class="st2" x1="247.6" y1="155.2" x2="247.6" y2="159.4"/>
						<line class="st3" x1="246.9" y1="155.8" x2="246.9" y2="159.9"/>
					</g>
					<g>
						<line class="st2" x1="235.5" y1="162.2" x2="235.5" y2="166.4"/>
						<line class="st3" x1="234.8" y1="162.8" x2="234.8" y2="166.9"/>
					</g>
					<g>
						<line class="st2" x1="269.3" y1="152.9" x2="269.3" y2="157.1"/>
						<line class="st3" x1="268.6" y1="153.5" x2="268.6" y2="157.6"/>
					</g>
					<g>
						<line class="st2" x1="279.7" y1="147.3" x2="279.7" y2="151.4"/>
						<line class="st3" x1="279" y1="147.8" x2="279" y2="151.9"/>
					</g>
					<g>
						<line class="st2" x1="258.7" y1="158.8" x2="258.7" y2="162.9"/>
						<line class="st3" x1="258" y1="159.3" x2="258" y2="163.4"/>
					</g>
					<g>
						<line class="st2" x1="247.6" y1="165.2" x2="247.6" y2="169.4"/>
						<line class="st3" x1="246.9" y1="165.8" x2="246.9" y2="169.9"/>
					</g>
					<g>
						<line class="st2" x1="235.5" y1="172.2" x2="235.5" y2="176.4"/>
						<line class="st3" x1="234.8" y1="172.8" x2="234.8" y2="176.9"/>
					</g>
					<g>
						<line class="st2" x1="269.3" y1="162.9" x2="269.3" y2="167.1"/>
						<line class="st3" x1="268.6" y1="163.5" x2="268.6" y2="167.6"/>
					</g>
					<g>
						<line class="st2" x1="279.7" y1="157.3" x2="279.7" y2="161.4"/>
						<line class="st3" x1="279" y1="157.8" x2="279" y2="161.9"/>
					</g>
					<g>
						<line class="st2" x1="258.7" y1="168.8" x2="258.7" y2="172.9"/>
						<line class="st3" x1="258" y1="169.3" x2="258" y2="173.4"/>
					</g>
					<g>
						<line class="st2" x1="247.6" y1="175.2" x2="247.6" y2="179.4"/>
						<line class="st3" x1="246.9" y1="175.8" x2="246.9" y2="179.9"/>
					</g>
					<g>
						<line class="st2" x1="235.5" y1="182.2" x2="235.5" y2="186.4"/>
						<line class="st3" x1="234.8" y1="182.8" x2="234.8" y2="186.9"/>
					</g>
					<g>
						<line class="st2" x1="269.3" y1="172.9" x2="269.3" y2="177.1"/>
						<line class="st3" x1="268.6" y1="173.5" x2="268.6" y2="177.6"/>
					</g>
					<g>
						<line class="st2" x1="279.7" y1="167.3" x2="279.7" y2="171.4"/>
						<line class="st3" x1="279" y1="167.8" x2="279" y2="171.9"/>
					</g>
					<g>
						<line class="st2" x1="258.7" y1="178.8" x2="258.7" y2="182.9"/>
						<line class="st3" x1="258" y1="179.3" x2="258" y2="183.4"/>
					</g>
					<g>
						<line class="st2" x1="247.6" y1="185.2" x2="247.6" y2="189.4"/>
						<line class="st3" x1="246.9" y1="185.8" x2="246.9" y2="189.9"/>
					</g>
					<g>
						<line class="st2" x1="235.5" y1="192.2" x2="235.5" y2="196.4"/>
						<line class="st3" x1="234.8" y1="192.8" x2="234.8" y2="196.9"/>
					</g>
					<g>
						<line class="st2" x1="269.3" y1="182.9" x2="269.3" y2="187.1"/>
						<line class="st3" x1="268.6" y1="183.5" x2="268.6" y2="187.6"/>
					</g>
					<g>
						<line class="st2" x1="279.7" y1="177.3" x2="279.7" y2="181.4"/>
						<line class="st3" x1="279" y1="177.8" x2="279" y2="181.9"/>
					</g>
					<g>
						<line class="st2" x1="258.7" y1="188.8" x2="258.7" y2="192.9"/>
						<line class="st3" x1="258" y1="189.3" x2="258" y2="193.4"/>
					</g>
					<g>
						<line class="st2" x1="247.6" y1="195.2" x2="247.6" y2="199.4"/>
						<line class="st3" x1="246.9" y1="195.8" x2="246.9" y2="199.9"/>
					</g>
					<g>
						<line class="st2" x1="235.5" y1="202.2" x2="235.5" y2="206.4"/>
						<line class="st3" x1="234.8" y1="202.8" x2="234.8" y2="206.9"/>
					</g>
					<g>
						<line class="st2" x1="264.3" y1="120.8" x2="264.3" y2="125"/>
						<line class="st3" x1="263.6" y1="121.4" x2="263.6" y2="125.5"/>
					</g>
					<g>
						<line class="st2" x1="252.9" y1="127.3" x2="253" y2="131.5"/>
						<line class="st3" x1="252.2" y1="127.8" x2="252.3" y2="132"/>
					</g>
					<g>
						<line class="st2" x1="253.9" y1="116.6" x2="253.9" y2="120.8"/>
						<line class="st3" x1="253.2" y1="117.2" x2="253.2" y2="121.3"/>
					</g>
					<g>
						<line class="st2" x1="276.3" y1="114" x2="276.3" y2="118.2"/>
						<line class="st3" x1="275.6" y1="114.5" x2="275.6" y2="118.7"/>
					</g>
					<g>
						<line class="st2" x1="264.3" y1="130.8" x2="264.3" y2="135"/>
						<line class="st3" x1="263.6" y1="131.4" x2="263.6" y2="135.5"/>
					</g>
					<g>
						<line class="st2" x1="252.9" y1="137.3" x2="253" y2="141.5"/>
						<line class="st3" x1="252.2" y1="137.8" x2="252.3" y2="142"/>
					</g>
					<g>
						<line class="st2" x1="276.3" y1="124" x2="276.3" y2="128.2"/>
						<line class="st3" x1="275.6" y1="124.5" x2="275.6" y2="128.7"/>
					</g>
					<g>
						<line class="st2" x1="264.3" y1="140.8" x2="264.3" y2="145"/>
						<line class="st3" x1="263.6" y1="141.4" x2="263.6" y2="145.5"/>
					</g>
					<g>
						<line class="st2" x1="252.9" y1="147.3" x2="253" y2="151.5"/>
						<line class="st3" x1="252.2" y1="147.8" x2="252.3" y2="152"/>
					</g>
					<g>
						<line class="st2" x1="241.4" y1="154" x2="241.5" y2="158.2"/>
						<line class="st3" x1="240.7" y1="154.5" x2="240.8" y2="158.7"/>
					</g>
					<g>
						<line class="st2" x1="241.4" y1="143.9" x2="241.5" y2="148"/>
						<line class="st3" x1="240.7" y1="144.4" x2="240.8" y2="148.5"/>
					</g>
					<g>
						<line class="st2" x1="276.3" y1="134" x2="276.3" y2="138.2"/>
						<line class="st3" x1="275.6" y1="134.5" x2="275.6" y2="138.7"/>
					</g>
					<g>
						<line class="st2" x1="264.3" y1="150.8" x2="264.3" y2="155"/>
						<line class="st3" x1="263.6" y1="151.4" x2="263.6" y2="155.5"/>
					</g>
					<g>
						<line class="st2" x1="252.9" y1="157.3" x2="253" y2="161.5"/>
						<line class="st3" x1="252.2" y1="157.8" x2="252.3" y2="162"/>
					</g>
					<g>
						<line class="st2" x1="241.4" y1="164" x2="241.5" y2="168.2"/>
						<line class="st3" x1="240.7" y1="164.5" x2="240.8" y2="168.7"/>
					</g>
					<g>
						<line class="st2" x1="230" y1="170.4" x2="230" y2="174.6"/>
						<line class="st3" x1="229.3" y1="171" x2="229.3" y2="175.1"/>
					</g>
					<g>
						<line class="st2" x1="276.3" y1="144" x2="276.3" y2="148.2"/>
						<line class="st3" x1="275.6" y1="144.5" x2="275.6" y2="148.7"/>
					</g>
					<g>
						<line class="st2" x1="264.3" y1="160.8" x2="264.3" y2="165"/>
						<line class="st3" x1="263.6" y1="161.4" x2="263.6" y2="165.5"/>
					</g>
					<g>
						<line class="st2" x1="252.9" y1="167.3" x2="253" y2="171.5"/>
						<line class="st3" x1="252.2" y1="167.8" x2="252.3" y2="172"/>
					</g>
					<g>
						<line class="st2" x1="241.4" y1="174" x2="241.5" y2="178.2"/>
						<line class="st3" x1="240.7" y1="174.5" x2="240.8" y2="178.7"/>
					</g>
					<g>
						<line class="st2" x1="230" y1="180.4" x2="230" y2="184.6"/>
						<line class="st3" x1="229.3" y1="181" x2="229.3" y2="185.1"/>
					</g>
					<g>
						<line class="st2" x1="276.3" y1="154" x2="276.3" y2="158.2"/>
						<line class="st3" x1="275.6" y1="154.5" x2="275.6" y2="158.7"/>
					</g>
					<g>
						<line class="st2" x1="264.3" y1="170.8" x2="264.3" y2="175"/>
						<line class="st3" x1="263.6" y1="171.4" x2="263.6" y2="175.5"/>
					</g>
					<g>
						<line class="st2" x1="252.9" y1="177.3" x2="253" y2="181.5"/>
						<line class="st3" x1="252.2" y1="177.8" x2="252.3" y2="182"/>
					</g>
					<g>
						<line class="st2" x1="241.4" y1="184" x2="241.5" y2="188.2"/>
						<line class="st3" x1="240.7" y1="184.5" x2="240.8" y2="188.7"/>
					</g>
					<g>
						<line class="st2" x1="230" y1="190.4" x2="230" y2="194.6"/>
						<line class="st3" x1="229.3" y1="191" x2="229.3" y2="195.1"/>
					</g>
					<g>
						<line class="st2" x1="276.3" y1="164" x2="276.3" y2="168.2"/>
						<line class="st3" x1="275.6" y1="164.5" x2="275.6" y2="168.7"/>
					</g>
					<g>
						<line class="st2" x1="264.3" y1="180.8" x2="264.3" y2="185"/>
						<line class="st3" x1="263.6" y1="181.4" x2="263.6" y2="185.5"/>
					</g>
					<g>
						<line class="st2" x1="252.9" y1="187.3" x2="253" y2="191.5"/>
						<line class="st3" x1="252.2" y1="187.8" x2="252.3" y2="192"/>
					</g>
					<g>
						<line class="st2" x1="241.4" y1="194" x2="241.5" y2="198.2"/>
						<line class="st3" x1="240.7" y1="194.5" x2="240.8" y2="198.7"/>
					</g>
					<g>
						<line class="st2" x1="230" y1="200.4" x2="230" y2="204.6"/>
						<line class="st3" x1="229.3" y1="201" x2="229.3" y2="205.1"/>
					</g>
					<g>
						<line class="st2" x1="276.3" y1="174" x2="276.3" y2="178.2"/>
						<line class="st3" x1="275.6" y1="174.5" x2="275.6" y2="178.7"/>
					</g>
					<g>
						<line class="st2" x1="274.9" y1="105.7" x2="274.9" y2="108.9"/>
						<line class="st3" x1="274.2" y1="105.2" x2="274.2" y2="109.4"/>
					</g>
				</g>
				<g class="st7">
					<defs>
						<polygon id="XMLID_28_" points="218.4,216 267.3,187.8 278,181.6 278,113 248.2,89.2 218.4,147.4 						"/>
					</defs>
					<clipPath id="XMLID_31_">
						<use xlink:href="#XMLID_28_"  style="overflow:visible;"/>
					</clipPath>
					<g class="st8">
						<line class="st2" x1="279.5" y1="172.5" x2="216" y2="208.8"/>
						<line class="st3" x1="279.5" y1="171.9" x2="216" y2="208.2"/>
					</g>
					<g class="st8">
						<line class="st2" x1="279.5" y1="167.5" x2="216" y2="203.8"/>
						<line class="st3" x1="279.5" y1="166.9" x2="216" y2="203.2"/>
					</g>
					<g class="st8">
						<line class="st2" x1="279.5" y1="157.5" x2="216" y2="193.8"/>
						<line class="st3" x1="279.5" y1="156.9" x2="216" y2="193.2"/>
					</g>
					<g class="st8">
						<line class="st2" x1="279.5" y1="147.5" x2="216" y2="183.8"/>
						<line class="st3" x1="279.5" y1="146.9" x2="216" y2="183.2"/>
					</g>
					<g class="st8">
						<line class="st2" x1="279.5" y1="162.5" x2="216" y2="198.8"/>
						<line class="st3" x1="279.5" y1="161.9" x2="216" y2="198.2"/>
					</g>
					<g class="st8">
						<line class="st2" x1="279.5" y1="152.5" x2="216" y2="188.8"/>
						<line class="st3" x1="279.5" y1="151.9" x2="216" y2="188.2"/>
					</g>
					<g class="st8">
						<line class="st2" x1="279.5" y1="142.5" x2="216" y2="178.8"/>
						<line class="st3" x1="279.5" y1="141.9" x2="216" y2="178.2"/>
					</g>
					<g class="st8">
						<line class="st2" x1="279.5" y1="137.5" x2="216" y2="173.8"/>
						<line class="st3" x1="279.5" y1="136.9" x2="216" y2="173.2"/>
					</g>
					<g class="st8">
						<line class="st2" x1="279.5" y1="132.5" x2="216" y2="168.8"/>
						<line class="st3" x1="279.5" y1="131.9" x2="216" y2="168.2"/>
					</g>
					<g class="st8">
						<line class="st2" x1="279.5" y1="122.5" x2="216" y2="158.8"/>
						<line class="st3" x1="279.5" y1="121.9" x2="216" y2="158.2"/>
					</g>
					<g class="st8">
						<line class="st2" x1="279.5" y1="112.5" x2="216" y2="148.8"/>
						<line class="st3" x1="279.5" y1="111.9" x2="216" y2="148.2"/>
					</g>
					<g class="st8">
						<line class="st2" x1="279.5" y1="127.5" x2="216" y2="163.8"/>
						<line class="st3" x1="279.5" y1="126.9" x2="216" y2="163.2"/>
					</g>
					<g class="st8">
						<line class="st2" x1="279.5" y1="117.5" x2="216" y2="153.8"/>
						<line class="st3" x1="279.5" y1="116.9" x2="216" y2="153.2"/>
					</g>
					<g class="st8">
						<line class="st2" x1="279.5" y1="107.5" x2="216" y2="143.8"/>
						<line class="st3" x1="279.5" y1="106.9" x2="216" y2="143.2"/>
					</g>
					<g class="st8">
						<line class="st2" x1="279.5" y1="102.5" x2="216" y2="138.8"/>
						<line class="st3" x1="279.5" y1="101.9" x2="216" y2="138.2"/>
					</g>
					<g class="st8">
						<line class="st2" x1="279.5" y1="97.5" x2="216" y2="133.8"/>
						<line class="st3" x1="279.5" y1="96.9" x2="216" y2="133.2"/>
					</g>
					<g class="st8">
						<line class="st2" x1="279.5" y1="87.5" x2="216" y2="123.8"/>
						<line class="st3" x1="279.5" y1="86.9" x2="216" y2="123.2"/>
					</g>
					<g class="st8">
						<line class="st2" x1="279.5" y1="92.5" x2="216" y2="128.8"/>
						<line class="st3" x1="279.5" y1="91.9" x2="216" y2="128.2"/>
					</g>
				</g>
			</g>
			<polygon id="XMLID_136_" class="st9" points="271.1,171.8 233.5,193.5 233.5,197.3 271.1,175.6 			"/>
			<g id="XMLID_126_">
				<polygon id="XMLID_135_" class="st10" points="257.9,140.2 246,147 246,173.2 257.9,166.3 				"/>
				<polygon id="XMLID_134_" class="st11" points="256.8,142 256.8,165.7 247.1,171.3 247.1,147.6 				"/>
				<polygon id="XMLID_133_" class="st12" points="257.3,141.7 256.8,142 256.8,165.7 257.3,166 				"/>
				<polygon id="XMLID_132_" class="st13" points="256.8,165.7 257.3,166 247.1,171.9 247.1,171.3 				"/>
				<polygon id="XMLID_131_" class="st10" points="251.9,144.9 252.6,144.5 252.6,168.7 251.9,169.1 				"/>
				<polygon id="XMLID_130_" class="st12" points="251.9,144.9 251.4,145.2 251.4,168.8 251.9,169.1 				"/>
				<polygon id="XMLID_129_" class="st10" points="257.3,154.2 257.3,153.6 247.1,159.5 247.1,160.2 				"/>
				<polygon id="XMLID_128_" class="st13" points="256.8,153.3 257.3,153.6 252.6,156.3 252.6,155.7 				"/>
				<polygon id="XMLID_127_" class="st13" points="251.4,156.4 251.9,156.7 247.1,159.5 247.1,158.9 				"/>
			</g>
			<polygon id="XMLID_125_" class="st1" points="271.1,174.2 271.1,105.5 339.4,146.2 339.4,215 			"/>
			<g>
				<defs>
					<polygon id="XMLID_30_" points="271.1,174.2 271.1,105.5 339.4,146.2 339.4,215 					"/>
				</defs>
				<clipPath id="XMLID_32_">
					<use xlink:href="#XMLID_30_"  style="overflow:visible;"/>
				</clipPath>
				<g class="st14">
					<g>
						<line class="st2" x1="271" y1="177.2" x2="334.5" y2="213.5"/>
						<line class="st3" x1="271" y1="176.6" x2="334.5" y2="212.9"/>
					</g>
					<g>
						<line class="st2" x1="271" y1="172.2" x2="334.5" y2="208.5"/>
						<line class="st3" x1="271" y1="171.6" x2="334.5" y2="207.9"/>
					</g>
					<g>
						<line class="st2" x1="271" y1="162.2" x2="334.5" y2="198.5"/>
						<line class="st3" x1="271" y1="161.6" x2="334.5" y2="197.9"/>
					</g>
					<g>
						<line class="st2" x1="271" y1="152.2" x2="334.5" y2="188.5"/>
						<line class="st3" x1="271" y1="151.6" x2="334.5" y2="187.9"/>
					</g>
					<g>
						<line class="st2" x1="271" y1="142.2" x2="334.5" y2="178.5"/>
						<line class="st3" x1="271" y1="141.6" x2="334.5" y2="177.9"/>
					</g>
					<g>
						<line class="st2" x1="271" y1="132.2" x2="334.5" y2="168.5"/>
						<line class="st3" x1="271" y1="131.6" x2="334.5" y2="167.9"/>
					</g>
					<g>
						<line class="st2" x1="271" y1="167.2" x2="334.5" y2="203.5"/>
						<line class="st3" x1="271" y1="166.6" x2="334.5" y2="202.9"/>
					</g>
					<g>
						<line class="st2" x1="271" y1="157.2" x2="334.5" y2="193.5"/>
						<line class="st3" x1="271" y1="156.6" x2="334.5" y2="192.9"/>
					</g>
					<g>
						<line class="st2" x1="271" y1="147.2" x2="334.5" y2="183.5"/>
						<line class="st3" x1="271" y1="146.6" x2="334.5" y2="182.9"/>
					</g>
					<g>
						<line class="st2" x1="271" y1="137.2" x2="334.5" y2="173.5"/>
						<line class="st3" x1="271" y1="136.6" x2="334.5" y2="172.9"/>
					</g>
					<g>
						<line class="st2" x1="271" y1="127.2" x2="334.5" y2="163.5"/>
						<line class="st3" x1="271" y1="126.6" x2="334.5" y2="162.9"/>
					</g>
					<g>
						<line class="st2" x1="271" y1="122.2" x2="334.5" y2="158.5"/>
						<line class="st3" x1="271" y1="121.6" x2="334.5" y2="157.9"/>
					</g>
					<g>
						<line class="st2" x1="271" y1="112.2" x2="334.5" y2="148.5"/>
						<line class="st3" x1="271" y1="111.6" x2="334.5" y2="147.9"/>
					</g>
					<g>
						<line class="st2" x1="271" y1="102.2" x2="334.5" y2="138.5"/>
						<line class="st3" x1="271" y1="101.6" x2="334.5" y2="137.9"/>
					</g>
					<g>
						<line class="st2" x1="271" y1="92.2" x2="334.5" y2="128.5"/>
						<line class="st3" x1="271" y1="91.6" x2="334.5" y2="127.9"/>
					</g>
					<g>
						<line class="st2" x1="271" y1="82.2" x2="334.5" y2="118.5"/>
						<line class="st3" x1="271" y1="81.6" x2="334.5" y2="117.9"/>
					</g>
					<g>
						<line class="st2" x1="271" y1="117.2" x2="334.5" y2="153.5"/>
						<line class="st3" x1="271" y1="116.6" x2="334.5" y2="152.9"/>
					</g>
					<g>
						<line class="st2" x1="271" y1="107.2" x2="334.5" y2="143.5"/>
						<line class="st3" x1="271" y1="106.6" x2="334.5" y2="142.9"/>
					</g>
					<g>
						<line class="st2" x1="271" y1="97.2" x2="334.5" y2="133.5"/>
						<line class="st3" x1="271" y1="96.6" x2="334.5" y2="132.9"/>
					</g>
					<g>
						<line class="st2" x1="271" y1="87.2" x2="334.5" y2="123.5"/>
						<line class="st3" x1="271" y1="86.6" x2="334.5" y2="122.9"/>
					</g>
				</g>
				<g class="st14">
					<line class="st2" x1="274.3" y1="169.4" x2="274.3" y2="173.6"/>
					<line class="st3" x1="275" y1="170" x2="275" y2="174.1"/>
				</g>
				<g class="st14">
					<line class="st2" x1="284.4" y1="175.2" x2="284.3" y2="179.4"/>
					<line class="st3" x1="285.1" y1="175.7" x2="285" y2="179.9"/>
				</g>
				<g class="st14">
					<line class="st2" x1="279.4" y1="166.9" x2="279.3" y2="171.1"/>
					<line class="st3" x1="280.1" y1="167.5" x2="280" y2="171.6"/>
				</g>
				<g class="st14">
					<line class="st2" x1="279.4" y1="156.9" x2="279.3" y2="161.1"/>
					<line class="st3" x1="280.1" y1="157.5" x2="280" y2="161.6"/>
				</g>
				<g class="st14">
					<line class="st2" x1="279.4" y1="146.9" x2="279.3" y2="151.1"/>
					<line class="st3" x1="280.1" y1="147.5" x2="280" y2="151.6"/>
				</g>
				<g class="st14">
					<line class="st2" x1="279.4" y1="136.9" x2="279.3" y2="141.1"/>
					<line class="st3" x1="280.1" y1="137.5" x2="280" y2="141.6"/>
				</g>
				<g class="st14">
					<line class="st2" x1="274.3" y1="159.4" x2="274.3" y2="163.6"/>
					<line class="st3" x1="275" y1="160" x2="275" y2="164.1"/>
				</g>
				<g class="st14">
					<line class="st2" x1="284.4" y1="165.2" x2="284.3" y2="169.4"/>
					<line class="st3" x1="285.1" y1="165.7" x2="285" y2="169.9"/>
				</g>
				<g class="st14">
					<line class="st2" x1="274.3" y1="149.4" x2="274.3" y2="153.6"/>
					<line class="st3" x1="275" y1="150" x2="275" y2="154.1"/>
				</g>
				<g class="st14">
					<line class="st2" x1="284.4" y1="155.2" x2="284.3" y2="159.4"/>
					<line class="st3" x1="285.1" y1="155.7" x2="285" y2="159.9"/>
				</g>
				<g class="st14">
					<line class="st2" x1="274.3" y1="139.4" x2="274.3" y2="143.6"/>
					<line class="st3" x1="275" y1="140" x2="275" y2="144.1"/>
				</g>
				<g class="st14">
					<line class="st2" x1="284.4" y1="145.2" x2="284.3" y2="149.4"/>
					<line class="st3" x1="285.1" y1="145.7" x2="285" y2="149.9"/>
				</g>
				<g class="st14">
					<line class="st2" x1="274.3" y1="129.4" x2="274.3" y2="133.6"/>
					<line class="st3" x1="275" y1="130" x2="275" y2="134.1"/>
				</g>
				<g class="st14">
					<line class="st2" x1="284.4" y1="135.2" x2="284.3" y2="139.4"/>
					<line class="st3" x1="285.1" y1="135.7" x2="285" y2="139.9"/>
				</g>
			</g>
			<polygon id="XMLID_124_" class="st5" points="271.1,171.8 339.4,211.2 339.4,215 271.1,175.6 			"/>
			<polygon id="XMLID_123_" class="st15" points="396,114.4 398.2,111.3 410.6,122.8 			"/>
			<polygon id="XMLID_122_" class="st6" points="339.4,215 388.3,186.8 399,180.6 399,112 369.2,88.2 339.4,146.4 			"/>
			<polygon id="XMLID_114_" class="st4" points="399,113.4 373.9,93.5 372.1,97.4 399,118.6 			"/>
			<g>
				<defs>
					<polygon id="XMLID_27_" points="339.4,215 388.3,186.8 399,180.6 399,112 369.2,88.2 339.4,146.4 					"/>
				</defs>
				<clipPath id="XMLID_33_">
					<use xlink:href="#XMLID_27_"  style="overflow:visible;"/>
				</clipPath>
				<g class="st16">
					<line class="st2" x1="400.5" y1="171.5" x2="337" y2="207.8"/>
					<line class="st3" x1="400.5" y1="170.9" x2="337" y2="207.2"/>
				</g>
				<g class="st16">
					<line class="st2" x1="400.5" y1="166.5" x2="337" y2="202.8"/>
					<line class="st3" x1="400.5" y1="165.9" x2="337" y2="202.2"/>
				</g>
				<g class="st16">
					<line class="st2" x1="400.5" y1="156.5" x2="337" y2="192.8"/>
					<line class="st3" x1="400.5" y1="155.9" x2="337" y2="192.2"/>
				</g>
				<g class="st16">
					<line class="st2" x1="400.5" y1="146.5" x2="337" y2="182.8"/>
					<line class="st3" x1="400.5" y1="145.9" x2="337" y2="182.2"/>
				</g>
				<g class="st16">
					<line class="st2" x1="400.5" y1="161.5" x2="337" y2="197.8"/>
					<line class="st3" x1="400.5" y1="160.9" x2="337" y2="197.2"/>
				</g>
				<g class="st16">
					<line class="st2" x1="400.5" y1="151.5" x2="337" y2="187.8"/>
					<line class="st3" x1="400.5" y1="150.9" x2="337" y2="187.2"/>
				</g>
				<g class="st16">
					<line class="st2" x1="400.5" y1="141.5" x2="337" y2="177.8"/>
					<line class="st3" x1="400.5" y1="140.9" x2="337" y2="177.2"/>
				</g>
				<g class="st16">
					<line class="st2" x1="400.5" y1="136.5" x2="337" y2="172.8"/>
					<line class="st3" x1="400.5" y1="135.9" x2="337" y2="172.2"/>
				</g>
				<g class="st16">
					<line class="st2" x1="400.5" y1="131.5" x2="337" y2="167.8"/>
					<line class="st3" x1="400.5" y1="130.9" x2="337" y2="167.2"/>
				</g>
				<g class="st16">
					<line class="st2" x1="400.5" y1="121.5" x2="337" y2="157.8"/>
					<line class="st3" x1="400.5" y1="120.9" x2="337" y2="157.2"/>
				</g>
				<g class="st16">
					<line class="st2" x1="400.5" y1="111.5" x2="337" y2="147.8"/>
					<line class="st3" x1="400.5" y1="110.9" x2="337" y2="147.2"/>
				</g>
				<g class="st16">
					<line class="st2" x1="400.5" y1="126.5" x2="337" y2="162.8"/>
					<line class="st3" x1="400.5" y1="125.9" x2="337" y2="162.2"/>
				</g>
				<g class="st16">
					<line class="st2" x1="400.5" y1="116.5" x2="337" y2="152.8"/>
					<line class="st3" x1="400.5" y1="115.9" x2="337" y2="152.2"/>
				</g>
				<g class="st16">
					<line class="st2" x1="400.5" y1="106.5" x2="337" y2="142.8"/>
					<line class="st3" x1="400.5" y1="105.9" x2="337" y2="142.2"/>
				</g>
				<g class="st16">
					<line class="st2" x1="400.5" y1="101.5" x2="337" y2="137.8"/>
					<line class="st3" x1="400.5" y1="100.9" x2="337" y2="137.2"/>
				</g>
				<g class="st16">
					<line class="st2" x1="400.5" y1="96.5" x2="337" y2="132.8"/>
					<line class="st3" x1="400.5" y1="95.9" x2="337" y2="132.2"/>
				</g>
				<g class="st16">
					<line class="st2" x1="400.5" y1="86.5" x2="337" y2="122.8"/>
					<line class="st3" x1="400.5" y1="85.9" x2="337" y2="122.2"/>
				</g>
				<g class="st16">
					<line class="st2" x1="400.5" y1="91.5" x2="337" y2="127.8"/>
					<line class="st3" x1="400.5" y1="90.9" x2="337" y2="127.2"/>
				</g>
			</g>
			<polygon id="XMLID_113_" class="st17" points="335.3,166.3 373.8,91 375.1,88.5 377.3,90.3 415,120.3 410.6,122.8 376.7,95.7 
				342.7,162 335.3,166.3 			"/>
			<polygon id="XMLID_112_" class="st17" points="155.8,109.4 190.7,89.3 198.1,85.1 200.1,83.9 201.3,85.9 244.4,160.5 
				236.2,155.9 198.4,90.3 160.5,112.1 			"/>
			<polygon id="XMLID_108_" class="st18" points="375,88.4 306.6,49.2 295,29.1 199.1,84.5 244.4,160.5 285.1,137 335.3,166.3 			
				"/>
			<polygon id="XMLID_95_" class="st19" points="285.1,36.7 285.1,137 335.3,166.3 375.1,88.5 			"/>
			<polygon id="XMLID_94_" class="st20" points="193.1,131 210.3,140.9 210.3,182.6 193.1,172.7 			"/>
			<path id="XMLID_91_" class="st21" d="M194.5,133.3l-0.3,0.1l0.3,18.4l14.4,8.3v-18.6L194.5,133.3L194.5,133.3z M194.5,153.2
				l14.4,8.3l0,18.7l-0.3,0.1l-14.1-8.5L194.5,153.2z"/>
			<ellipse id="XMLID_25_" class="st13" cx="193.8" cy="153" rx="0.4" ry="1.7"/>
			<path id="XMLID_24_" class="st22" d="M193.6,152.5c-0.3,0.1-0.4,0.7,0,0.8v0c0,0,0,0,0.1,0c0,0,0.1,0,0.1,0
				c0.1-0.1,0.1-0.2,0.1-0.4c0-0.2-0.1-0.3-0.1-0.4C193.7,152.5,193.6,152.5,193.6,152.5C193.6,152.5,193.6,152.5,193.6,152.5
				L193.6,152.5z"/>
			<ellipse id="XMLID_23_" class="st23" cx="193.2" cy="152.9" rx="0.4" ry="0.7"/>
			<path id="XMLID_22_" class="st24" d="M193.1,152.2c0.1,0,0.2,0.2,0.2,0.3c0,0.1,0.1,0.3,0.1,0.4c0,0.2,0,0.3-0.1,0.4
				c-0.1,0.1-0.1,0.2-0.2,0.3v0c0,0,0.1,0,0.1,0c0,0,0.1,0,0.1-0.1c0.1-0.1,0.2-0.4,0.2-0.7c0-0.3-0.1-0.6-0.2-0.7
				C193.3,152.2,193.3,152.2,193.1,152.2C193.2,152.2,193.2,152.2,193.1,152.2L193.1,152.2z"/>
			<path id="XMLID_21_" class="st25" d="M193.7,151.3c0.2,0.1,0.4,0.8,0.4,1.6c0,0.9-0.2,1.6-0.4,1.7c0,0,0,0,0.1,0
				c0.2,0,0.4-0.7,0.4-1.7C194.2,152.1,194,151.3,193.7,151.3C193.8,151.3,193.7,151.3,193.7,151.3z"/>
			<path id="XMLID_18_" class="st26" d="M194.2,133.5V152l14.4,8.3v-18.6L194.2,133.5L194.2,133.5z M194.2,153.4l14.4,8.3v18.7
				l-14.4-8.3V153.4z"/>
			<polygon id="XMLID_17_" class="st27" points="288.4,143.9 335.4,171 335.4,212.7 288.4,185.6 			"/>
			<polygon id="XMLID_16_" class="st13" points="290.6,150.7 290.6,186.9 333.1,211.4 333.1,175.3 			"/>
			<polygon id="XMLID_15_" class="st23" points="288.4,149.4 288.4,143.9 335.4,171 335.4,176.6 290.6,150.7 			"/>
			<g id="XMLID_4_">
				<path id="XMLID_14_" class="st28" d="M290.6,150.7c7.1,4.1,14.2,8.2,21.2,12.3c7.1,4.1,14.2,8.2,21.3,12.3c0,0.2,0,0.4,0,0.6
					c-7.1-4.1-14.2-8.2-21.3-12.3c-7.1-4.1-14.2-8.2-21.2-12.3C290.6,151.1,290.6,150.9,290.6,150.7z"/>
				<path id="XMLID_13_" class="st28" d="M290.6,155.2c7.1,4.1,14.2,8.2,21.2,12.3c7.1,4.1,14.2,8.2,21.3,12.3c0,0.2,0,0.4,0,0.6
					c-7.1-4.1-14.2-8.2-21.3-12.3c-7.1-4.1-14.2-8.2-21.2-12.3C290.6,155.6,290.6,155.4,290.6,155.2z"/>
				<path id="XMLID_12_" class="st28" d="M290.6,159.6c7.1,4.1,14.2,8.2,21.2,12.3c7.1,4.1,14.2,8.2,21.3,12.3c0,0.2,0,0.4,0,0.6
					c-7.1-4.1-14.2-8.2-21.3-12.3c-7.1-4.1-14.2-8.2-21.2-12.3C290.6,160,290.6,159.8,290.6,159.6z"/>
				<path id="XMLID_11_" class="st28" d="M290.6,164.1c7.1,4.1,14.2,8.2,21.2,12.3c7.1,4.1,14.2,8.2,21.3,12.3c0,0.2,0,0.4,0,0.6
					c-7.1-4.1-14.2-8.2-21.3-12.3c-7.1-4.1-14.2-8.2-21.2-12.3C290.6,164.5,290.6,164.3,290.6,164.1z"/>
				<path id="XMLID_10_" class="st28" d="M290.6,168.5c7.1,4.1,14.2,8.2,21.2,12.3c7.1,4.1,14.2,8.2,21.3,12.3c0,0.2,0,0.4,0,0.6
					c-7.1-4.1-14.2-8.2-21.3-12.3c-7.1-4.1-14.2-8.2-21.2-12.3C290.6,168.9,290.6,168.7,290.6,168.5z"/>
				<path id="XMLID_8_" class="st28" d="M290.6,173c7.1,4.1,14.2,8.2,21.2,12.3c7.1,4.1,14.2,8.2,21.3,12.3c0,0.2,0,0.4,0,0.6
					c-7.1-4.1-14.2-8.2-21.3-12.3c-7.1-4.1-14.2-8.2-21.2-12.3C290.6,173.4,290.6,173.2,290.6,173z"/>
				<path id="XMLID_7_" class="st28" d="M290.6,177.4c7.1,4.1,14.2,8.2,21.2,12.3c7.1,4.1,14.2,8.2,21.3,12.3c0,0.2,0,0.4,0,0.6
					c-7.1-4.1-14.2-8.2-21.3-12.3c-7.1-4.1-14.2-8.2-21.2-12.3C290.6,177.8,290.6,177.6,290.6,177.4z"/>
				<path id="XMLID_6_" class="st28" d="M290.6,181.9c7.1,4.1,14.2,8.2,21.2,12.3c7.1,4.1,14.2,8.2,21.3,12.3c0,0.2,0,0.4,0,0.6
					c-7.1-4.1-14.2-8.2-21.3-12.3c-7.1-4.1-14.2-8.2-21.2-12.3C290.6,182.3,290.6,182.1,290.6,181.9z"/>
				<path id="XMLID_5_" class="st28" d="M290.6,186.3c7.1,4.1,14.2,8.2,21.2,12.3c7.1,4.1,14.2,8.2,21.3,12.3c0,0.2,0,0.4,0,0.6
					c-7.1-4.1-14.2-8.2-21.3-12.3c-7.1-4.1-14.2-8.2-21.2-12.3C290.6,186.7,290.6,186.5,290.6,186.3z"/>
			</g>
			<polygon id="XMLID_3_" class="st9" points="399,176.8 339.4,211.2 339.4,215 399,180.6 			"/>
			<g>
				<defs>
					<polygon id="SVGID_1_" points="170,106.9 198.4,90.3 223.7,134.1 					"/>
				</defs>
				<clipPath id="SVGID_2_">
					<use xlink:href="#SVGID_1_"  style="overflow:visible;"/>
				</clipPath>
				<g class="st29">
					
						<rect x="201.5" y="79.1" transform="matrix(0.4961 -0.8683 0.8683 0.4961 1.2248 233.424)" class="st30" width="0.5" height="73.2"/>
					
						<rect x="201.5" y="78.5" transform="matrix(0.4961 -0.8683 0.8683 0.4961 1.7226 233.1351)" class="st31" width="0.5" height="73.2"/>
				</g>
				<g class="st29">
					
						<rect x="201.5" y="69.1" transform="matrix(0.4961 -0.8683 0.8683 0.4961 9.9074 228.3851)" class="st30" width="0.5" height="73.2"/>
					
						<rect x="201.5" y="68.5" transform="matrix(0.4961 -0.8683 0.8683 0.4961 10.4052 228.0962)" class="st31" width="0.5" height="73.2"/>
				</g>
				<g class="st29">
					
						<rect x="201.5" y="59.1" transform="matrix(0.4961 -0.8683 0.8683 0.4961 18.59 223.3462)" class="st30" width="0.5" height="73.2"/>
					
						<rect x="201.5" y="58.5" transform="matrix(0.4961 -0.8683 0.8683 0.4961 19.0877 223.0573)" class="st31" width="0.5" height="73.2"/>
				</g>
				<g class="st29">
					
						<rect x="201.5" y="74.1" transform="matrix(0.4961 -0.8683 0.8683 0.4961 5.5661 230.9045)" class="st30" width="0.5" height="73.2"/>
					
						<rect x="201.5" y="73.5" transform="matrix(0.4961 -0.8683 0.8683 0.4961 6.0639 230.6157)" class="st31" width="0.5" height="73.2"/>
				</g>
				<g class="st29">
					
						<rect x="201.5" y="64.1" transform="matrix(0.4961 -0.8683 0.8683 0.4961 14.2487 225.8656)" class="st30" width="0.5" height="73.2"/>
					
						<rect x="201.5" y="63.5" transform="matrix(0.4961 -0.8683 0.8683 0.4961 14.7464 225.5768)" class="st31" width="0.5" height="73.2"/>
				</g>
				<g class="st29">
					
						<rect x="201.5" y="54.1" transform="matrix(0.4961 -0.8683 0.8683 0.4961 22.9313 220.8267)" class="st30" width="0.5" height="73.2"/>
					
						<rect x="201.5" y="53.5" transform="matrix(0.4961 -0.8683 0.8683 0.4961 23.429 220.5379)" class="st31" width="0.5" height="73.2"/>
				</g>
			</g>
		</g>
		<polygon class="st32" points="169.9,106.7 198.4,90.3 210.2,110.8 210,141.1 169.9,117.5 		"/>
		<polygon class="st33" points="198.5,99.7 170,114.7 172.7,119.1 195.1,106.2 200.6,103.3 210.2,116.8 210.2,110.8 198.4,90.3 
			169.9,106.5 169.9,110.5 196.4,96 		"/>
		<polygon class="st34" points="169.9,117.5 210.3,141.4 210.3,139.1 171.7,116.6 		"/>
		<g>
			<line class="st2" x1="214.3" y1="178.2" x2="214.3" y2="182.4"/>
			<line class="st3" x1="215" y1="178.7" x2="215" y2="182.9"/>
		</g>
		<g>
			<line class="st2" x1="224.4" y1="183.9" x2="224.3" y2="188.1"/>
			<line class="st3" x1="225.1" y1="184.5" x2="225" y2="188.6"/>
		</g>
		<g>
			<line class="st2" x1="219.4" y1="175.7" x2="219.3" y2="179.9"/>
			<line class="st3" x1="220.1" y1="176.2" x2="220" y2="180.4"/>
		</g>
		<g>
			<line class="st2" x1="219.4" y1="165.7" x2="219.3" y2="169.9"/>
			<line class="st3" x1="220.1" y1="166.2" x2="220" y2="170.4"/>
		</g>
		<g>
			<line class="st2" x1="219.4" y1="155.7" x2="219.3" y2="159.9"/>
			<line class="st3" x1="220.1" y1="156.2" x2="220" y2="160.4"/>
		</g>
		<g>
			<line class="st2" x1="219.4" y1="145.7" x2="219.3" y2="149.9"/>
			<line class="st3" x1="220.1" y1="146.2" x2="220" y2="150.4"/>
		</g>
		<g>
			<line class="st2" x1="219.4" y1="135.7" x2="219.3" y2="139.9"/>
			<line class="st3" x1="220.1" y1="136.2" x2="220" y2="140.4"/>
		</g>
		<g>
			<line class="st2" x1="214.3" y1="168.2" x2="214.3" y2="172.4"/>
			<line class="st3" x1="215" y1="168.7" x2="215" y2="172.9"/>
		</g>
		<g>
			<line class="st2" x1="224.4" y1="173.9" x2="224.3" y2="178.1"/>
			<line class="st3" x1="225.1" y1="174.5" x2="225" y2="178.6"/>
		</g>
		<g>
			<line class="st2" x1="214.3" y1="158.2" x2="214.3" y2="162.4"/>
			<line class="st3" x1="215" y1="158.7" x2="215" y2="162.9"/>
		</g>
		<g>
			<line class="st2" x1="224.4" y1="163.9" x2="224.3" y2="168.1"/>
			<line class="st3" x1="225.1" y1="164.5" x2="225" y2="168.6"/>
		</g>
		<g>
			<line class="st2" x1="214.3" y1="148.2" x2="214.3" y2="152.4"/>
			<line class="st3" x1="215" y1="148.7" x2="215" y2="152.9"/>
		</g>
		<g>
			<line class="st2" x1="224.4" y1="153.9" x2="224.3" y2="158.1"/>
			<line class="st3" x1="225.1" y1="154.5" x2="225" y2="158.6"/>
		</g>
		<g>
			<g>
				<line class="st2" x1="377.3" y1="99.8" x2="377.3" y2="104"/>
				<line class="st3" x1="376.6" y1="100.4" x2="376.6" y2="104.5"/>
			</g>
			<g>
				<line class="st2" x1="377.3" y1="109.8" x2="377.3" y2="114"/>
				<line class="st3" x1="376.6" y1="110.4" x2="376.6" y2="114.5"/>
			</g>
			<g>
				<line class="st2" x1="382.3" y1="101.9" x2="382.3" y2="106.1"/>
				<line class="st3" x1="381.6" y1="102.5" x2="381.6" y2="106.6"/>
			</g>
			<g>
				<line class="st2" x1="371.7" y1="107.8" x2="371.7" y2="111.9"/>
				<line class="st3" x1="371" y1="108.3" x2="371" y2="112.4"/>
			</g>
			<g>
				<line class="st2" x1="382.3" y1="111.9" x2="382.3" y2="116.1"/>
				<line class="st3" x1="381.6" y1="112.5" x2="381.6" y2="116.6"/>
			</g>
			<g>
				<line class="st2" x1="371.7" y1="117.8" x2="371.7" y2="121.9"/>
				<line class="st3" x1="371" y1="118.3" x2="371" y2="122.4"/>
			</g>
			<g>
				<line class="st2" x1="382.3" y1="121.9" x2="382.3" y2="126.1"/>
				<line class="st3" x1="381.6" y1="122.5" x2="381.6" y2="126.6"/>
			</g>
			<g>
				<line class="st2" x1="392.7" y1="116.3" x2="392.7" y2="120.4"/>
				<line class="st3" x1="392" y1="116.8" x2="392" y2="120.9"/>
			</g>
			<g>
				<line class="st2" x1="371.7" y1="127.8" x2="371.7" y2="131.9"/>
				<line class="st3" x1="371" y1="128.3" x2="371" y2="132.4"/>
			</g>
			<g>
				<line class="st2" x1="360.6" y1="134.2" x2="360.6" y2="138.4"/>
				<line class="st3" x1="359.9" y1="134.8" x2="359.9" y2="138.9"/>
			</g>
			<g>
				<line class="st2" x1="382.3" y1="131.9" x2="382.3" y2="136.1"/>
				<line class="st3" x1="381.6" y1="132.5" x2="381.6" y2="136.6"/>
			</g>
			<g>
				<line class="st2" x1="392.7" y1="126.3" x2="392.7" y2="130.4"/>
				<line class="st3" x1="392" y1="126.8" x2="392" y2="130.9"/>
			</g>
			<g>
				<line class="st2" x1="371.7" y1="137.8" x2="371.7" y2="141.9"/>
				<line class="st3" x1="371" y1="138.3" x2="371" y2="142.4"/>
			</g>
			<g>
				<line class="st2" x1="360.6" y1="144.2" x2="360.6" y2="148.4"/>
				<line class="st3" x1="359.9" y1="144.8" x2="359.9" y2="148.9"/>
			</g>
			<g>
				<line class="st2" x1="382.3" y1="141.9" x2="382.3" y2="146.1"/>
				<line class="st3" x1="381.6" y1="142.5" x2="381.6" y2="146.6"/>
			</g>
			<g>
				<line class="st2" x1="392.7" y1="136.3" x2="392.7" y2="140.4"/>
				<line class="st3" x1="392" y1="136.8" x2="392" y2="140.9"/>
			</g>
			<g>
				<line class="st2" x1="371.7" y1="147.8" x2="371.7" y2="151.9"/>
				<line class="st3" x1="371" y1="148.3" x2="371" y2="152.4"/>
			</g>
			<g>
				<line class="st2" x1="360.6" y1="154.2" x2="360.6" y2="158.4"/>
				<line class="st3" x1="359.9" y1="154.8" x2="359.9" y2="158.9"/>
			</g>
			<g>
				<line class="st2" x1="348.5" y1="161.2" x2="348.5" y2="165.4"/>
				<line class="st3" x1="347.8" y1="161.8" x2="347.8" y2="165.9"/>
			</g>
			<g>
				<line class="st2" x1="382.3" y1="151.9" x2="382.3" y2="156.1"/>
				<line class="st3" x1="381.6" y1="152.5" x2="381.6" y2="156.6"/>
			</g>
			<g>
				<line class="st2" x1="392.7" y1="146.3" x2="392.7" y2="150.4"/>
				<line class="st3" x1="392" y1="146.8" x2="392" y2="150.9"/>
			</g>
			<g>
				<line class="st2" x1="371.7" y1="157.8" x2="371.7" y2="161.9"/>
				<line class="st3" x1="371" y1="158.3" x2="371" y2="162.4"/>
			</g>
			<g>
				<line class="st2" x1="360.6" y1="164.2" x2="360.6" y2="168.4"/>
				<line class="st3" x1="359.9" y1="164.8" x2="359.9" y2="168.9"/>
			</g>
			<g>
				<line class="st2" x1="348.5" y1="171.2" x2="348.5" y2="175.4"/>
				<line class="st3" x1="347.8" y1="171.8" x2="347.8" y2="175.9"/>
			</g>
			<g>
				<line class="st2" x1="382.3" y1="161.9" x2="382.3" y2="166.1"/>
				<line class="st3" x1="381.6" y1="162.5" x2="381.6" y2="166.6"/>
			</g>
			<g>
				<line class="st2" x1="392.7" y1="156.3" x2="392.7" y2="160.4"/>
				<line class="st3" x1="392" y1="156.8" x2="392" y2="160.9"/>
			</g>
			<g>
				<line class="st2" x1="371.7" y1="167.8" x2="371.7" y2="171.9"/>
				<line class="st3" x1="371" y1="168.3" x2="371" y2="172.4"/>
			</g>
			<g>
				<line class="st2" x1="360.6" y1="174.2" x2="360.6" y2="178.4"/>
				<line class="st3" x1="359.9" y1="174.8" x2="359.9" y2="178.9"/>
			</g>
			<g>
				<line class="st2" x1="348.5" y1="181.2" x2="348.5" y2="185.4"/>
				<line class="st3" x1="347.8" y1="181.8" x2="347.8" y2="185.9"/>
			</g>
			<g>
				<line class="st2" x1="382.3" y1="171.9" x2="382.3" y2="176.1"/>
				<line class="st3" x1="381.6" y1="172.5" x2="381.6" y2="176.6"/>
			</g>
			<g>
				<line class="st2" x1="392.7" y1="166.3" x2="392.7" y2="170.4"/>
				<line class="st3" x1="392" y1="166.8" x2="392" y2="170.9"/>
			</g>
			<g>
				<line class="st2" x1="371.7" y1="177.8" x2="371.7" y2="181.9"/>
				<line class="st3" x1="371" y1="178.3" x2="371" y2="182.4"/>
			</g>
			<g>
				<line class="st2" x1="360.6" y1="184.2" x2="360.6" y2="188.4"/>
				<line class="st3" x1="359.9" y1="184.8" x2="359.9" y2="188.9"/>
			</g>
			<g>
				<line class="st2" x1="348.5" y1="191.2" x2="348.5" y2="195.4"/>
				<line class="st3" x1="347.8" y1="191.8" x2="347.8" y2="195.9"/>
			</g>
			<g>
				<line class="st2" x1="382.3" y1="181.9" x2="382.3" y2="186.1"/>
				<line class="st3" x1="381.6" y1="182.5" x2="381.6" y2="186.6"/>
			</g>
			<g>
				<line class="st2" x1="392.7" y1="176.3" x2="392.7" y2="180.4"/>
				<line class="st3" x1="392" y1="176.8" x2="392" y2="180.9"/>
			</g>
			<g>
				<line class="st2" x1="371.7" y1="187.8" x2="371.7" y2="191.9"/>
				<line class="st3" x1="371" y1="188.3" x2="371" y2="192.4"/>
			</g>
			<g>
				<line class="st2" x1="360.6" y1="194.2" x2="360.6" y2="198.4"/>
				<line class="st3" x1="359.9" y1="194.8" x2="359.9" y2="198.9"/>
			</g>
			<g>
				<line class="st2" x1="348.5" y1="201.2" x2="348.5" y2="205.4"/>
				<line class="st3" x1="347.8" y1="201.8" x2="347.8" y2="205.9"/>
			</g>
			<g>
				<line class="st2" x1="377.3" y1="119.8" x2="377.3" y2="124"/>
				<line class="st3" x1="376.6" y1="120.4" x2="376.6" y2="124.5"/>
			</g>
			<g>
				<line class="st2" x1="365.9" y1="126.3" x2="366" y2="130.5"/>
				<line class="st3" x1="365.2" y1="126.8" x2="365.3" y2="131"/>
			</g>
			<g>
				<line class="st2" x1="366.9" y1="115.6" x2="366.9" y2="119.8"/>
				<line class="st3" x1="366.2" y1="116.2" x2="366.2" y2="120.3"/>
			</g>
			<g>
				<line class="st2" x1="389.3" y1="113" x2="389.3" y2="117.2"/>
				<line class="st3" x1="388.6" y1="113.5" x2="388.6" y2="117.7"/>
			</g>
			<g>
				<line class="st2" x1="377.3" y1="129.8" x2="377.3" y2="134"/>
				<line class="st3" x1="376.6" y1="130.4" x2="376.6" y2="134.5"/>
			</g>
			<g>
				<line class="st2" x1="365.9" y1="136.3" x2="366" y2="140.5"/>
				<line class="st3" x1="365.2" y1="136.8" x2="365.3" y2="141"/>
			</g>
			<g>
				<line class="st2" x1="389.3" y1="123" x2="389.3" y2="127.2"/>
				<line class="st3" x1="388.6" y1="123.5" x2="388.6" y2="127.7"/>
			</g>
			<g>
				<line class="st2" x1="377.3" y1="139.8" x2="377.3" y2="144"/>
				<line class="st3" x1="376.6" y1="140.4" x2="376.6" y2="144.5"/>
			</g>
			<g>
				<line class="st2" x1="365.9" y1="146.3" x2="366" y2="150.5"/>
				<line class="st3" x1="365.2" y1="146.8" x2="365.3" y2="151"/>
			</g>
			<g>
				<line class="st2" x1="354.4" y1="153" x2="354.5" y2="157.2"/>
				<line class="st3" x1="353.7" y1="153.5" x2="353.8" y2="157.7"/>
			</g>
			<g>
				<line class="st2" x1="354.4" y1="142.9" x2="354.5" y2="147"/>
				<line class="st3" x1="353.7" y1="143.4" x2="353.8" y2="147.5"/>
			</g>
			<g>
				<line class="st2" x1="389.3" y1="133" x2="389.3" y2="137.2"/>
				<line class="st3" x1="388.6" y1="133.5" x2="388.6" y2="137.7"/>
			</g>
			<g>
				<line class="st2" x1="377.3" y1="149.8" x2="377.3" y2="154"/>
				<line class="st3" x1="376.6" y1="150.4" x2="376.6" y2="154.5"/>
			</g>
			<g>
				<line class="st2" x1="365.9" y1="156.3" x2="366" y2="160.5"/>
				<line class="st3" x1="365.2" y1="156.8" x2="365.3" y2="161"/>
			</g>
			<g>
				<line class="st2" x1="354.4" y1="163" x2="354.5" y2="167.2"/>
				<line class="st3" x1="353.7" y1="163.5" x2="353.8" y2="167.7"/>
			</g>
			<g>
				<line class="st2" x1="343" y1="169.4" x2="343" y2="173.6"/>
				<line class="st3" x1="342.3" y1="170" x2="342.3" y2="174.1"/>
			</g>
			<g>
				<line class="st2" x1="389.3" y1="143" x2="389.3" y2="147.2"/>
				<line class="st3" x1="388.6" y1="143.5" x2="388.6" y2="147.7"/>
			</g>
			<g>
				<line class="st2" x1="377.3" y1="159.8" x2="377.3" y2="164"/>
				<line class="st3" x1="376.6" y1="160.4" x2="376.6" y2="164.5"/>
			</g>
			<g>
				<line class="st2" x1="365.9" y1="166.3" x2="366" y2="170.5"/>
				<line class="st3" x1="365.2" y1="166.8" x2="365.3" y2="171"/>
			</g>
			<g>
				<line class="st2" x1="354.4" y1="173" x2="354.5" y2="177.2"/>
				<line class="st3" x1="353.7" y1="173.5" x2="353.8" y2="177.7"/>
			</g>
			<g>
				<line class="st2" x1="343" y1="179.4" x2="343" y2="183.6"/>
				<line class="st3" x1="342.3" y1="180" x2="342.3" y2="184.1"/>
			</g>
			<g>
				<line class="st2" x1="389.3" y1="153" x2="389.3" y2="157.2"/>
				<line class="st3" x1="388.6" y1="153.5" x2="388.6" y2="157.7"/>
			</g>
			<g>
				<line class="st2" x1="377.3" y1="169.8" x2="377.3" y2="174"/>
				<line class="st3" x1="376.6" y1="170.4" x2="376.6" y2="174.5"/>
			</g>
			<g>
				<line class="st2" x1="365.9" y1="176.3" x2="366" y2="180.5"/>
				<line class="st3" x1="365.2" y1="176.8" x2="365.3" y2="181"/>
			</g>
			<g>
				<line class="st2" x1="354.4" y1="183" x2="354.5" y2="187.2"/>
				<line class="st3" x1="353.7" y1="183.5" x2="353.8" y2="187.7"/>
			</g>
			<g>
				<line class="st2" x1="343" y1="189.4" x2="343" y2="193.6"/>
				<line class="st3" x1="342.3" y1="190" x2="342.3" y2="194.1"/>
			</g>
			<g>
				<line class="st2" x1="389.3" y1="163" x2="389.3" y2="167.2"/>
				<line class="st3" x1="388.6" y1="163.5" x2="388.6" y2="167.7"/>
			</g>
			<g>
				<line class="st2" x1="377.3" y1="179.8" x2="377.3" y2="184"/>
				<line class="st3" x1="376.6" y1="180.4" x2="376.6" y2="184.5"/>
			</g>
			<g>
				<line class="st2" x1="365.9" y1="186.3" x2="366" y2="190.5"/>
				<line class="st3" x1="365.2" y1="186.8" x2="365.3" y2="191"/>
			</g>
			<g>
				<line class="st2" x1="354.4" y1="193" x2="354.5" y2="197.2"/>
				<line class="st3" x1="353.7" y1="193.5" x2="353.8" y2="197.7"/>
			</g>
			<g>
				<line class="st2" x1="343" y1="199.4" x2="343" y2="203.6"/>
				<line class="st3" x1="342.3" y1="200" x2="342.3" y2="204.1"/>
			</g>
			<g>
				<line class="st2" x1="389.3" y1="173" x2="389.3" y2="177.2"/>
				<line class="st3" x1="388.6" y1="173.5" x2="388.6" y2="177.7"/>
			</g>
			<g>
				<line class="st2" x1="387.9" y1="104.7" x2="387.9" y2="107.9"/>
				<line class="st3" x1="387.2" y1="104.2" x2="387.2" y2="108.4"/>
			</g>
		</g>
		<g>
			<line class="st2" x1="214.3" y1="138.2" x2="214.3" y2="142.4"/>
			<line class="st3" x1="215" y1="138.7" x2="215" y2="142.9"/>
		</g>
		<g>
			<line class="st2" x1="224.4" y1="143.9" x2="224.3" y2="148.1"/>
			<line class="st3" x1="225.1" y1="144.5" x2="225" y2="148.6"/>
		</g>
		<g>
			<line class="st2" x1="214.3" y1="128.2" x2="214.3" y2="132.4"/>
			<line class="st3" x1="215" y1="128.7" x2="215" y2="132.9"/>
		</g>
		<g>
			<line class="st2" x1="175.1" y1="140.7" x2="175.1" y2="144.9"/>
			<line class="st3" x1="175.8" y1="141.3" x2="175.8" y2="145.4"/>
		</g>
		<g>
			<line class="st2" x1="184.5" y1="146" x2="184.5" y2="150.2"/>
			<line class="st3" x1="185.2" y1="146.5" x2="185.2" y2="150.7"/>
		</g>
		<g>
			<line class="st2" x1="175.1" y1="150.7" x2="175.1" y2="154.9"/>
			<line class="st3" x1="175.8" y1="151.3" x2="175.8" y2="155.4"/>
		</g>
		<g>
			<line class="st2" x1="184.5" y1="156" x2="184.5" y2="160.2"/>
			<line class="st3" x1="185.2" y1="156.5" x2="185.2" y2="160.7"/>
		</g>
		<g>
			<line class="st2" x1="175.1" y1="130.7" x2="175.1" y2="134.9"/>
			<line class="st3" x1="175.8" y1="131.3" x2="175.8" y2="135.4"/>
		</g>
		<g>
			<line class="st2" x1="179.8" y1="138.1" x2="179.8" y2="142.3"/>
			<line class="st3" x1="180.5" y1="138.6" x2="180.5" y2="142.8"/>
		</g>
		<g>
			<line class="st2" x1="179.8" y1="128.1" x2="179.8" y2="132.3"/>
			<line class="st3" x1="180.5" y1="128.6" x2="180.5" y2="132.8"/>
		</g>
		<g>
			<line class="st2" x1="179.8" y1="148.1" x2="179.8" y2="152.3"/>
			<line class="st3" x1="180.5" y1="148.6" x2="180.5" y2="152.8"/>
		</g>
		<g>
			<line class="st2" x1="179.8" y1="158.1" x2="179.8" y2="162.3"/>
			<line class="st3" x1="180.5" y1="158.6" x2="180.5" y2="162.8"/>
		</g>
		<g>
			<line class="st2" x1="184.5" y1="136" x2="184.5" y2="140.2"/>
			<line class="st3" x1="185.2" y1="136.5" x2="185.2" y2="140.7"/>
		</g>
		<g>
			<line class="st2" x1="175.1" y1="120.7" x2="175.1" y2="124.9"/>
			<line class="st3" x1="175.8" y1="121.3" x2="175.8" y2="125.4"/>
		</g>
		<g>
			<line class="st2" x1="184.5" y1="126" x2="184.5" y2="130.2"/>
			<line class="st3" x1="185.2" y1="126.5" x2="185.2" y2="130.7"/>
		</g>
		<g>
			<line class="st2" x1="214.3" y1="118.2" x2="214.3" y2="122.4"/>
			<line class="st3" x1="215" y1="118.7" x2="215" y2="122.9"/>
		</g>
		<circle class="st35" cx="354.1" cy="180.3" r="8.9"/>
		<path class="st36" d="M367.6,160h157.8c3.4,0,6.3,2.8,6.3,6.3v49.1c0,3.4-2.8,6.3-6.3,6.3H367.6c-3.4,0-6.3-2.8-6.3-6.3V186
			l-7.3-5.7l7.3-6.4v-7.7C361.4,162.8,364.2,160,367.6,160z"/>
		<g>
			<path class="st37" d="M385.3,187.2h-1.8l-7.3-11.2h-0.1c0.1,1.3,0.1,2.5,0.1,3.6v7.6h-1.4v-13.4h1.8l7.3,11.2h0.1
				c0-0.2,0-0.7-0.1-1.6c0-0.9-0.1-1.5,0-1.9v-7.7h1.5V187.2z"/>
			<path class="st37" d="M397.4,182.2c0,1.6-0.4,2.9-1.2,3.8c-0.8,0.9-2,1.4-3.4,1.4c-0.9,0-1.7-0.2-2.4-0.6c-0.7-0.4-1.2-1-1.6-1.8
				c-0.4-0.8-0.6-1.7-0.6-2.8c0-1.6,0.4-2.9,1.2-3.8c0.8-0.9,2-1.4,3.4-1.4c1.4,0,2.5,0.5,3.3,1.4
				C397,179.3,397.4,180.6,397.4,182.2z M389.8,182.2c0,1.3,0.3,2.3,0.8,2.9c0.5,0.7,1.3,1,2.3,1s1.8-0.3,2.3-1s0.8-1.6,0.8-2.9
				c0-1.3-0.3-2.2-0.8-2.9c-0.5-0.7-1.3-1-2.3-1c-1,0-1.7,0.3-2.3,1S389.8,180.9,389.8,182.2z"/>
			<path class="st37" d="M406.9,187.2v-6.5c0-0.8-0.2-1.4-0.6-1.8c-0.4-0.4-1-0.6-1.8-0.6c-1,0-1.8,0.3-2.3,0.9s-0.7,1.5-0.7,2.8
				v5.3h-1.5v-10h1.2l0.2,1.4h0.1c0.3-0.5,0.7-0.9,1.3-1.1c0.6-0.3,1.2-0.4,1.9-0.4c1.2,0,2.1,0.3,2.7,0.9s0.9,1.5,0.9,2.8v6.5
				H406.9z"/>
			<path class="st37" d="M410.7,182.9v-1.4h4.5v1.4H410.7z"/>
			<path class="st37" d="M421.6,187.4c-1.5,0-2.6-0.4-3.4-1.3s-1.2-2.2-1.2-3.8c0-1.7,0.4-3,1.2-3.9c0.8-0.9,2-1.4,3.5-1.4
				c0.5,0,1,0.1,1.4,0.2s0.9,0.2,1.1,0.4l-0.5,1.3c-0.3-0.1-0.7-0.2-1.1-0.3c-0.4-0.1-0.7-0.1-1.1-0.1c-2,0-3.1,1.3-3.1,3.9
				c0,1.2,0.2,2.2,0.7,2.8c0.5,0.7,1.2,1,2.2,1c0.8,0,1.7-0.2,2.6-0.5v1.3C423.5,187.2,422.6,187.4,421.6,187.4z"/>
			<path class="st37" d="M435.2,182.2c0,1.6-0.4,2.9-1.2,3.8s-2,1.4-3.4,1.4c-0.9,0-1.7-0.2-2.4-0.6c-0.7-0.4-1.2-1-1.6-1.8
				c-0.4-0.8-0.6-1.7-0.6-2.8c0-1.6,0.4-2.9,1.2-3.8c0.8-0.9,2-1.4,3.4-1.4c1.4,0,2.5,0.5,3.3,1.4
				C434.8,179.3,435.2,180.6,435.2,182.2z M427.6,182.2c0,1.3,0.3,2.3,0.8,2.9c0.5,0.7,1.3,1,2.3,1s1.8-0.3,2.3-1
				c0.5-0.7,0.8-1.6,0.8-2.9c0-1.3-0.3-2.2-0.8-2.9c-0.5-0.7-1.3-1-2.3-1c-1,0-1.7,0.3-2.3,1S427.6,180.9,427.6,182.2z"/>
			<path class="st37" d="M450.7,187.2v-6.5c0-0.8-0.2-1.4-0.5-1.8c-0.3-0.4-0.9-0.6-1.6-0.6c-0.9,0-1.6,0.3-2.1,0.8
				c-0.5,0.5-0.7,1.4-0.7,2.5v5.6h-1.5v-6.5c0-0.8-0.2-1.4-0.5-1.8c-0.3-0.4-0.9-0.6-1.6-0.6c-1,0-1.7,0.3-2.1,0.9
				c-0.4,0.6-0.7,1.5-0.7,2.8v5.3h-1.5v-10h1.2l0.2,1.4h0.1c0.3-0.5,0.7-0.9,1.2-1.1c0.5-0.3,1.1-0.4,1.8-0.4c1.6,0,2.6,0.6,3.1,1.7
				h0.1c0.3-0.5,0.7-0.9,1.3-1.2c0.6-0.3,1.2-0.5,1.9-0.5c1.1,0,2,0.3,2.6,0.9c0.6,0.6,0.8,1.5,0.8,2.8v6.5H450.7z"/>
			<path class="st37" d="M460,177c1.3,0,2.3,0.5,3.1,1.4c0.7,0.9,1.1,2.2,1.1,3.8s-0.4,2.9-1.1,3.8c-0.7,0.9-1.8,1.4-3.1,1.4
				c-0.7,0-1.2-0.1-1.8-0.4c-0.5-0.2-1-0.6-1.4-1.1h-0.1l-0.3,1.3h-1.1V173h1.5v3.5c0,0.8,0,1.5-0.1,2.1h0.1
				C457.6,177.5,458.6,177,460,177z M459.8,178.3c-1,0-1.8,0.3-2.2,0.9c-0.5,0.6-0.7,1.6-0.7,3s0.2,2.4,0.7,3
				c0.5,0.6,1.2,0.9,2.3,0.9c0.9,0,1.6-0.3,2.1-1s0.7-1.7,0.7-2.9c0-1.3-0.2-2.3-0.7-2.9C461.4,178.6,460.7,178.3,459.8,178.3z"/>
			<path class="st37" d="M468.2,177.2v6.5c0,0.8,0.2,1.4,0.6,1.8s1,0.6,1.7,0.6c1.1,0,1.8-0.3,2.3-0.9c0.5-0.6,0.7-1.5,0.7-2.8v-5.3
				h1.5v10h-1.3l-0.2-1.3h-0.1c-0.3,0.5-0.7,0.9-1.3,1.1c-0.6,0.3-1.2,0.4-1.9,0.4c-1.2,0-2.1-0.3-2.7-0.9c-0.6-0.6-0.9-1.5-0.9-2.8
				v-6.6H468.2z"/>
			<path class="st37" d="M484.8,184.5c0,0.9-0.3,1.7-1,2.2c-0.7,0.5-1.7,0.8-2.9,0.8c-1.3,0-2.4-0.2-3.1-0.6v-1.4
				c0.5,0.2,1,0.4,1.6,0.6s1.1,0.2,1.6,0.2c0.8,0,1.4-0.1,1.8-0.4c0.4-0.3,0.6-0.6,0.6-1.2c0-0.4-0.2-0.7-0.5-1c-0.3-0.3-1-0.6-2-1
				c-0.9-0.3-1.6-0.7-2-0.9s-0.7-0.6-0.9-0.9c-0.2-0.3-0.3-0.7-0.3-1.2c0-0.8,0.3-1.5,1-1.9c0.7-0.5,1.6-0.7,2.7-0.7
				c1.1,0,2.1,0.2,3.2,0.7l-0.5,1.2c-1-0.4-1.9-0.6-2.7-0.6c-0.7,0-1.3,0.1-1.6,0.3s-0.5,0.5-0.5,0.9c0,0.3,0.1,0.5,0.2,0.7
				c0.1,0.2,0.4,0.4,0.7,0.5c0.3,0.2,0.9,0.4,1.8,0.7c1.2,0.4,2,0.9,2.4,1.3S484.8,183.8,484.8,184.5z"/>
			<path class="st37" d="M490.5,186.2c0.3,0,0.5,0,0.8-0.1c0.2,0,0.4-0.1,0.6-0.1v1.2c-0.2,0.1-0.4,0.1-0.7,0.2s-0.6,0.1-0.9,0.1
				c-1.9,0-2.9-1-2.9-3.1v-6H486v-0.7l1.4-0.6l0.6-2.1h0.9v2.3h2.9v1.2h-2.9v5.9c0,0.6,0.1,1.1,0.4,1.4
				C489.6,186,490,186.2,490.5,186.2z"/>
			<path class="st37" d="M493.8,174.5c0-0.3,0.1-0.6,0.3-0.8c0.2-0.2,0.4-0.2,0.6-0.2c0.2,0,0.5,0.1,0.6,0.2
				c0.2,0.2,0.3,0.4,0.3,0.8c0,0.3-0.1,0.6-0.3,0.8c-0.2,0.2-0.4,0.3-0.6,0.3c-0.3,0-0.5-0.1-0.6-0.3S493.8,174.8,493.8,174.5z
				 M495.4,187.2h-1.5v-10h1.5V187.2z"/>
			<path class="st37" d="M503.3,177c1.3,0,2.3,0.5,3.1,1.4c0.7,0.9,1.1,2.2,1.1,3.8s-0.4,2.9-1.1,3.8c-0.7,0.9-1.8,1.4-3.1,1.4
				c-0.7,0-1.2-0.1-1.8-0.4c-0.5-0.2-1-0.6-1.4-1.1h-0.1l-0.3,1.3h-1.1V173h1.5v3.5c0,0.8,0,1.5-0.1,2.1h0.1
				C500.9,177.5,501.9,177,503.3,177z M503.1,178.3c-1,0-1.8,0.3-2.2,0.9c-0.5,0.6-0.7,1.6-0.7,3s0.2,2.4,0.7,3
				c0.5,0.6,1.2,0.9,2.3,0.9c0.9,0,1.6-0.3,2.1-1s0.7-1.7,0.7-2.9c0-1.3-0.2-2.3-0.7-2.9C504.8,178.6,504.1,178.3,503.1,178.3z"/>
			<path class="st37" d="M511.7,187.2h-1.5V173h1.5V187.2z"/>
			<path class="st37" d="M519.1,187.4c-1.5,0-2.7-0.5-3.5-1.4c-0.9-0.9-1.3-2.2-1.3-3.8c0-1.6,0.4-2.9,1.2-3.9
				c0.8-1,1.9-1.4,3.2-1.4c1.3,0,2.3,0.4,3,1.2s1.1,1.9,1.1,3.3v1h-6.9c0,1.2,0.3,2.1,0.9,2.7c0.6,0.6,1.4,0.9,2.4,0.9
				c1.1,0,2.1-0.2,3.2-0.7v1.4c-0.5,0.2-1,0.4-1.5,0.5S519.8,187.4,519.1,187.4z M518.7,178.3c-0.8,0-1.4,0.3-1.9,0.8
				c-0.5,0.5-0.8,1.3-0.8,2.2h5.2c0-1-0.2-1.7-0.6-2.2C520.1,178.5,519.5,178.3,518.7,178.3z"/>
			<path class="st37" d="M379.3,199.5c1.3,0,2.3,0.5,3.1,1.4c0.7,0.9,1.1,2.2,1.1,3.8s-0.4,2.9-1.1,3.8c-0.7,0.9-1.8,1.4-3.1,1.4
				c-0.7,0-1.2-0.1-1.8-0.4c-0.5-0.2-1-0.6-1.4-1.1H376l-0.3,1.3h-1.1v-14.3h1.5v3.5c0,0.8,0,1.5-0.1,2.1h0.1
				C376.8,200,377.9,199.5,379.3,199.5z M379,200.8c-1,0-1.8,0.3-2.2,0.9c-0.5,0.6-0.7,1.6-0.7,3s0.2,2.4,0.7,3
				c0.5,0.6,1.2,0.9,2.3,0.9c0.9,0,1.6-0.3,2.1-1s0.7-1.7,0.7-2.9c0-1.3-0.2-2.3-0.7-2.9C380.7,201.1,380,200.8,379,200.8z"/>
			<path class="st37" d="M390.7,199.5c0.4,0,0.8,0,1.2,0.1l-0.2,1.4c-0.4-0.1-0.8-0.1-1.1-0.1c-0.8,0-1.5,0.3-2.1,1
				c-0.6,0.7-0.9,1.5-0.9,2.5v5.4h-1.5v-10h1.3l0.2,1.9h0.1c0.4-0.7,0.8-1.2,1.3-1.5C389.5,199.7,390,199.5,390.7,199.5z"/>
			<path class="st37" d="M393.6,197c0-0.3,0.1-0.6,0.3-0.8c0.2-0.2,0.4-0.2,0.6-0.2c0.2,0,0.5,0.1,0.6,0.2c0.2,0.2,0.3,0.4,0.3,0.8
				c0,0.3-0.1,0.6-0.3,0.8c-0.2,0.2-0.4,0.3-0.6,0.3c-0.3,0-0.5-0.1-0.6-0.3S393.6,197.3,393.6,197z M395.3,209.7h-1.5v-10h1.5
				V209.7z"/>
			<path class="st37" d="M402.5,209.9c-1.5,0-2.6-0.4-3.4-1.3s-1.2-2.2-1.2-3.8c0-1.7,0.4-3,1.2-3.9c0.8-0.9,2-1.4,3.5-1.4
				c0.5,0,1,0.1,1.4,0.2s0.9,0.2,1.1,0.4l-0.5,1.3c-0.3-0.1-0.7-0.2-1.1-0.3c-0.4-0.1-0.7-0.1-1.1-0.1c-2,0-3.1,1.3-3.1,3.9
				c0,1.2,0.2,2.2,0.7,2.8c0.5,0.7,1.2,1,2.2,1c0.8,0,1.7-0.2,2.6-0.5v1.3C404.4,209.7,403.5,209.9,402.5,209.9z"/>
			<path class="st37" d="M408.9,204.6c0.3-0.4,0.7-0.9,1.2-1.5l3.2-3.4h1.8l-4.1,4.3l4.4,5.8h-1.8l-3.5-4.7l-1.1,1v3.8h-1.5v-14.3
				h1.5v7.6C408.9,203.4,408.9,203.9,408.9,204.6L408.9,204.6z"/>
			<path class="st37" d="M430.3,209.7l-1.8-5.9c-0.1-0.4-0.3-1.2-0.7-2.5h-0.1c-0.2,1.1-0.5,1.9-0.6,2.5l-1.9,5.9h-1.8l-2.7-10h1.6
				c0.6,2.5,1.1,4.4,1.5,5.8c0.3,1.3,0.5,2.2,0.6,2.7h0.1c0.1-0.3,0.2-0.8,0.3-1.4s0.3-1,0.4-1.3l1.8-5.8h1.6l1.8,5.8
				c0.3,1.1,0.6,1.9,0.7,2.6h0.1c0-0.2,0.1-0.6,0.2-1c0.1-0.5,0.7-2.9,1.9-7.4h1.6l-2.8,10H430.3z"/>
			<path class="st37" d="M442.9,209.7l-0.3-1.4h-0.1c-0.5,0.6-1,1.1-1.5,1.3c-0.5,0.2-1.1,0.3-1.9,0.3c-1,0-1.8-0.3-2.3-0.8
				c-0.6-0.5-0.8-1.2-0.8-2.2c0-2,1.6-3.1,4.9-3.2l1.7-0.1v-0.6c0-0.8-0.2-1.4-0.5-1.7c-0.3-0.4-0.9-0.6-1.6-0.6
				c-0.8,0-1.8,0.3-2.8,0.8l-0.5-1.2c0.5-0.3,1-0.5,1.6-0.6c0.6-0.2,1.2-0.2,1.8-0.2c1.2,0,2.1,0.3,2.7,0.8c0.6,0.5,0.9,1.4,0.9,2.6
				v6.9H442.9z M439.5,208.7c0.9,0,1.7-0.3,2.2-0.8c0.5-0.5,0.8-1.2,0.8-2.2v-0.9l-1.5,0.1c-1.2,0-2.1,0.2-2.6,0.6
				c-0.5,0.3-0.8,0.9-0.8,1.6c0,0.5,0.2,1,0.5,1.3S438.9,208.7,439.5,208.7z"/>
			<path class="st37" d="M448.7,209.7h-1.5v-14.3h1.5V209.7z"/>
			<path class="st37" d="M453.4,209.7h-1.5v-14.3h1.5V209.7z"/>
			<path class="st37" d="M463.1,207c0,0.9-0.3,1.7-1,2.2c-0.7,0.5-1.7,0.8-2.9,0.8c-1.3,0-2.4-0.2-3.1-0.6v-1.4
				c0.5,0.2,1,0.4,1.6,0.6s1.1,0.2,1.6,0.2c0.8,0,1.4-0.1,1.8-0.4c0.4-0.3,0.6-0.6,0.6-1.2c0-0.4-0.2-0.7-0.5-1c-0.3-0.3-1-0.6-2-1
				c-0.9-0.3-1.6-0.7-2-0.9s-0.7-0.6-0.9-0.9c-0.2-0.3-0.3-0.7-0.3-1.2c0-0.8,0.3-1.5,1-1.9c0.7-0.5,1.6-0.7,2.7-0.7
				c1.1,0,2.1,0.2,3.2,0.7l-0.5,1.2c-1-0.4-1.9-0.6-2.7-0.6c-0.7,0-1.3,0.1-1.6,0.3s-0.5,0.5-0.5,0.9c0,0.3,0.1,0.5,0.2,0.7
				c0.1,0.2,0.4,0.4,0.7,0.5c0.3,0.2,0.9,0.4,1.8,0.7c1.2,0.4,2,0.9,2.4,1.3S463.1,206.3,463.1,207z"/>
		</g>
		<circle class="st35" cx="233.5" cy="196" r="8.9"/>
		<path class="st36" d="M220.3,217.2H51.5c-3.4,0-6.3-2.8-6.3-6.3v-28.1c0-3.4,2.8-6.3,6.3-6.3h168.8c3.4,0,6.3,2.8,6.3,6.3v8.3
			l7.3,5.7l-7.3,6.4v7.7C226.5,214.4,223.7,217.2,220.3,217.2z"/>
		<g>
			<path class="st37" d="M63.9,191.1c-1.5,0-2.6,0.5-3.5,1.5c-0.9,1-1.3,2.3-1.3,4c0,1.8,0.4,3.1,1.2,4.1c0.8,1,2,1.4,3.5,1.4
				c0.9,0,2-0.2,3.2-0.5v1.4c-0.9,0.3-2.1,0.5-3.4,0.5c-2,0-3.5-0.6-4.6-1.8c-1.1-1.2-1.6-2.9-1.6-5.1c0-1.4,0.3-2.6,0.8-3.6
				c0.5-1,1.3-1.8,2.2-2.4c1-0.6,2.1-0.8,3.4-0.8c1.4,0,2.6,0.3,3.7,0.8l-0.7,1.3C66,191.3,64.9,191.1,63.9,191.1z"/>
			<path class="st37" d="M78.5,198.2c0,1.6-0.4,2.9-1.2,3.8c-0.8,0.9-2,1.4-3.4,1.4c-0.9,0-1.7-0.2-2.4-0.6c-0.7-0.4-1.2-1-1.6-1.8
				c-0.4-0.8-0.6-1.7-0.6-2.8c0-1.6,0.4-2.9,1.2-3.8c0.8-0.9,2-1.4,3.4-1.4c1.4,0,2.5,0.5,3.3,1.4C78,195.4,78.5,196.6,78.5,198.2z
				 M70.8,198.2c0,1.3,0.3,2.3,0.8,2.9c0.5,0.7,1.3,1,2.3,1s1.8-0.3,2.3-1c0.5-0.7,0.8-1.6,0.8-2.9c0-1.3-0.3-2.2-0.8-2.9
				c-0.5-0.7-1.3-1-2.3-1c-1,0-1.7,0.3-2.3,1S70.8,196.9,70.8,198.2z"/>
			<path class="st37" d="M93.9,203.2v-6.5c0-0.8-0.2-1.4-0.5-1.8c-0.3-0.4-0.9-0.6-1.6-0.6c-0.9,0-1.6,0.3-2.1,0.8
				c-0.5,0.5-0.7,1.4-0.7,2.5v5.6h-1.5v-6.5c0-0.8-0.2-1.4-0.5-1.8c-0.3-0.4-0.9-0.6-1.6-0.6c-1,0-1.7,0.3-2.1,0.9
				c-0.4,0.6-0.7,1.5-0.7,2.8v5.3h-1.5v-10h1.2l0.2,1.4h0.1c0.3-0.5,0.7-0.9,1.2-1.1c0.5-0.3,1.1-0.4,1.8-0.4c1.6,0,2.6,0.6,3.1,1.7
				h0.1c0.3-0.5,0.7-0.9,1.3-1.2c0.6-0.3,1.2-0.5,1.9-0.5c1.1,0,2,0.3,2.6,0.9s0.8,1.5,0.8,2.8v6.5H93.9z"/>
			<path class="st37" d="M103.2,193c1.3,0,2.3,0.5,3.1,1.4c0.7,0.9,1.1,2.2,1.1,3.8s-0.4,2.9-1.1,3.8c-0.7,0.9-1.8,1.4-3.1,1.4
				c-0.7,0-1.3-0.1-1.8-0.4c-0.5-0.2-1-0.6-1.4-1.1H100l-0.3,1.3h-1.1V189h1.5v3.5c0,0.8,0,1.5-0.1,2.1h0.1
				C100.8,193.5,101.9,193,103.2,193z M103,194.3c-1,0-1.8,0.3-2.2,0.9c-0.5,0.6-0.7,1.6-0.7,3s0.2,2.4,0.7,3s1.2,0.9,2.3,0.9
				c0.9,0,1.6-0.3,2.1-1s0.7-1.7,0.7-2.9c0-1.3-0.2-2.3-0.7-2.9C104.7,194.6,104,194.3,103,194.3z"/>
			<path class="st37" d="M111.5,193.2v6.5c0,0.8,0.2,1.4,0.6,1.8c0.4,0.4,1,0.6,1.7,0.6c1.1,0,1.8-0.3,2.3-0.9
				c0.5-0.6,0.7-1.5,0.7-2.8v-5.3h1.5v10h-1.3l-0.2-1.3h-0.1c-0.3,0.5-0.7,0.9-1.3,1.1c-0.6,0.3-1.2,0.4-1.9,0.4
				c-1.2,0-2.1-0.3-2.7-0.9c-0.6-0.6-0.9-1.5-0.9-2.8v-6.6H111.5z"/>
			<path class="st37" d="M128.1,200.5c0,0.9-0.3,1.7-1,2.2c-0.7,0.5-1.7,0.8-2.9,0.8c-1.3,0-2.4-0.2-3.1-0.6v-1.4
				c0.5,0.2,1,0.4,1.6,0.6s1.1,0.2,1.6,0.2c0.8,0,1.4-0.1,1.8-0.4c0.4-0.3,0.6-0.6,0.6-1.2c0-0.4-0.2-0.7-0.5-1c-0.3-0.3-1-0.6-2-1
				c-0.9-0.3-1.6-0.7-2-0.9c-0.4-0.3-0.7-0.6-0.9-0.9c-0.2-0.3-0.3-0.7-0.3-1.2c0-0.8,0.3-1.5,1-1.9c0.7-0.5,1.6-0.7,2.7-0.7
				c1.1,0,2.1,0.2,3.2,0.7l-0.5,1.2c-1-0.4-1.9-0.6-2.7-0.6c-0.7,0-1.3,0.1-1.6,0.3c-0.4,0.2-0.5,0.5-0.5,0.9c0,0.3,0.1,0.5,0.2,0.7
				s0.4,0.4,0.7,0.5c0.3,0.2,0.9,0.4,1.8,0.7c1.2,0.4,2,0.9,2.4,1.3C127.8,199.3,128.1,199.8,128.1,200.5z"/>
			<path class="st37" d="M133.8,202.2c0.3,0,0.5,0,0.8-0.1c0.2,0,0.4-0.1,0.6-0.1v1.2c-0.2,0.1-0.4,0.1-0.7,0.2
				c-0.3,0.1-0.6,0.1-0.9,0.1c-1.9,0-2.9-1-2.9-3.1v-6h-1.4v-0.7l1.4-0.6l0.6-2.1h0.9v2.3h2.9v1.2h-2.9v5.9c0,0.6,0.1,1.1,0.4,1.4
				C132.9,202,133.3,202.2,133.8,202.2z"/>
			<path class="st37" d="M137,190.5c0-0.3,0.1-0.6,0.3-0.8c0.2-0.2,0.4-0.2,0.6-0.2c0.2,0,0.5,0.1,0.6,0.2s0.3,0.4,0.3,0.8
				c0,0.3-0.1,0.6-0.3,0.8s-0.4,0.3-0.6,0.3c-0.3,0-0.5-0.1-0.6-0.3S137,190.8,137,190.5z M138.7,203.2h-1.5v-10h1.5V203.2z"/>
			<path class="st37" d="M146.6,193c1.3,0,2.3,0.5,3.1,1.4c0.7,0.9,1.1,2.2,1.1,3.8s-0.4,2.9-1.1,3.8c-0.7,0.9-1.8,1.4-3.1,1.4
				c-0.7,0-1.3-0.1-1.8-0.4c-0.5-0.2-1-0.6-1.4-1.1h-0.1l-0.3,1.3h-1.1V189h1.5v3.5c0,0.8,0,1.5-0.1,2.1h0.1
				C144.1,193.5,145.2,193,146.6,193z M146.3,194.3c-1,0-1.8,0.3-2.2,0.9c-0.5,0.6-0.7,1.6-0.7,3s0.2,2.4,0.7,3s1.2,0.9,2.3,0.9
				c0.9,0,1.6-0.3,2.1-1s0.7-1.7,0.7-2.9c0-1.3-0.2-2.3-0.7-2.9C148,194.6,147.3,194.3,146.3,194.3z"/>
			<path class="st37" d="M154.9,203.2h-1.5V189h1.5V203.2z"/>
			<path class="st37" d="M162.4,203.4c-1.5,0-2.7-0.5-3.5-1.4c-0.9-0.9-1.3-2.2-1.3-3.8c0-1.6,0.4-2.9,1.2-3.9
				c0.8-1,1.9-1.4,3.2-1.4c1.3,0,2.3,0.4,3,1.2c0.7,0.8,1.1,1.9,1.1,3.3v1h-6.9c0,1.2,0.3,2.1,0.9,2.7s1.4,0.9,2.4,0.9
				c1.1,0,2.1-0.2,3.2-0.7v1.4c-0.5,0.2-1,0.4-1.5,0.5C163.6,203.4,163.1,203.4,162.4,203.4z M162,194.3c-0.8,0-1.4,0.3-1.9,0.8
				c-0.5,0.5-0.8,1.3-0.8,2.2h5.2c0-1-0.2-1.7-0.6-2.2C163.4,194.5,162.8,194.3,162,194.3z"/>
			<path class="st37" d="M178.1,194.4h-2.6v8.9H174v-8.9h-1.8v-0.7l1.8-0.5v-0.6c0-2.5,1.1-3.7,3.2-3.7c0.5,0,1.2,0.1,1.9,0.3
				l-0.4,1.2c-0.6-0.2-1.1-0.3-1.5-0.3c-0.6,0-1,0.2-1.3,0.6c-0.3,0.4-0.4,1-0.4,1.8v0.7h2.6V194.4z M181.4,203.2h-1.5V189h1.5
				V203.2z"/>
			<path class="st37" d="M193.3,198.2c0,1.6-0.4,2.9-1.2,3.8c-0.8,0.9-2,1.4-3.4,1.4c-0.9,0-1.7-0.2-2.4-0.6c-0.7-0.4-1.2-1-1.6-1.8
				c-0.4-0.8-0.6-1.7-0.6-2.8c0-1.6,0.4-2.9,1.2-3.8c0.8-0.9,2-1.4,3.4-1.4c1.4,0,2.5,0.5,3.3,1.4
				C192.9,195.4,193.3,196.6,193.3,198.2z M185.6,198.2c0,1.3,0.3,2.3,0.8,2.9c0.5,0.7,1.3,1,2.3,1s1.8-0.3,2.3-1
				c0.5-0.7,0.8-1.6,0.8-2.9c0-1.3-0.3-2.2-0.8-2.9c-0.5-0.7-1.3-1-2.3-1c-1,0-1.7,0.3-2.3,1S185.6,196.9,185.6,198.2z"/>
			<path class="st37" d="M204.6,198.2c0,1.6-0.4,2.9-1.2,3.8c-0.8,0.9-2,1.4-3.4,1.4c-0.9,0-1.7-0.2-2.4-0.6c-0.7-0.4-1.2-1-1.6-1.8
				c-0.4-0.8-0.6-1.7-0.6-2.8c0-1.6,0.4-2.9,1.2-3.8c0.8-0.9,2-1.4,3.4-1.4c1.4,0,2.5,0.5,3.3,1.4
				C204.2,195.4,204.6,196.6,204.6,198.2z M197,198.2c0,1.3,0.3,2.3,0.8,2.9c0.5,0.7,1.3,1,2.3,1s1.8-0.3,2.3-1
				c0.5-0.7,0.8-1.6,0.8-2.9c0-1.3-0.3-2.2-0.8-2.9c-0.5-0.7-1.3-1-2.3-1c-1,0-1.7,0.3-2.3,1S197,196.9,197,198.2z"/>
			<path class="st37" d="M211.9,193c0.4,0,0.8,0,1.2,0.1l-0.2,1.4c-0.4-0.1-0.8-0.1-1.1-0.1c-0.8,0-1.5,0.3-2.1,1
				c-0.6,0.7-0.9,1.5-0.9,2.5v5.4h-1.5v-10h1.3l0.2,1.9h0.1c0.4-0.7,0.8-1.2,1.3-1.5C210.7,193.2,211.2,193,211.9,193z"/>
		</g>
		<circle class="st38" cx="175.2" cy="113.9" r="8.9"/>
		<path class="st36" d="M161.9,156.1H41.1c-3.4,0-6.3-2.8-6.3-6.3V99.7c0-3.4,2.8-6.3,6.3-6.3h120.8c3.4,0,6.3,2.8,6.3,6.3v8.3
			l7.3,5.7l-7.3,6.4v29.7C168.2,153.3,165.4,156.1,161.9,156.1z"/>
		<g>
			<path class="st37" d="M52.2,107.9c-1.5,0-2.6,0.5-3.5,1.5c-0.9,1-1.3,2.3-1.3,4c0,1.8,0.4,3.1,1.2,4.1c0.8,1,2,1.4,3.5,1.4
				c0.9,0,2-0.2,3.2-0.5v1.4c-0.9,0.3-2.1,0.5-3.4,0.5c-2,0-3.5-0.6-4.6-1.8c-1.1-1.2-1.6-2.9-1.6-5.1c0-1.4,0.3-2.6,0.8-3.6
				c0.5-1,1.3-1.8,2.2-2.4c1-0.6,2.1-0.8,3.4-0.8c1.4,0,2.6,0.3,3.7,0.8l-0.7,1.3C54.2,108.2,53.2,107.9,52.2,107.9z"/>
			<path class="st37" d="M66.7,115.1c0,1.6-0.4,2.9-1.2,3.8c-0.8,0.9-2,1.4-3.4,1.4c-0.9,0-1.7-0.2-2.4-0.6c-0.7-0.4-1.2-1-1.6-1.8
				c-0.4-0.8-0.6-1.7-0.6-2.8c0-1.6,0.4-2.9,1.2-3.8c0.8-0.9,2-1.4,3.4-1.4c1.4,0,2.5,0.5,3.3,1.4C66.3,112.3,66.7,113.5,66.7,115.1
				z M59.1,115.1c0,1.3,0.3,2.3,0.8,2.9c0.5,0.7,1.3,1,2.3,1s1.8-0.3,2.3-1c0.5-0.7,0.8-1.6,0.8-2.9c0-1.3-0.3-2.2-0.8-2.9
				c-0.5-0.7-1.3-1-2.3-1c-1,0-1.7,0.3-2.3,1S59.1,113.8,59.1,115.1z"/>
			<path class="st37" d="M82.2,120.1v-6.5c0-0.8-0.2-1.4-0.5-1.8c-0.3-0.4-0.9-0.6-1.6-0.6c-0.9,0-1.6,0.3-2.1,0.8
				c-0.5,0.5-0.7,1.4-0.7,2.5v5.6h-1.5v-6.5c0-0.8-0.2-1.4-0.5-1.8c-0.3-0.4-0.9-0.6-1.6-0.6c-1,0-1.7,0.3-2.1,0.9
				c-0.4,0.6-0.7,1.5-0.7,2.8v5.3h-1.5v-10h1.2l0.2,1.4H71c0.3-0.5,0.7-0.9,1.2-1.1c0.5-0.3,1.1-0.4,1.8-0.4c1.6,0,2.6,0.6,3.1,1.7
				h0.1c0.3-0.5,0.7-0.9,1.3-1.2c0.6-0.3,1.2-0.5,1.9-0.5c1.1,0,2,0.3,2.6,0.9s0.8,1.5,0.8,2.8v6.5H82.2z"/>
			<path class="st37" d="M91.5,109.9c1.3,0,2.3,0.5,3.1,1.4c0.7,0.9,1.1,2.2,1.1,3.8s-0.4,2.9-1.1,3.8c-0.7,0.9-1.8,1.4-3.1,1.4
				c-0.7,0-1.3-0.1-1.8-0.4c-0.5-0.2-1-0.6-1.4-1.1h-0.1l-0.3,1.3h-1.1v-14.3h1.5v3.5c0,0.8,0,1.5-0.1,2.1h0.1
				C89.1,110.4,90.1,109.9,91.5,109.9z M91.3,111.2c-1,0-1.8,0.3-2.2,0.9c-0.5,0.6-0.7,1.6-0.7,3s0.2,2.4,0.7,3s1.2,0.9,2.3,0.9
				c0.9,0,1.6-0.3,2.1-1s0.7-1.7,0.7-2.9c0-1.3-0.2-2.3-0.7-2.9C93,111.5,92.3,111.2,91.3,111.2z"/>
			<path class="st37" d="M99.8,110.1v6.5c0,0.8,0.2,1.4,0.6,1.8c0.4,0.4,1,0.6,1.7,0.6c1.1,0,1.8-0.3,2.3-0.9
				c0.5-0.6,0.7-1.5,0.7-2.8v-5.3h1.5v10h-1.3l-0.2-1.3h-0.1c-0.3,0.5-0.7,0.9-1.3,1.1c-0.6,0.3-1.2,0.4-1.9,0.4
				c-1.2,0-2.1-0.3-2.7-0.9c-0.6-0.6-0.9-1.5-0.9-2.8v-6.6H99.8z"/>
			<path class="st37" d="M116.3,117.4c0,0.9-0.3,1.7-1,2.2c-0.7,0.5-1.7,0.8-2.9,0.8c-1.3,0-2.4-0.2-3.1-0.6v-1.4
				c0.5,0.2,1,0.4,1.6,0.6s1.1,0.2,1.6,0.2c0.8,0,1.4-0.1,1.8-0.4c0.4-0.3,0.6-0.6,0.6-1.2c0-0.4-0.2-0.7-0.5-1c-0.3-0.3-1-0.6-2-1
				c-0.9-0.3-1.6-0.7-2-0.9c-0.4-0.3-0.7-0.6-0.9-0.9c-0.2-0.3-0.3-0.7-0.3-1.2c0-0.8,0.3-1.5,1-1.9c0.7-0.5,1.6-0.7,2.7-0.7
				c1.1,0,2.1,0.2,3.2,0.7l-0.5,1.2c-1-0.4-1.9-0.6-2.7-0.6c-0.7,0-1.3,0.1-1.6,0.3c-0.4,0.2-0.5,0.5-0.5,0.9c0,0.3,0.1,0.5,0.2,0.7
				s0.4,0.4,0.7,0.5c0.3,0.2,0.9,0.4,1.8,0.7c1.2,0.4,2,0.9,2.4,1.3C116.1,116.2,116.3,116.7,116.3,117.4z"/>
			<path class="st37" d="M122,119.1c0.3,0,0.5,0,0.8-0.1c0.2,0,0.4-0.1,0.6-0.1v1.2c-0.2,0.1-0.4,0.1-0.7,0.2
				c-0.3,0.1-0.6,0.1-0.9,0.1c-1.9,0-2.9-1-2.9-3.1v-6h-1.4v-0.7l1.4-0.6l0.6-2.1h0.9v2.3h2.9v1.2h-2.9v5.9c0,0.6,0.1,1.1,0.4,1.4
				C121.1,118.9,121.5,119.1,122,119.1z"/>
			<path class="st37" d="M125.3,107.4c0-0.3,0.1-0.6,0.3-0.8c0.2-0.2,0.4-0.2,0.6-0.2c0.2,0,0.5,0.1,0.6,0.2s0.3,0.4,0.3,0.8
				c0,0.3-0.1,0.6-0.3,0.8s-0.4,0.3-0.6,0.3c-0.3,0-0.5-0.1-0.6-0.3S125.3,107.7,125.3,107.4z M126.9,120.1h-1.5v-10h1.5V120.1z"/>
			<path class="st37" d="M134.8,109.9c1.3,0,2.3,0.5,3.1,1.4c0.7,0.9,1.1,2.2,1.1,3.8s-0.4,2.9-1.1,3.8c-0.7,0.9-1.8,1.4-3.1,1.4
				c-0.7,0-1.3-0.1-1.8-0.4c-0.5-0.2-1-0.6-1.4-1.1h-0.1l-0.3,1.3h-1.1v-14.3h1.5v3.5c0,0.8,0,1.5-0.1,2.1h0.1
				C132.4,110.4,133.4,109.9,134.8,109.9z M134.6,111.2c-1,0-1.8,0.3-2.2,0.9c-0.5,0.6-0.7,1.6-0.7,3s0.2,2.4,0.7,3s1.2,0.9,2.3,0.9
				c0.9,0,1.6-0.3,2.1-1s0.7-1.7,0.7-2.9c0-1.3-0.2-2.3-0.7-2.9C136.3,111.5,135.6,111.2,134.6,111.2z"/>
			<path class="st37" d="M143.2,120.1h-1.5v-14.3h1.5V120.1z"/>
			<path class="st37" d="M150.6,120.3c-1.5,0-2.7-0.5-3.5-1.4c-0.9-0.9-1.3-2.2-1.3-3.8c0-1.6,0.4-2.9,1.2-3.9
				c0.8-1,1.9-1.4,3.2-1.4c1.3,0,2.3,0.4,3,1.2c0.7,0.8,1.1,1.9,1.1,3.3v1h-6.9c0,1.2,0.3,2.1,0.9,2.7s1.4,0.9,2.4,0.9
				c1.1,0,2.1-0.2,3.2-0.7v1.4c-0.5,0.2-1,0.4-1.5,0.5C151.9,120.3,151.3,120.3,150.6,120.3z M150.2,111.2c-0.8,0-1.4,0.3-1.9,0.8
				c-0.5,0.5-0.8,1.3-0.8,2.2h5.2c0-1-0.2-1.7-0.6-2.2C151.6,111.4,151,111.2,150.2,111.2z"/>
			<path class="st37" d="M55.7,132.4c0.4,0,0.8,0,1.2,0.1l-0.2,1.4c-0.4-0.1-0.8-0.1-1.1-0.1c-0.8,0-1.5,0.3-2.1,1
				c-0.6,0.7-0.9,1.5-0.9,2.5v5.4h-1.5v-10h1.3l0.2,1.9h0.1c0.4-0.7,0.8-1.2,1.3-1.5C54.5,132.6,55.1,132.4,55.7,132.4z"/>
			<path class="st37" d="M67.4,137.6c0,1.6-0.4,2.9-1.2,3.8c-0.8,0.9-2,1.4-3.4,1.4c-0.9,0-1.7-0.2-2.4-0.6c-0.7-0.4-1.2-1-1.6-1.8
				c-0.4-0.8-0.6-1.7-0.6-2.8c0-1.6,0.4-2.9,1.2-3.8c0.8-0.9,2-1.4,3.4-1.4c1.4,0,2.5,0.5,3.3,1.4C67,134.8,67.4,136,67.4,137.6z
				 M59.8,137.6c0,1.3,0.3,2.3,0.8,2.9c0.5,0.7,1.3,1,2.3,1s1.8-0.3,2.3-1c0.5-0.7,0.8-1.6,0.8-2.9c0-1.3-0.3-2.2-0.8-2.9
				c-0.5-0.7-1.3-1-2.3-1c-1,0-1.7,0.3-2.3,1S59.8,136.3,59.8,137.6z"/>
			<path class="st37" d="M78.8,137.6c0,1.6-0.4,2.9-1.2,3.8c-0.8,0.9-2,1.4-3.4,1.4c-0.9,0-1.7-0.2-2.4-0.6c-0.7-0.4-1.2-1-1.6-1.8
				c-0.4-0.8-0.6-1.7-0.6-2.8c0-1.6,0.4-2.9,1.2-3.8c0.8-0.9,2-1.4,3.4-1.4c1.4,0,2.5,0.5,3.3,1.4C78.3,134.8,78.8,136,78.8,137.6z
				 M71.1,137.6c0,1.3,0.3,2.3,0.8,2.9c0.5,0.7,1.3,1,2.3,1s1.8-0.3,2.3-1c0.5-0.7,0.8-1.6,0.8-2.9c0-1.3-0.3-2.2-0.8-2.9
				c-0.5-0.7-1.3-1-2.3-1c-1,0-1.7,0.3-2.3,1S71.1,136.3,71.1,137.6z"/>
			<path class="st37" d="M85.9,133.8h-2.6v8.9h-1.5v-8.9h-1.8v-0.7l1.8-0.5V132c0-2.5,1.1-3.7,3.2-3.7c0.5,0,1.2,0.1,1.9,0.3
				l-0.4,1.2c-0.6-0.2-1.1-0.3-1.5-0.3c-0.6,0-1,0.2-1.3,0.6c-0.3,0.4-0.4,1-0.4,1.8v0.7h2.6V133.8z"/>
		</g>
	</g>
	<path class="st39" d="M546.3,336.9H19.1c-3.3,0-6-2.7-6-6v-53.3c0-3.3,2.7-6,6-6h527.2c3.3,0,6,2.7,6,6v53.3
		C552.3,334.2,549.6,336.9,546.3,336.9z"/>
	<g>
		<path class="st37" d="M42.5,304.6c-0.7,0-1.3-0.1-1.8-0.2v-2.5c0.5,0.1,1,0.2,1.4,0.2c0.7,0,1.1-0.2,1.4-0.6s0.4-1.1,0.4-1.9
			v-13.4h3v13.4c0,1.7-0.4,2.9-1.1,3.8S43.9,304.6,42.5,304.6z"/>
		<path class="st37" d="M60.3,295c0,1.8-0.5,3.2-1.4,4.2s-2.2,1.5-3.9,1.5c-1,0-2-0.2-2.8-0.7s-1.4-1.1-1.8-2s-0.6-1.9-0.6-3
			c0-1.8,0.5-3.2,1.4-4.2s2.2-1.5,3.9-1.5c1,0,2,0.2,2.8,0.7s1.4,1.1,1.8,2S60.3,293.8,60.3,295z M52.7,295c0,1.1,0.2,1.9,0.5,2.5
			s0.9,0.8,1.7,0.8c0.8,0,1.4-0.3,1.7-0.8s0.5-1.4,0.5-2.5c0-1.1-0.2-1.9-0.5-2.4s-0.9-0.8-1.7-0.8c-0.8,0-1.4,0.3-1.7,0.8
			S52.7,293.9,52.7,295z"/>
		<path class="st37" d="M62.6,286.7c0-1,0.5-1.5,1.6-1.5s1.6,0.5,1.6,1.5c0,0.5-0.1,0.8-0.4,1.1s-0.7,0.4-1.2,0.4
			C63.1,288.2,62.6,287.7,62.6,286.7z M65.7,300.4h-3v-10.9h3V300.4z"/>
		<path class="st37" d="M76.4,297.2c0,1.1-0.4,2-1.2,2.6s-1.9,0.9-3.5,0.9c-0.8,0-1.5-0.1-2-0.2s-1.1-0.3-1.6-0.5v-2.5
			c0.6,0.3,1.2,0.5,1.9,0.7s1.3,0.3,1.8,0.3c1.1,0,1.6-0.3,1.6-0.9c0-0.2-0.1-0.4-0.2-0.6s-0.4-0.3-0.7-0.5s-0.8-0.4-1.4-0.6
			c-0.8-0.4-1.5-0.7-1.9-1s-0.7-0.6-0.9-1s-0.3-0.9-0.3-1.4c0-1,0.4-1.7,1.1-2.3s1.8-0.8,3.2-0.8c1.3,0,2.6,0.3,3.8,0.9l-0.9,2.1
			c-0.5-0.2-1.1-0.4-1.5-0.6s-1-0.2-1.5-0.2c-0.9,0-1.3,0.2-1.3,0.7c0,0.3,0.1,0.5,0.4,0.7s0.9,0.5,1.9,0.9c0.9,0.3,1.5,0.7,1.9,1
			s0.7,0.6,0.9,1S76.4,296.7,76.4,297.2z"/>
		<path class="st37" d="M83.4,298.3c0.5,0,1.1-0.1,1.9-0.3v2.2c-0.7,0.3-1.7,0.5-2.7,0.5c-1.2,0-2.1-0.3-2.6-0.9s-0.8-1.5-0.8-2.7
			v-5.3h-1.4v-1.3l1.6-1l0.9-2.3h1.9v2.3h3.1v2.2h-3.1v5.3c0,0.4,0.1,0.7,0.4,0.9S83,298.3,83.4,298.3z"/>
		<path class="st37" d="M92.4,300.6c-1.8,0-3.1-0.5-4.1-1.5s-1.5-2.3-1.5-4.1c0-1.8,0.5-3.2,1.4-4.2s2.2-1.5,3.8-1.5
			c1.5,0,2.7,0.4,3.6,1.3s1.3,2.1,1.3,3.6v1.4h-7c0,0.8,0.3,1.5,0.8,2s1.1,0.7,2,0.7c0.7,0,1.3-0.1,1.9-0.2s1.2-0.4,1.8-0.7v2.3
			c-0.5,0.3-1.1,0.5-1.7,0.6S93.2,300.6,92.4,300.6z M92,291.4c-0.6,0-1.1,0.2-1.5,0.6s-0.6,1-0.6,1.7H94c0-0.7-0.2-1.3-0.6-1.7
			S92.6,291.4,92,291.4z"/>
		<path class="st37" d="M102.7,300.6c-1.3,0-2.3-0.5-3-1.5s-1.1-2.4-1.1-4.1c0-1.8,0.4-3.2,1.1-4.2s1.8-1.5,3.1-1.5
			c1.4,0,2.4,0.5,3.1,1.6h0.1c-0.1-0.8-0.2-1.5-0.2-2.2v-3.5h3v15.2h-2.3l-0.6-1.4h-0.1C105.1,300.1,104.1,300.6,102.7,300.6z
			 M103.8,298.3c0.8,0,1.3-0.2,1.7-0.7s0.5-1.2,0.6-2.3V295c0-1.2-0.2-2-0.5-2.5s-0.9-0.8-1.8-0.8c-0.7,0-1.2,0.3-1.5,0.8
			s-0.6,1.4-0.6,2.5s0.2,1.9,0.6,2.4S103.1,298.3,103.8,298.3z"/>
		<path class="st37" d="M126.9,300.4h-3v-6.4c0-0.8-0.1-1.4-0.4-1.8s-0.7-0.6-1.2-0.6c-0.8,0-1.3,0.3-1.7,0.8s-0.5,1.5-0.5,2.8v5.1
			h-3v-10.9h2.3l0.4,1.4h0.2c0.3-0.5,0.7-0.9,1.3-1.2s1.2-0.4,1.9-0.4c1.6,0,2.7,0.5,3.3,1.6h0.3c0.3-0.5,0.7-0.9,1.3-1.2
			s1.2-0.4,1.9-0.4c1.2,0,2.2,0.3,2.8,1s1,1.7,1,3.1v7.1h-3v-6.4c0-0.8-0.1-1.4-0.4-1.8s-0.7-0.6-1.2-0.6c-0.7,0-1.3,0.3-1.6,0.8
			s-0.5,1.3-0.5,2.5V300.4z"/>
		<path class="st37" d="M143.7,300.4l-0.6-1.5H143c-0.5,0.6-1,1.1-1.5,1.3s-1.2,0.4-2.1,0.4c-1,0-1.9-0.3-2.5-0.9s-0.9-1.5-0.9-2.6
			c0-1.2,0.4-2,1.2-2.6s2-0.9,3.7-0.9l1.9-0.1v-0.5c0-1.1-0.6-1.7-1.7-1.7c-0.9,0-1.9,0.3-3.1,0.8l-1-2c1.3-0.7,2.6-1,4.2-1
			c1.5,0,2.6,0.3,3.4,1s1.2,1.6,1.2,2.9v7.3H143.7z M142.8,295.4l-1.2,0c-0.9,0-1.5,0.2-1.9,0.5s-0.6,0.7-0.6,1.3
			c0,0.8,0.5,1.3,1.4,1.3c0.7,0,1.2-0.2,1.7-0.6s0.6-0.9,0.6-1.6V295.4z"/>
		<path class="st37" d="M156.5,297.2c0,1.1-0.4,2-1.2,2.6s-1.9,0.9-3.5,0.9c-0.8,0-1.5-0.1-2-0.2s-1.1-0.3-1.6-0.5v-2.5
			c0.6,0.3,1.2,0.5,1.9,0.7s1.3,0.3,1.8,0.3c1.1,0,1.6-0.3,1.6-0.9c0-0.2-0.1-0.4-0.2-0.6s-0.4-0.3-0.7-0.5s-0.8-0.4-1.4-0.6
			c-0.8-0.4-1.5-0.7-1.9-1s-0.7-0.6-0.9-1s-0.3-0.9-0.3-1.4c0-1,0.4-1.7,1.1-2.3s1.8-0.8,3.2-0.8c1.3,0,2.6,0.3,3.8,0.9l-0.9,2.1
			c-0.5-0.2-1.1-0.4-1.5-0.6s-1-0.2-1.5-0.2c-0.9,0-1.3,0.2-1.3,0.7c0,0.3,0.1,0.5,0.4,0.7s0.9,0.5,1.9,0.9c0.9,0.3,1.5,0.7,1.9,1
			s0.7,0.6,0.9,1S156.5,296.7,156.5,297.2z"/>
		<path class="st37" d="M168.7,295c0,1.8-0.5,3.2-1.4,4.2s-2.2,1.5-3.9,1.5c-1,0-2-0.2-2.8-0.7s-1.4-1.1-1.8-2s-0.6-1.9-0.6-3
			c0-1.8,0.5-3.2,1.4-4.2s2.2-1.5,3.9-1.5c1,0,2,0.2,2.8,0.7s1.4,1.1,1.8,2S168.7,293.8,168.7,295z M161.1,295
			c0,1.1,0.2,1.9,0.5,2.5s0.9,0.8,1.7,0.8c0.8,0,1.4-0.3,1.7-0.8s0.5-1.4,0.5-2.5c0-1.1-0.2-1.9-0.5-2.4s-0.9-0.8-1.7-0.8
			c-0.8,0-1.4,0.3-1.7,0.8S161.1,293.9,161.1,295z"/>
		<path class="st37" d="M181.2,300.4h-3v-6.4c0-0.8-0.1-1.4-0.4-1.8s-0.7-0.6-1.3-0.6c-0.8,0-1.4,0.3-1.8,0.8s-0.6,1.5-0.6,2.8v5.1
			h-3v-10.9h2.3l0.4,1.4h0.2c0.3-0.5,0.8-0.9,1.4-1.2s1.2-0.4,2-0.4c1.3,0,2.2,0.3,2.9,1s1,1.7,1,3V300.4z"/>
		<path class="st37" d="M190.4,289.3c0.4,0,0.7,0,1,0.1l-0.2,2.8c-0.2-0.1-0.5-0.1-0.9-0.1c-1,0-1.7,0.2-2.2,0.7s-0.8,1.2-0.8,2.1
			v5.6h-3v-10.9h2.3l0.4,1.8h0.1c0.3-0.6,0.8-1.1,1.4-1.5S189.7,289.3,190.4,289.3z"/>
		<path class="st37" d="M191.8,289.5h3.3l2.1,6.1c0.2,0.5,0.3,1.2,0.4,1.9h0.1c0.1-0.7,0.2-1.3,0.4-1.9l2-6.1h3.2l-4.6,12.3
			c-0.4,1.1-1,2-1.8,2.6s-1.7,0.8-2.7,0.8c-0.5,0-1-0.1-1.5-0.2v-2.4c0.4,0.1,0.7,0.1,1.2,0.1c0.5,0,1-0.2,1.4-0.5s0.7-0.8,0.9-1.5
			l0.2-0.5L191.8,289.5z"/>
		<path class="st37" d="M204.3,291c0-0.5,0.1-1,0.4-1.2s0.7-0.4,1.3-0.4c0.5,0,1,0.1,1.3,0.4s0.4,0.7,0.4,1.2c0,0.5-0.2,0.9-0.5,1.2
			s-0.7,0.4-1.2,0.4c-0.5,0-1-0.1-1.3-0.4S204.3,291.5,204.3,291z M204.3,299c0-0.5,0.1-1,0.4-1.2s0.7-0.4,1.3-0.4
			c0.5,0,1,0.1,1.3,0.4s0.4,0.7,0.4,1.2c0,0.5-0.1,0.9-0.4,1.2s-0.7,0.4-1.2,0.4c-0.5,0-1-0.1-1.3-0.4S204.3,299.6,204.3,299z"/>
		<path class="st37" d="M216,300.4v-14.3h2.3v12.3h6v2H216z"/>
		<path class="st37" d="M236.2,295c0,1.8-0.5,3.1-1.4,4.1s-2.2,1.5-3.8,1.5c-1,0-1.9-0.2-2.7-0.7s-1.4-1.1-1.8-2s-0.6-1.8-0.6-3
			c0-1.8,0.4-3.1,1.3-4.1s2.2-1.5,3.8-1.5c1.6,0,2.8,0.5,3.7,1.5S236.2,293.3,236.2,295z M228.3,295c0,2.5,0.9,3.7,2.8,3.7
			c1.8,0,2.7-1.2,2.7-3.7c0-2.5-0.9-3.7-2.8-3.7c-1,0-1.7,0.3-2.1,1S228.3,293.8,228.3,295z"/>
		<path class="st37" d="M247.7,300.4l-1.4-5c-0.2-0.5-0.5-1.8-0.9-3.7h-0.1c-0.4,1.8-0.7,3-0.9,3.7l-1.4,5h-2.5l-3-10.8h2.3l1.4,5.3
			c0.3,1.3,0.5,2.4,0.7,3.4h0.1c0.1-0.5,0.2-1,0.3-1.6s0.2-1.1,0.3-1.4l1.6-5.7h2.5l1.6,5.7c0.1,0.3,0.2,0.8,0.4,1.5
			s0.2,1.2,0.3,1.5h0.1c0.1-0.8,0.3-1.9,0.7-3.4l1.4-5.3h2.3l-3,10.8H247.7z"/>
		<path class="st37" d="M265.8,289.4c0.5,0,0.8,0,1.1,0.1l-0.2,2.1c-0.3-0.1-0.7-0.1-1-0.1c-0.9,0-1.7,0.3-2.2,0.9s-0.9,1.4-0.9,2.3
			v5.6h-2.3v-10.8h1.8l0.3,1.9h0.1c0.4-0.6,0.8-1.2,1.4-1.5S265.1,289.4,265.8,289.4z"/>
		<path class="st37" d="M268.8,286.8c0-0.4,0.1-0.7,0.3-0.9s0.5-0.3,1-0.3c0.4,0,0.7,0.1,0.9,0.3s0.3,0.5,0.3,0.9
			c0,0.4-0.1,0.7-0.3,0.9s-0.5,0.3-0.9,0.3c-0.4,0-0.7-0.1-1-0.3S268.8,287.2,268.8,286.8z M271.2,300.4H269v-10.8h2.3V300.4z"/>
		<path class="st37" d="M281.8,297.4c0,1.1-0.4,1.9-1.2,2.4s-1.9,0.8-3.3,0.8c-1.4,0-2.6-0.2-3.5-0.7v-2c1.3,0.6,2.5,0.9,3.5,0.9
			c1.4,0,2.1-0.4,2.1-1.3c0-0.3-0.1-0.5-0.2-0.7s-0.4-0.4-0.8-0.6s-0.9-0.4-1.5-0.7c-1.2-0.5-2.1-1-2.5-1.4s-0.7-1.1-0.7-1.9
			c0-0.9,0.4-1.6,1.1-2.2s1.8-0.8,3-0.8c1.3,0,2.5,0.3,3.6,0.8l-0.7,1.7c-1.2-0.5-2.1-0.7-2.9-0.7c-1.2,0-1.8,0.3-1.8,1
			c0,0.3,0.2,0.6,0.5,0.9s1,0.6,2.1,1c0.9,0.3,1.5,0.7,1.9,0.9s0.7,0.6,0.9,1S281.8,296.8,281.8,297.4z"/>
		<path class="st37" d="M289,300.6c-1.7,0-3-0.5-3.9-1.5s-1.4-2.3-1.4-4c0-1.8,0.4-3.2,1.3-4.2s2.1-1.5,3.6-1.5
			c1.4,0,2.6,0.4,3.4,1.3c0.8,0.9,1.2,2.1,1.2,3.6v1.2H286c0,1,0.3,1.9,0.8,2.4c0.5,0.6,1.3,0.8,2.3,0.8c0.6,0,1.2-0.1,1.8-0.2
			c0.5-0.1,1.1-0.3,1.8-0.6v1.9c-0.6,0.3-1.1,0.5-1.7,0.6C290.4,300.6,289.7,300.6,289,300.6z M288.6,291.2c-0.7,0-1.3,0.2-1.8,0.7
			s-0.7,1.1-0.8,2h4.9c0-0.9-0.2-1.6-0.6-2C289.9,291.4,289.3,291.2,288.6,291.2z"/>
		<path class="st37" d="M306.5,289.4c1.3,0,2.4,0.5,3.1,1.5s1.1,2.3,1.1,4.1c0,1.8-0.4,3.1-1.1,4.1s-1.8,1.5-3.2,1.5
			c-1.4,0-2.4-0.5-3.2-1.5h-0.2l-0.4,1.3H301v-15.2h2.3v3.6c0,0.3,0,0.7,0,1.2c0,0.5,0,0.9-0.1,1h0.1
			C304,290,305.1,289.4,306.5,289.4z M305.9,291.3c-0.9,0-1.6,0.3-2,0.8c-0.4,0.5-0.6,1.5-0.6,2.7v0.2c0,1.3,0.2,2.3,0.6,2.9
			c0.4,0.6,1.1,0.9,2,0.9c0.8,0,1.4-0.3,1.9-1s0.6-1.6,0.6-2.8C308.4,292.5,307.6,291.3,305.9,291.3z"/>
		<path class="st37" d="M318.9,289.4c0.5,0,0.8,0,1.1,0.1l-0.2,2.1c-0.3-0.1-0.7-0.1-1-0.1c-0.9,0-1.7,0.3-2.2,0.9
			c-0.6,0.6-0.9,1.4-0.9,2.3v5.6h-2.3v-10.8h1.8l0.3,1.9h0.1c0.4-0.6,0.8-1.2,1.4-1.5S318.3,289.4,318.9,289.4z"/>
		<path class="st37" d="M321.9,286.8c0-0.4,0.1-0.7,0.3-0.9s0.5-0.3,1-0.3c0.4,0,0.7,0.1,0.9,0.3s0.3,0.5,0.3,0.9
			c0,0.4-0.1,0.7-0.3,0.9s-0.5,0.3-0.9,0.3c-0.4,0-0.7-0.1-1-0.3S321.9,287.2,321.9,286.8z M324.4,300.4h-2.3v-10.8h2.3V300.4z"/>
		<path class="st37" d="M332,300.6c-1.6,0-2.9-0.5-3.7-1.4s-1.3-2.3-1.3-4.1c0-1.8,0.4-3.2,1.3-4.2s2.2-1.5,3.9-1.5
			c1.1,0,2.2,0.2,3.1,0.6l-0.7,1.8c-1-0.4-1.8-0.6-2.4-0.6c-1.9,0-2.8,1.2-2.8,3.7c0,1.2,0.2,2.1,0.7,2.7c0.5,0.6,1.1,0.9,2,0.9
			c1,0,2-0.3,2.9-0.8v2c-0.4,0.2-0.8,0.4-1.3,0.5C333.2,300.6,332.7,300.6,332,300.6z"/>
		<path class="st37" d="M339.8,294.7l1.3-1.6l3.3-3.5h2.6l-4.3,4.6l4.6,6.2h-2.7l-3.5-4.7l-1.3,1v3.7h-2.3v-15.2h2.3v7.4
			L339.8,294.7L339.8,294.7z"/>
		<path class="st37" d="M363.8,295c0,1.8-0.5,3.1-1.4,4.1c-0.9,1-2.2,1.5-3.8,1.5c-1,0-1.9-0.2-2.7-0.7c-0.8-0.5-1.4-1.1-1.8-2
			c-0.4-0.9-0.6-1.8-0.6-3c0-1.8,0.4-3.1,1.3-4.1s2.2-1.5,3.8-1.5c1.6,0,2.8,0.5,3.7,1.5C363.3,292,363.8,293.3,363.8,295z
			 M355.9,295c0,2.5,0.9,3.7,2.8,3.7c1.8,0,2.7-1.2,2.7-3.7c0-2.5-0.9-3.7-2.8-3.7c-1,0-1.7,0.3-2.1,1
			C356.1,292.9,355.9,293.8,355.9,295z"/>
		<path class="st37" d="M371.9,289.4c0.5,0,0.8,0,1.1,0.1l-0.2,2.1c-0.3-0.1-0.7-0.1-1-0.1c-0.9,0-1.7,0.3-2.2,0.9
			c-0.6,0.6-0.9,1.4-0.9,2.3v5.6h-2.3v-10.8h1.8l0.3,1.9h0.1c0.4-0.6,0.8-1.2,1.4-1.5S371.2,289.4,371.9,289.4z"/>
		<path class="st37" d="M384.6,300.6c-1.6,0-2.9-0.5-3.7-1.4s-1.3-2.3-1.3-4.1c0-1.8,0.4-3.2,1.3-4.2s2.2-1.5,3.9-1.5
			c1.1,0,2.2,0.2,3.1,0.6l-0.7,1.8c-1-0.4-1.8-0.6-2.4-0.6c-1.9,0-2.8,1.2-2.8,3.7c0,1.2,0.2,2.1,0.7,2.7c0.5,0.6,1.1,0.9,2,0.9
			c1,0,2-0.3,2.9-0.8v2c-0.4,0.2-0.8,0.4-1.3,0.5C385.8,300.6,385.2,300.6,384.6,300.6z"/>
		<path class="st37" d="M399.7,295c0,1.8-0.5,3.1-1.4,4.1c-0.9,1-2.2,1.5-3.8,1.5c-1,0-1.9-0.2-2.7-0.7c-0.8-0.5-1.4-1.1-1.8-2
			c-0.4-0.9-0.6-1.8-0.6-3c0-1.8,0.4-3.1,1.3-4.1s2.2-1.5,3.8-1.5c1.6,0,2.8,0.5,3.7,1.5C399.2,292,399.7,293.3,399.7,295z
			 M391.8,295c0,2.5,0.9,3.7,2.8,3.7c1.8,0,2.7-1.2,2.7-3.7c0-2.5-0.9-3.7-2.8-3.7c-1,0-1.7,0.3-2.1,1
			C392,292.9,391.8,293.8,391.8,295z"/>
		<path class="st37" d="M411.8,300.4h-2.3v-6.6c0-0.8-0.2-1.5-0.5-1.9c-0.3-0.4-0.9-0.6-1.6-0.6c-1,0-1.7,0.3-2.1,0.9
			s-0.7,1.5-0.7,2.9v5.4h-2.3v-10.8h1.8l0.3,1.4h0.1c0.3-0.5,0.8-0.9,1.4-1.2c0.6-0.3,1.3-0.4,2-0.4c2.6,0,3.9,1.3,3.9,4V300.4z"/>
		<path class="st37" d="M419.4,300.6c-1.6,0-2.9-0.5-3.7-1.4s-1.3-2.3-1.3-4.1c0-1.8,0.4-3.2,1.3-4.2s2.2-1.5,3.9-1.5
			c1.1,0,2.2,0.2,3.1,0.6l-0.7,1.8c-1-0.4-1.8-0.6-2.4-0.6c-1.9,0-2.8,1.2-2.8,3.7c0,1.2,0.2,2.1,0.7,2.7c0.5,0.6,1.1,0.9,2,0.9
			c1,0,2-0.3,2.9-0.8v2c-0.4,0.2-0.8,0.4-1.3,0.5C420.6,300.6,420,300.6,419.4,300.6z"/>
		<path class="st37" d="M430.4,289.4c0.5,0,0.8,0,1.1,0.1l-0.2,2.1c-0.3-0.1-0.7-0.1-1-0.1c-0.9,0-1.7,0.3-2.2,0.9
			c-0.6,0.6-0.9,1.4-0.9,2.3v5.6h-2.3v-10.8h1.8l0.3,1.9h0.1c0.4-0.6,0.8-1.2,1.4-1.5S429.7,289.4,430.4,289.4z"/>
		<path class="st37" d="M438.3,300.6c-1.7,0-3-0.5-3.9-1.5s-1.4-2.3-1.4-4c0-1.8,0.4-3.2,1.3-4.2s2.1-1.5,3.6-1.5
			c1.4,0,2.6,0.4,3.4,1.3c0.8,0.9,1.2,2.1,1.2,3.6v1.2h-7.2c0,1,0.3,1.9,0.8,2.4c0.5,0.6,1.3,0.8,2.3,0.8c0.6,0,1.2-0.1,1.8-0.2
			c0.5-0.1,1.1-0.3,1.8-0.6v1.9c-0.6,0.3-1.1,0.5-1.7,0.6C439.7,300.6,439,300.6,438.3,300.6z M437.8,291.2c-0.7,0-1.3,0.2-1.8,0.7
			s-0.7,1.1-0.8,2h4.9c0-0.9-0.2-1.6-0.6-2C439.2,291.4,438.6,291.2,437.8,291.2z"/>
		<path class="st37" d="M449.1,298.8c0.6,0,1.1-0.1,1.7-0.3v1.7c-0.3,0.1-0.6,0.2-1,0.3s-0.8,0.1-1.2,0.1c-2.2,0-3.3-1.1-3.3-3.4
			v-5.8h-1.5v-1l1.6-0.8l0.8-2.3h1.4v2.4h3.1v1.7h-3.1v5.8c0,0.6,0.1,1,0.4,1.2C448.3,298.6,448.6,298.8,449.1,298.8z"/>
		<path class="st37" d="M457.7,300.6c-1.7,0-3-0.5-3.9-1.5s-1.4-2.3-1.4-4c0-1.8,0.4-3.2,1.3-4.2s2.1-1.5,3.6-1.5
			c1.4,0,2.6,0.4,3.4,1.3c0.8,0.9,1.2,2.1,1.2,3.6v1.2h-7.2c0,1,0.3,1.9,0.8,2.4c0.5,0.6,1.3,0.8,2.3,0.8c0.6,0,1.2-0.1,1.8-0.2
			c0.5-0.1,1.1-0.3,1.8-0.6v1.9c-0.6,0.3-1.1,0.5-1.7,0.6C459,300.6,458.4,300.6,457.7,300.6z M457.2,291.2c-0.7,0-1.3,0.2-1.8,0.7
			s-0.7,1.1-0.8,2h4.9c0-0.9-0.2-1.6-0.6-2C458.5,291.4,458,291.2,457.2,291.2z"/>
		<path class="st37" d="M475.2,289.4c1.3,0,2.4,0.5,3.1,1.5s1.1,2.3,1.1,4.1c0,1.8-0.4,3.1-1.1,4.1s-1.8,1.5-3.2,1.5
			c-1.4,0-2.4-0.5-3.2-1.5h-0.2l-0.4,1.3h-1.7v-15.2h2.3v3.6c0,0.3,0,0.7,0,1.2c0,0.5,0,0.9-0.1,1h0.1
			C472.7,290,473.8,289.4,475.2,289.4z M474.6,291.3c-0.9,0-1.6,0.3-2,0.8c-0.4,0.5-0.6,1.5-0.6,2.7v0.2c0,1.3,0.2,2.3,0.6,2.9
			c0.4,0.6,1.1,0.9,2,0.9c0.8,0,1.4-0.3,1.9-1s0.6-1.6,0.6-2.8C477.1,292.5,476.3,291.3,474.6,291.3z"/>
		<path class="st37" d="M484.4,300.4h-2.3v-15.2h2.3V300.4z"/>
		<path class="st37" d="M497.3,295c0,1.8-0.5,3.1-1.4,4.1c-0.9,1-2.2,1.5-3.8,1.5c-1,0-1.9-0.2-2.7-0.7c-0.8-0.5-1.4-1.1-1.8-2
			c-0.4-0.9-0.6-1.8-0.6-3c0-1.8,0.4-3.1,1.3-4.1s2.2-1.5,3.8-1.5c1.6,0,2.8,0.5,3.7,1.5C496.8,292,497.3,293.3,497.3,295z
			 M489.4,295c0,2.5,0.9,3.7,2.8,3.7c1.8,0,2.7-1.2,2.7-3.7c0-2.5-0.9-3.7-2.8-3.7c-1,0-1.7,0.3-2.1,1
			C489.6,292.9,489.4,293.8,489.4,295z"/>
		<path class="st37" d="M504.3,300.6c-1.6,0-2.9-0.5-3.7-1.4s-1.3-2.3-1.3-4.1c0-1.8,0.4-3.2,1.3-4.2s2.2-1.5,3.9-1.5
			c1.1,0,2.2,0.2,3.1,0.6l-0.7,1.8c-1-0.4-1.8-0.6-2.4-0.6c-1.9,0-2.8,1.2-2.8,3.7c0,1.2,0.2,2.1,0.7,2.7c0.5,0.6,1.1,0.9,2,0.9
			c1,0,2-0.3,2.9-0.8v2c-0.4,0.2-0.8,0.4-1.3,0.5C505.5,300.6,504.9,300.6,504.3,300.6z"/>
		<path class="st37" d="M512,294.7l1.3-1.6l3.3-3.5h2.6l-4.3,4.6l4.6,6.2h-2.7l-3.5-4.7l-1.3,1v3.7h-2.3v-15.2h2.3v7.4L512,294.7
			L512,294.7z"/>
		<path class="st37" d="M42.5,324.6c-1.6,0-2.9-0.5-3.7-1.4s-1.3-2.3-1.3-4.1c0-1.8,0.4-3.2,1.3-4.2s2.2-1.5,3.9-1.5
			c1.1,0,2.2,0.2,3.1,0.6l-0.7,1.8c-1-0.4-1.8-0.6-2.4-0.6c-1.9,0-2.8,1.2-2.8,3.7c0,1.2,0.2,2.1,0.7,2.7s1.1,0.9,2,0.9
			c1,0,2-0.3,2.9-0.8v2c-0.4,0.2-0.8,0.4-1.3,0.5S43.2,324.6,42.5,324.6z"/>
		<path class="st37" d="M57.6,319c0,1.8-0.5,3.1-1.4,4.1s-2.2,1.5-3.8,1.5c-1,0-1.9-0.2-2.7-0.7s-1.4-1.1-1.8-2s-0.6-1.8-0.6-3
			c0-1.8,0.4-3.1,1.3-4.1s2.2-1.5,3.8-1.5c1.6,0,2.8,0.5,3.7,1.5S57.6,317.3,57.6,319z M49.8,319c0,2.5,0.9,3.7,2.8,3.7
			c1.8,0,2.7-1.2,2.7-3.7c0-2.5-0.9-3.7-2.8-3.7c-1,0-1.7,0.3-2.1,1S49.8,317.8,49.8,319z"/>
		<path class="st37" d="M69.8,324.4h-2.3v-6.6c0-0.8-0.2-1.5-0.5-1.9s-0.9-0.6-1.6-0.6c-1,0-1.7,0.3-2.1,0.9s-0.7,1.5-0.7,2.9v5.4
			h-2.3v-10.8h1.8l0.3,1.4h0.1c0.3-0.5,0.8-0.9,1.4-1.2s1.3-0.4,2-0.4c2.6,0,3.9,1.3,3.9,4V324.4z"/>
		<path class="st37" d="M80.2,321.4c0,1.1-0.4,1.9-1.2,2.4s-1.9,0.8-3.3,0.8c-1.4,0-2.6-0.2-3.5-0.7v-2c1.3,0.6,2.5,0.9,3.5,0.9
			c1.4,0,2.1-0.4,2.1-1.3c0-0.3-0.1-0.5-0.2-0.7s-0.4-0.4-0.8-0.6s-0.9-0.4-1.5-0.7c-1.2-0.5-2.1-1-2.5-1.4s-0.7-1.1-0.7-1.9
			c0-0.9,0.4-1.6,1.1-2.2s1.8-0.8,3-0.8c1.3,0,2.5,0.3,3.6,0.8l-0.7,1.7c-1.2-0.5-2.1-0.7-2.9-0.7c-1.2,0-1.8,0.3-1.8,1
			c0,0.3,0.2,0.6,0.5,0.9s1,0.6,2.1,1c0.9,0.3,1.5,0.7,1.9,0.9s0.7,0.6,0.9,1S80.2,320.8,80.2,321.4z"/>
		<path class="st37" d="M86.7,322.8c0.6,0,1.1-0.1,1.7-0.3v1.7c-0.3,0.1-0.6,0.2-1,0.3s-0.8,0.1-1.2,0.1c-2.2,0-3.3-1.1-3.3-3.4
			v-5.8h-1.5v-1l1.6-0.8l0.8-2.3h1.4v2.4h3.1v1.7h-3.1v5.8c0,0.6,0.1,1,0.4,1.2S86.3,322.8,86.7,322.8z"/>
		<path class="st37" d="M96,313.4c0.5,0,0.8,0,1.1,0.1l-0.2,2.1c-0.3-0.1-0.7-0.1-1-0.1c-0.9,0-1.7,0.3-2.2,0.9s-0.9,1.4-0.9,2.3
			v5.6h-2.3v-10.8h1.8l0.3,1.9h0.1c0.4-0.6,0.8-1.2,1.4-1.5S95.4,313.4,96,313.4z"/>
		<path class="st37" d="M106.8,324.4l-0.3-1.4h-0.1c-0.3,0.5-0.8,0.9-1.4,1.2s-1.3,0.4-2,0.4c-1.3,0-2.3-0.3-2.9-1s-1-1.6-1-3v-7.1
			h2.3v6.7c0,0.8,0.2,1.4,0.5,1.9s0.9,0.6,1.6,0.6c1,0,1.7-0.3,2.1-0.9s0.7-1.5,0.7-2.9v-5.4h2.3v10.8H106.8z"/>
		<path class="st37" d="M116.2,324.6c-1.6,0-2.9-0.5-3.7-1.4s-1.3-2.3-1.3-4.1c0-1.8,0.4-3.2,1.3-4.2s2.2-1.5,3.9-1.5
			c1.1,0,2.2,0.2,3.1,0.6l-0.7,1.8c-1-0.4-1.8-0.6-2.4-0.6c-1.9,0-2.8,1.2-2.8,3.7c0,1.2,0.2,2.1,0.7,2.7s1.1,0.9,2,0.9
			c1,0,2-0.3,2.9-0.8v2c-0.4,0.2-0.8,0.4-1.3,0.5S116.9,324.6,116.2,324.6z"/>
		<path class="st37" d="M125.8,322.8c0.6,0,1.1-0.1,1.7-0.3v1.7c-0.3,0.1-0.6,0.2-1,0.3s-0.8,0.1-1.2,0.1c-2.2,0-3.3-1.1-3.3-3.4
			v-5.8h-1.5v-1l1.6-0.8l0.8-2.3h1.4v2.4h3.1v1.7h-3.1v5.8c0,0.6,0.1,1,0.4,1.2S125.4,322.8,125.8,322.8z"/>
		<path class="st37" d="M129.5,310.8c0-0.4,0.1-0.7,0.3-0.9s0.5-0.3,1-0.3c0.4,0,0.7,0.1,0.9,0.3s0.3,0.5,0.3,0.9
			c0,0.4-0.1,0.7-0.3,0.9s-0.5,0.3-0.9,0.3c-0.4,0-0.7-0.1-1-0.3S129.5,311.2,129.5,310.8z M131.9,324.4h-2.3v-10.8h2.3V324.4z"/>
		<path class="st37" d="M144.8,319c0,1.8-0.5,3.1-1.4,4.1s-2.2,1.5-3.8,1.5c-1,0-1.9-0.2-2.7-0.7s-1.4-1.1-1.8-2s-0.6-1.8-0.6-3
			c0-1.8,0.4-3.1,1.3-4.1s2.2-1.5,3.8-1.5c1.6,0,2.8,0.5,3.7,1.5S144.8,317.3,144.8,319z M136.9,319c0,2.5,0.9,3.7,2.8,3.7
			c1.8,0,2.7-1.2,2.7-3.7c0-2.5-0.9-3.7-2.8-3.7c-1,0-1.7,0.3-2.1,1S136.9,317.8,136.9,319z"/>
		<path class="st37" d="M156.9,324.4h-2.3v-6.6c0-0.8-0.2-1.5-0.5-1.9s-0.9-0.6-1.6-0.6c-1,0-1.7,0.3-2.1,0.9s-0.7,1.5-0.7,2.9v5.4
			h-2.3v-10.8h1.8l0.3,1.4h0.1c0.3-0.5,0.8-0.9,1.4-1.2s1.3-0.4,2-0.4c2.6,0,3.9,1.3,3.9,4V324.4z"/>
		<path class="st37" d="M159.8,323.2c0-0.5,0.1-0.8,0.4-1.1s0.6-0.4,1.1-0.4c0.5,0,0.8,0.1,1.1,0.4s0.4,0.6,0.4,1.1
			c0,0.5-0.1,0.8-0.4,1.1s-0.6,0.4-1.1,0.4s-0.8-0.1-1.1-0.4S159.8,323.7,159.8,323.2z"/>
		<path class="st37" d="M177.1,312c-1.3,0-2.4,0.5-3.2,1.4s-1.2,2.3-1.2,3.9c0,1.8,0.4,3.1,1.1,4s1.8,1.3,3.2,1.3
			c0.6,0,1.2-0.1,1.8-0.2s1.2-0.3,1.8-0.5v2c-1.1,0.4-2.4,0.6-3.8,0.6c-2.1,0-3.7-0.6-4.8-1.9s-1.7-3.1-1.7-5.4
			c0-1.5,0.3-2.8,0.8-3.9s1.3-2,2.4-2.6s2.2-0.9,3.6-0.9c1.5,0,2.8,0.3,4,0.9l-0.8,1.9c-0.5-0.2-1-0.4-1.5-0.6S177.7,312,177.1,312z
			"/>
		<path class="st37" d="M193.1,319c0,1.8-0.5,3.1-1.4,4.1s-2.2,1.5-3.8,1.5c-1,0-1.9-0.2-2.7-0.7s-1.4-1.1-1.8-2s-0.6-1.8-0.6-3
			c0-1.8,0.4-3.1,1.3-4.1s2.2-1.5,3.8-1.5c1.6,0,2.8,0.5,3.7,1.5S193.1,317.3,193.1,319z M185.2,319c0,2.5,0.9,3.7,2.8,3.7
			c1.8,0,2.7-1.2,2.7-3.7c0-2.5-0.9-3.7-2.8-3.7c-1,0-1.7,0.3-2.1,1S185.2,317.8,185.2,319z"/>
		<path class="st37" d="M203.3,324.4L203,323h-0.1c-0.3,0.5-0.8,0.9-1.4,1.2s-1.3,0.4-2,0.4c-1.3,0-2.3-0.3-2.9-1s-1-1.6-1-3v-7.1
			h2.3v6.7c0,0.8,0.2,1.4,0.5,1.9s0.9,0.6,1.6,0.6c1,0,1.7-0.3,2.1-0.9s0.7-1.5,0.7-2.9v-5.4h2.3v10.8H203.3z"/>
		<path class="st37" d="M210.7,324.4h-2.3v-15.2h2.3V324.4z"/>
		<path class="st37" d="M217.6,324.6c-1.3,0-2.4-0.5-3.2-1.5s-1.1-2.3-1.1-4.1c0-1.8,0.4-3.1,1.1-4.1s1.8-1.5,3.2-1.5
			c1.4,0,2.5,0.5,3.2,1.6h0.1c-0.1-0.8-0.2-1.4-0.2-1.8v-3.9h2.3v15.2h-1.8L221,323h-0.1C220.1,324.1,219.1,324.6,217.6,324.6z
			 M218.2,322.8c0.9,0,1.6-0.3,2.1-0.8s0.7-1.4,0.7-2.6v-0.3c0-1.4-0.2-2.3-0.7-2.9s-1.1-0.9-2.1-0.9c-0.8,0-1.4,0.3-1.9,1
			s-0.7,1.6-0.7,2.8c0,1.2,0.2,2.1,0.6,2.7S217.4,322.8,218.2,322.8z"/>
		<path class="st37" d="M237.2,313.4c1.3,0,2.4,0.5,3.1,1.5s1.1,2.3,1.1,4.1c0,1.8-0.4,3.1-1.1,4.1s-1.8,1.5-3.2,1.5
			c-1.4,0-2.4-0.5-3.2-1.5h-0.2l-0.4,1.3h-1.7v-15.2h2.3v3.6c0,0.3,0,0.7,0,1.2s0,0.9-0.1,1h0.1C234.7,314,235.7,313.4,237.2,313.4z
			 M236.6,315.3c-0.9,0-1.6,0.3-2,0.8s-0.6,1.5-0.6,2.7v0.2c0,1.3,0.2,2.3,0.6,2.9s1.1,0.9,2,0.9c0.8,0,1.4-0.3,1.9-1
			s0.6-1.6,0.6-2.8C239.1,316.5,238.2,315.3,236.6,315.3z"/>
		<path class="st37" d="M248.8,324.6c-1.7,0-3-0.5-3.9-1.5s-1.4-2.3-1.4-4c0-1.8,0.4-3.2,1.3-4.2s2.1-1.5,3.6-1.5
			c1.4,0,2.6,0.4,3.4,1.3s1.2,2.1,1.2,3.6v1.2h-7.2c0,1,0.3,1.9,0.8,2.4s1.3,0.8,2.3,0.8c0.6,0,1.2-0.1,1.8-0.2s1.1-0.3,1.8-0.6v1.9
			c-0.6,0.3-1.1,0.5-1.7,0.6S249.6,324.6,248.8,324.6z M248.4,315.2c-0.7,0-1.3,0.2-1.8,0.7s-0.7,1.1-0.8,2h4.9c0-0.9-0.2-1.6-0.6-2
			S249.1,315.2,248.4,315.2z"/>
		<path class="st37" d="M266.3,313.4c0.5,0,0.8,0,1.1,0.1l-0.2,2.1c-0.3-0.1-0.7-0.1-1-0.1c-0.9,0-1.7,0.3-2.2,0.9s-0.9,1.4-0.9,2.3
			v5.6h-2.3v-10.8h1.8l0.3,1.9h0.1c0.4-0.6,0.8-1.2,1.4-1.5S265.6,313.4,266.3,313.4z"/>
		<path class="st37" d="M274.2,324.6c-1.7,0-3-0.5-3.9-1.5s-1.4-2.3-1.4-4c0-1.8,0.4-3.2,1.3-4.2s2.1-1.5,3.6-1.5
			c1.4,0,2.6,0.4,3.4,1.3s1.2,2.1,1.2,3.6v1.2h-7.2c0,1,0.3,1.9,0.8,2.4s1.3,0.8,2.3,0.8c0.6,0,1.2-0.1,1.8-0.2s1.1-0.3,1.8-0.6v1.9
			c-0.6,0.3-1.1,0.5-1.7,0.6S274.9,324.6,274.2,324.6z M273.7,315.2c-0.7,0-1.3,0.2-1.8,0.7s-0.7,1.1-0.8,2h4.9c0-0.9-0.2-1.6-0.6-2
			S274.5,315.2,273.7,315.2z"/>
		<path class="st37" d="M288.2,321.4c0,1.1-0.4,1.9-1.2,2.4c-0.8,0.6-1.9,0.8-3.3,0.8c-1.4,0-2.6-0.2-3.5-0.7v-2
			c1.3,0.6,2.5,0.9,3.5,0.9c1.4,0,2.1-0.4,2.1-1.3c0-0.3-0.1-0.5-0.2-0.7s-0.4-0.4-0.8-0.6c-0.4-0.2-0.9-0.4-1.5-0.7
			c-1.2-0.5-2.1-1-2.5-1.4s-0.7-1.1-0.7-1.9c0-0.9,0.4-1.6,1.1-2.2s1.8-0.8,3-0.8c1.3,0,2.5,0.3,3.6,0.8l-0.7,1.7
			c-1.2-0.5-2.1-0.7-2.9-0.7c-1.2,0-1.8,0.3-1.8,1c0,0.3,0.2,0.6,0.5,0.9s1,0.6,2.1,1c0.9,0.3,1.5,0.7,1.9,0.9
			c0.4,0.3,0.7,0.6,0.9,1S288.2,320.8,288.2,321.4z"/>
		<path class="st37" d="M290.6,310.8c0-0.4,0.1-0.7,0.3-0.9s0.5-0.3,1-0.3c0.4,0,0.7,0.1,0.9,0.3s0.3,0.5,0.3,0.9
			c0,0.4-0.1,0.7-0.3,0.9s-0.5,0.3-0.9,0.3c-0.4,0-0.7-0.1-1-0.3S290.6,311.2,290.6,310.8z M293,324.4h-2.3v-10.8h2.3V324.4z"/>
		<path class="st37" d="M299.9,324.6c-1.3,0-2.4-0.5-3.2-1.5c-0.8-1-1.1-2.3-1.1-4.1c0-1.8,0.4-3.1,1.1-4.1c0.8-1,1.8-1.5,3.2-1.5
			c1.4,0,2.5,0.5,3.2,1.6h0.1c-0.1-0.8-0.2-1.4-0.2-1.8v-3.9h2.3v15.2h-1.8l-0.4-1.4h-0.1C302.4,324.1,301.3,324.6,299.9,324.6z
			 M300.5,322.8c0.9,0,1.6-0.3,2.1-0.8s0.7-1.4,0.7-2.6v-0.3c0-1.4-0.2-2.3-0.7-2.9c-0.4-0.6-1.1-0.9-2.1-0.9c-0.8,0-1.4,0.3-1.9,1
			c-0.4,0.7-0.7,1.6-0.7,2.8c0,1.2,0.2,2.1,0.6,2.7C299.1,322.5,299.7,322.8,300.5,322.8z"/>
		<path class="st37" d="M313.5,324.6c-1.7,0-3-0.5-3.9-1.5s-1.4-2.3-1.4-4c0-1.8,0.4-3.2,1.3-4.2s2.1-1.5,3.6-1.5
			c1.4,0,2.6,0.4,3.4,1.3c0.8,0.9,1.2,2.1,1.2,3.6v1.2h-7.2c0,1,0.3,1.9,0.8,2.4c0.5,0.6,1.3,0.8,2.3,0.8c0.6,0,1.2-0.1,1.8-0.2
			c0.5-0.1,1.1-0.3,1.8-0.6v1.9c-0.6,0.3-1.1,0.5-1.7,0.6C314.9,324.6,314.2,324.6,313.5,324.6z M313,315.2c-0.7,0-1.3,0.2-1.8,0.7
			s-0.7,1.1-0.8,2h4.9c0-0.9-0.2-1.6-0.6-2C314.3,315.4,313.8,315.2,313,315.2z"/>
		<path class="st37" d="M329.8,324.4h-2.3v-6.6c0-0.8-0.2-1.5-0.5-1.9c-0.3-0.4-0.9-0.6-1.6-0.6c-1,0-1.7,0.3-2.1,0.9
			s-0.7,1.5-0.7,2.9v5.4h-2.3v-10.8h1.8l0.3,1.4h0.1c0.3-0.5,0.8-0.9,1.4-1.2c0.6-0.3,1.3-0.4,2-0.4c2.6,0,3.9,1.3,3.9,4V324.4z"/>
		<path class="st37" d="M337.3,324.6c-1.6,0-2.9-0.5-3.7-1.4s-1.3-2.3-1.3-4.1c0-1.8,0.4-3.2,1.3-4.2s2.2-1.5,3.9-1.5
			c1.1,0,2.2,0.2,3.1,0.6l-0.7,1.8c-1-0.4-1.8-0.6-2.4-0.6c-1.9,0-2.8,1.2-2.8,3.7c0,1.2,0.2,2.1,0.7,2.7c0.5,0.6,1.1,0.9,2,0.9
			c1,0,2-0.3,2.9-0.8v2c-0.4,0.2-0.8,0.4-1.3,0.5C338.5,324.6,338,324.6,337.3,324.6z"/>
		<path class="st37" d="M347.6,324.6c-1.7,0-3-0.5-3.9-1.5s-1.4-2.3-1.4-4c0-1.8,0.4-3.2,1.3-4.2s2.1-1.5,3.6-1.5
			c1.4,0,2.6,0.4,3.4,1.3c0.8,0.9,1.2,2.1,1.2,3.6v1.2h-7.2c0,1,0.3,1.9,0.8,2.4c0.5,0.6,1.3,0.8,2.3,0.8c0.6,0,1.2-0.1,1.8-0.2
			c0.5-0.1,1.1-0.3,1.8-0.6v1.9c-0.6,0.3-1.1,0.5-1.7,0.6C349,324.6,348.3,324.6,347.6,324.6z M347.2,315.2c-0.7,0-1.3,0.2-1.8,0.7
			s-0.7,1.1-0.8,2h4.9c0-0.9-0.2-1.6-0.6-2C348.5,315.4,347.9,315.2,347.2,315.2z"/>
		<path class="st37" d="M369.2,319c0,1.8-0.5,3.1-1.4,4.1c-0.9,1-2.2,1.5-3.8,1.5c-1,0-1.9-0.2-2.7-0.7c-0.8-0.5-1.4-1.1-1.8-2
			c-0.4-0.9-0.6-1.8-0.6-3c0-1.8,0.4-3.1,1.3-4.1s2.2-1.5,3.8-1.5c1.6,0,2.8,0.5,3.7,1.5C368.7,316,369.2,317.3,369.2,319z
			 M361.3,319c0,2.5,0.9,3.7,2.8,3.7c1.8,0,2.7-1.2,2.7-3.7c0-2.5-0.9-3.7-2.8-3.7c-1,0-1.7,0.3-2.1,1
			C361.5,316.9,361.3,317.8,361.3,319z"/>
		<path class="st37" d="M377.3,313.4c0.5,0,0.8,0,1.1,0.1l-0.2,2.1c-0.3-0.1-0.7-0.1-1-0.1c-0.9,0-1.7,0.3-2.2,0.9
			c-0.6,0.6-0.9,1.4-0.9,2.3v5.6h-2.3v-10.8h1.8l0.3,1.9h0.1c0.4-0.6,0.8-1.2,1.4-1.5S376.6,313.4,377.3,313.4z"/>
		<path class="st37" d="M392.9,321.4c0,1.1-0.4,1.9-1.2,2.4c-0.8,0.6-1.9,0.8-3.3,0.8c-1.4,0-2.6-0.2-3.5-0.7v-2
			c1.3,0.6,2.5,0.9,3.5,0.9c1.4,0,2.1-0.4,2.1-1.3c0-0.3-0.1-0.5-0.2-0.7s-0.4-0.4-0.8-0.6c-0.4-0.2-0.9-0.4-1.5-0.7
			c-1.2-0.5-2.1-1-2.5-1.4s-0.7-1.1-0.7-1.9c0-0.9,0.4-1.6,1.1-2.2c0.7-0.5,1.8-0.8,3-0.8c1.3,0,2.5,0.3,3.6,0.8l-0.7,1.7
			c-1.2-0.5-2.1-0.7-2.9-0.7c-1.2,0-1.8,0.3-1.8,1c0,0.3,0.2,0.6,0.5,0.9c0.3,0.2,1,0.6,2.1,1c0.9,0.3,1.5,0.7,1.9,0.9
			c0.4,0.3,0.7,0.6,0.9,1S392.9,320.8,392.9,321.4z"/>
		<path class="st37" d="M404.5,324.4h-2.3v-6.7c0-0.8-0.2-1.4-0.5-1.9s-0.8-0.6-1.5-0.6c-0.9,0-1.5,0.3-1.9,0.9
			c-0.4,0.6-0.6,1.5-0.6,2.9v5.4h-2.3v-10.8h1.8l0.3,1.4h0.1c0.3-0.5,0.7-0.9,1.3-1.2c0.6-0.3,1.2-0.4,1.9-0.4
			c1.7,0,2.8,0.6,3.3,1.7h0.2c0.3-0.5,0.8-1,1.3-1.2c0.6-0.3,1.2-0.4,2-0.4c1.3,0,2.2,0.3,2.8,1c0.6,0.7,0.9,1.6,0.9,3v7H409v-6.7
			c0-0.8-0.2-1.4-0.5-1.9c-0.3-0.4-0.8-0.6-1.5-0.6c-0.9,0-1.5,0.3-2,0.8c-0.4,0.6-0.6,1.4-0.6,2.6V324.4z"/>
		<path class="st37" d="M421.2,324.4l-0.5-1.5h-0.1c-0.5,0.7-1,1.1-1.6,1.3s-1.2,0.4-2,0.4c-1.1,0-1.9-0.3-2.5-0.9s-0.9-1.4-0.9-2.4
			c0-1.1,0.4-2,1.2-2.5c0.8-0.6,2.1-0.9,3.8-0.9l1.9-0.1v-0.6c0-0.7-0.2-1.2-0.5-1.5s-0.8-0.5-1.5-0.5c-0.6,0-1.1,0.1-1.6,0.2
			s-1,0.4-1.5,0.6l-0.7-1.6c0.6-0.3,1.2-0.5,1.9-0.7c0.7-0.2,1.4-0.2,2-0.2c1.4,0,2.4,0.3,3.1,0.9c0.7,0.6,1,1.5,1,2.8v7.3H421.2z
			 M417.8,322.9c0.8,0,1.5-0.2,2-0.7c0.5-0.5,0.8-1.1,0.8-2v-0.9l-1.4,0.1c-1.1,0-1.9,0.2-2.4,0.5c-0.5,0.3-0.7,0.8-0.7,1.5
			c0,0.5,0.1,0.9,0.4,1.1C416.8,322.7,417.2,322.9,417.8,322.9z"/>
		<path class="st37" d="M428.4,324.4h-2.3v-15.2h2.3V324.4z"/>
		<path class="st37" d="M434,324.4h-2.3v-15.2h2.3V324.4z"/>
		<path class="st37" d="M447.9,313.4c1.3,0,2.4,0.5,3.1,1.5s1.1,2.3,1.1,4.1c0,1.8-0.4,3.1-1.1,4.1s-1.8,1.5-3.2,1.5
			c-1.4,0-2.4-0.5-3.2-1.5h-0.2l-0.4,1.3h-1.7v-15.2h2.3v3.6c0,0.3,0,0.7,0,1.2c0,0.5,0,0.9-0.1,1h0.1
			C445.5,314,446.5,313.4,447.9,313.4z M447.4,315.3c-0.9,0-1.6,0.3-2,0.8c-0.4,0.5-0.6,1.5-0.6,2.7v0.2c0,1.3,0.2,2.3,0.6,2.9
			c0.4,0.6,1.1,0.9,2,0.9c0.8,0,1.4-0.3,1.9-1s0.6-1.6,0.6-2.8C449.9,316.5,449,315.3,447.4,315.3z"/>
		<path class="st37" d="M462.5,324.4l-0.3-1.4h-0.1c-0.3,0.5-0.8,0.9-1.4,1.2c-0.6,0.3-1.3,0.4-2,0.4c-1.3,0-2.3-0.3-2.9-1
			s-1-1.6-1-3v-7.1h2.3v6.7c0,0.8,0.2,1.4,0.5,1.9c0.3,0.4,0.9,0.6,1.6,0.6c1,0,1.7-0.3,2.1-0.9c0.5-0.6,0.7-1.5,0.7-2.9v-5.4h2.3
			v10.8H462.5z"/>
		<path class="st37" d="M474.8,321.4c0,1.1-0.4,1.9-1.2,2.4c-0.8,0.6-1.9,0.8-3.3,0.8c-1.4,0-2.6-0.2-3.5-0.7v-2
			c1.3,0.6,2.5,0.9,3.5,0.9c1.4,0,2.1-0.4,2.1-1.3c0-0.3-0.1-0.5-0.2-0.7s-0.4-0.4-0.8-0.6c-0.4-0.2-0.9-0.4-1.5-0.7
			c-1.2-0.5-2.1-1-2.5-1.4s-0.7-1.1-0.7-1.9c0-0.9,0.4-1.6,1.1-2.2c0.7-0.5,1.8-0.8,3-0.8c1.3,0,2.5,0.3,3.6,0.8l-0.7,1.7
			c-1.2-0.5-2.1-0.7-2.9-0.7c-1.2,0-1.8,0.3-1.8,1c0,0.3,0.2,0.6,0.5,0.9c0.3,0.2,1,0.6,2.1,1c0.9,0.3,1.5,0.7,1.9,0.9
			c0.4,0.3,0.7,0.6,0.9,1S474.8,320.8,474.8,321.4z"/>
		<path class="st37" d="M477.2,310.8c0-0.4,0.1-0.7,0.3-0.9s0.5-0.3,1-0.3c0.4,0,0.7,0.1,0.9,0.3s0.3,0.5,0.3,0.9
			c0,0.4-0.1,0.7-0.3,0.9s-0.5,0.3-0.9,0.3c-0.4,0-0.7-0.1-1-0.3S477.2,311.2,477.2,310.8z M479.6,324.4h-2.3v-10.8h2.3V324.4z"/>
		<path class="st37" d="M492.4,324.4h-2.3v-6.6c0-0.8-0.2-1.5-0.5-1.9c-0.3-0.4-0.9-0.6-1.6-0.6c-1,0-1.7,0.3-2.1,0.9
			s-0.7,1.5-0.7,2.9v5.4h-2.3v-10.8h1.8l0.3,1.4h0.1c0.3-0.5,0.8-0.9,1.4-1.2c0.6-0.3,1.3-0.4,2-0.4c2.6,0,3.9,1.3,3.9,4V324.4z"/>
		<path class="st37" d="M500.3,324.6c-1.7,0-3-0.5-3.9-1.5s-1.4-2.3-1.4-4c0-1.8,0.4-3.2,1.3-4.2s2.1-1.5,3.6-1.5
			c1.4,0,2.6,0.4,3.4,1.3c0.8,0.9,1.2,2.1,1.2,3.6v1.2h-7.2c0,1,0.3,1.9,0.8,2.4c0.5,0.6,1.3,0.8,2.3,0.8c0.6,0,1.2-0.1,1.8-0.2
			c0.5-0.1,1.1-0.3,1.8-0.6v1.9c-0.6,0.3-1.1,0.5-1.7,0.6C501.7,324.6,501,324.6,500.3,324.6z M499.9,315.2c-0.7,0-1.3,0.2-1.8,0.7
			s-0.7,1.1-0.8,2h4.9c0-0.9-0.2-1.6-0.6-2C501.2,315.4,500.6,315.2,499.9,315.2z"/>
		<path class="st37" d="M514.4,321.4c0,1.1-0.4,1.9-1.2,2.4c-0.8,0.6-1.9,0.8-3.3,0.8c-1.4,0-2.6-0.2-3.5-0.7v-2
			c1.3,0.6,2.5,0.9,3.5,0.9c1.4,0,2.1-0.4,2.1-1.3c0-0.3-0.1-0.5-0.2-0.7s-0.4-0.4-0.8-0.6c-0.4-0.2-0.9-0.4-1.5-0.7
			c-1.2-0.5-2.1-1-2.5-1.4s-0.7-1.1-0.7-1.9c0-0.9,0.4-1.6,1.1-2.2c0.7-0.5,1.8-0.8,3-0.8c1.3,0,2.5,0.3,3.6,0.8l-0.7,1.7
			c-1.2-0.5-2.1-0.7-2.9-0.7c-1.2,0-1.8,0.3-1.8,1c0,0.3,0.2,0.6,0.5,0.9c0.3,0.2,1,0.6,2.1,1c0.9,0.3,1.5,0.7,1.9,0.9
			c0.4,0.3,0.7,0.6,0.9,1S514.4,320.8,514.4,321.4z"/>
		<path class="st37" d="M524.1,321.4c0,1.1-0.4,1.9-1.2,2.4c-0.8,0.6-1.9,0.8-3.3,0.8c-1.4,0-2.6-0.2-3.5-0.7v-2
			c1.3,0.6,2.5,0.9,3.5,0.9c1.4,0,2.1-0.4,2.1-1.3c0-0.3-0.1-0.5-0.2-0.7s-0.4-0.4-0.8-0.6c-0.4-0.2-0.9-0.4-1.5-0.7
			c-1.2-0.5-2.1-1-2.5-1.4s-0.7-1.1-0.7-1.9c0-0.9,0.4-1.6,1.1-2.2c0.7-0.5,1.8-0.8,3-0.8c1.3,0,2.5,0.3,3.6,0.8l-0.7,1.7
			c-1.2-0.5-2.1-0.7-2.9-0.7c-1.2,0-1.8,0.3-1.8,1c0,0.3,0.2,0.6,0.5,0.9c0.3,0.2,1,0.6,2.1,1c0.9,0.3,1.5,0.7,1.9,0.9
			c0.4,0.3,0.7,0.6,0.9,1S524.1,320.8,524.1,321.4z"/>
		<path class="st37" d="M526.2,323.2c0-0.5,0.1-0.8,0.4-1.1c0.2-0.3,0.6-0.4,1.1-0.4c0.5,0,0.8,0.1,1.1,0.4c0.2,0.3,0.4,0.6,0.4,1.1
			c0,0.5-0.1,0.8-0.4,1.1c-0.3,0.3-0.6,0.4-1.1,0.4s-0.8-0.1-1.1-0.4C526.4,324.1,526.2,323.7,526.2,323.2z"/>
	</g>
</g>
</svg>
