<?xml version="1.0" encoding="utf-8"?>
<!-- Generator: Adobe Illustrator 21.0.0, SVG Export Plug-In . SVG Version: 6.00 Build 0)  -->
<svg version="1.1" id="Layer_1" xmlns="http://www.w3.org/2000/svg" xmlns:xlink="http://www.w3.org/1999/xlink" x="0px" y="0px"
	 viewBox="0 0 567 349.3" style="enable-background:new 0 0 567 349.3;" xml:space="preserve">
<style type="text/css">
	.st0{fill:#E8E7E1;}
	.st1{fill:#8999B4;}
	.st2{fill:#D4D9E5;}
	.st3{fill:#595B6E;}
	.st4{fill:#657184;}
	.st5{fill:none;}
	.st6{fill:#A5A8C7;}
	.st7{fill:#1D3567;}
	.st8{fill:#292222;}
	.st9{opacity:0.73;fill:#FFFFFF;enable-background:new    ;}
	.st10{opacity:0.9;fill:#FFFFFF;enable-background:new    ;}
	.st11{opacity:0.8;fill:#D00600;enable-background:new    ;}
	.st12{opacity:0.3;fill:#070606;enable-background:new    ;}
	.st13{fill:#857C76;}
	.st14{opacity:0.95;fill:#FFFFFF;enable-background:new    ;}
	.st15{fill:#1F191A;}
	.st16{fill:#FFFFFF;}
</style>
<g id="Layer_2">
</g>
<g id="Layer_1_1_">
</g>
<g>
	<g>
		<g>
			<path class="st0" d="M561.7,349H4.5c-2.7,0-4.9-2.2-4.9-5V4.7c0-2.7,2.2-5,4.9-5h557.2c2.7,0,4.9,2.2,4.9,5V344
				C566.6,346.8,564.4,349,561.7,349z"/>
		</g>
		<g>
			<g>
				<g>
					<g>
						<g>
							<g>
								<g>
									<g>
										<g>
											<g>
												<polygon class="st1" points="226.3,86.7 301.7,44.1 301.7,149 226.3,191.6 												"/>
											</g>
										</g>
										<g>
											<g>
												<polygon class="st2" points="301.7,44.1 226.3,87.7 180.3,61.1 255.6,17.5 												"/>
											</g>
										</g>
										<g>
											<g>
												<path class="st3" d="M190.5,61.1l35.9,20.7l65.2-37.6l-35.9-20.7L190.5,61.1z"/>
											</g>
										</g>
									</g>
								</g>
							</g>
							<g>
								<g>
									<g>
										<polygon class="st4" points="307.9,177.3 307.9,240 296.4,233.3 266.3,215.6 239.8,200.3 237.9,199.2 226.4,192.6 
											226.4,192.5 211.2,183.8 194.3,174 191.8,172.6 180.3,165.9 180.3,61.1 226.4,87.7 226.4,129 										"/>
									</g>
								</g>
							</g>
						</g>
					</g>
					<g>
						<g>
							<g>
								<polygon class="st4" points="348.1,173.4 348.1,236.1 336.5,229.5 331,226.3 307.9,213.1 307.9,177.3 331,163.7 331,163.7 
																	"/>
							</g>
						</g>
						<g>
							<g>
								<g>
									<polygon class="st1" points="331,163.7 331,226.4 307.9,240 307.9,177.3 									"/>
									<polygon class="st1" points="401.3,142.7 401.3,205.4 383.5,215.7 348.1,236.1 348.1,173.4 383.5,153 									"/>
								</g>
							</g>
							<polygon class="st2" points="401.3,142.7 348.1,173.4 331,163.7 331,163.7 307.9,177.3 226.4,129 301.9,85.5 							"/>
							<polygon class="st3" points="389.8,142.7 348,166.8 330.9,157.1 307.9,170.6 237.8,129 301.9,92.2 							"/>
						</g>
						<line class="st5" x1="331" y1="163.7" x2="331" y2="151"/>
						<g>
							<g>
								<g>
									<polygon class="st6" points="307.4,132.6 307.4,138.4 303.7,136.3 303.1,135.9 294.7,131 294.1,130.7 290.4,128.6 
										290.4,122.8 									"/>
									<polygon class="st2" points="307.4,132.6 324.4,122.8 324.4,128.6 307.4,138.4 									"/>
									<polygon class="st1" points="324.4,122.8 307.4,132.6 290.4,122.8 307.4,113 									"/>
								</g>
							</g>
						</g>
					</g>
					<g>
						<g>
							<polygon class="st4" points="259.4,176.6 259.4,192.3 237,179.5 234.4,178.1 231.9,176.6 231.9,160.9 							"/>
							<polygon class="st7" points="259.4,179.5 259.4,192.3 237,179.5 234.4,178.1 234.4,165.2 							"/>
						</g>
						<g>
							<polygon class="st4" points="292.1,193.8 292.1,209.5 269.6,196.7 267.1,195.3 264.6,193.8 264.6,178.1 							"/>
							<polygon class="st7" points="292.1,196.7 292.1,209.5 269.6,196.7 267.1,195.3 267.1,182.4 							"/>
						</g>
					</g>
					<g>
						<g>
							<polygon class="st4" points="364.8,190.2 364.8,206 387.2,193.2 389.8,191.7 392.3,190.3 392.3,174.5 							"/>
							<polygon class="st7" points="364.8,193.1 364.8,206 387.2,193.2 389.8,191.7 389.8,178.9 							"/>
						</g>
					</g>
				</g>
				<g>
					<polygon class="st8" points="209.8,155.4 209.8,183.8 195.4,175.5 193.3,174.3 193.3,145.9 					"/>
					<polygon class="st7" points="209.8,157.8 209.8,183.8 195.4,175.5 195.4,149.5 					"/>
				</g>
			</g>
		</g>
		<g>
			<path class="st9" d="M180.3,61.2v49.1c6.6-3.7,13.4-8,18.5-13.5c13-14.1,11.2-32.2,12.9-49.7c0.3-1.5,0.6-3,0.9-4.5L180.3,61.2z"
				/>
			<path class="st10" d="M179,60v53c7.6-4.3,14.6-8.4,20.4-14.6c14.9-16.1,12.9-41.5,14-49.6c0.4-5.7,1.8-5.3,1.8-10L179,60z
				 M211.7,47c-1.7,17.5,0.1,35.7-12.9,49.7c-5.1,5.5-11.9,9.8-18.5,13.5V61.1l32.3-18.6C212.2,44.1,211.9,45.5,211.7,47z"/>
			<path class="st11" d="M212.6,42.6L212.6,42.6l-32.3,18.6v49.1l0,0c2-1.1,4-2.3,6-3.6V78.6l18,10.4c2-3.7,3.3-7.5,4.3-11.5l0,0
				c0.5-2,0.8-4,1.1-6l0,0l-17.9-10.3l19.6-11.3l0,0c0.1-1,0.2-1.9,0.3-2.9c0.1-0.8,0.3-1.6,0.5-2.4C212.3,44,212.4,43.3,212.6,42.6
				z"/>
			<g>
				<path class="st11" d="M208.6,77.5l-28.3-16.4v49.1l0,0c2-1.1,4-2.3,6-3.6V78.5l18,10.4C206.3,85.4,207.6,81.5,208.6,77.5
					L208.6,77.5L208.6,77.5z"/>
				<polygon class="st11" points="212.6,42.6 212.6,42.6 180.2,61.1 				"/>
			</g>
		</g>
		<circle class="st12" cx="233.5" cy="191.1" r="8.9"/>
		<circle class="st12" cx="265.7" cy="44.1" r="8.9"/>
		<circle class="st13" cx="180.2" cy="61.2" r="8.9"/>
		<path class="st14" d="M279.8,14.3H459c3.4,0,6.3,2.8,6.3,6.3v49c0,3.4-2.8,6.3-6.3,6.3H279.8c-3.4,0-6.3-2.8-6.3-6.3V50.8
			l-7.3-5.7l7.3-6.4V20.6C273.6,17.1,276.4,14.3,279.8,14.3z"/>
		<g>
			<path class="st15" d="M304.7,40.7h-1.8l-7.3-11.2h-0.1c0.1,1.3,0.1,2.5,0.1,3.6v7.6h-1.4V27.3h1.8l7.3,11.2h0.1
				c0-0.2,0-0.7-0.1-1.6s-0.1-1.5,0-1.9v-7.7h1.5v13.4H304.7z"/>
			<path class="st15" d="M316.8,35.7c0,1.6-0.4,2.9-1.2,3.8s-2,1.4-3.4,1.4c-0.9,0-1.7-0.2-2.4-0.6c-0.7-0.4-1.2-1-1.6-1.8
				s-0.6-1.7-0.6-2.8c0-1.6,0.4-2.9,1.2-3.8c0.8-0.9,2-1.4,3.4-1.4s2.5,0.5,3.3,1.4C316.4,32.8,316.8,34.1,316.8,35.7z M309.1,35.7
				c0,1.3,0.3,2.3,0.8,2.9c0.5,0.7,1.3,1,2.3,1s1.8-0.3,2.3-1s0.8-1.6,0.8-2.9c0-1.3-0.3-2.2-0.8-2.9s-1.3-1-2.3-1s-1.7,0.3-2.3,1
				S309.1,34.4,309.1,35.7z"/>
			<path class="st15" d="M326.3,40.7v-6.5c0-0.8-0.2-1.4-0.6-1.8c-0.4-0.4-1-0.6-1.8-0.6c-1,0-1.8,0.3-2.3,0.9s-0.7,1.5-0.7,2.8v5.3
				h-1.5v-10h1.2l0.2,1.4h0.1c0.3-0.5,0.7-0.9,1.3-1.1c0.6-0.3,1.2-0.4,1.9-0.4c1.2,0,2.1,0.3,2.7,0.9s0.9,1.5,0.9,2.8v6.5h-1.4
				V40.7z"/>
			<path class="st15" d="M330.1,36.4V35h4.5v1.4H330.1z"/>
			<path class="st15" d="M341,40.9c-1.5,0-2.6-0.4-3.4-1.3c-0.8-0.9-1.2-2.2-1.2-3.8c0-1.7,0.4-3,1.2-3.9c0.8-0.9,2-1.4,3.5-1.4
				c0.5,0,1,0.1,1.4,0.2c0.5,0.1,0.9,0.2,1.1,0.4l-0.5,1.3c-0.3-0.1-0.7-0.2-1.1-0.3s-0.7-0.1-1.1-0.1c-2,0-3.1,1.3-3.1,3.9
				c0,1.2,0.2,2.2,0.7,2.8c0.5,0.7,1.2,1,2.2,1c0.8,0,1.7-0.2,2.6-0.5v1.3C342.9,40.7,342,40.9,341,40.9z"/>
			<path class="st15" d="M354.6,35.7c0,1.6-0.4,2.9-1.2,3.8s-2,1.4-3.4,1.4c-0.9,0-1.7-0.2-2.4-0.6c-0.7-0.4-1.2-1-1.6-1.8
				s-0.6-1.7-0.6-2.8c0-1.6,0.4-2.9,1.2-3.8c0.8-0.9,2-1.4,3.4-1.4s2.5,0.5,3.3,1.4C354.2,32.8,354.6,34.1,354.6,35.7z M346.9,35.7
				c0,1.3,0.3,2.3,0.8,2.9c0.5,0.7,1.3,1,2.3,1s1.8-0.3,2.3-1s0.8-1.6,0.8-2.9c0-1.3-0.3-2.2-0.8-2.9s-1.3-1-2.3-1s-1.7,0.3-2.3,1
				S346.9,34.4,346.9,35.7z"/>
			<path class="st15" d="M370.1,40.7v-6.5c0-0.8-0.2-1.4-0.5-1.8c-0.3-0.4-0.9-0.6-1.6-0.6c-0.9,0-1.6,0.3-2.1,0.8s-0.7,1.4-0.7,2.5
				v5.6h-1.5v-6.5c0-0.8-0.2-1.4-0.5-1.8s-0.9-0.6-1.6-0.6c-1,0-1.7,0.3-2.1,0.9s-0.7,1.5-0.7,2.8v5.3h-1.5v-10h1.2l0.2,1.4h0.1
				c0.3-0.5,0.7-0.9,1.2-1.1c0.5-0.3,1.1-0.4,1.8-0.4c1.6,0,2.6,0.6,3.1,1.7h0.1c0.3-0.5,0.7-0.9,1.3-1.2c0.6-0.3,1.2-0.5,1.9-0.5
				c1.1,0,2,0.3,2.6,0.9s0.8,1.5,0.8,2.8v6.5h-1.5V40.7z"/>
			<path class="st15" d="M379.4,30.5c1.3,0,2.3,0.5,3.1,1.4c0.7,0.9,1.1,2.2,1.1,3.8c0,1.6-0.4,2.9-1.1,3.8
				c-0.7,0.9-1.8,1.4-3.1,1.4c-0.7,0-1.2-0.1-1.8-0.4c-0.5-0.2-1-0.6-1.4-1.1h-0.1l-0.3,1.3h-1.1V26.5h1.5V30c0,0.8,0,1.5-0.1,2.1
				h0.1C376.9,31,378,30.5,379.4,30.5z M379.2,31.8c-1,0-1.8,0.3-2.2,0.9c-0.5,0.6-0.7,1.6-0.7,3s0.2,2.4,0.7,3s1.2,0.9,2.3,0.9
				c0.9,0,1.6-0.3,2.1-1s0.7-1.7,0.7-2.9c0-1.3-0.2-2.3-0.7-2.9C380.8,32.1,380.1,31.8,379.2,31.8z"/>
			<path class="st15" d="M387.6,30.7v6.5c0,0.8,0.2,1.4,0.6,1.8c0.4,0.4,1,0.6,1.7,0.6c1,0,1.8-0.3,2.3-0.9c0.5-0.6,0.7-1.5,0.7-2.8
				v-5.3h1.5v10h-1.3l-0.2-1.3h-0.1c-0.3,0.5-0.7,0.9-1.3,1.1c-0.6,0.3-1.2,0.4-1.9,0.4c-1.2,0-2.1-0.3-2.7-0.9s-0.9-1.5-0.9-2.8
				v-6.6h1.6V30.7z"/>
			<path class="st15" d="M404.2,38c0,0.9-0.3,1.7-1,2.2s-1.7,0.8-2.9,0.8c-1.3,0-2.4-0.2-3.1-0.6V39c0.5,0.2,1,0.4,1.6,0.6
				s1.1,0.2,1.6,0.2c0.8,0,1.4-0.1,1.8-0.4c0.4-0.3,0.6-0.6,0.6-1.2c0-0.4-0.2-0.7-0.5-1s-1-0.6-2-1c-0.9-0.3-1.6-0.7-2-0.9
				c-0.4-0.3-0.7-0.6-0.9-0.9c-0.2-0.3-0.3-0.7-0.3-1.2c0-0.8,0.3-1.5,1-1.9c0.7-0.5,1.6-0.7,2.7-0.7s2.1,0.2,3.2,0.7l-0.5,1.2
				c-1-0.4-1.9-0.6-2.7-0.6c-0.7,0-1.3,0.1-1.6,0.3c-0.4,0.2-0.5,0.5-0.5,0.9c0,0.3,0.1,0.5,0.2,0.7s0.4,0.4,0.7,0.5
				s0.9,0.4,1.8,0.7c1.2,0.4,2,0.9,2.4,1.3C404,36.8,404.2,37.3,404.2,38z"/>
			<path class="st15" d="M409.9,39.7c0.3,0,0.5,0,0.8-0.1c0.2,0,0.4-0.1,0.6-0.1v1.2c-0.2,0.1-0.4,0.1-0.7,0.2
				c-0.3,0.1-0.6,0.1-0.9,0.1c-1.9,0-2.9-1-2.9-3.1v-6h-1.4v-0.7l1.4-0.6l0.6-2.1h0.9v2.3h2.9V32h-2.9v5.9c0,0.6,0.1,1.1,0.4,1.4
				C409,39.5,409.4,39.7,409.9,39.7z"/>
			<path class="st15" d="M413.2,28c0-0.3,0.1-0.6,0.3-0.8c0.2-0.2,0.4-0.2,0.6-0.2s0.5,0.1,0.6,0.2c0.2,0.2,0.3,0.4,0.3,0.8
				s-0.1,0.6-0.3,0.8c-0.2,0.2-0.4,0.3-0.6,0.3c-0.3,0-0.5-0.1-0.6-0.3S413.2,28.3,413.2,28z M414.8,40.7h-1.5v-10h1.5V40.7z"/>
			<path class="st15" d="M422.7,30.5c1.3,0,2.3,0.5,3.1,1.4c0.7,0.9,1.1,2.2,1.1,3.8c0,1.6-0.4,2.9-1.1,3.8
				c-0.7,0.9-1.8,1.4-3.1,1.4c-0.7,0-1.2-0.1-1.8-0.4c-0.5-0.2-1-0.6-1.4-1.1h-0.1l-0.3,1.3H418V26.5h1.5V30c0,0.8,0,1.5-0.1,2.1
				h0.1C420.3,31,421.3,30.5,422.7,30.5z M422.5,31.8c-1,0-1.8,0.3-2.2,0.9c-0.5,0.6-0.7,1.6-0.7,3s0.2,2.4,0.7,3s1.2,0.9,2.3,0.9
				c0.9,0,1.6-0.3,2.1-1s0.7-1.7,0.7-2.9c0-1.3-0.2-2.3-0.7-2.9C424.1,32.1,423.4,31.8,422.5,31.8z"/>
			<path class="st15" d="M431,40.7h-1.5V26.5h1.5V40.7z"/>
			<path class="st15" d="M438.5,40.9c-1.5,0-2.7-0.5-3.5-1.4c-0.9-0.9-1.3-2.2-1.3-3.8s0.4-2.9,1.2-3.9c0.8-1,1.9-1.4,3.2-1.4
				c1.3,0,2.3,0.4,3,1.2c0.7,0.8,1.1,1.9,1.1,3.3v1h-6.9c0,1.2,0.3,2.1,0.9,2.7c0.6,0.6,1.4,0.9,2.4,0.9c1.1,0,2.1-0.2,3.2-0.7v1.4
				c-0.5,0.2-1,0.4-1.5,0.5C439.8,40.9,439.2,40.9,438.5,40.9z M438.1,31.8c-0.8,0-1.4,0.3-1.9,0.8s-0.8,1.3-0.8,2.2h5.2
				c0-1-0.2-1.7-0.6-2.2C439.5,32,438.9,31.8,438.1,31.8z"/>
			<path class="st15" d="M302.6,54.5c0,1.6-0.4,2.9-1.2,3.8s-2,1.4-3.4,1.4c-0.9,0-1.7-0.2-2.4-0.6c-0.7-0.4-1.2-1-1.6-1.8
				s-0.6-1.7-0.6-2.8c0-1.6,0.4-2.9,1.2-3.8c0.8-0.9,2-1.4,3.4-1.4s2.5,0.5,3.3,1.4C302.2,51.6,302.6,52.9,302.6,54.5z M295,54.5
				c0,1.3,0.3,2.3,0.8,2.9c0.5,0.7,1.3,1,2.3,1s1.8-0.3,2.3-1s0.8-1.6,0.8-2.9c0-1.3-0.3-2.2-0.8-2.9s-1.3-1-2.3-1s-1.7,0.3-2.3,1
				S295,53.2,295,54.5z"/>
			<path class="st15" d="M309.9,49.3c0.4,0,0.8,0,1.2,0.1l-0.2,1.4c-0.4-0.1-0.8-0.1-1.1-0.1c-0.8,0-1.5,0.3-2.1,1s-0.9,1.5-0.9,2.5
				v5.4h-1.5v-10h1.3l0.2,1.9h0.1c0.4-0.7,0.8-1.2,1.3-1.5C308.7,49.4,309.3,49.3,309.9,49.3z"/>
			<path class="st15" d="M324.3,56.7c0,0.9-0.3,1.7-1,2.2s-1.7,0.8-2.9,0.8c-1.3,0-2.4-0.2-3.1-0.6v-1.4c0.5,0.2,1,0.4,1.6,0.6
				s1.1,0.2,1.6,0.2c0.8,0,1.4-0.1,1.8-0.4c0.4-0.3,0.6-0.6,0.6-1.2c0-0.4-0.2-0.7-0.5-1s-1-0.6-2-1c-0.9-0.3-1.6-0.7-2-0.9
				c-0.4-0.3-0.7-0.6-0.9-0.9c-0.2-0.3-0.3-0.7-0.3-1.2c0-0.8,0.3-1.5,1-1.9c0.7-0.5,1.6-0.7,2.7-0.7s2.1,0.2,3.2,0.7l-0.5,1.2
				c-1-0.4-1.9-0.6-2.7-0.6c-0.7,0-1.3,0.1-1.6,0.3c-0.4,0.2-0.5,0.5-0.5,0.9c0,0.3,0.1,0.5,0.2,0.7s0.4,0.4,0.7,0.5
				s0.9,0.4,1.8,0.7c1.2,0.4,2,0.9,2.4,1.3C324.1,55.5,324.3,56.1,324.3,56.7z"/>
			<path class="st15" d="M328.3,59.5h-1.5V45.2h1.5V59.5z"/>
			<path class="st15" d="M340.2,54.5c0,1.6-0.4,2.9-1.2,3.8s-2,1.4-3.4,1.4c-0.9,0-1.7-0.2-2.4-0.6c-0.7-0.4-1.2-1-1.6-1.8
				s-0.6-1.7-0.6-2.8c0-1.6,0.4-2.9,1.2-3.8c0.8-0.9,2-1.4,3.4-1.4s2.5,0.5,3.3,1.4C339.8,51.6,340.2,52.9,340.2,54.5z M332.5,54.5
				c0,1.3,0.3,2.3,0.8,2.9c0.5,0.7,1.3,1,2.3,1s1.8-0.3,2.3-1s0.8-1.6,0.8-2.9c0-1.3-0.3-2.2-0.8-2.9s-1.3-1-2.3-1s-1.7,0.3-2.3,1
				S332.5,53.2,332.5,54.5z"/>
			<path class="st15" d="M351.1,59.5l-1.8-5.9c-0.1-0.4-0.3-1.2-0.6-2.5h-0.1c-0.2,1.1-0.5,1.9-0.6,2.5l-1.9,5.9h-1.8l-2.7-10h1.6
				c0.6,2.5,1.1,4.4,1.5,5.8s0.5,2.2,0.6,2.7h0.1c0.1-0.3,0.2-0.8,0.3-1.4s0.3-1,0.4-1.3l1.8-5.8h1.6l1.8,5.8
				c0.3,1.1,0.6,1.9,0.7,2.6h0.1c0-0.2,0.1-0.6,0.2-1c0.1-0.5,0.7-2.9,1.9-7.4h1.6l-2.8,10C353,59.5,351.1,59.5,351.1,59.5z"/>
			<path class="st15" d="M367,49.3c1.3,0,2.3,0.5,3.1,1.4c0.7,0.9,1.1,2.2,1.1,3.8s-0.4,2.9-1.1,3.8c-0.7,0.9-1.8,1.4-3.1,1.4
				c-0.7,0-1.2-0.1-1.8-0.4c-0.5-0.2-1-0.6-1.4-1.1h-0.1l-0.3,1.3h-1.1V45.2h1.5v3.5c0,0.8,0,1.5-0.1,2.1h0.1
				C364.6,49.8,365.6,49.3,367,49.3z M366.8,50.6c-1,0-1.8,0.3-2.2,0.9c-0.5,0.6-0.7,1.6-0.7,3s0.2,2.4,0.7,3s1.2,0.9,2.3,0.9
				c0.9,0,1.6-0.3,2.1-1s0.7-1.7,0.7-2.9c0-1.3-0.2-2.3-0.7-2.9C368.4,50.9,367.7,50.6,366.8,50.6z"/>
			<path class="st15" d="M375.2,49.4V56c0,0.8,0.2,1.4,0.6,1.8c0.4,0.4,1,0.6,1.7,0.6c1,0,1.8-0.3,2.3-0.9c0.5-0.6,0.7-1.5,0.7-2.8
				v-5.3h1.5v10h-1.3l-0.2-1.3h-0.1c-0.3,0.5-0.7,0.9-1.3,1.1c-0.6,0.3-1.2,0.4-1.9,0.4c-1.2,0-2.1-0.3-2.7-0.9s-0.9-1.5-0.9-2.8
				v-6.6h1.6V49.4z"/>
			<path class="st15" d="M389.9,49.3c0.4,0,0.8,0,1.2,0.1l-0.2,1.4c-0.4-0.1-0.8-0.1-1.1-0.1c-0.8,0-1.5,0.3-2.1,1s-0.9,1.5-0.9,2.5
				v5.4h-1.5v-10h1.3l0.2,1.9h0.1c0.4-0.7,0.8-1.2,1.3-1.5C388.7,49.4,389.3,49.3,389.9,49.3z"/>
			<path class="st15" d="M399.9,59.5V53c0-0.8-0.2-1.4-0.6-1.8c-0.4-0.4-1-0.6-1.8-0.6c-1,0-1.8,0.3-2.3,0.9s-0.7,1.5-0.7,2.8v5.3
				H393v-10h1.2l0.2,1.4h0.1c0.3-0.5,0.7-0.9,1.3-1.1c0.6-0.3,1.2-0.4,1.9-0.4c1.2,0,2.1,0.3,2.7,0.9c0.6,0.6,0.9,1.5,0.9,2.8v6.5
				h-1.4V59.5z"/>
			<path class="st15" d="M414,49.3c0.4,0,0.8,0,1.2,0.1l-0.2,1.4c-0.4-0.1-0.8-0.1-1.1-0.1c-0.8,0-1.5,0.3-2.1,1s-0.9,1.5-0.9,2.5
				v5.4h-1.5v-10h1.3l0.2,1.9h0.1c0.4-0.7,0.8-1.2,1.3-1.5C412.7,49.4,413.3,49.3,414,49.3z"/>
			<path class="st15" d="M425.7,54.5c0,1.6-0.4,2.9-1.2,3.8s-2,1.4-3.4,1.4c-0.9,0-1.7-0.2-2.4-0.6c-0.7-0.4-1.2-1-1.6-1.8
				s-0.6-1.7-0.6-2.8c0-1.6,0.4-2.9,1.2-3.8c0.8-0.9,2-1.4,3.4-1.4s2.5,0.5,3.3,1.4C425.3,51.6,425.7,52.9,425.7,54.5z M418,54.5
				c0,1.3,0.3,2.3,0.8,2.9c0.5,0.7,1.3,1,2.3,1s1.8-0.3,2.3-1s0.8-1.6,0.8-2.9c0-1.3-0.3-2.2-0.8-2.9s-1.3-1-2.3-1s-1.7,0.3-2.3,1
				S418,53.2,418,54.5z"/>
			<path class="st15" d="M437,54.5c0,1.6-0.4,2.9-1.2,3.8s-2,1.4-3.4,1.4c-0.9,0-1.7-0.2-2.4-0.6c-0.7-0.4-1.2-1-1.6-1.8
				s-0.6-1.7-0.6-2.8c0-1.6,0.4-2.9,1.2-3.8c0.8-0.9,2-1.4,3.4-1.4s2.5,0.5,3.3,1.4C436.6,51.6,437,52.9,437,54.5z M429.4,54.5
				c0,1.3,0.3,2.3,0.8,2.9c0.5,0.7,1.3,1,2.3,1s1.8-0.3,2.3-1s0.8-1.6,0.8-2.9c0-1.3-0.3-2.2-0.8-2.9s-1.3-1-2.3-1s-1.7,0.3-2.3,1
				S429.4,53.2,429.4,54.5z"/>
			<path class="st15" d="M444.2,50.6h-2.6v8.9h-1.5v-8.9h-1.8v-0.7l1.8-0.5v-0.6c0-2.5,1.1-3.7,3.2-3.7c0.5,0,1.2,0.1,1.9,0.3
				l-0.4,1.2c-0.6-0.2-1.1-0.3-1.5-0.3c-0.6,0-1,0.2-1.3,0.6c-0.3,0.4-0.4,1-0.4,1.8v0.7h2.6L444.2,50.6L444.2,50.6z"/>
		</g>
		<path class="st14" d="M220.2,211.3H51.4c-3.4,0-6.3-2.8-6.3-6.3v-28.1c0-3.4,2.8-6.3,6.3-6.3h168.8c3.4,0,6.3,2.8,6.3,6.3v8.3
			l7.3,5.7l-7.3,6.4v7.7C226.5,208.5,223.7,211.3,220.2,211.3z"/>
		<g>
			<path class="st15" d="M65.5,185.2c-1.5,0-2.6,0.5-3.5,1.5s-1.3,2.3-1.3,4c0,1.8,0.4,3.1,1.2,4.1s2,1.4,3.5,1.4
				c0.9,0,2-0.2,3.2-0.5v1.4c-0.9,0.3-2.1,0.5-3.4,0.5c-2,0-3.5-0.6-4.6-1.8s-1.6-2.9-1.6-5.1c0-1.4,0.3-2.6,0.8-3.6
				s1.3-1.8,2.2-2.4c1-0.6,2.1-0.8,3.4-0.8c1.4,0,2.6,0.3,3.7,0.8l-0.7,1.3C67.5,185.4,66.5,185.2,65.5,185.2z"/>
			<path class="st15" d="M80,192.3c0,1.6-0.4,2.9-1.2,3.8c-0.8,0.9-2,1.4-3.4,1.4c-0.9,0-1.7-0.2-2.4-0.6c-0.7-0.4-1.2-1-1.6-1.8
				s-0.6-1.7-0.6-2.8c0-1.6,0.4-2.9,1.2-3.8c0.8-0.9,2-1.4,3.4-1.4s2.5,0.5,3.3,1.4C79.6,189.5,80,190.7,80,192.3z M72.4,192.3
				c0,1.3,0.3,2.3,0.8,2.9c0.5,0.7,1.3,1,2.3,1s1.8-0.3,2.3-1s0.8-1.6,0.8-2.9c0-1.3-0.3-2.2-0.8-2.9s-1.3-1-2.3-1s-1.7,0.3-2.3,1
				S72.4,191,72.4,192.3z"/>
			<path class="st15" d="M89.6,197.3v-6.5c0-0.8-0.2-1.4-0.6-1.8c-0.4-0.4-1-0.6-1.7-0.6c-1,0-1.8,0.3-2.3,0.9
				c-0.5,0.6-0.7,1.5-0.7,2.8v5.3h-1.5v-10H84l0.2,1.4h0.1c0.3-0.5,0.7-0.9,1.3-1.1c0.6-0.3,1.2-0.4,1.9-0.4c1.2,0,2.1,0.3,2.7,0.9
				c0.6,0.6,0.9,1.5,0.9,2.8v6.5h-1.5V197.3z"/>
			<path class="st15" d="M98.2,197.5c-1.5,0-2.6-0.4-3.4-1.3s-1.2-2.2-1.2-3.8c0-1.7,0.4-3,1.2-3.9s2-1.4,3.5-1.4
				c0.5,0,1,0.1,1.4,0.2s0.9,0.2,1.1,0.4l-0.5,1.3c-0.3-0.1-0.7-0.2-1.1-0.3s-0.7-0.1-1.1-0.1c-2,0-3.1,1.3-3.1,3.9
				c0,1.2,0.2,2.2,0.7,2.8c0.5,0.7,1.2,1,2.2,1c0.8,0,1.7-0.2,2.6-0.5v1.3C100.1,197.4,99.2,197.5,98.2,197.5z"/>
			<path class="st15" d="M107.7,187.1c0.4,0,0.8,0,1.2,0.1l-0.2,1.4c-0.4-0.1-0.8-0.1-1.1-0.1c-0.8,0-1.5,0.3-2.1,1
				s-0.9,1.5-0.9,2.5v5.4h-1.5v-10h1.3l0.2,1.9h0.1c0.4-0.7,0.8-1.2,1.3-1.5C106.5,187.3,107.1,187.1,107.7,187.1z"/>
			<path class="st15" d="M115,197.5c-1.5,0-2.7-0.5-3.5-1.4c-0.9-0.9-1.3-2.2-1.3-3.8s0.4-2.9,1.2-3.9c0.8-1,1.9-1.4,3.2-1.4
				c1.3,0,2.3,0.4,3,1.2s1.1,1.9,1.1,3.3v1h-6.9c0,1.2,0.3,2.1,0.9,2.7s1.4,0.9,2.4,0.9c1.1,0,2.1-0.2,3.2-0.7v1.4
				c-0.5,0.2-1,0.4-1.5,0.5C116.3,197.5,115.7,197.5,115,197.5z M114.6,188.4c-0.8,0-1.4,0.3-1.9,0.8s-0.8,1.3-0.8,2.2h5.2
				c0-1-0.2-1.7-0.6-2.2C116,188.6,115.4,188.4,114.6,188.4z"/>
			<path class="st15" d="M124.6,196.3c0.3,0,0.5,0,0.8-0.1c0.2,0,0.4-0.1,0.6-0.1v1.2c-0.2,0.1-0.4,0.1-0.7,0.2
				c-0.3,0.1-0.6,0.1-0.9,0.1c-1.9,0-2.9-1-2.9-3.1v-6H120v-0.7l1.4-0.6l0.6-2.1h0.9v2.3h2.9v1.2h-2.9v5.9c0,0.6,0.1,1.1,0.4,1.4
				C123.7,196.1,124.1,196.3,124.6,196.3z"/>
			<path class="st15" d="M132.2,197.5c-1.5,0-2.7-0.5-3.5-1.4c-0.9-0.9-1.3-2.2-1.3-3.8s0.4-2.9,1.2-3.9c0.8-1,1.9-1.4,3.2-1.4
				s2.3,0.4,3,1.2s1.1,1.9,1.1,3.3v1H129c0,1.2,0.3,2.1,0.9,2.7s1.4,0.9,2.4,0.9c1.1,0,2.1-0.2,3.2-0.7v1.4c-0.5,0.2-1,0.4-1.5,0.5
				C133.4,197.5,132.9,197.5,132.2,197.5z M131.8,188.4c-0.8,0-1.4,0.3-1.9,0.8s-0.8,1.3-0.8,2.2h5.2c0-1-0.2-1.7-0.6-2.2
				C133.2,188.6,132.6,188.4,131.8,188.4z"/>
			<path class="st15" d="M146.6,196.3c0.3,0,0.5,0,0.8-0.1c0.2,0,0.4-0.1,0.6-0.1v1.2c-0.2,0.1-0.4,0.1-0.7,0.2
				c-0.3,0.1-0.6,0.1-0.9,0.1c-1.9,0-2.9-1-2.9-3.1v-6H142v-0.7l1.4-0.6l0.6-2.1h0.9v2.3h2.9v1.2H145v5.9c0,0.6,0.1,1.1,0.4,1.4
				C145.7,196.1,146.1,196.3,146.6,196.3z"/>
			<path class="st15" d="M149.8,184.6c0-0.3,0.1-0.6,0.3-0.8s0.4-0.2,0.6-0.2c0.2,0,0.5,0.1,0.6,0.2s0.3,0.4,0.3,0.8
				c0,0.3-0.1,0.6-0.3,0.8s-0.4,0.3-0.6,0.3c-0.3,0-0.5-0.1-0.6-0.3S149.8,184.9,149.8,184.6z M151.5,197.3H150v-10h1.5V197.3z"/>
			<path class="st15" d="M156.2,197.3h-1.5V183h1.5V197.3z"/>
			<path class="st15" d="M162.7,196.3c0.3,0,0.5,0,0.8-0.1c0.2,0,0.4-0.1,0.6-0.1v1.2c-0.2,0.1-0.4,0.1-0.7,0.2
				c-0.3,0.1-0.6,0.1-0.9,0.1c-1.9,0-2.9-1-2.9-3.1v-6h-1.4v-0.7l1.4-0.6l0.6-2.1h0.9v2.3h2.9v1.2h-2.9v5.9c0,0.6,0.1,1.1,0.4,1.4
				C161.8,196.1,162.2,196.3,162.7,196.3z"/>
			<path class="st15" d="M165.2,193v-1.4h4.5v1.4H165.2z"/>
			<path class="st15" d="M180.3,197.3l-1.8-5.9c-0.1-0.4-0.3-1.2-0.7-2.5h-0.1c-0.2,1.1-0.5,1.9-0.6,2.5l-1.9,5.9h-1.8l-2.7-10h1.6
				c0.6,2.5,1.1,4.4,1.5,5.8c0.3,1.3,0.5,2.2,0.6,2.7h0.1c0.1-0.3,0.2-0.8,0.3-1.4c0.1-0.6,0.3-1,0.4-1.3l1.8-5.8h1.6l1.8,5.8
				c0.3,1.1,0.6,1.9,0.7,2.6h0.1c0-0.2,0.1-0.6,0.2-1c0.1-0.5,0.7-2.9,1.9-7.4h1.6l-2.8,10L180.3,197.3L180.3,197.3z"/>
			<path class="st15" d="M192.9,197.3l-0.3-1.4h-0.1c-0.5,0.6-1,1.1-1.5,1.3s-1.1,0.3-1.9,0.3c-1,0-1.8-0.3-2.3-0.8
				s-0.8-1.2-0.8-2.2c0-2,1.6-3.1,4.9-3.2l1.7-0.1v-0.6c0-0.8-0.2-1.4-0.5-1.7c-0.3-0.4-0.9-0.6-1.6-0.6c-0.8,0-1.8,0.3-2.8,0.8
				l-0.5-1.2c0.5-0.3,1-0.5,1.6-0.6c0.6-0.2,1.2-0.2,1.8-0.2c1.2,0,2.1,0.3,2.7,0.8c0.6,0.5,0.9,1.4,0.9,2.6v6.9h-1.3V197.3z
				 M189.4,196.3c0.9,0,1.7-0.3,2.2-0.8s0.8-1.2,0.8-2.2v-0.9l-1.5,0.1c-1.2,0-2.1,0.2-2.6,0.6c-0.5,0.3-0.8,0.9-0.8,1.6
				c0,0.5,0.2,1,0.5,1.3C188.4,196.1,188.8,196.3,189.4,196.3z"/>
			<path class="st15" d="M198.6,197.3h-1.5V183h1.5V197.3z"/>
			<path class="st15" d="M203.4,197.3h-1.5V183h1.5V197.3z"/>
		</g>
		<path class="st14" d="M166.1,81.2h-148c-3.4,0-6.3-2.8-6.3-6.3V46.8c0-3.4,2.8-6.3,6.3-6.3h148c3.4,0,6.3,2.8,6.3,6.3v8.3l7.3,5.7
			l-7.3,6.4V75C172.3,78.4,169.5,81.2,166.1,81.2z"/>
		<g>
			<path class="st15" d="M35.8,64.2c0,1.2-0.4,2.1-1.3,2.8c-0.9,0.7-2,1-3.5,1c-1.6,0-2.8-0.2-3.7-0.6v-1.5c0.5,0.2,1.1,0.4,1.8,0.5
				c0.6,0.1,1.3,0.2,1.9,0.2c1,0,1.8-0.2,2.3-0.6s0.8-0.9,0.8-1.6c0-0.5-0.1-0.8-0.3-1.1s-0.5-0.6-0.9-0.8s-1.1-0.5-2-0.9
				c-1.2-0.4-2.1-1-2.7-1.6c-0.5-0.6-0.8-1.4-0.8-2.4s0.4-1.9,1.2-2.5c0.8-0.6,1.8-0.9,3.1-0.9s2.6,0.2,3.7,0.7L35,56.3
				c-1.1-0.5-2.2-0.7-3.2-0.7c-0.8,0-1.5,0.2-1.9,0.5c-0.5,0.4-0.7,0.8-0.7,1.5c0,0.5,0.1,0.8,0.3,1.1c0.2,0.3,0.5,0.6,0.9,0.8
				s1,0.5,1.9,0.8c1.4,0.5,2.4,1,2.9,1.6C35.6,62.5,35.8,63.3,35.8,64.2z"/>
			<path class="st15" d="M41.6,66.7c0.3,0,0.5,0,0.8-0.1c0.2,0,0.4-0.1,0.6-0.1v1.2c-0.2,0.1-0.4,0.1-0.7,0.2S41.7,68,41.4,68
				c-1.9,0-2.9-1-2.9-3.1v-6H37v-0.7l1.4-0.6l0.6-2.1h1v2.3h2.9V59H40v5.9c0,0.6,0.1,1.1,0.4,1.4C40.7,66.5,41.1,66.7,41.6,66.7z"/>
			<path class="st15" d="M49.2,67.9c-1.5,0-2.7-0.5-3.5-1.4c-0.9-0.9-1.3-2.2-1.3-3.8c0-1.6,0.4-2.9,1.2-3.9s1.9-1.4,3.2-1.4
				s2.3,0.4,3,1.2s1.1,1.9,1.1,3.3v1H46c0,1.2,0.3,2.1,0.9,2.7c0.6,0.6,1.4,0.9,2.4,0.9c1.1,0,2.1-0.2,3.2-0.7v1.4
				c-0.5,0.2-1,0.4-1.5,0.5C50.5,67.9,49.9,67.9,49.2,67.9z M48.8,58.8c-0.8,0-1.4,0.3-1.9,0.8s-0.8,1.3-0.8,2.2h5.2
				c0-1-0.2-1.7-0.6-2.2C50.2,59.1,49.6,58.8,48.8,58.8z"/>
			<path class="st15" d="M59.7,67.9c-1.5,0-2.7-0.5-3.5-1.4c-0.9-0.9-1.3-2.2-1.3-3.8c0-1.6,0.4-2.9,1.2-3.9s1.9-1.4,3.2-1.4
				s2.3,0.4,3,1.2s1.1,1.9,1.1,3.3v1h-6.9c0,1.2,0.3,2.1,0.9,2.7c0.6,0.6,1.4,0.9,2.4,0.9c1.1,0,2.1-0.2,3.2-0.7v1.4
				c-0.5,0.2-1,0.4-1.5,0.5C61,67.9,60.4,67.9,59.7,67.9z M59.3,58.8c-0.8,0-1.4,0.3-1.9,0.8s-0.8,1.3-0.8,2.2h5.2
				c0-1-0.2-1.7-0.6-2.2C60.7,59.1,60.1,58.8,59.3,58.8z"/>
			<path class="st15" d="M67.5,67.8H66V53.5h1.5V67.8z"/>
			<path class="st15" d="M82.1,65c0,0.9-0.3,1.7-1,2.2S79.4,68,78.2,68c-1.3,0-2.4-0.2-3.1-0.6V66c0.5,0.2,1,0.4,1.6,0.6
				s1.1,0.2,1.6,0.2c0.8,0,1.4-0.1,1.8-0.4s0.6-0.6,0.6-1.2c0-0.4-0.2-0.7-0.5-1s-1-0.6-2-1c-0.9-0.3-1.6-0.7-2-0.9
				c-0.4-0.3-0.7-0.6-0.9-0.9C75.1,61,75,60.6,75,60.2c0-0.8,0.3-1.5,1-1.9c0.7-0.5,1.6-0.7,2.7-0.7s2.1,0.2,3.2,0.7l-0.5,1.2
				c-1-0.4-1.9-0.6-2.7-0.6c-0.7,0-1.3,0.1-1.6,0.3c-0.4,0.2-0.5,0.5-0.5,0.9c0,0.3,0.1,0.5,0.2,0.7s0.4,0.4,0.7,0.5
				c0.3,0.2,0.9,0.4,1.8,0.7c1.2,0.4,2,0.9,2.4,1.3C81.9,63.8,82.1,64.4,82.1,65z"/>
			<path class="st15" d="M87.8,66.7c0.3,0,0.5,0,0.8-0.1c0.2,0,0.4-0.1,0.6-0.1v1.2c-0.2,0.1-0.4,0.1-0.7,0.2
				C88.2,68,87.9,68,87.6,68c-1.9,0-2.9-1-2.9-3.1v-6h-1.4v-0.7l1.4-0.6l0.6-2.1h0.9v2.3h2.9V59h-2.9v5.9c0,0.6,0.1,1.1,0.4,1.4
				C86.9,66.5,87.3,66.7,87.8,66.7z"/>
			<path class="st15" d="M95.8,57.5c0.4,0,0.8,0,1.2,0.1L96.8,59c-0.4-0.1-0.8-0.1-1.1-0.1c-0.8,0-1.5,0.3-2.1,1s-0.9,1.5-0.9,2.5
				v5.4h-1.5v-10h1.3l0.2,1.9h0.1c0.4-0.7,0.8-1.2,1.3-1.5C94.6,57.7,95.2,57.5,95.8,57.5z"/>
			<path class="st15" d="M100.3,57.7v6.5c0,0.8,0.2,1.4,0.6,1.8s1,0.6,1.7,0.6c1.1,0,1.8-0.3,2.3-0.9s0.7-1.5,0.7-2.8v-5.3h1.5v10
				h-1.3l-0.2-1.3h-0.1c-0.3,0.5-0.7,0.9-1.3,1.1c-0.6,0.3-1.2,0.4-1.9,0.4c-1.2,0-2.1-0.3-2.7-0.9s-0.9-1.5-0.9-2.8v-6.6h1.6V57.7z
				"/>
			<path class="st15" d="M114.4,67.9c-1.5,0-2.6-0.4-3.4-1.3s-1.2-2.2-1.2-3.8c0-1.7,0.4-3,1.2-3.9c0.8-0.9,2-1.4,3.5-1.4
				c0.5,0,1,0.1,1.4,0.2c0.5,0.1,0.9,0.2,1.1,0.4l-0.5,1.3c-0.3-0.1-0.7-0.2-1.1-0.3s-0.7-0.1-1.1-0.1c-2,0-3.1,1.3-3.1,3.9
				c0,1.2,0.2,2.2,0.7,2.8c0.5,0.7,1.2,1,2.2,1c0.8,0,1.7-0.2,2.6-0.5v1.3C116.3,67.8,115.4,67.9,114.4,67.9z"/>
			<path class="st15" d="M122.5,66.7c0.3,0,0.5,0,0.8-0.1c0.2,0,0.4-0.1,0.6-0.1v1.2c-0.2,0.1-0.4,0.1-0.7,0.2
				c-0.3,0.1-0.6,0.1-0.9,0.1c-1.9,0-2.9-1-2.9-3.1v-6H118v-0.7l1.4-0.6l0.6-2.1h0.9v2.3h2.9V59h-2.9v5.9c0,0.6,0.1,1.1,0.4,1.4
				C121.7,66.5,122,66.7,122.5,66.7z"/>
			<path class="st15" d="M127.4,57.7v6.5c0,0.8,0.2,1.4,0.6,1.8c0.4,0.4,1,0.6,1.7,0.6c1.1,0,1.8-0.3,2.3-0.9s0.7-1.5,0.7-2.8v-5.3
				h1.5v10H133l-0.2-1.3h-0.1c-0.3,0.5-0.7,0.9-1.3,1.1c-0.6,0.3-1.2,0.4-1.9,0.4c-1.2,0-2.1-0.3-2.7-0.9s-0.9-1.5-0.9-2.8v-6.6h1.5
				V57.7z"/>
			<path class="st15" d="M142,57.5c0.4,0,0.8,0,1.2,0.1L143,59c-0.4-0.1-0.8-0.1-1.1-0.1c-0.8,0-1.5,0.3-2.1,1s-0.9,1.5-0.9,2.5v5.4
				h-1.5v-10h1.3l0.2,1.9h0.1c0.4-0.7,0.8-1.2,1.3-1.5C140.8,57.7,141.4,57.5,142,57.5z"/>
			<path class="st15" d="M149.3,67.9c-1.5,0-2.7-0.5-3.5-1.4c-0.9-0.9-1.3-2.2-1.3-3.8c0-1.6,0.4-2.9,1.2-3.9s1.9-1.4,3.2-1.4
				s2.3,0.4,3,1.2s1.1,1.9,1.1,3.3v1h-6.9c0,1.2,0.3,2.1,0.9,2.7c0.6,0.6,1.4,0.9,2.4,0.9c1.1,0,2.1-0.2,3.2-0.7v1.4
				c-0.5,0.2-1,0.4-1.5,0.5C150.6,67.9,150,67.9,149.3,67.9z M148.9,58.8c-0.8,0-1.4,0.3-1.9,0.8s-0.8,1.3-0.8,2.2h5.2
				c0-1-0.2-1.7-0.6-2.2C150.3,59.1,149.7,58.8,148.9,58.8z"/>
		</g>
	</g>
	<path class="st16" d="M546,336.6H18.7c-3.3,0-6-2.7-6-6v-53.3c0-3.3,2.7-6,6-6H546c3.3,0,6,2.7,6,6v53.3
		C552,333.9,549.3,336.6,546,336.6z"/>
	<g>
		<path class="st15" d="M81.3,300.2h-3.8l-6.2-10.8h-0.1c0.1,1.9,0.2,3.3,0.2,4.1v6.7h-2.7v-14.3h3.8l6.2,10.7h0.1
			c-0.1-1.9-0.1-3.2-0.1-3.9v-6.8h2.7L81.3,300.2L81.3,300.2z"/>
		<path class="st15" d="M94.6,294.7c0,1.8-0.5,3.2-1.4,4.2s-2.2,1.5-3.9,1.5c-1,0-2-0.2-2.8-0.7s-1.4-1.1-1.8-2s-0.6-1.9-0.6-3
			c0-1.8,0.5-3.2,1.4-4.2s2.2-1.5,3.9-1.5c1,0,2,0.2,2.8,0.7s1.4,1.1,1.8,2S94.6,293.5,94.6,294.7z M87.1,294.7
			c0,1.1,0.2,1.9,0.5,2.5s0.9,0.8,1.7,0.8c0.8,0,1.4-0.3,1.7-0.8s0.5-1.4,0.5-2.5s-0.2-1.9-0.5-2.4s-0.9-0.8-1.7-0.8
			c-0.8,0-1.4,0.3-1.7,0.8S87.1,293.6,87.1,294.7z"/>
		<path class="st15" d="M107.2,300.2h-3v-6.4c0-0.8-0.1-1.4-0.4-1.8s-0.7-0.6-1.3-0.6c-0.8,0-1.4,0.3-1.8,0.8s-0.6,1.5-0.6,2.8v5.1
			h-3v-10.9h2.3l0.4,1.4h0.2c0.3-0.5,0.8-0.9,1.4-1.2s1.2-0.4,2-0.4c1.3,0,2.2,0.3,2.9,1s1,1.7,1,3L107.2,300.2L107.2,300.2z"/>
		<path class="st15" d="M109.3,296v-2.4h5.2v2.4H109.3z"/>
		<path class="st15" d="M121.1,300.4c-3.4,0-5.1-1.9-5.1-5.6c0-1.9,0.5-3.3,1.4-4.3s2.2-1.5,4-1.5c1.3,0,2.4,0.2,3.4,0.7l-0.9,2.3
			c-0.5-0.2-0.9-0.3-1.3-0.5s-0.8-0.2-1.2-0.2c-1.5,0-2.3,1.1-2.3,3.3c0,2.1,0.8,3.2,2.3,3.2c0.6,0,1.1-0.1,1.6-0.2s1-0.4,1.5-0.7
			v2.5c-0.5,0.3-1,0.5-1.5,0.6S121.9,300.4,121.1,300.4z"/>
		<path class="st15" d="M136.9,294.7c0,1.8-0.5,3.2-1.4,4.2s-2.2,1.5-3.9,1.5c-1,0-2-0.2-2.8-0.7s-1.4-1.1-1.8-2s-0.6-1.9-0.6-3
			c0-1.8,0.5-3.2,1.4-4.2c0.9-1,2.2-1.5,3.9-1.5c1,0,2,0.2,2.8,0.7s1.4,1.1,1.8,2S136.9,293.5,136.9,294.7z M129.3,294.7
			c0,1.1,0.2,1.9,0.5,2.5s0.9,0.8,1.7,0.8s1.4-0.3,1.7-0.8s0.5-1.4,0.5-2.5s-0.2-1.9-0.5-2.4s-0.9-0.8-1.7-0.8s-1.4,0.3-1.7,0.8
			S129.3,293.6,129.3,294.7z"/>
		<path class="st15" d="M149.1,300.2h-3v-6.4c0-0.8-0.1-1.4-0.4-1.8s-0.7-0.6-1.2-0.6c-0.8,0-1.3,0.3-1.7,0.8s-0.5,1.5-0.5,2.8v5.1
			h-3v-10.9h2.3l0.4,1.4h0.2c0.3-0.5,0.7-0.9,1.3-1.2s1.2-0.4,1.9-0.4c1.6,0,2.7,0.5,3.3,1.6h0.3c0.3-0.5,0.7-0.9,1.3-1.2
			s1.2-0.4,1.9-0.4c1.2,0,2.2,0.3,2.8,1s1,1.7,1,3.1v7.1h-3v-6.4c0-0.8-0.1-1.4-0.4-1.8s-0.7-0.6-1.2-0.6c-0.7,0-1.3,0.3-1.6,0.8
			s-0.5,1.3-0.5,2.5v5.5H149.1z"/>
		<path class="st15" d="M165,289c1.3,0,2.3,0.5,3,1.5s1.1,2.4,1.1,4.1c0,1.8-0.4,3.2-1.1,4.2s-1.8,1.5-3.1,1.5s-2.3-0.5-3-1.4h-0.2
			l-0.5,1.2H159V285h3v3.5c0,0.4,0,1.2-0.1,2.2h0.1C162.7,289.6,163.7,289,165,289z M164.1,291.4c-0.7,0-1.3,0.2-1.6,0.7
			s-0.5,1.2-0.5,2.2v0.3c0,1.2,0.2,2,0.5,2.5s0.9,0.8,1.7,0.8c0.6,0,1.1-0.3,1.5-0.8s0.5-1.4,0.5-2.5s-0.2-1.9-0.5-2.4
			S164.7,291.4,164.1,291.4z"/>
		<path class="st15" d="M179.4,300.2l-0.4-1.4h-0.2c-0.3,0.5-0.8,0.9-1.4,1.2s-1.3,0.4-2,0.4c-1.3,0-2.2-0.3-2.9-1s-1-1.7-1-3v-7.1
			h3v6.4c0,0.8,0.1,1.4,0.4,1.8s0.7,0.6,1.3,0.6c0.8,0,1.4-0.3,1.8-0.8s0.6-1.5,0.6-2.8v-5.1h3v10.9h-2.2V300.2z"/>
		<path class="st15" d="M192.4,296.9c0,1.1-0.4,2-1.2,2.6s-1.9,0.9-3.5,0.9c-0.8,0-1.5-0.1-2-0.2s-1.1-0.3-1.6-0.5v-2.5
			c0.6,0.3,1.2,0.5,1.9,0.7s1.3,0.3,1.8,0.3c1.1,0,1.6-0.3,1.6-0.9c0-0.2-0.1-0.4-0.2-0.6s-0.4-0.3-0.7-0.5s-0.8-0.4-1.4-0.6
			c-0.8-0.4-1.5-0.7-1.9-1s-0.7-0.6-0.9-1s-0.3-0.9-0.3-1.4c0-1,0.4-1.7,1.1-2.3s1.8-0.8,3.2-0.8c1.3,0,2.6,0.3,3.8,0.9l-0.9,2.1
			c-0.5-0.2-1.1-0.4-1.5-0.6s-1-0.2-1.5-0.2c-0.9,0-1.3,0.2-1.3,0.7c0,0.3,0.1,0.5,0.4,0.7s0.9,0.5,1.9,0.9c0.9,0.3,1.5,0.7,1.9,1
			s0.7,0.6,0.9,1S192.4,296.4,192.4,296.9z"/>
		<path class="st15" d="M199.3,298c0.5,0,1.1-0.1,1.9-0.3v2.2c-0.7,0.3-1.7,0.5-2.7,0.5c-1.2,0-2.1-0.3-2.6-0.9s-0.8-1.5-0.8-2.7
			v-5.3h-1.4v-1.3l1.6-1l0.9-2.3h1.9v2.3h3.1v2.2H198v5.3c0,0.4,0.1,0.7,0.4,0.9S198.9,298,199.3,298z"/>
		<path class="st15" d="M203.3,286.4c0-1,0.5-1.5,1.6-1.5s1.6,0.5,1.6,1.5c0,0.5-0.1,0.8-0.4,1.1s-0.7,0.4-1.2,0.4
			C203.8,287.9,203.3,287.4,203.3,286.4z M206.4,300.2h-3v-10.9h3V300.2z"/>
		<path class="st15" d="M215.6,289c1.3,0,2.3,0.5,3,1.5s1.1,2.4,1.1,4.1c0,1.8-0.4,3.2-1.1,4.2s-1.8,1.5-3.1,1.5s-2.3-0.5-3-1.4
			h-0.2l-0.5,1.2h-2.3V285h3v3.5c0,0.4,0,1.2-0.1,2.2h0.1C213.2,289.6,214.2,289,215.6,289z M214.6,291.4c-0.7,0-1.3,0.2-1.6,0.7
			s-0.5,1.2-0.5,2.2v0.3c0,1.2,0.2,2,0.5,2.5s0.9,0.8,1.7,0.8c0.6,0,1.1-0.3,1.5-0.8s0.5-1.4,0.5-2.5s-0.2-1.9-0.5-2.4
			S215.3,291.4,214.6,291.4z"/>
		<path class="st15" d="M225.1,300.2h-3V285h3V300.2z"/>
		<path class="st15" d="M233.2,300.4c-1.8,0-3.1-0.5-4.1-1.5s-1.5-2.3-1.5-4.1c0-1.8,0.5-3.2,1.4-4.2s2.2-1.5,3.8-1.5
			c1.5,0,2.7,0.4,3.6,1.3s1.3,2.1,1.3,3.6v1.4h-7c0,0.8,0.3,1.5,0.8,2s1.1,0.7,2,0.7c0.7,0,1.3-0.1,1.9-0.2s1.2-0.4,1.8-0.7v2.3
			c-0.5,0.3-1.1,0.5-1.7,0.6S234.1,300.4,233.2,300.4z M232.8,291.2c-0.6,0-1.1,0.2-1.5,0.6s-0.6,1-0.6,1.7h4.2
			c0-0.7-0.2-1.3-0.6-1.7S233.4,291.2,232.8,291.2z"/>
		<path class="st15" d="M239.7,290.7c0-0.5,0.1-1,0.4-1.2s0.7-0.4,1.3-0.4c0.5,0,1,0.1,1.3,0.4s0.4,0.7,0.4,1.2s-0.2,0.9-0.5,1.2
			s-0.7,0.4-1.2,0.4s-1-0.1-1.3-0.4S239.7,291.2,239.7,290.7z M239.7,298.8c0-0.5,0.1-1,0.4-1.2s0.7-0.4,1.3-0.4
			c0.5,0,1,0.1,1.3,0.4s0.4,0.7,0.4,1.2s-0.1,0.9-0.4,1.2s-0.7,0.4-1.2,0.4s-1-0.1-1.3-0.4S239.7,299.3,239.7,298.8z"/>
		<path class="st15" d="M259.5,296.3c0,1.3-0.5,2.3-1.4,3s-2.2,1.1-3.8,1.1s-2.9-0.3-4-0.8v-2.2c0.7,0.3,1.3,0.5,2.1,0.7
			s1.4,0.3,2,0.3c0.9,0,1.6-0.2,2-0.5s0.7-0.8,0.7-1.4c0-0.5-0.2-1-0.6-1.4s-1.2-0.8-2.5-1.3s-2.2-1.1-2.8-1.8s-0.8-1.5-0.8-2.4
			c0-1.2,0.4-2.1,1.3-2.8s2-1,3.4-1c1.4,0,2.7,0.3,4.1,0.9l-0.7,1.9c-1.3-0.5-2.4-0.8-3.4-0.8c-0.8,0-1.3,0.2-1.7,0.5
			s-0.6,0.8-0.6,1.3c0,0.4,0.1,0.7,0.2,1s0.4,0.5,0.8,0.7s1,0.5,1.9,0.9c1,0.4,1.8,0.8,2.3,1.2s0.8,0.8,1.1,1.3
			S259.5,295.6,259.5,296.3z"/>
		<path class="st15" d="M266.1,298.5c0.6,0,1.1-0.1,1.7-0.3v1.7c-0.3,0.1-0.6,0.2-1,0.3s-0.8,0.1-1.2,0.1c-2.2,0-3.3-1.1-3.3-3.4
			v-5.8h-1.5v-1l1.6-0.8l0.8-2.3h1.4v2.4h3.1v1.7h-3.1v5.8c0,0.6,0.1,1,0.4,1.2S265.6,298.5,266.1,298.5z"/>
		<path class="st15" d="M274.6,300.4c-1.7,0-3-0.5-3.9-1.5s-1.4-2.3-1.4-4c0-1.8,0.4-3.2,1.3-4.2s2.1-1.5,3.6-1.5
			c1.4,0,2.6,0.4,3.4,1.3s1.2,2.1,1.2,3.6v1.2h-7.2c0,1,0.3,1.9,0.8,2.4s1.3,0.8,2.3,0.8c0.6,0,1.2-0.1,1.8-0.2s1.1-0.3,1.8-0.6v1.9
			c-0.6,0.3-1.1,0.5-1.7,0.6S275.4,300.4,274.6,300.4z M274.2,290.9c-0.7,0-1.3,0.2-1.8,0.7s-0.7,1.1-0.8,2h4.9c0-0.9-0.2-1.6-0.6-2
			S274.9,290.9,274.2,290.9z"/>
		<path class="st15" d="M286.2,300.4c-1.7,0-3-0.5-3.9-1.5s-1.4-2.3-1.4-4c0-1.8,0.4-3.2,1.3-4.2s2.1-1.5,3.6-1.5
			c1.4,0,2.6,0.4,3.4,1.3s1.2,2.1,1.2,3.6v1.2h-7.2c0,1,0.3,1.9,0.9,2.4c0.5,0.6,1.3,0.8,2.3,0.8c0.6,0,1.2-0.1,1.8-0.2
			c0.5-0.1,1.1-0.3,1.8-0.6v1.9c-0.6,0.3-1.1,0.5-1.7,0.6C287.5,300.3,286.9,300.4,286.2,300.4z M285.7,290.9
			c-0.7,0-1.3,0.2-1.8,0.7c-0.4,0.5-0.7,1.1-0.8,2h4.9c0-0.9-0.2-1.6-0.6-2C287,291.1,286.5,290.9,285.7,290.9z"/>
		<path class="st15" d="M295.3,300.2H293V285h2.3V300.2z"/>
		<path class="st15" d="M311,297.1c0,1.1-0.4,1.9-1.2,2.4c-0.8,0.6-1.9,0.8-3.3,0.8s-2.6-0.2-3.5-0.7v-2c1.3,0.6,2.5,0.9,3.5,0.9
			c1.4,0,2.1-0.4,2.1-1.3c0-0.3-0.1-0.5-0.2-0.7s-0.4-0.4-0.8-0.6s-0.9-0.4-1.5-0.7c-1.2-0.5-2.1-1-2.5-1.4s-0.7-1.1-0.7-1.9
			c0-0.9,0.4-1.6,1.1-2.2c0.7-0.5,1.8-0.8,3-0.8c1.3,0,2.5,0.3,3.6,0.8l-0.7,1.7c-1.2-0.5-2.1-0.7-2.9-0.7c-1.2,0-1.8,0.3-1.8,1
			c0,0.3,0.2,0.6,0.5,0.9c0.3,0.2,1,0.6,2.1,1c0.9,0.3,1.5,0.7,1.9,0.9c0.4,0.3,0.7,0.6,0.9,1S311,296.6,311,297.1z"/>
		<path class="st15" d="M317.5,298.5c0.6,0,1.1-0.1,1.7-0.3v1.7c-0.3,0.1-0.6,0.2-1,0.3s-0.8,0.1-1.2,0.1c-2.2,0-3.3-1.1-3.3-3.4
			v-5.8h-1.5v-1l1.6-0.8l0.8-2.3h1.4v2.4h3.1v1.7H316v5.8c0,0.6,0.1,1,0.4,1.2C316.7,298.4,317,298.5,317.5,298.5z"/>
		<path class="st15" d="M326.8,289.2c0.5,0,0.8,0,1.1,0.1l-0.2,2.1c-0.3-0.1-0.7-0.1-1-0.1c-0.9,0-1.7,0.3-2.2,0.9
			c-0.6,0.6-0.9,1.4-0.9,2.3v5.6h-2.3v-10.8h1.8l0.3,1.9h0.1c0.4-0.6,0.8-1.2,1.4-1.5S326.1,289.2,326.8,289.2z"/>
		<path class="st15" d="M337.6,300.2l-0.3-1.4h-0.1c-0.3,0.5-0.8,0.9-1.4,1.2c-0.6,0.3-1.3,0.4-2,0.4c-1.3,0-2.3-0.3-2.9-1
			s-1-1.6-1-3v-7.1h2.3v6.7c0,0.8,0.2,1.4,0.5,1.9c0.3,0.4,0.9,0.6,1.6,0.6c1,0,1.7-0.3,2.1-0.9c0.5-0.6,0.7-1.5,0.7-2.9v-5.4h2.3
			v10.8L337.6,300.2L337.6,300.2z"/>
		<path class="st15" d="M347,300.4c-1.6,0-2.9-0.5-3.7-1.4s-1.3-2.3-1.3-4.1c0-1.8,0.4-3.2,1.3-4.2s2.2-1.5,3.9-1.5
			c1.1,0,2.2,0.2,3.1,0.6l-0.7,1.8c-1-0.4-1.8-0.6-2.4-0.6c-1.9,0-2.8,1.2-2.8,3.7c0,1.2,0.2,2.1,0.7,2.7s1.1,0.9,2,0.9
			c1,0,2-0.3,2.9-0.8v2c-0.4,0.2-0.8,0.4-1.3,0.5C348.2,300.3,347.7,300.4,347,300.4z"/>
		<path class="st15" d="M356.6,298.5c0.6,0,1.1-0.1,1.7-0.3v1.7c-0.3,0.1-0.6,0.2-1,0.3s-0.8,0.1-1.2,0.1c-2.2,0-3.3-1.1-3.3-3.4
			v-5.8h-1.5v-1l1.6-0.8l0.8-2.3h1.4v2.4h3.1v1.7h-3.1v5.8c0,0.6,0.1,1,0.4,1.2C355.8,298.4,356.1,298.5,356.6,298.5z"/>
		<path class="st15" d="M368,300.2l-0.3-1.4h-0.1c-0.3,0.5-0.8,0.9-1.4,1.2c-0.6,0.3-1.3,0.4-2,0.4c-1.3,0-2.3-0.3-2.9-1s-1-1.6-1-3
			v-7.1h2.3v6.7c0,0.8,0.2,1.4,0.5,1.9c0.3,0.4,0.9,0.6,1.6,0.6c1,0,1.7-0.3,2.1-0.9c0.5-0.6,0.7-1.5,0.7-2.9v-5.4h2.3v10.8
			L368,300.2L368,300.2z"/>
		<path class="st15" d="M378.6,289.2c0.5,0,0.8,0,1.1,0.1l-0.2,2.1c-0.3-0.1-0.7-0.1-1-0.1c-0.9,0-1.7,0.3-2.2,0.9
			c-0.6,0.6-0.9,1.4-0.9,2.3v5.6h-2.3v-10.8h1.8l0.3,1.9h0.1c0.4-0.6,0.8-1.2,1.4-1.5S377.9,289.2,378.6,289.2z"/>
		<path class="st15" d="M386.4,300.4c-1.7,0-3-0.5-3.9-1.5s-1.4-2.3-1.4-4c0-1.8,0.4-3.2,1.3-4.2s2.1-1.5,3.6-1.5
			c1.4,0,2.6,0.4,3.4,1.3s1.2,2.1,1.2,3.6v1.2h-7.2c0,1,0.3,1.9,0.8,2.4c0.5,0.6,1.3,0.8,2.3,0.8c0.6,0,1.2-0.1,1.8-0.2
			c0.5-0.1,1.1-0.3,1.8-0.6v1.9c-0.6,0.3-1.1,0.5-1.7,0.6C387.8,300.3,387.2,300.4,386.4,300.4z M386,290.9c-0.7,0-1.3,0.2-1.8,0.7
			s-0.7,1.1-0.8,2h4.9c0-0.9-0.2-1.6-0.6-2C387.3,291.1,386.8,290.9,386,290.9z"/>
		<path class="st15" d="M392.9,298.9c0-0.5,0.1-0.8,0.4-1.1c0.2-0.3,0.6-0.4,1.1-0.4s0.8,0.1,1.1,0.4c0.2,0.3,0.4,0.6,0.4,1.1
			s-0.1,0.8-0.4,1.1c-0.3,0.3-0.6,0.4-1.1,0.4s-0.8-0.1-1.1-0.4C393,299.8,392.9,299.4,392.9,298.9z"/>
		<path class="st15" d="M409.1,300.2h-2.3v-12.3h-4.2v-2h10.7v2h-4.2V300.2z"/>
		<path class="st15" d="M413.6,289.4h2.5l2.2,6.1c0.3,0.9,0.6,1.7,0.7,2.5h0.1c0.1-0.4,0.2-0.8,0.3-1.3s1-2.9,2.5-7.3h2.5l-4.6,12.2
			c-0.8,2.2-2.2,3.4-4.2,3.4c-0.5,0-1-0.1-1.5-0.2V303c0.3,0.1,0.7,0.1,1.2,0.1c1.1,0,1.9-0.6,2.3-1.9l0.4-1L413.6,289.4z"/>
		<path class="st15" d="M431.5,300.4c-1.4,0-2.4-0.5-3.2-1.5h-0.1c0.1,0.9,0.1,1.5,0.1,1.7v4.4H426v-15.6h1.9
			c0.1,0.2,0.2,0.7,0.3,1.4h0.1c0.7-1.1,1.8-1.6,3.2-1.6c1.3,0,2.4,0.5,3.1,1.5s1.1,2.3,1.1,4.1s-0.4,3.1-1.1,4.1
			S432.8,300.4,431.5,300.4z M430.9,291c-0.9,0-1.6,0.3-2,0.8s-0.6,1.4-0.6,2.6v0.3c0,1.3,0.2,2.3,0.6,2.9s1.1,0.9,2,0.9
			c0.8,0,1.4-0.3,1.8-1s0.6-1.6,0.6-2.8c0-1.2-0.2-2.1-0.6-2.7C432.4,291.4,431.7,291,430.9,291z"/>
		<path class="st15" d="M438.3,286.5c0-0.4,0.1-0.7,0.3-0.9s0.5-0.3,1-0.3c0.4,0,0.7,0.1,0.9,0.3s0.3,0.5,0.3,0.9s-0.1,0.7-0.3,0.9
			s-0.5,0.3-0.9,0.3s-0.7-0.1-1-0.3S438.3,286.9,438.3,286.5z M440.7,300.2h-2.3v-10.8h2.3V300.2z"/>
		<path class="st15" d="M448.4,300.4c-1.6,0-2.9-0.5-3.7-1.4s-1.3-2.3-1.3-4.1c0-1.8,0.4-3.2,1.3-4.2s2.2-1.5,3.9-1.5
			c1.1,0,2.2,0.2,3.1,0.6l-0.7,1.8c-1-0.4-1.8-0.6-2.4-0.6c-1.9,0-2.8,1.2-2.8,3.7c0,1.2,0.2,2.1,0.7,2.7s1.1,0.9,2,0.9
			c1,0,2-0.3,2.9-0.8v2c-0.4,0.2-0.8,0.4-1.3,0.5C449.6,300.3,449,300.4,448.4,300.4z"/>
		<path class="st15" d="M460.7,300.2l-0.5-1.5h-0.1c-0.5,0.7-1,1.1-1.6,1.3s-1.2,0.4-2,0.4c-1.1,0-1.9-0.3-2.5-0.9s-0.9-1.4-0.9-2.4
			c0-1.1,0.4-2,1.2-2.5c0.8-0.6,2.1-0.9,3.8-0.9l1.9-0.1V293c0-0.7-0.2-1.2-0.5-1.5s-0.8-0.5-1.5-0.5c-0.6,0-1.1,0.1-1.6,0.2
			s-1,0.4-1.5,0.6l-0.7-1.6c0.6-0.3,1.2-0.5,1.9-0.7c0.7-0.2,1.4-0.2,2-0.2c1.4,0,2.4,0.3,3.1,0.9s1,1.5,1,2.8v7.3L460.7,300.2
			L460.7,300.2z M457.3,298.6c0.8,0,1.5-0.2,2-0.7s0.8-1.1,0.8-2V295l-1.4,0.1c-1.1,0-1.9,0.2-2.4,0.5s-0.7,0.8-0.7,1.5
			c0,0.5,0.1,0.9,0.4,1.1C456.3,298.5,456.7,298.6,457.3,298.6z"/>
		<path class="st15" d="M467.8,300.2h-2.3V285h2.3V300.2z"/>
		<path class="st15" d="M485.9,294.7c0,1.8-0.5,3.1-1.4,4.1s-2.2,1.5-3.8,1.5c-1,0-1.9-0.2-2.7-0.7c-0.8-0.5-1.4-1.1-1.8-2
			s-0.6-1.8-0.6-3c0-1.8,0.4-3.1,1.3-4.1s2.2-1.5,3.8-1.5c1.6,0,2.8,0.5,3.7,1.5C485.4,291.7,485.9,293,485.9,294.7z M478,294.7
			c0,2.5,0.9,3.7,2.8,3.7c1.8,0,2.7-1.2,2.7-3.7s-0.9-3.7-2.8-3.7c-1,0-1.7,0.3-2.1,1C478.2,292.6,478,293.6,478,294.7z"/>
		<path class="st15" d="M493.9,291.1h-2.6v9.1H489v-9.1h-1.8V290l1.8-0.7v-0.7c0-1.3,0.3-2.2,0.9-2.8c0.6-0.6,1.5-0.9,2.7-0.9
			c0.8,0,1.6,0.1,2.4,0.4l-0.6,1.7c-0.6-0.2-1.1-0.3-1.6-0.3s-0.9,0.2-1.1,0.5s-0.4,0.8-0.4,1.5v0.7h2.6V291.1z"/>
		<path class="st15" d="M94.5,324.2l-1.4-5c-0.2-0.5-0.5-1.8-0.9-3.7h-0.1c-0.4,1.8-0.7,3-0.9,3.7l-1.4,5h-2.5l-3-10.8h2.3l1.4,5.3
			c0.3,1.3,0.5,2.4,0.7,3.4h0.1c0.1-0.5,0.2-1,0.3-1.6s0.2-1.1,0.3-1.4l1.6-5.7h2.5l1.6,5.7c0.1,0.3,0.2,0.8,0.4,1.5
			s0.2,1.2,0.3,1.5h0.1c0.1-0.8,0.3-1.9,0.7-3.4l1.4-5.3h2.3l-3,10.8H94.5z"/>
		<path class="st15" d="M108.8,324.2l-0.5-1.5h-0.1c-0.5,0.7-1,1.1-1.6,1.3s-1.2,0.4-2,0.4c-1.1,0-1.9-0.3-2.5-0.9s-0.9-1.4-0.9-2.4
			c0-1.1,0.4-2,1.2-2.5s2.1-0.9,3.8-0.9l1.9-0.1V317c0-0.7-0.2-1.2-0.5-1.5s-0.8-0.5-1.5-0.5c-0.6,0-1.1,0.1-1.6,0.2s-1,0.4-1.5,0.6
			l-0.7-1.6c0.6-0.3,1.2-0.5,1.9-0.7s1.4-0.2,2-0.2c1.4,0,2.4,0.3,3.1,0.9s1,1.5,1,2.8v7.3L108.8,324.2L108.8,324.2z M105.3,322.6
			c0.8,0,1.5-0.2,2-0.7s0.8-1.1,0.8-2V319l-1.4,0.1c-1.1,0-1.9,0.2-2.4,0.5s-0.7,0.8-0.7,1.5c0,0.5,0.1,0.9,0.4,1.1
			S104.8,322.6,105.3,322.6z"/>
		<path class="st15" d="M119.1,313.2c0.5,0,0.8,0,1.1,0.1l-0.2,2.1c-0.3-0.1-0.7-0.1-1-0.1c-0.9,0-1.7,0.3-2.2,0.9s-0.9,1.4-0.9,2.3
			v5.6h-2.3v-10.8h1.8l0.3,1.9h0.1c0.4-0.6,0.8-1.2,1.4-1.5S118.4,313.2,119.1,313.2z"/>
		<path class="st15" d="M126.9,324.4c-1.7,0-3-0.5-3.9-1.5s-1.4-2.3-1.4-4c0-1.8,0.4-3.2,1.3-4.2s2.1-1.5,3.6-1.5
			c1.4,0,2.6,0.4,3.4,1.3s1.2,2.1,1.2,3.6v1.2h-7.2c0,1,0.3,1.9,0.8,2.4s1.3,0.8,2.3,0.8c0.6,0,1.2-0.1,1.8-0.2s1.1-0.3,1.8-0.6v1.9
			c-0.6,0.3-1.1,0.5-1.7,0.6S127.7,324.4,126.9,324.4z M126.5,314.9c-0.7,0-1.3,0.2-1.8,0.7s-0.7,1.1-0.8,2h4.9c0-0.9-0.2-1.6-0.6-2
			S127.3,314.9,126.5,314.9z"/>
		<path class="st15" d="M143.3,324.2H141v-6.6c0-0.8-0.2-1.5-0.5-1.9s-0.9-0.6-1.6-0.6c-1,0-1.7,0.3-2.1,0.9s-0.7,1.5-0.7,2.9v5.4
			h-2.3V309h2.3v3.9c0,0.6,0,1.3-0.1,2h0.1c0.3-0.5,0.7-0.9,1.3-1.2s1.2-0.4,1.9-0.4c2.6,0,3.9,1.3,3.9,4v6.9H143.3z"/>
		<path class="st15" d="M156,318.7c0,1.8-0.5,3.1-1.4,4.1s-2.2,1.5-3.8,1.5c-1,0-1.9-0.2-2.7-0.7s-1.4-1.1-1.8-2s-0.6-1.8-0.6-3
			c0-1.8,0.4-3.1,1.3-4.1s2.2-1.5,3.8-1.5s2.8,0.5,3.7,1.5S156,317,156,318.7z M148.2,318.7c0,2.5,0.9,3.7,2.8,3.7
			c1.8,0,2.7-1.2,2.7-3.7s-0.9-3.7-2.8-3.7c-1,0-1.7,0.3-2.1,1S148.2,317.6,148.2,318.7z"/>
		<path class="st15" d="M166.3,324.2l-0.3-1.4h-0.1c-0.3,0.5-0.8,0.9-1.4,1.2s-1.3,0.4-2,0.4c-1.3,0-2.3-0.3-2.9-1s-1-1.6-1-3v-7.1
			h2.3v6.7c0,0.8,0.2,1.4,0.5,1.9s0.9,0.6,1.6,0.6c1,0,1.7-0.3,2.1-0.9s0.7-1.5,0.7-2.9v-5.4h2.3v10.8L166.3,324.2L166.3,324.2z"/>
		<path class="st15" d="M178.6,321.1c0,1.1-0.4,1.9-1.2,2.4s-1.9,0.8-3.3,0.8c-1.4,0-2.6-0.2-3.5-0.7v-2c1.3,0.6,2.5,0.9,3.5,0.9
			c1.4,0,2.1-0.4,2.1-1.3c0-0.3-0.1-0.5-0.2-0.7s-0.4-0.4-0.8-0.6s-0.9-0.4-1.5-0.7c-1.2-0.5-2.1-1-2.5-1.4s-0.7-1.1-0.7-1.9
			c0-0.9,0.4-1.6,1.1-2.2s1.8-0.8,3-0.8c1.3,0,2.5,0.3,3.6,0.8l-0.7,1.7c-1.2-0.5-2.1-0.7-2.9-0.7c-1.2,0-1.8,0.3-1.8,1
			c0,0.3,0.2,0.6,0.5,0.9s1,0.6,2.1,1c0.9,0.3,1.5,0.7,1.9,0.9s0.7,0.6,0.9,1S178.6,320.6,178.6,321.1z"/>
		<path class="st15" d="M185.8,324.4c-1.7,0-3-0.5-3.9-1.5s-1.4-2.3-1.4-4c0-1.8,0.4-3.2,1.3-4.2s2.1-1.5,3.6-1.5
			c1.4,0,2.6,0.4,3.4,1.3s1.2,2.1,1.2,3.6v1.2h-7.2c0,1,0.3,1.9,0.8,2.4s1.3,0.8,2.3,0.8c0.6,0,1.2-0.1,1.8-0.2s1.1-0.3,1.8-0.6v1.9
			c-0.6,0.3-1.1,0.5-1.7,0.6S186.5,324.4,185.8,324.4z M185.4,314.9c-0.7,0-1.3,0.2-1.8,0.7s-0.7,1.1-0.8,2h4.9c0-0.9-0.2-1.6-0.6-2
			S186.1,314.9,185.4,314.9z"/>
		<path class="st15" d="M199.9,321.1c0,1.1-0.4,1.9-1.2,2.4s-1.9,0.8-3.3,0.8c-1.4,0-2.6-0.2-3.5-0.7v-2c1.3,0.6,2.5,0.9,3.5,0.9
			c1.4,0,2.1-0.4,2.1-1.3c0-0.3-0.1-0.5-0.2-0.7s-0.4-0.4-0.8-0.6s-0.9-0.4-1.5-0.7c-1.2-0.5-2.1-1-2.5-1.4s-0.7-1.1-0.7-1.9
			c0-0.9,0.4-1.6,1.1-2.2s1.8-0.8,3-0.8c1.3,0,2.5,0.3,3.6,0.8l-0.7,1.7c-1.2-0.5-2.1-0.7-2.9-0.7c-1.2,0-1.8,0.3-1.8,1
			c0,0.3,0.2,0.6,0.5,0.9s1,0.6,2.1,1c0.9,0.3,1.5,0.7,1.9,0.9s0.7,0.6,0.9,1S199.9,320.6,199.9,321.1z"/>
		<path class="st15" d="M214.3,324.2l-0.5-1.5h-0.1c-0.5,0.7-1,1.1-1.6,1.3s-1.2,0.4-2,0.4c-1.1,0-1.9-0.3-2.5-0.9s-0.9-1.4-0.9-2.4
			c0-1.1,0.4-2,1.2-2.5s2.1-0.9,3.8-0.9l1.9-0.1V317c0-0.7-0.2-1.2-0.5-1.5s-0.8-0.5-1.5-0.5c-0.6,0-1.1,0.1-1.6,0.2s-1,0.4-1.5,0.6
			l-0.7-1.6c0.6-0.3,1.2-0.5,1.9-0.7s1.4-0.2,2-0.2c1.4,0,2.4,0.3,3.1,0.9s1,1.5,1,2.8v7.3L214.3,324.2L214.3,324.2z M210.9,322.6
			c0.8,0,1.5-0.2,2-0.7s0.8-1.1,0.8-2V319l-1.4,0.1c-1.1,0-1.9,0.2-2.4,0.5s-0.7,0.8-0.7,1.5c0,0.5,0.1,0.9,0.4,1.1
			S210.3,322.6,210.9,322.6z"/>
		<path class="st15" d="M228.7,324.2h-2.3v-6.6c0-0.8-0.2-1.5-0.5-1.9s-0.9-0.6-1.6-0.6c-1,0-1.7,0.3-2.1,0.9s-0.7,1.5-0.7,2.9v5.4
			h-2.3v-10.8h1.8l0.3,1.4h0.1c0.3-0.5,0.8-0.9,1.4-1.2s1.3-0.4,2-0.4c2.6,0,3.9,1.3,3.9,4L228.7,324.2L228.7,324.2z"/>
		<path class="st15" d="M235.5,324.4c-1.3,0-2.4-0.5-3.2-1.5s-1.1-2.3-1.1-4.1c0-1.8,0.4-3.1,1.1-4.1s1.8-1.5,3.2-1.5
			s2.5,0.5,3.2,1.6h0.1c-0.1-0.8-0.2-1.4-0.2-1.8v-4h2.3v15.2h-1.8l-0.4-1.4h-0.1C238,323.8,236.9,324.4,235.5,324.4z M236.1,322.5
			c0.9,0,1.6-0.3,2.1-0.8s0.7-1.4,0.7-2.6v-0.3c0-1.4-0.2-2.3-0.7-2.9s-1.1-0.9-2.1-0.9c-0.8,0-1.4,0.3-1.9,1s-0.7,1.6-0.7,2.8
			c0,1.2,0.2,2.1,0.6,2.7S235.3,322.5,236.1,322.5z"/>
		<path class="st15" d="M258.6,324.2h-2.3v-6.7c0-0.8-0.2-1.4-0.5-1.9s-0.8-0.6-1.5-0.6c-0.9,0-1.5,0.3-1.9,0.9s-0.6,1.5-0.6,2.9
			v5.4h-2.3v-10.8h1.8l0.3,1.4h0.1c0.3-0.5,0.7-0.9,1.3-1.2s1.2-0.4,1.9-0.4c1.7,0,2.8,0.6,3.3,1.7h0.2c0.3-0.5,0.8-1,1.3-1.2
			s1.2-0.4,2-0.4c1.3,0,2.2,0.3,2.8,1s0.9,1.6,0.9,3v7h-2.3v-6.7c0-0.8-0.2-1.4-0.5-1.9s-0.8-0.6-1.5-0.6c-0.9,0-1.5,0.3-2,0.8
			s-0.6,1.4-0.6,2.6v5.7H258.6z"/>
		<path class="st15" d="M275.4,324.2l-0.5-1.5h-0.1c-0.5,0.7-1,1.1-1.6,1.3s-1.2,0.4-2,0.4c-1.1,0-1.9-0.3-2.5-0.9s-0.9-1.4-0.9-2.4
			c0-1.1,0.4-2,1.2-2.5s2.1-0.9,3.8-0.9l1.9-0.1V317c0-0.7-0.2-1.2-0.5-1.5s-0.8-0.5-1.5-0.5c-0.6,0-1.1,0.1-1.6,0.2s-1,0.4-1.5,0.6
			l-0.7-1.6c0.6-0.3,1.2-0.5,1.9-0.7s1.4-0.2,2-0.2c1.4,0,2.4,0.3,3.1,0.9s1,1.5,1,2.8v7.3L275.4,324.2L275.4,324.2z M272,322.6
			c0.8,0,1.5-0.2,2-0.7s0.8-1.1,0.8-2V319l-1.4,0.1c-1.1,0-1.9,0.2-2.4,0.5s-0.7,0.8-0.7,1.5c0,0.5,0.1,0.9,0.4,1.1
			S271.4,322.6,272,322.6z"/>
		<path class="st15" d="M289.7,324.2h-2.3v-6.6c0-0.8-0.2-1.5-0.5-1.9s-0.9-0.6-1.6-0.6c-1,0-1.7,0.3-2.1,0.9s-0.7,1.5-0.7,2.9v5.4
			h-2.3v-10.8h1.8l0.3,1.4h0.1c0.3-0.5,0.8-0.9,1.4-1.2s1.3-0.4,2-0.4c2.6,0,3.9,1.3,3.9,4L289.7,324.2L289.7,324.2z"/>
		<path class="st15" d="M300.5,324.2l-0.3-1.4h-0.1c-0.3,0.5-0.8,0.9-1.4,1.2c-0.6,0.3-1.3,0.4-2,0.4c-1.3,0-2.3-0.3-2.9-1
			s-1-1.6-1-3v-7.1h2.3v6.7c0,0.8,0.2,1.4,0.5,1.9c0.3,0.4,0.9,0.6,1.6,0.6c1,0,1.7-0.3,2.1-0.9c0.5-0.6,0.7-1.5,0.7-2.9v-5.4h2.3
			v10.8L300.5,324.2L300.5,324.2z"/>
		<path class="st15" d="M311,315.1h-2.6v9.1h-2.3v-9.1h-1.8V314l1.8-0.7v-0.7c0-1.3,0.3-2.2,0.9-2.8c0.6-0.6,1.5-0.9,2.7-0.9
			c0.8,0,1.6,0.1,2.4,0.4l-0.6,1.7c-0.6-0.2-1.1-0.3-1.6-0.3s-0.9,0.2-1.1,0.5s-0.4,0.8-0.4,1.5v0.7h2.6V315.1z"/>
		<path class="st15" d="M319.6,324.2l-0.5-1.5H319c-0.5,0.7-1,1.1-1.6,1.3s-1.2,0.4-2,0.4c-1.1,0-1.9-0.3-2.5-0.9s-0.9-1.4-0.9-2.4
			c0-1.1,0.4-2,1.2-2.5c0.8-0.6,2.1-0.9,3.8-0.9l1.9-0.1V317c0-0.7-0.2-1.2-0.5-1.5s-0.8-0.5-1.5-0.5c-0.6,0-1.1,0.1-1.6,0.2
			s-1,0.4-1.5,0.6l-0.7-1.6c0.6-0.3,1.2-0.5,1.9-0.7c0.7-0.2,1.4-0.2,2-0.2c1.4,0,2.4,0.3,3.1,0.9s1,1.5,1,2.8v7.3L319.6,324.2
			L319.6,324.2z M316.2,322.6c0.8,0,1.5-0.2,2-0.7s0.8-1.1,0.8-2V319l-1.4,0.1c-1.1,0-1.9,0.2-2.4,0.5s-0.7,0.8-0.7,1.5
			c0,0.5,0.1,0.9,0.4,1.1C315.2,322.5,315.6,322.6,316.2,322.6z"/>
		<path class="st15" d="M328.8,324.4c-1.6,0-2.9-0.5-3.7-1.4s-1.3-2.3-1.3-4.1c0-1.8,0.4-3.2,1.3-4.2s2.2-1.5,3.9-1.5
			c1.1,0,2.2,0.2,3.1,0.6l-0.7,1.8c-1-0.4-1.8-0.6-2.4-0.6c-1.9,0-2.8,1.2-2.8,3.7c0,1.2,0.2,2.1,0.7,2.7s1.1,0.9,2,0.9
			c1,0,2-0.3,2.9-0.8v2c-0.4,0.2-0.8,0.4-1.3,0.5C330.1,324.3,329.5,324.4,328.8,324.4z"/>
		<path class="st15" d="M338.4,322.5c0.6,0,1.1-0.1,1.7-0.3v1.7c-0.3,0.1-0.6,0.2-1,0.3s-0.8,0.1-1.2,0.1c-2.2,0-3.3-1.1-3.3-3.4
			v-5.8h-1.5v-1l1.6-0.8l0.8-2.3h1.4v2.4h3.1v1.7h-3.1v5.8c0,0.6,0.1,1,0.4,1.2C337.6,322.4,338,322.5,338.4,322.5z"/>
		<path class="st15" d="M349.9,324.2l-0.3-1.4h-0.1c-0.3,0.5-0.8,0.9-1.4,1.2c-0.6,0.3-1.3,0.4-2,0.4c-1.3,0-2.3-0.3-2.9-1
			s-1-1.6-1-3v-7.1h2.3v6.7c0,0.8,0.2,1.4,0.5,1.9c0.3,0.4,0.9,0.6,1.6,0.6c1,0,1.7-0.3,2.1-0.9c0.5-0.6,0.7-1.5,0.7-2.9v-5.4h2.3
			v10.8L349.9,324.2L349.9,324.2z"/>
		<path class="st15" d="M360.4,313.2c0.5,0,0.8,0,1.1,0.1l-0.2,2.1c-0.3-0.1-0.7-0.1-1-0.1c-0.9,0-1.7,0.3-2.2,0.9
			c-0.6,0.6-0.9,1.4-0.9,2.3v5.6h-2.3v-10.8h1.8l0.3,1.9h0.1c0.4-0.6,0.8-1.2,1.4-1.5S359.7,313.2,360.4,313.2z"/>
		<path class="st15" d="M363.4,310.5c0-0.4,0.1-0.7,0.3-0.9s0.5-0.3,1-0.3c0.4,0,0.7,0.1,0.9,0.3s0.3,0.5,0.3,0.9s-0.1,0.7-0.3,0.9
			s-0.5,0.3-0.9,0.3s-0.7-0.1-1-0.3S363.4,310.9,363.4,310.5z M365.9,324.2h-2.3v-10.8h2.3V324.2z"/>
		<path class="st15" d="M378.6,324.2h-2.3v-6.6c0-0.8-0.2-1.5-0.5-1.9s-0.9-0.6-1.6-0.6c-1,0-1.7,0.3-2.1,0.9s-0.7,1.5-0.7,2.9v5.4
			h-2.3v-10.8h1.8l0.3,1.4h0.1c0.3-0.5,0.8-0.9,1.4-1.2c0.6-0.3,1.3-0.4,2-0.4c2.6,0,3.9,1.3,3.9,4L378.6,324.2L378.6,324.2z"/>
		<path class="st15" d="M390.9,313.4v1.3l-1.8,0.3c0.2,0.2,0.3,0.5,0.4,0.8s0.2,0.7,0.2,1.1c0,1.1-0.4,2-1.2,2.6
			c-0.8,0.6-1.8,1-3.2,1c-0.3,0-0.7,0-0.9-0.1c-0.5,0.3-0.7,0.7-0.7,1.1c0,0.2,0.1,0.4,0.3,0.6c0.2,0.1,0.7,0.2,1.3,0.2h1.9
			c1.2,0,2.1,0.3,2.7,0.8s0.9,1.2,0.9,2.2c0,1.2-0.5,2.2-1.5,2.8c-1,0.7-2.5,1-4.4,1c-1.5,0-2.6-0.3-3.4-0.8s-1.2-1.3-1.2-2.2
			c0-0.7,0.2-1.2,0.6-1.7s1-0.8,1.8-0.9c-0.3-0.1-0.6-0.3-0.8-0.6c-0.2-0.3-0.3-0.6-0.3-0.9c0-0.4,0.1-0.7,0.3-1
			c0.2-0.3,0.6-0.6,1-0.8c-0.6-0.2-1-0.6-1.4-1.2c-0.3-0.5-0.5-1.2-0.5-1.9c0-1.2,0.4-2.1,1.1-2.7s1.8-1,3.2-1c0.3,0,0.6,0,1,0.1
			c0.3,0,0.6,0.1,0.8,0.1h3.8V313.4z M382.5,325.8c0,0.5,0.2,0.9,0.7,1.1c0.4,0.3,1.1,0.4,1.9,0.4c1.2,0,2.2-0.2,2.8-0.5
			c0.6-0.4,0.9-0.8,0.9-1.4c0-0.5-0.2-0.8-0.5-1s-1-0.3-1.9-0.3h-1.7c-0.7,0-1.2,0.2-1.6,0.5C382.7,324.9,382.5,325.3,382.5,325.8z
			 M383.4,316.9c0,0.7,0.2,1.2,0.5,1.6s0.8,0.5,1.5,0.5c1.3,0,2-0.7,2-2.1c0-0.7-0.2-1.2-0.5-1.6s-0.8-0.6-1.5-0.6s-1.2,0.2-1.5,0.6
			S383.4,316.1,383.4,316.9z"/>
		<path class="st15" d="M403.6,315.1H401v9.1h-2.3v-9.1h-1.8V314l1.8-0.7v-0.7c0-1.3,0.3-2.2,0.9-2.8c0.6-0.6,1.5-0.9,2.7-0.9
			c0.8,0,1.6,0.1,2.4,0.4L404,311c-0.6-0.2-1.1-0.3-1.6-0.3s-0.9,0.2-1.1,0.5s-0.4,0.8-0.4,1.5v0.7h2.6v1.7H403.6z"/>
		<path class="st15" d="M412.2,324.2l-0.5-1.5h-0.1c-0.5,0.7-1,1.1-1.6,1.3s-1.2,0.4-2,0.4c-1.1,0-1.9-0.3-2.5-0.9s-0.9-1.4-0.9-2.4
			c0-1.1,0.4-2,1.2-2.5c0.8-0.6,2.1-0.9,3.8-0.9l1.9-0.1V317c0-0.7-0.2-1.2-0.5-1.5s-0.8-0.5-1.5-0.5c-0.6,0-1.1,0.1-1.6,0.2
			s-1,0.4-1.5,0.6l-0.7-1.6c0.6-0.3,1.2-0.5,1.9-0.7c0.7-0.2,1.4-0.2,2-0.2c1.4,0,2.4,0.3,3.1,0.9s1,1.5,1,2.8v7.3L412.2,324.2
			L412.2,324.2z M408.7,322.6c0.8,0,1.5-0.2,2-0.7s0.8-1.1,0.8-2V319l-1.4,0.1c-1.1,0-1.9,0.2-2.4,0.5s-0.7,0.8-0.7,1.5
			c0,0.5,0.1,0.9,0.4,1.1C407.7,322.5,408.2,322.6,408.7,322.6z"/>
		<path class="st15" d="M421.4,324.4c-1.6,0-2.9-0.5-3.7-1.4s-1.3-2.3-1.3-4.1c0-1.8,0.4-3.2,1.3-4.2s2.2-1.5,3.9-1.5
			c1.1,0,2.2,0.2,3.1,0.6l-0.7,1.8c-1-0.4-1.8-0.6-2.4-0.6c-1.9,0-2.8,1.2-2.8,3.7c0,1.2,0.2,2.1,0.7,2.7s1.1,0.9,2,0.9
			c1,0,2-0.3,2.9-0.8v2c-0.4,0.2-0.8,0.4-1.3,0.5C422.6,324.3,422,324.4,421.4,324.4z"/>
		<path class="st15" d="M426.8,310.5c0-0.4,0.1-0.7,0.3-0.9s0.5-0.3,1-0.3c0.4,0,0.7,0.1,0.9,0.3s0.3,0.5,0.3,0.9s-0.1,0.7-0.3,0.9
			s-0.5,0.3-0.9,0.3s-0.7-0.1-1-0.3S426.8,310.9,426.8,310.5z M429.2,324.2h-2.3v-10.8h2.3V324.2z"/>
		<path class="st15" d="M434.8,324.2h-2.3V309h2.3V324.2z"/>
		<path class="st15" d="M437.9,310.5c0-0.4,0.1-0.7,0.3-0.9s0.5-0.3,1-0.3c0.4,0,0.7,0.1,0.9,0.3s0.3,0.5,0.3,0.9s-0.1,0.7-0.3,0.9
			s-0.5,0.3-0.9,0.3s-0.7-0.1-1-0.3S437.9,310.9,437.9,310.5z M440.4,324.2h-2.3v-10.8h2.3V324.2z"/>
		<path class="st15" d="M447.7,322.5c0.6,0,1.1-0.1,1.7-0.3v1.7c-0.3,0.1-0.6,0.2-1,0.3s-0.8,0.1-1.2,0.1c-2.2,0-3.3-1.1-3.3-3.4
			v-5.8h-1.5v-1l1.6-0.8l0.8-2.3h1.4v2.4h3.1v1.7h-3.1v5.8c0,0.6,0.1,1,0.4,1.2C446.8,322.4,447.2,322.5,447.7,322.5z"/>
		<path class="st15" d="M451.4,310.5c0-0.4,0.1-0.7,0.3-0.9s0.5-0.3,1-0.3c0.4,0,0.7,0.1,0.9,0.3s0.3,0.5,0.3,0.9s-0.1,0.7-0.3,0.9
			s-0.5,0.3-0.9,0.3s-0.7-0.1-1-0.3S451.4,310.9,451.4,310.5z M453.8,324.2h-2.3v-10.8h2.3V324.2z"/>
		<path class="st15" d="M461.8,324.4c-1.7,0-3-0.5-3.9-1.5s-1.4-2.3-1.4-4c0-1.8,0.4-3.2,1.3-4.2s2.1-1.5,3.6-1.5
			c1.4,0,2.6,0.4,3.4,1.3s1.2,2.1,1.2,3.6v1.2h-7.2c0,1,0.3,1.9,0.8,2.4c0.5,0.6,1.3,0.8,2.3,0.8c0.6,0,1.2-0.1,1.8-0.2
			c0.5-0.1,1.1-0.3,1.8-0.6v1.9c-0.6,0.3-1.1,0.5-1.7,0.6C463.2,324.3,462.5,324.4,461.8,324.4z M461.4,314.9
			c-0.7,0-1.3,0.2-1.8,0.7s-0.7,1.1-0.8,2h4.9c0-0.9-0.2-1.6-0.6-2C462.7,315.1,462.1,314.9,461.4,314.9z"/>
		<path class="st15" d="M475.9,321.1c0,1.1-0.4,1.9-1.2,2.4c-0.8,0.6-1.9,0.8-3.3,0.8s-2.6-0.2-3.5-0.7v-2c1.3,0.6,2.5,0.9,3.5,0.9
			c1.4,0,2.1-0.4,2.1-1.3c0-0.3-0.1-0.5-0.2-0.7s-0.4-0.4-0.8-0.6s-0.9-0.4-1.5-0.7c-1.2-0.5-2.1-1-2.5-1.4s-0.7-1.1-0.7-1.9
			c0-0.9,0.4-1.6,1.1-2.2c0.7-0.5,1.8-0.8,3-0.8c1.3,0,2.5,0.3,3.6,0.8l-0.7,1.7c-1.2-0.5-2.1-0.7-2.9-0.7c-1.2,0-1.8,0.3-1.8,1
			c0,0.3,0.2,0.6,0.5,0.9c0.3,0.2,1,0.6,2.1,1c0.9,0.3,1.5,0.7,1.9,0.9c0.4,0.3,0.7,0.6,0.9,1S475.9,320.6,475.9,321.1z"/>
		<path class="st15" d="M478,322.9c0-0.5,0.1-0.8,0.4-1.1c0.2-0.3,0.6-0.4,1.1-0.4s0.8,0.1,1.1,0.4c0.2,0.3,0.4,0.6,0.4,1.1
			s-0.1,0.8-0.4,1.1c-0.3,0.3-0.6,0.4-1.1,0.4s-0.8-0.1-1.1-0.4C478.1,323.8,478,323.4,478,322.9z"/>
	</g>
</g>
</svg>
